<svg width="949" height="765" viewBox="0 0 949 765" fill="none" xmlns="http://www.w3.org/2000/svg">
<g clip-path="url(#clip0_209_2368)">
<path d="M313.242 605.786C285.862 615.804 276.748 601.976 285.744 645.07C276.945 643.459 262.881 649.548 254.318 652.926C249.093 642.595 274.588 632.892 266.142 627.353C256.989 621.303 223.009 610.815 211.106 609.715C181.487 592.116 122.483 562.221 107.242 530.913C104.963 526.238 99.5813 497.208 101.074 495.794C102.135 494.811 127.355 492.258 129.79 492.612C162.002 497.247 227.88 574.203 252.275 597.89C259.974 592.744 256.36 592.234 255.614 586.93C253.139 568.742 238.29 548.551 234.872 532.877C230.944 514.807 228.037 469.081 252.864 464.642C277.691 460.203 288.101 562.103 289.79 580.449C291.479 598.794 273.998 608.104 313.203 605.786H313.242Z" fill="#A3CC6B"/>
<path d="M419.306 566.503C419.541 566.896 424.845 564.499 427.555 568.821C431.051 574.399 430.344 589.326 431.091 590.112C434.194 593.176 450.614 585.477 454.66 586.184C461.771 587.402 466.288 602.761 470.688 607.514C473.124 610.146 479.645 609.243 485.341 616.432C491.901 624.72 498.5 646.169 493.983 656.893C492.844 657.679 492.451 664.711 489.033 667.736C486.087 670.328 478.505 666.675 478.309 670.564C478.113 675.081 502.115 722.811 513.546 717.979C514.999 717.35 528.945 697.473 529.338 696.177C548.861 713.854 570.978 660.39 568.621 652.965C566.303 634.62 544.894 645.658 568.621 633.324C596.591 618.789 585.67 610.579 592.191 582.255C596.983 581.195 599.301 573.927 605.901 574.36C610.104 574.635 606.765 579.859 607.904 582.255C609.358 585.359 608.847 590.033 611.832 594.04C601.815 593.569 575.81 651.315 576.478 654.851C581.702 683.645 613.364 616.746 615.761 613.682C610.379 628.61 640.823 638.037 648.876 637.409C650.291 637.291 653.001 619.653 670.757 637.252C667.968 650.962 653.276 645.462 650.919 647.151C644.32 651.983 640.902 681.21 623.617 680.463C610.418 652.651 615.25 663.964 592.191 676.535C573.217 686.866 541.005 703.915 541.201 729.724C541.28 741.549 572.628 731.571 584.334 739.388C587.241 741.313 585.631 756.24 600.047 751.173C597.533 755.141 594.666 758.951 592.191 762.958C572.785 762.251 558.172 754.866 555.029 754.669C542.026 753.883 517.317 762.329 497.911 762.958C502.665 719.314 475.913 695.234 458.628 660.822C443.701 631.124 424.098 599.658 419.345 566.542L419.306 566.503Z" fill="#769448"/>
<path d="M419.305 621.499C427.79 633.048 436.943 651.001 445.546 659.918C451.792 666.4 449.828 666.203 458.588 660.782C475.873 695.194 502.625 719.275 497.872 762.918C489.544 763.193 482.983 758.99 482.158 758.99C505.296 748.659 453.246 684.234 448.768 684.431C446.804 684.509 441.893 693.544 438.947 694.134C433.919 695.116 431.719 692.17 431.09 692.248C397.071 660.036 426.455 673.746 429.244 668.914C442.875 645.344 420.091 656.54 409.681 656.618C405.517 656.618 400.646 652.886 399.664 653.004C404.535 635.68 385.05 639.687 375.897 642.987C357.12 649.783 354.999 675.71 332.882 676.574C330.8 668.953 291.674 646.208 285.743 645.148C276.747 602.054 285.86 615.882 313.241 605.864C348.439 592.94 331.782 587.716 342.86 570.706C344.589 568.074 355.47 557.075 360.381 550.868C362.816 547.843 364.427 540.222 368.277 544.936C386.386 567.917 397.267 598.518 413.727 621.892C416.359 625.624 419.148 621.342 419.345 621.578L419.305 621.499Z" fill="#A3CC6B"/>
<path d="M812.139 617.571C812.886 634.659 830.681 637.016 833.666 641.102C835.002 642.909 850.126 680.817 850.44 683.056C852.444 696.845 831.702 722.772 835.709 739.349C818.503 732.553 816.421 720.179 800.393 715.818C806.914 815.48 754.668 739.31 733.573 700.066C732.63 698.337 726.502 697.395 725.677 693.309C725.009 690.009 728.859 684.392 728.466 679.089C728.112 674.61 720.374 672.528 723.438 664.829C729.802 648.841 745.24 657.286 746.89 656.619C752.625 654.34 768.378 640.395 768.928 633.285C780.83 630.849 800.158 622.482 812.139 617.571Z" fill="#A3CC6B"/>
<path d="M246.461 656.854C245.676 671.546 267.871 666.871 281.816 672.568C282.327 683.449 263.903 691.266 262.999 693.034C260.171 698.651 264.178 707.53 261.546 711.301C260.76 712.401 240.137 716.29 238.605 725.639C237.898 729.803 265.16 730.589 265.985 737.385C266.142 738.72 253.414 753.569 262.135 762.958C250.822 762.879 186.712 765.276 183.569 762.919C181.801 761.622 207.414 733.613 199.282 723.675C189.697 732.749 141.3 697.866 140.593 693.702C138.668 682.545 158.781 681.445 163.927 668.639C193.861 678.774 215.467 687.299 246.343 670.603C230.041 654.065 240.53 659.958 246.422 656.854H246.461Z" fill="#A3CC6B"/>
<path d="M768.928 633.284C768.378 640.394 752.625 654.34 746.89 656.618C745.24 657.286 729.802 648.84 723.438 664.828C720.374 672.567 728.113 674.61 728.466 679.088C728.859 684.352 725.049 690.009 725.677 693.309C726.502 697.394 732.63 698.337 733.573 700.065C725.324 698.298 699.436 711.654 698.257 717.782C697.59 721.16 713.539 722.967 713.971 723.714C714.324 724.342 709.65 732.277 709.925 737.306C710.2 742.334 714.953 753.844 713.971 755.062C708.157 762.329 636.387 762.997 623.58 762.958C617.963 737.07 668.992 721.278 643.222 696.176C656.853 682.113 673.234 682.977 693.229 670.053C700.064 665.653 740.605 630.573 745.358 629.395C746.536 629.12 760.011 635.169 768.928 633.323V633.284Z" fill="#A3CC6B"/>
<path d="M399.667 652.926C400.688 652.808 405.559 656.579 409.684 656.54C420.094 656.461 442.878 645.266 429.247 668.836C426.458 673.667 397.035 659.997 431.093 692.17C409.566 694.566 422.215 705.212 413.652 706.94C410.509 707.569 401.159 701.205 396.131 704.269C394.56 705.212 390.553 722.3 391.81 723.557C392.399 724.186 410.98 721.318 403.556 731.335C402.927 732.16 388.667 735.735 387.843 745.241C387.764 746.302 407.17 748.738 387.882 758.912C368.751 757.223 341.921 762.762 317.172 762.84C302.048 745.477 327.307 734.988 313.244 711.811C337.285 722.457 325.461 704.701 330.961 703.876C340.074 702.501 340.349 722.614 356.062 700.655C360.069 695.038 363.055 696.962 356.455 688.202C361.523 686.513 379.475 679.089 381.989 676.378C388.864 669.071 383.6 654.576 399.667 652.847V652.926Z" fill="#A3CC6B"/>
<path d="M482.16 758.99C446.334 759.776 424.414 762.211 387.881 758.99C407.169 748.816 387.724 746.38 387.841 745.319C388.706 735.774 402.926 732.238 403.555 731.413C410.979 721.396 392.437 724.224 391.809 723.635C390.552 722.378 394.559 705.29 396.13 704.347C401.119 701.283 410.508 707.647 413.65 707.018C422.214 705.29 409.604 694.644 431.092 692.248C431.721 692.169 433.92 695.116 438.949 694.134C441.895 693.544 446.805 684.509 448.769 684.431C453.248 684.234 505.298 748.659 482.16 758.99Z" fill="#A3CC6B"/>
<path d="M336.812 688.281C342.508 687.338 352.093 689.734 356.454 688.281C363.053 697.002 360.068 695.116 356.061 700.734C340.387 722.693 340.112 702.58 330.959 703.955C325.459 704.78 337.283 722.536 313.242 711.89C327.305 735.067 302.046 745.556 317.17 762.919C298.864 762.958 280.48 763.037 262.174 762.919C253.453 753.53 266.181 738.72 266.024 737.346C265.199 730.55 237.936 729.764 238.643 725.6C240.215 716.25 260.799 712.361 261.585 711.262C264.217 707.49 260.21 698.612 263.038 692.995C263.942 691.227 282.326 683.41 281.855 672.528C291.872 676.653 317.603 695.077 320.038 695.666C328.798 697.709 333.119 688.87 336.851 688.242L336.812 688.281Z" fill="#A3CC6B"/>
<path d="M211.105 609.714C223.007 610.775 257.027 621.303 266.14 627.352C274.547 632.93 249.091 642.633 254.316 652.926C251.645 653.986 249.013 655.518 246.459 656.854C240.567 659.957 230.078 654.065 246.381 670.603C215.504 687.298 193.899 678.774 163.965 668.639C164.633 666.95 163.061 661.411 163.965 660.782C170.054 656.54 208.198 667.775 215.033 654.85C221.868 641.926 185.099 640.159 175.789 637.173C182.664 620.831 205.055 633.088 207.216 609.714C208.512 609.753 209.848 609.596 211.144 609.714H211.105Z" fill="#A3CC6B"/>
<path d="M207.178 609.714C205.017 633.088 182.626 620.831 175.751 637.173C185.061 640.159 221.516 642.555 214.995 654.851C208.16 667.775 170.016 656.54 163.927 660.782C163.063 661.372 164.634 666.95 163.927 668.639C146.642 662.786 128.611 662.275 116.473 643.301C109.716 632.734 136.468 614.35 139.218 613.76C146.446 612.15 197.121 609.321 207.099 609.714H207.178Z" fill="#A3CC6B"/>
<path d="M623.578 762.919C613.129 762.919 602.561 763.312 592.151 762.919C594.626 758.912 597.494 755.101 600.008 751.134C613.836 729.45 627.585 734.792 631.435 703.994C634.695 701.087 640.47 698.966 643.219 696.137C668.989 721.239 617.96 737.031 623.578 762.919Z" fill="#A3CC6B"/>
<path d="M717.858 601.858C722.14 605.943 728.778 609.754 733.571 613.643C739.385 618.357 748.97 614.586 745.356 629.356C740.603 630.535 700.102 665.614 693.227 670.014C673.193 682.938 656.851 682.074 643.22 696.137C640.47 698.966 634.695 701.087 631.435 703.994C631.71 701.912 624.757 682.899 623.578 680.424C640.863 681.21 644.28 651.944 650.88 647.112C653.237 645.384 667.929 650.883 670.718 637.213L717.858 601.858Z" fill="#A3CC6B"/>
<path d="M497.873 566.503C516.061 568.349 530.281 579.074 552.869 582.216L560.687 605.747C508.322 593.333 540.809 625.86 568.582 633.284C544.855 645.619 566.265 634.581 568.582 652.926C564.772 640.945 541.084 644.205 533.228 645.069C505.454 648.173 520.382 648.998 506.986 656.147C502.98 658.268 495.202 656.029 493.944 656.854C498.501 646.13 491.862 624.642 485.302 616.393C479.606 609.204 473.085 610.107 470.65 607.475C466.289 602.722 461.732 587.362 454.622 586.145C458.433 581.431 457.254 575.302 458.55 570.431C459.179 568.035 461.811 565.325 462.479 562.575C480.235 575.46 488.956 565.6 497.834 566.503H497.873Z" fill="#A3CC6B"/>
<path d="M592.152 676.496C615.211 663.925 610.379 652.611 623.578 680.424C624.757 682.899 631.71 701.912 631.435 703.994C627.585 734.792 613.836 729.449 600.008 751.134C585.591 756.201 587.202 741.273 584.295 739.349C601.187 728.231 578.088 717.821 580.052 706.311C580.367 704.544 600.637 695.037 592.152 676.496Z" fill="#A3CC6B"/>
<path d="M533.227 645.069C530.791 660.743 533.345 681.485 529.299 696.137C528.945 697.434 514.96 717.35 513.507 717.94C502.036 722.771 478.073 675.042 478.27 670.525C478.427 666.636 486.009 670.289 488.994 667.696C492.451 664.672 492.805 657.601 493.944 656.854C495.161 656.029 502.979 658.268 506.986 656.147C520.381 648.998 505.454 648.173 533.227 645.069Z" fill="#769448"/>
<path d="M717.858 601.857L670.718 637.212C652.962 619.613 650.291 637.212 648.837 637.369C640.784 637.998 610.301 628.57 615.722 613.642C617.961 610.775 624.56 608.81 627.507 605.786C649.859 614.389 699.63 611.521 710.08 590.072C716.404 589.13 714.833 598.95 717.858 601.857Z" fill="#769448"/>
<path d="M592.155 676.496C600.6 695.077 580.33 704.583 580.055 706.312C578.091 717.822 601.229 728.192 584.298 739.349C572.592 731.532 541.283 741.549 541.165 729.685C540.969 703.837 573.181 686.827 592.155 676.496Z" fill="#769448"/>
<path d="M592.154 582.216C585.633 610.539 596.553 618.75 568.584 633.284C540.811 625.86 508.363 593.333 560.688 605.747L552.87 582.216C565.912 584.023 579.112 585.123 592.154 582.216Z" fill="#A3CC6B"/>
<path d="M611.793 594.001C612.382 594.786 626.603 605.432 627.506 605.786C624.56 608.81 617.96 610.775 615.721 613.642C613.325 616.706 581.663 683.566 576.438 654.811C575.809 651.276 601.776 593.569 611.793 594.001Z" fill="#769448"/>
<path d="M497.873 566.503C488.995 565.6 480.275 575.46 462.519 562.575C448.455 552.401 462.086 529.656 466.447 515.435C479.214 531.109 509.658 541.126 497.873 566.503Z" fill="#A3CC6B"/>
<path d="M823.923 244.381C824.748 244.028 825.258 238.842 829.462 238.174C857.078 233.775 841.757 251.649 845.136 256.284C851.932 265.712 886.069 271.879 890.704 291.521C890.979 292.621 885.126 298.396 886.776 299.338C896.243 304.759 921.856 290.185 927.905 303.345C928.887 305.545 941.026 347.107 941.222 349.503C942.047 358.145 934.78 361.445 934.741 367.455C934.701 374.919 943.501 382.658 944.561 388.904C949 414.477 951.907 461.028 940.987 485.187C935.84 496.579 918.87 507.578 918.87 509.464C918.87 511.349 926.02 515.867 926.02 521.288C926.02 526.238 910.739 558.411 910.464 564.539C909.953 576.795 913.528 573.024 910.306 594.001C891.293 577.424 866.074 569.135 855.31 597.93C844.075 606.847 822.391 606.336 812.727 610.5C810.999 611.247 812.413 617.414 812.099 617.571C800.117 622.482 780.79 630.849 768.887 633.284C759.97 635.131 746.496 629.081 745.317 629.356C748.931 614.586 739.346 618.357 733.532 613.643C785.661 599.147 736.204 586.38 745.356 578.327C757.888 567.289 772.776 601.426 774.78 601.779C779.454 602.565 795.089 583.473 798.349 583.198C802.16 582.845 806.992 590.701 812.216 588.423C820.78 584.652 818.541 568.271 823.766 564.421C828.99 560.571 861.752 556.8 866.349 553.972C874.559 548.904 878.998 512.528 886.501 505.418C896.675 495.793 912.624 501.254 914.235 499.761C925.745 488.919 886.854 478.862 878.88 476.23C900.486 472.42 887.483 462.953 882.808 452.66C902.057 458.514 943.069 426.851 940.987 408.192C940.554 404.382 923.623 382.933 919.538 382.265C913.017 381.165 900.053 401.082 890.665 401.592C927.395 333.122 868.627 390.082 864.856 352.528C863.088 334.85 872.477 348.953 879.862 349.542C882.376 349.739 901.428 348.246 898.404 340.782C891.961 324.872 865.799 331.001 860.928 327.347C849.3 318.626 868.156 302.206 851.342 295.567C862.381 290.225 859.71 291.953 870.945 299.495C873.42 272.822 866.27 288.143 859.199 287.711L823.844 244.499L823.923 244.381Z" fill="#FC8000"/>
<path d="M556.798 154.029C587.989 147.39 602.995 150.926 629.865 146.526C659.799 141.655 737.147 124.253 733.572 173.631C751.564 177.363 739.544 146.88 751.132 150.14C766.845 154.54 771.127 164.007 768.888 177.56L751.171 165.736C742.804 179.563 758.439 177.246 760.992 185.338C732.905 184.356 750.307 201.562 731.53 216.804C728.858 210.558 730.273 186.988 723.634 201.051C717.545 213.975 730.705 221.95 713.813 236.445C704.621 235.895 714.127 221.518 711.849 216.568C706.192 204.233 688.122 218.493 698.1 193.273C673.351 208.083 694.25 213.465 694.407 214.957C696.057 231.299 668.912 242.731 666.87 230.435C666.398 227.449 672.448 219.161 670.602 216.882C669.187 215.075 628.922 255.026 643.143 216.882L627.429 224.7C620.948 216.214 588.853 194.884 580.722 178.935C572.472 162.789 588.893 150.612 556.72 153.99L556.798 154.029Z" fill="#FCB301"/>
<path d="M627.509 224.74L643.222 216.922C629.002 255.027 669.267 215.115 670.681 216.922C672.528 219.24 666.478 227.529 666.949 230.475C668.953 242.81 696.097 231.339 694.487 214.997C694.33 213.544 673.431 208.123 698.18 193.313C688.202 218.572 706.311 204.273 711.929 216.608C714.207 221.558 704.701 235.935 713.893 236.485C730.785 221.99 717.625 214.015 723.714 201.091C730.352 187.028 728.978 210.598 731.61 216.844C750.387 201.641 732.984 184.396 761.072 185.378C758.518 177.286 742.884 179.564 751.251 165.776L768.968 177.6C768.771 178.857 769.164 180.271 768.968 181.528C768.771 182.667 762.368 184.121 766.807 193.117C772.11 203.802 816.618 221.715 808.251 240.453C797.684 246.777 784.21 228.904 782.717 228.589C778.121 227.686 767.043 248.231 757.183 236.485C749.051 226.782 776.864 218.14 768.928 212.955C767.671 212.13 740.998 214.919 739.191 216.372C719.628 232.4 748.305 275.258 741.155 297.06C737.266 308.884 728.899 310.888 725.717 319.019C722.535 327.151 724.853 341.725 716.957 355.435C711.261 365.295 687.612 375.194 694.291 389.729C681.052 385.486 664.828 386.9 651.079 389.729C696.962 374.919 674.57 378.533 678.617 352.763C679.756 345.575 686.041 338.543 686.434 334.732C704.426 335.165 693.505 319.451 694.291 319.058C701.833 315.091 717.9 330.293 721.749 326.837C734.949 315.052 690.284 314.973 690.284 313.127C690.284 309.513 716.289 309.002 717.86 307.195C718.725 306.213 713.146 298.396 713.657 293.996C713.775 293.092 718.764 293.21 721.789 279.736C723.792 270.74 731.06 257.934 711.968 259.937C710.357 260.094 710.632 266.89 708.197 267.205C701.636 268.108 690.087 262.609 679.795 269.13C675.277 271.997 670.367 287.082 665.653 290.342C644.715 304.799 647.779 285.432 646.679 284.371C641.14 279.108 637.173 291.05 623.62 267.912L643.222 265.987C635.405 258.091 632.066 230.593 627.548 224.7L627.509 224.74Z" fill="#FB7E00"/>
<path d="M556.797 154.03C588.97 150.651 572.55 162.869 580.799 178.975C588.931 194.924 621.065 216.254 627.507 224.739C631.985 230.632 635.364 258.169 643.181 266.026L623.579 267.951C618.158 258.68 616.193 246.934 614.936 245.167C611.637 240.61 595.452 244.852 599.969 228.707C582.567 224.7 601.737 249.645 590.07 252.277C579.189 254.713 563.515 235.11 556.797 240.492C553.498 243.124 557.308 272.665 529.26 252.277C529.378 250.981 529.26 249.645 529.26 248.349L540.102 230.239L537.116 161.926C542.459 162.672 549.451 155.64 556.758 154.069L556.797 154.03Z" fill="#FC9600"/>
<path d="M768.928 181.527C780.399 203.212 773.289 168.564 784.563 177.638C785.427 178.345 784.288 186.123 791.045 188.755C797.33 191.191 806.444 188.363 815.086 192.33C818.857 194.059 855.862 222.578 857.276 224.817C860.576 230.003 858.494 239.391 859.319 240.491C860.144 241.591 867.882 234.245 874.914 238.252C880.335 241.316 893.338 267.675 906.655 270.661C907.873 281.778 902.648 290.656 890.706 291.559C886.071 271.918 851.933 265.75 845.137 256.322C841.759 251.648 857.08 233.774 829.464 238.213C825.26 238.881 824.789 244.027 823.925 244.42C813.24 249.134 806.444 254.869 796.466 260.133C795.366 251.019 804.872 247.916 808.211 240.491C816.579 221.753 772.071 203.84 766.768 193.155C762.329 184.199 768.732 182.706 768.928 181.567V181.527Z" fill="#FC9F02"/>
<path d="M878.919 476.152C886.894 478.784 925.784 488.84 914.274 499.682C912.663 501.215 896.675 495.715 886.54 505.339C879.037 512.489 874.559 548.865 866.388 553.893C861.792 556.722 828.755 560.689 823.805 564.343C818.58 568.192 820.819 584.573 812.256 588.345C807.07 590.623 802.199 582.766 798.389 583.12C795.128 583.395 779.454 602.487 774.819 601.701C772.815 601.387 757.927 567.21 745.396 578.249C736.243 586.302 785.7 599.069 733.572 613.564C728.779 609.675 722.14 605.865 717.858 601.779C714.833 598.872 716.405 589.052 710.08 589.994C699.631 611.404 649.859 614.271 627.507 605.708C626.604 605.354 612.383 594.708 611.794 593.923C608.808 589.916 609.319 585.241 607.865 582.138C617.726 572.631 602.091 541.283 607.865 535.037C609.24 533.545 628.764 543.012 647.109 538.926C648.288 568.899 744.885 594.826 725.676 550.711C729.25 551.811 732.864 557.429 739.621 558.372C765.352 561.946 784.561 543.169 784.875 517.321C785.347 479.02 766.766 503.886 747.242 503.689C734.279 503.572 723.633 490.019 714.048 493.554C695.113 500.547 708.352 530.716 694.249 542.815C687.021 540.419 687.021 531.895 682.464 527.102C683.485 526.395 685.175 521.367 686.392 519.245C700.495 495.126 693.621 483.851 670.679 472.106C715.816 474.541 742.017 506.518 784.561 476.034C787.507 495.047 786.093 528.398 814.181 526.984C816.891 526.866 859.867 502 861.242 499.643C866.545 490.451 861.674 477.605 859.238 468.177C870.67 467.51 872.673 473.991 878.88 476.034L878.919 476.152Z" fill="#FC6900"/>
<path d="M725.714 319.019C728.896 310.887 737.263 308.884 741.152 297.06C748.302 275.258 719.625 232.4 739.188 216.372C740.995 214.879 767.668 212.13 768.925 212.954C776.821 218.101 749.009 226.782 757.18 236.485C767.04 248.231 778.118 227.686 782.714 228.589C784.206 228.864 797.72 246.777 808.248 240.453C804.909 247.877 795.402 250.981 796.502 260.094C806.48 254.83 813.276 249.095 823.961 244.381L859.316 287.592C854.209 287.278 848.356 282.8 842.463 284.293C834.253 286.414 828.675 302.324 814.062 302.952C798.702 303.62 777.096 288.653 765.076 279.697C759.772 297.727 753.291 319.373 733.57 322.947C733.374 322.201 727.442 320.394 725.714 319.019Z" fill="#F85500"/>
<path d="M733.57 322.948C753.251 319.412 759.733 297.728 765.075 279.697C777.096 288.693 798.702 303.62 814.061 302.952C829.421 302.285 834.253 286.414 842.463 284.293C848.356 282.761 854.209 287.278 859.316 287.593C866.387 288.025 873.536 272.704 871.061 299.378C859.826 291.835 862.498 290.107 851.459 295.449C842.895 299.613 834.371 307.627 820.072 307.274C820.622 316.937 837.671 304.799 839.635 307.234C840.381 308.138 840.42 328.486 839.635 330.804C839.399 331.59 829.932 340.546 827.85 342.589C816.536 353.549 792.338 366.198 776.782 370.087C776.075 368.398 768.414 367.298 768.532 360.267C768.65 352.488 781.731 333.2 772.225 327.465C754.233 316.584 758.162 338.15 754.43 345.496C752.348 349.621 745.748 352.96 745.355 354.374C730.467 348.167 736.163 332.572 733.57 322.948Z" fill="#FB9E00"/>
<path d="M851.421 295.449C868.234 302.088 849.417 318.508 861.006 327.229C865.877 330.883 892.079 324.754 898.482 340.664C901.507 348.128 882.455 349.621 879.941 349.424C872.555 348.874 863.167 334.732 864.934 352.41C868.706 389.964 927.434 333.004 890.743 401.474C900.132 400.924 913.096 381.047 919.617 382.147C923.702 382.815 940.633 404.263 941.065 408.074C943.147 426.773 902.135 458.435 882.887 452.542C882.69 452.11 878.841 450.696 876.012 445.825C873.93 442.25 875.737 433.804 873.184 428.737C869.57 421.587 863.717 429.13 863.245 428.933C844.35 421.391 830.483 423.63 836.611 404.303C843.682 382.068 861.674 395.818 870.945 391.811C874.755 390.161 881.787 380.222 878.919 377.904C877.584 376.805 856.096 381.911 856.096 359.481C856.096 345.064 876.051 346.792 839.675 330.725C840.422 328.408 840.382 308.098 839.675 307.156C837.711 304.72 820.662 316.898 820.112 307.195C834.411 307.548 842.936 299.535 851.5 295.371L851.421 295.449Z" fill="#F75A00"/>
<path d="M882.849 452.582C887.524 462.874 900.527 472.341 878.921 476.152C872.714 474.109 870.711 467.627 859.279 468.295C846.552 469.042 849.655 476.23 831.781 472.223C822.628 443.665 826.989 443.979 851.423 436.869C857.865 434.983 865.565 441.818 863.208 429.012C863.679 429.208 869.532 421.666 873.146 428.816C875.7 433.844 873.893 442.329 875.975 445.904C878.803 450.736 882.653 452.15 882.849 452.621V452.582Z" fill="#FC9E00"/>
<path d="M592.151 370.086C592.426 373.426 584.687 387.489 579.423 390.789C564.771 400.02 570.82 383.403 558.76 381.596C542.301 379.122 496.379 399.706 493.943 415.301C492.293 425.869 508.949 423.276 509.774 427.086C512.013 437.418 500.111 444.724 498.618 451.56C492.372 479.922 522.738 461.066 529.494 465.937C535.583 470.376 531.891 479.608 533.226 483.968C541.829 511.545 594.312 499.014 603.936 472.223C589.126 477.683 588.576 465.034 586.219 464.248C582.409 462.991 579.541 469.198 572.509 472.144L596.119 389.689C598.829 394.442 607.314 397.035 607.864 397.506C616.389 405.206 601.422 427.361 609.789 440.678C627.388 410.391 611.282 397.82 651.076 389.65C664.825 386.821 681.049 385.407 694.287 389.65C695.112 389.924 708.39 396.603 710 397.506C715.893 400.767 726.342 407.248 729.642 413.18C706.779 422.569 697.508 395.306 684.27 393.499C682.463 393.264 650.801 395.306 647.894 395.935C616.703 402.888 629.274 421.744 619.099 438.243C614.935 444.96 591.169 447.081 603.622 465.466C612.46 478.508 644.83 463.266 662.9 468.216C665.257 468.884 668.321 470.887 670.757 472.144C693.698 483.89 700.572 495.164 686.47 519.284C693.973 451.167 560.41 472.183 596.197 521.169C608.807 538.415 619.728 523.762 629.431 523.566C639.134 523.369 651.351 533.937 662.9 531.069C658.107 532.994 653.511 537.511 647.187 538.925C628.802 543.011 609.318 533.504 607.943 535.036C602.129 541.282 617.764 572.67 607.943 582.137C606.804 579.701 610.143 574.516 605.939 574.241C599.34 573.809 597.022 581.076 592.23 582.137C579.188 585.044 565.988 583.944 552.946 582.137C530.359 578.994 516.138 568.27 497.95 566.424C509.735 541.047 479.291 531.03 466.523 515.356C444.486 488.25 446.175 472.616 454.739 440.718C449.475 466.959 469.038 470.966 475.284 447.514C479.448 431.84 473.477 428.422 474.459 419.269C475.087 413.259 481.49 409.252 482.197 403.241C483.533 391.732 471.316 386.035 484.672 374.368C490.211 369.497 551.65 341.96 558.878 342.117C570.31 342.353 591.601 361.955 592.23 370.047L592.151 370.086Z" fill="#FC9400"/>
<path d="M529.298 252.237C557.385 272.625 553.536 243.084 556.835 240.452C563.553 235.11 579.188 254.673 590.108 252.237C601.736 249.605 582.605 224.66 600.008 228.667C595.49 244.852 611.675 240.57 614.974 245.127C616.232 246.895 618.196 258.68 623.617 267.911C637.169 291.049 641.137 279.107 646.676 284.371C647.776 285.392 644.712 304.798 665.65 290.342C670.324 287.121 675.235 272.036 679.792 269.129C690.084 262.608 701.633 268.108 708.193 267.204C710.629 266.851 710.354 260.094 711.965 259.937C731.056 257.933 723.789 270.74 721.785 279.735C716.914 276.828 683.916 274.314 682.581 275.768C681.402 277.025 680.106 294.899 678.574 299.377C675.313 308.923 668.517 327.032 662.861 334.732C650.761 334.457 624.206 332.493 616.86 343.728C610.025 354.138 619.374 372.129 592.151 370.087C591.522 361.994 570.231 342.431 558.8 342.156C551.571 341.999 490.133 369.576 484.594 374.408C471.237 386.075 483.455 391.771 482.119 403.281C481.412 409.291 475.009 413.298 474.38 419.308C473.398 428.461 479.369 431.879 475.205 447.553C468.959 471.005 449.435 466.998 454.66 440.757C457.685 429.404 471.159 402.181 470.491 395.739C469.234 383.836 449.71 371.854 442.875 362.191C445.428 362.466 448.296 361.759 450.732 362.191C470.727 365.608 501.8 355.395 518.377 342.588C525.134 337.364 527.805 326.325 537.508 321.258C548.861 315.326 581.898 316.858 584.255 309.041C592.112 282.996 519.281 288.653 525.37 260.055C525.645 259.74 529.259 252.63 529.298 252.198V252.237Z" fill="#FB6B00"/>
<path d="M686.431 334.733C685.999 338.504 679.713 345.535 678.613 352.763C674.567 378.533 696.959 374.919 651.076 389.729C611.321 397.9 627.427 410.51 609.789 440.758C601.422 427.441 616.35 405.246 607.864 397.586C634.42 380.419 621.181 385.486 626.681 367.652C634.813 341.293 649.544 352.842 662.861 334.733C668.518 327.033 675.314 308.923 678.574 299.378C689.652 303.385 687.609 324.165 686.431 334.733Z" fill="#F44000"/>
<path d="M733.57 322.948C736.163 332.572 730.467 348.167 745.355 354.374C744.295 358.185 745.866 365.256 745.355 370.087C729.642 372.169 718.682 385.526 710 397.586C708.39 396.682 695.112 390.004 694.287 389.729C687.609 375.233 711.257 365.334 716.953 355.435C724.849 341.725 722.532 327.229 725.714 319.019C727.442 320.394 733.374 322.201 733.57 322.948Z" fill="#DE1000"/>
<path d="M721.786 279.736C718.8 293.249 713.772 293.092 713.654 293.995C713.183 298.356 718.722 306.213 717.857 307.195C716.286 308.962 690.32 309.512 690.281 313.126C690.281 314.973 734.906 315.051 721.746 326.836C717.897 330.293 701.83 315.051 694.287 319.058C693.502 319.451 704.423 335.164 686.431 334.732C687.609 324.165 689.652 303.384 678.574 299.377C680.106 294.86 681.403 276.986 682.581 275.768C683.917 274.315 716.915 276.829 721.786 279.736Z" fill="#F22700"/>
<path d="M505.732 205.098C537.63 189.659 523.291 221.361 523.056 242.77C523.056 246.266 529.302 247.877 529.302 248.309C529.302 249.605 529.419 250.941 529.302 252.237C529.302 252.67 525.648 259.78 525.373 260.094C522.348 263.63 511.506 266.654 510.524 268.736C507.539 274.904 511.467 283.271 509.739 288.889C508.442 293.053 502 291.128 501.843 291.521C497.247 289.281 493.24 281.857 490.058 279.736C486.837 264.376 465.191 248.113 470.416 232.596C495.911 223.993 491.865 211.815 505.771 205.098H505.732Z" fill="#CF0800"/>
<path d="M761.072 448.654C764.607 451.757 779.456 454.232 784.367 458.789C791.241 465.152 797.409 485.973 810.254 491.826L812.179 464.367C816.54 466.763 827.068 471.163 831.821 472.223C849.695 476.23 846.591 469.042 859.319 468.295C861.715 477.723 866.626 490.569 861.322 499.761C859.948 502.118 817.011 526.984 814.261 527.102C786.174 528.516 787.588 495.165 784.642 476.152C742.098 506.635 715.896 474.659 670.76 472.223C668.324 470.966 665.26 468.963 662.903 468.295C668.364 457.964 680.306 459.535 686.473 456.51C721.749 475.248 734.634 481.337 761.111 448.654H761.072Z" fill="#F33B00"/>
<path d="M725.714 550.789C714.596 547.332 701.751 545.407 694.287 542.932C708.39 530.833 695.151 500.664 714.086 493.671C723.671 490.136 734.317 503.688 747.28 503.806C766.843 503.963 785.385 479.097 784.913 517.438C784.599 543.286 765.39 562.063 739.659 558.488C732.902 557.546 729.288 551.928 725.714 550.828V550.789Z" fill="#FC9000"/>
<path d="M686.433 519.363C685.215 521.484 683.526 526.513 682.505 527.22C675.12 532.287 667.184 529.42 662.863 531.148C651.314 534.016 638.743 523.449 629.394 523.645C620.045 523.841 608.77 538.494 596.16 521.249C560.334 472.263 693.936 451.246 686.433 519.363Z" fill="#FCAD00"/>
<path d="M694.287 542.933C701.751 545.408 714.597 547.333 725.714 550.79C744.923 594.905 648.326 568.978 647.147 539.005C653.472 537.591 658.068 533.073 662.861 531.148C667.182 529.42 675.117 532.287 682.502 527.22C687.059 532.013 687.059 540.537 694.287 542.933Z" fill="#F14100"/>
<path d="M839.635 330.804C876.05 346.871 856.055 345.143 856.055 359.559C856.055 381.99 877.543 376.883 878.879 377.983C881.746 380.301 874.715 390.24 870.904 391.89C861.633 395.896 843.642 382.108 836.571 404.382C830.443 423.709 844.27 421.509 863.205 429.012C865.562 441.818 857.862 434.983 851.42 436.869C844.899 429.68 832.132 425.123 822.743 425.948C805.419 427.441 815.083 445.982 800.352 444.725C798.466 438.676 794.852 420.566 792.495 417.227C803.534 420.409 805.105 401.082 800.352 393.657C820.936 393.422 819.011 373.073 824 370.127C834.41 363.959 834.921 385.094 835.746 385.801C849.652 397.821 855.309 336.579 827.85 342.589C829.932 340.546 839.399 331.59 839.635 330.804Z" fill="#E61C00"/>
<path d="M827.85 342.588C855.309 336.578 849.652 397.82 835.746 385.8C834.921 385.093 834.411 363.958 824.001 370.126C819.012 373.072 820.936 393.421 800.352 393.656C788.528 393.774 785.542 389.807 776.782 385.8C780.003 381.125 778.746 374.879 776.782 370.086C792.338 366.197 816.537 353.548 827.85 342.588Z" fill="#F98200"/>
<path d="M745.356 354.373C745.749 352.959 752.348 349.62 754.43 345.495C758.162 338.149 754.234 316.583 772.226 327.464C781.732 333.2 768.651 352.527 768.533 360.266C768.415 367.297 776.075 368.397 776.782 370.086C778.747 374.879 780.004 381.125 776.782 385.8C771.008 383.168 766.019 375.233 762.916 374.093C756.198 371.619 756.512 387.371 745.356 381.871C745.552 377.982 744.963 373.936 745.356 370.086C745.867 365.255 744.295 358.184 745.356 354.373Z" fill="#D81800"/>
<path d="M851.42 436.868C826.986 443.978 822.625 443.664 831.778 472.223C827.025 471.162 816.497 466.762 812.137 464.366C793.123 453.878 804.948 459.495 800.352 444.725C815.083 445.982 805.419 427.44 822.743 425.947C832.132 425.122 844.938 429.679 851.42 436.868Z" fill="#F95C00"/>
<path d="M525.369 260.094C519.32 288.693 592.151 283.036 584.255 309.081C581.898 316.937 548.861 315.366 537.508 321.298C527.805 326.365 525.134 337.404 518.377 342.628C501.76 355.435 470.727 365.648 450.731 362.231C455.838 340.861 535.112 346.4 501.8 311.163C508.046 305.899 500.66 293.839 501.8 291.521C501.996 291.128 508.399 293.092 509.695 288.889C511.463 283.272 507.535 274.904 510.481 268.737C511.502 266.655 522.305 263.591 525.33 260.094H525.369Z" fill="#FB4B00"/>
<path d="M501.8 311.162C535.112 346.399 455.839 340.861 450.732 362.231C448.296 361.798 445.429 362.506 442.875 362.231C435.137 351.231 417.066 316.662 435.019 307.234C437.101 306.134 478.152 295.331 480.469 295.528C481.805 295.646 500.857 310.22 501.8 311.162Z" fill="#DF4401"/>
<path d="M662.861 334.732C649.544 352.842 634.812 341.332 626.681 367.652C621.181 385.486 634.42 380.419 607.864 397.585C607.353 397.114 598.868 394.521 596.118 389.768L572.509 472.223C559.978 477.487 550.039 487.74 533.226 484.008C531.891 479.648 535.583 470.416 529.494 465.977C522.777 461.106 492.372 479.923 498.618 451.6C500.11 444.764 512.013 437.458 509.774 427.126C508.949 423.316 492.293 425.909 493.943 415.341C496.379 399.746 542.301 379.162 558.76 381.636C570.781 383.443 564.731 400.06 579.423 390.829C584.687 387.529 592.426 373.466 592.151 370.126C619.374 372.169 610.064 354.177 616.86 343.767C624.206 332.572 650.761 334.497 662.861 334.772V334.732Z" fill="#FCAD00"/>
<path d="M745.358 370.087C744.965 373.937 745.554 377.983 745.358 381.872C745.004 388.393 745.79 395.032 745.358 401.514C743.551 429.326 738.876 412.356 733.612 417.266C732.316 418.484 741.744 438.479 723.87 449.086C712.124 456.078 706.035 443.979 696.725 445.511C690.676 446.493 687.965 455.764 686.433 456.51C680.266 459.535 668.324 457.964 662.863 468.295C644.793 463.306 612.424 478.587 603.585 465.545C591.132 447.2 614.938 445.04 619.062 438.322C629.237 421.823 616.666 402.967 647.857 396.014C650.764 395.346 682.426 393.343 684.233 393.579C697.472 395.386 706.742 422.688 729.605 413.26C726.305 407.328 715.856 400.846 709.964 397.586C718.645 385.526 729.605 372.169 745.318 370.087H745.358Z" fill="#FCAD00"/>
<path d="M572.51 472.223C579.541 469.277 582.409 463.03 586.219 464.327C588.537 465.112 589.087 477.762 603.936 472.301C594.312 499.092 541.83 511.624 533.227 484.047C550.04 487.779 559.978 477.526 572.51 472.262V472.223Z" fill="#FC6200"/>
<path d="M792.497 417.227C794.854 420.566 798.468 438.676 800.354 444.725C804.95 459.496 793.126 453.878 812.139 464.367L810.214 491.826C797.368 485.933 791.201 465.113 784.326 458.789C779.416 454.271 764.606 451.757 761.032 448.654C750.621 439.618 744.297 415.616 757.103 405.442C758.517 405.167 763.192 397.86 766.845 398.293C768.417 398.489 791.515 415.931 792.458 417.227H792.497Z" fill="#FB8100"/>
<path d="M757.14 405.442C744.334 415.616 750.659 439.618 761.069 448.653C734.592 481.337 721.707 475.248 686.431 456.51C687.963 455.763 690.634 446.493 696.723 445.511C706.033 443.978 712.083 456.078 723.867 449.085C741.741 438.479 732.313 418.484 733.61 417.266C738.874 412.356 743.548 429.326 745.355 401.513C748.616 401.16 755.883 405.677 757.14 405.442Z" fill="#DE1C00"/>
<path d="M776.785 385.8C785.545 389.807 788.53 393.774 800.354 393.657C805.108 401.081 803.536 420.408 792.498 417.226C791.594 415.93 768.496 398.488 766.885 398.292C763.232 397.821 758.518 405.166 757.143 405.441C755.886 405.677 748.619 401.16 745.358 401.513C745.79 395.031 745.004 388.393 745.358 381.872C756.514 387.371 756.2 371.579 762.918 374.094C766.021 375.233 771.01 383.168 776.785 385.8Z" fill="#9C0200"/>
<path d="M105.041 122.603C104.413 123.074 105.67 125.981 105.041 126.531C104.531 127.002 89.0139 126.06 97.1848 134.309C98.6383 135.802 124.958 147.626 133.6 154.029C136.939 156.504 136.154 161.611 136.468 161.886C122.483 157.958 77.3076 178.149 83.2786 193.155C96.9491 227.724 138.668 210.165 163.966 205.097L152.181 240.413C156.66 243.477 248.661 247.955 260.524 247.798C269.363 247.68 273.173 240.531 273.959 240.452C277.023 240.217 280.598 248.623 285.744 246.659C290.89 244.695 298.707 227.842 309.275 228.628C273.723 210.243 313.596 219.436 328.955 205.097C329.859 206.59 327.109 213.7 329.466 216.254C330.605 217.472 357.907 224.582 361.953 224.464C389.176 223.718 380.495 205.804 386.348 200.776C405.99 183.845 407.522 213.779 411.45 220.811C384.423 220.536 402.179 243.595 393.262 252.63C382.027 264.022 368.946 249.88 359.164 256.715C349.383 263.551 345.258 280.521 322.984 287.474C283.505 299.809 286.569 275.139 238.604 304.602C231.533 308.962 218.098 301.97 215.034 326.836C211.027 327.307 199.557 342.824 195.589 328.446C186.829 297.02 245.047 292.777 254.317 271.879C243.672 276.789 191.425 293.681 187.497 287.513C186.397 285.785 194.646 275.571 185.493 271.839C179.797 269.561 176.458 279.617 175.751 279.696C169.466 280.442 162.159 274.707 156.11 277.496C150.06 280.285 147.271 294.192 136.468 299.338C99.424 316.976 122.405 281.189 120.715 279.735C100.524 262.019 99.0704 312.969 105.041 318.94C109.048 322.947 141.182 307.941 132.5 346.477C128.493 341.017 130.536 332.925 122.758 334.732C97.4991 351.545 107.006 400.295 65.7583 397.506C63.1656 395.581 96.6349 346.87 96.0456 340.546C95.7314 337.207 68.1153 317.329 69.6866 303.266C70.158 303.03 69.9223 295.881 73.6935 293.681C103.47 276.475 85.0856 283.232 98.1276 268.854C103.156 263.315 127.276 259.033 132.5 246.266C110.188 245.913 91.803 257.697 73.6149 267.911C70.9437 245.48 38.1423 250.666 34.5675 247.798C33.1926 246.698 35.4317 238.213 34.0568 236.995C29.5393 233.106 12.7654 242.652 14.7295 230.631C29.9714 226.114 33.2712 208.122 39.3208 202.19C48.6701 193.037 70.3937 191.27 77.504 167.7C79.5074 161.061 55.1126 187.656 78.4075 141.027C84.025 129.831 70.1187 118.439 105.041 122.564V122.603Z" fill="#FCBA00"/>
<path d="M391.807 271.879C374.326 268.226 380.257 287.71 370.437 299.613C356.53 316.505 327.029 313.873 344.667 350.445C333.903 350.445 330.525 341.292 325.025 334.732C321.726 330.765 324.79 320.865 311.001 318.901C286.489 315.405 260.012 340.978 262.172 366.159C247.441 371.069 224.225 388.157 211.968 392.518C194.134 398.842 168.678 393.696 154.261 381.754C149.901 378.14 139.137 355.474 132.538 346.517C141.219 307.98 109.086 322.986 105.079 318.98C99.1079 313.009 100.561 262.058 120.753 279.775C122.442 281.268 99.4222 317.015 136.505 299.377C147.505 320.865 152.808 329.154 179.717 326.836C146.012 293.21 186.945 308.334 175.789 279.736C176.496 279.657 179.835 269.64 185.531 271.879C194.684 275.611 186.434 285.825 187.534 287.553C191.463 293.721 243.709 276.829 254.355 271.918C245.045 292.778 186.866 297.02 195.627 328.486C199.633 342.864 211.104 327.347 215.072 326.876C245.791 323.222 269.125 312.066 295.838 307.47C326.989 302.088 334.178 321.415 364.544 289.753C380.611 272.979 363.837 268.069 391.846 271.879H391.807Z" fill="#FC8D00"/>
<path d="M321.098 16.5385C343.568 29.4234 334.808 10.1746 336.811 8.68188C348.832 -0.353245 348.989 20.2704 352.289 22.5488C356.806 25.6915 366.47 23.1774 372.009 26.4771C377.548 29.7769 380.69 36.4158 386.386 39.637C395.107 44.5867 416.045 43.4082 414.71 61.0856C414.356 65.721 404.103 75.9346 407.56 79.313C410.31 81.9842 442.326 70.8671 448.454 71.4956C450.772 71.7313 450.379 78.488 453.561 79.1558C465.974 81.7092 496.026 80.7272 497.165 97.8546C498.579 119.146 479.802 104.415 466.485 106.85C466.603 114.275 474.97 108.265 482.159 114.668C462.321 112.625 442.168 125.117 423.234 114.668C420.798 111.211 419.974 102.726 417.381 102.922C407.207 104.218 402.021 120.835 399.664 122.524C398.486 123.389 394.322 125.039 391.808 126.453C382.065 131.913 350.403 134.192 356.492 120.6C360.538 111.604 385.719 107.047 394.164 103.276C398.839 101.194 401.235 105.043 399.664 95.0655C389.176 97.2654 357.828 76.131 354.489 76.3667C339.05 77.4274 339.797 126.296 325.89 105.711C323.376 102.019 325.812 96.3619 325.026 94.9869C333.708 87.4839 318.505 77.0738 322.866 67.528C327.226 57.9822 347.221 56.3323 348.046 55.1931C357.238 42.3475 338.068 33.2731 329.19 40.4619C325.183 43.7224 337.518 61.0463 313.241 43.9189C322.041 35.0409 331.783 43.526 321.098 16.4207V16.5385Z" fill="#FCA702"/>
<path d="M203.248 36.1802C218.49 19.4849 191.424 -11.3917 233.575 11.3533C240.056 14.8495 241.156 22.8239 244.495 24.3953C246.381 25.2988 245.085 4.16446 262.173 28.3236C267.201 35.4338 267.162 50.1257 279.929 51.8149C291.517 53.347 280.989 30.7199 295.485 32.2519C298.235 32.5269 303.577 54.7219 305.384 59.7108C309.43 70.8672 315.126 68.0388 313.241 83.2807C310.727 103.787 303.734 142.245 297.528 161.847C291.321 181.449 295.092 184.435 273.958 173.632C276.708 167.386 275.175 138.906 291.635 130.42C300.16 153.401 315.009 91.6087 281.854 126.492C283.346 108.658 300.238 98.719 291.596 79.3917C290.771 77.5061 266.219 55.8218 264.412 55.7432C233.692 54.329 255.848 85.7163 254.316 87.209C247.167 94.1621 240.921 79.2345 240.135 79.1953C232.868 78.7631 223.479 85.0877 215.072 83.32C213.737 71.2601 217.979 23.4525 203.287 36.1802H203.248Z" fill="#FCA401"/>
<path d="M215.034 83.3203C217.47 105.122 234.676 96.6372 238.565 103.04C242.454 109.444 230.866 114.04 230.748 114.747H226.819C224.816 110.701 200.382 93.7303 199.36 95.0659C196.886 98.405 205.174 108.619 187.576 108.815C197.711 114.707 195.707 129.792 199.125 135.803C202.542 141.813 216.881 133.917 209.181 146.213C198.732 162.947 196.886 143.463 187.458 136.47C169.466 123.114 164.202 141.931 144.325 138.356C147.271 160.551 176.144 153.126 161.963 165.736C150.728 175.754 147.821 171.315 136.468 161.847C136.154 161.572 136.94 156.505 133.6 153.991C124.958 147.587 98.6778 135.763 97.185 134.271C89.0141 125.982 104.492 126.925 105.042 126.492C118.398 118.243 156.935 115.532 162.002 106.772C164.752 102.019 163.338 91.884 164.006 91.0983C166.716 87.995 192.29 108.147 189.422 79.2741C198.378 69.1783 194.45 82.8096 195.432 83.2417C211.185 90.5876 194.332 68.7462 193.979 67.6463C184.394 38.1054 189.815 50.0082 199.321 40.0302C200.578 38.6946 202.032 37.4375 203.25 36.1019C217.941 23.3742 213.699 71.1818 215.034 83.2417V83.3203Z" fill="#FC8700"/>
<path d="M297.528 362.231L344.668 476.152L419.306 621.5C419.149 621.264 416.359 625.546 413.688 621.814C397.229 598.44 386.347 567.839 368.238 544.858C364.388 540.144 362.777 547.765 360.342 550.79C366.313 525.963 339.247 517.635 328.797 501.804C325.38 496.618 300.553 446.179 301.496 443.075C303.224 437.065 314.341 440.326 312.809 431.644C310.452 418.406 274.665 385.722 273.958 366.159C284.604 362.899 291.439 363.92 297.528 362.231Z" fill="#769448"/>
<path d="M105.044 122.603C105.829 122.014 116.907 124.803 112.861 116.79C108.108 107.362 94.1228 115.297 93.2979 106.929C112.704 112.743 122.564 81.3561 116.868 67.6463C129.713 59.279 155.837 83.4774 158.115 83.2417C164.086 82.6132 163.143 67.2928 165.972 63.5609C169.664 58.6898 178.896 61.4789 179.956 57.7077C183.806 44.1157 152.93 24.3956 199.362 40.1088C189.856 50.0475 184.435 38.1447 194.02 67.7249C194.373 68.8248 211.187 90.6662 195.473 83.3203C194.491 82.8882 198.459 69.2177 189.463 79.3527C192.331 108.187 166.718 88.0736 164.047 91.1769C163.379 91.9626 164.793 102.098 162.043 106.851C156.976 115.611 118.439 118.322 105.083 126.571C105.711 126.021 104.454 123.114 105.083 122.643L105.044 122.603Z" fill="#FCAD02"/>
<path d="M73.6155 267.951C91.8428 257.737 110.188 245.953 132.501 246.306C127.276 259.034 103.156 263.355 98.1281 268.894C85.0469 283.272 103.471 276.515 73.694 293.721C69.9228 295.921 70.1193 303.07 69.6871 303.306C65.1303 305.742 50.517 300.831 39.5177 312.42C27.5363 325.069 34.4109 350.092 11.7838 339.604C-14.3788 327.504 10.0161 322.673 17.362 313.873C22.9402 307.195 39.6355 278.793 43.7603 275.376C53.1882 267.598 60.6913 276.122 67.448 274.983C71.8477 274.276 72.5941 268.501 73.5762 267.912L73.6155 267.951Z" fill="#FC9502"/>
<path d="M423.234 114.746C424.216 116.16 422.723 122.092 426.927 124.646C431.955 127.71 441.933 125.746 442.876 126.531C447.354 130.46 419.738 155.758 427.202 165.775C435.805 149.944 483.769 148.294 486.048 146.094C490.447 141.891 478.898 134.466 478.309 132.306C477.445 129.32 485.262 129.202 486.087 126.453C514.135 129.32 534.72 121.071 517.514 153.951L462.517 165.736C452.461 166.011 420.052 168.446 411.449 169.664C392.593 162.593 423.077 151.712 422.173 140.162C422.016 138.002 408.463 117.064 399.664 122.524C402.021 120.835 407.206 104.218 417.381 102.922C419.973 102.726 420.798 111.211 423.234 114.668V114.746Z" fill="#F63C01"/>
<path d="M537.155 161.886L540.14 230.2L529.298 248.309C529.298 247.877 523.013 246.266 523.052 242.77C523.288 221.361 537.626 189.659 505.728 205.098C505.257 202.701 506.435 199.048 505.728 197.241C534.483 201.602 498.696 174.614 493.629 172.061C482.787 166.6 474.537 165.5 462.517 165.815L517.513 154.03C529.887 153.244 536.015 161.729 537.155 161.886Z" fill="#F95C00"/>
<path d="M262.173 28.3237L275.922 4.83233C290.025 21.8419 283.229 3.9681 292.107 1.10043C304.991 -3.0243 316.58 5.02875 321.098 16.5387C331.783 43.6441 322.04 35.1589 313.241 44.0369C309.391 47.9259 306.406 54.2505 305.384 59.7502C303.577 54.7612 298.235 32.5662 295.485 32.2913C280.989 30.7592 291.517 53.3863 279.929 51.8543C267.162 50.1651 267.201 35.4732 262.173 28.3629V28.3237Z" fill="#FCBE02"/>
<path d="M325.027 334.732C309.078 342.746 315.285 357.242 297.529 362.23C291.44 363.92 284.604 362.898 273.959 366.159C270.855 367.102 265.12 365.177 262.174 366.159C260.013 340.978 286.49 315.405 311.003 318.901C324.791 320.865 321.727 330.765 325.027 334.732Z" fill="#FCB000"/>
<path d="M482.158 114.746C486.086 118.243 487.618 121.464 486.086 126.531C485.261 129.281 477.444 129.399 478.308 132.385C478.937 134.545 490.447 141.93 486.047 146.173C483.769 148.373 435.804 150.023 427.201 165.854C419.698 155.837 447.353 130.499 442.875 126.61C441.932 125.785 431.954 127.788 426.926 124.724C422.723 122.132 424.215 116.239 423.233 114.825C442.168 125.274 462.32 112.782 482.158 114.825V114.746Z" fill="#FA6D01"/>
<path d="M226.819 114.746C218.569 128.574 235.658 135.959 234.911 147.705C234.793 149.747 207.334 167.425 215.034 181.527C201.285 179.799 180.229 177.01 191.464 197.241C188.243 197.201 169.151 204.076 163.966 205.097C138.667 210.165 96.9488 227.724 83.2782 193.155C77.3465 178.149 122.483 157.958 136.468 161.886C147.82 171.314 150.688 175.753 161.962 165.775C176.183 153.126 147.27 160.55 144.324 138.395C164.202 141.969 169.465 123.153 187.457 136.509C196.885 143.501 198.731 162.986 209.181 146.251C216.841 133.956 202.424 141.655 199.124 135.841C195.824 130.027 197.71 114.746 187.575 108.854C205.174 108.618 196.924 98.4435 199.36 95.1045C200.381 93.7296 224.815 110.739 226.819 114.785V114.746Z" fill="#FB6900"/>
<path d="M411.449 220.811C418.088 232.596 437.69 236.957 450.732 236.525C451.714 236.525 469.431 232.91 470.374 232.596C465.149 248.113 486.794 264.376 490.015 279.736C482.984 275.061 447.236 255.695 440.833 255.852C418.991 256.363 436.708 277.968 391.807 271.879C363.798 268.069 380.572 272.979 364.506 289.753C334.14 321.455 326.99 302.127 295.799 307.47C269.087 312.066 245.713 323.183 215.033 326.876C218.097 302.01 231.532 308.963 238.603 304.642C286.568 275.179 283.504 299.849 322.983 287.514C345.257 280.561 349.028 263.787 359.163 256.755C369.298 249.724 382.065 264.101 393.261 252.67C402.139 243.635 384.422 220.576 411.449 220.851V220.811Z" fill="#FA4500"/>
<path d="M462.516 165.815C474.498 165.461 482.747 166.561 493.629 172.061C498.735 174.614 534.522 201.602 505.728 197.241C500.307 183.335 469.509 166.522 456.977 177.128C454.66 179.092 441.735 230.082 450.731 236.524C437.689 236.956 418.087 232.596 411.448 220.811C407.481 213.779 405.988 183.806 386.346 200.777C380.493 205.805 389.175 223.718 361.951 224.464C357.905 224.582 330.603 217.472 329.464 216.254C327.107 213.701 329.857 206.591 328.954 205.098C323.847 196.927 312.572 198.42 321.018 191.27C342.624 188.049 362.423 181.685 383.95 177.6C393.928 175.714 404.731 170.686 411.448 169.743C420.051 168.525 452.46 166.09 462.516 165.815Z" fill="#FC9300"/>
<path d="M376.095 142.245C356.846 172.611 386.466 155.719 383.952 177.6C362.424 181.685 342.626 188.049 321.02 191.27C312.574 198.42 323.848 196.927 328.955 205.098C313.635 219.437 273.723 210.244 309.274 228.629C298.707 227.843 290.89 244.696 285.744 246.66C280.598 248.624 277.023 240.257 273.959 240.453C261.192 226.39 289.554 219.279 289.593 214.919C289.672 208.909 266.416 203.684 262.174 201.17C260.72 200.306 259.581 197.909 258.245 197.242C255.417 186.046 272.977 175.911 273.959 173.672C295.093 184.475 291.597 180.585 297.529 161.887C301.143 162.005 303.421 161.14 305.385 157.958C339.679 191.467 325.616 169.783 344.668 154.03C352.171 147.823 366.706 145.191 376.095 142.245Z" fill="#910500"/>
<path d="M218.961 220.811C227.171 224.307 234.989 227.607 243.984 224.896C248.62 223.482 245.87 217.393 246.459 216.882C252.234 212.05 259.148 208.947 262.172 201.169C266.376 203.683 289.631 208.908 289.592 214.918C289.553 219.278 261.23 226.389 273.957 240.452C273.211 240.491 269.361 247.68 260.523 247.798C248.659 247.955 156.658 243.477 152.18 240.413L163.965 205.097C169.15 204.076 188.242 197.201 191.463 197.241C203.837 197.437 201.323 213.307 218.961 220.811Z" fill="#FB8100"/>
<path d="M175.75 279.736C186.906 308.334 145.973 293.21 179.678 326.836C152.769 329.154 147.466 320.865 136.467 299.377C147.27 294.231 150.019 280.404 156.108 277.536C162.197 274.668 169.465 280.482 175.75 279.736Z" fill="#FC6300"/>
<path d="M344.667 350.446C355.352 350.446 370.83 329.233 368.276 354.374C372.558 355.513 372.951 350.564 376.094 346.517C380.022 373.073 376.015 399.392 381.004 426.066C384.304 443.665 396.403 472.931 403.592 487.937C400.528 492.729 399.506 498.032 399.664 503.65C374.915 510.171 367.726 471.163 344.667 476.152L297.527 362.231C315.283 357.242 309.077 342.746 325.026 334.732C330.525 341.293 333.904 350.485 344.667 350.446Z" fill="#769448"/>
<path d="M490.017 279.736C493.199 281.857 497.206 289.282 501.802 291.521C500.663 293.838 508.048 305.898 501.802 311.162C500.899 310.219 481.807 295.606 480.471 295.528C478.115 295.331 437.064 306.173 435.021 307.234L415.419 295.449C417.501 330.765 393.459 326.954 378.689 338.425C374.603 341.607 376.646 345.81 376.096 346.517C372.954 350.563 372.561 355.513 368.279 354.374C370.832 329.232 355.355 350.406 344.67 350.445C327.032 313.873 356.533 316.505 370.439 299.613C380.26 287.671 374.328 268.226 391.809 271.879C436.71 277.968 419.033 256.362 440.835 255.852C447.199 255.694 482.986 275.061 490.017 279.736Z" fill="#FCA100"/>
<path d="M399.663 503.65C400.096 521.406 409.838 551.693 419.305 566.503C424.058 599.619 443.661 631.085 458.588 660.783C449.828 666.165 451.792 666.361 445.546 659.919C436.943 651.001 427.79 633.049 419.305 621.5L344.667 476.152C367.726 471.163 374.915 510.171 399.663 503.65Z" fill="#769448"/>
<path d="M458.589 570.431C457.292 575.302 458.471 581.431 454.66 586.145C450.614 585.477 434.194 593.176 431.09 590.073C430.344 589.327 431.09 574.36 427.555 568.781C424.844 564.46 419.541 566.857 419.305 566.464C409.838 551.654 400.096 521.367 399.664 503.611C399.507 497.993 400.528 492.69 403.592 487.897C403.946 488.644 409.603 490.962 412.195 496.815C417.734 509.385 441.736 575.067 444.84 578.249C452.382 585.87 454.307 572.553 458.589 570.392V570.431Z" fill="#769448"/>
<path d="M325.026 95.1043C325.811 96.4793 323.376 102.097 325.89 105.829C339.796 126.413 339.05 77.5448 354.488 76.4841C357.827 76.2484 389.175 97.3828 399.664 95.1829C401.235 105.161 398.839 101.272 394.164 103.393C385.718 107.164 360.538 111.721 356.491 120.717C350.402 134.27 382.104 132.031 391.807 126.57C407.049 143.148 394.557 136.47 376.094 142.283C366.705 145.23 352.17 147.862 344.667 154.068C334.1 154.815 327.815 126.177 319.133 126.649C313.83 126.963 309.194 151.79 305.384 157.997C303.42 161.179 301.141 162.043 297.527 161.925C303.734 142.323 310.726 103.864 313.241 83.3587C321.019 82.7694 322.079 89.8797 325.026 95.1436V95.1043Z" fill="#F74500"/>
<path d="M399.666 122.603C408.466 117.182 421.979 138.081 422.176 140.241C423.118 151.791 392.595 162.633 411.451 169.743C404.734 170.686 393.931 175.714 383.953 177.6C386.467 155.719 356.848 172.611 376.096 142.245C394.56 136.431 407.052 143.109 391.81 126.532C394.324 125.117 398.488 123.468 399.666 122.603Z" fill="#DF0A00"/>
<path d="M313.24 44.0371C337.557 61.1646 325.183 43.8407 329.189 40.5802C338.067 33.3914 357.238 42.4658 348.045 55.3114C347.22 56.4506 327.382 57.7077 322.865 67.6463C318.347 77.5849 333.707 87.5628 325.025 95.1052C322.079 89.8413 321.018 82.731 313.24 83.3203C315.126 68.0784 309.43 70.9068 305.384 59.7504C306.405 54.2507 309.391 47.9262 313.24 44.0371Z" fill="#FB7300"/>
<path d="M215.034 83.3197C223.441 85.1267 232.83 78.7628 240.097 79.1949C240.922 79.2342 247.129 94.1618 254.278 87.2087C255.81 85.716 233.655 54.3287 264.374 55.7429C266.181 55.8215 290.733 77.5451 291.558 79.3914C300.2 98.7187 283.309 108.657 281.816 126.492C315.01 91.6477 300.122 153.401 291.597 130.42C275.098 138.905 276.63 167.386 273.92 173.632C272.938 175.871 255.378 186.006 258.207 197.202C247.089 191.702 250.978 189.62 250.35 189.345C251.057 176.696 230.041 118.517 230.708 114.707C230.826 114 242.493 109.522 238.526 103.001C234.558 96.4795 217.391 105.083 214.995 83.2804L215.034 83.3197Z" fill="#F95900"/>
<path d="M250.389 189.385C243.829 186.714 222.734 182.51 215.034 181.528C207.335 167.426 234.754 149.748 234.911 147.705C235.697 135.96 218.57 128.535 226.819 114.747H230.747C230.08 118.557 251.096 176.736 250.389 189.385Z" fill="#DE0D00"/>
<path d="M505.728 197.241C506.435 199.048 505.256 202.701 505.728 205.097C491.821 211.815 495.868 223.993 470.373 232.596C469.43 232.91 451.713 236.485 450.731 236.524C441.735 230.081 454.66 179.131 456.977 177.128C469.509 166.482 500.307 183.295 505.728 197.241Z" fill="#FCAB00"/>
<path d="M215.036 181.528C222.736 182.51 243.831 186.713 250.391 189.384C251.02 189.659 247.131 191.741 258.248 197.241C259.583 197.909 260.723 200.305 262.176 201.169C259.151 208.947 252.237 212.051 246.463 216.883C240.217 208.201 226.821 218.375 218.965 220.811C201.326 213.308 203.841 197.437 191.466 197.241C180.231 177.01 201.287 179.799 215.036 181.528Z" fill="#FBA100"/>
<path d="M305.384 157.957C309.194 151.751 313.83 126.924 319.133 126.61C327.814 126.099 334.1 154.776 344.667 154.029C325.615 169.782 339.678 191.466 305.384 157.957Z" fill="#E40A00"/>
<path d="M246.459 216.882C245.87 217.354 248.62 223.482 243.984 224.896C234.988 227.646 227.171 224.307 218.961 220.811C226.818 218.375 240.213 208.201 246.459 216.882Z" fill="#740800"/>
</g>
<defs>
<clipPath id="clip0_209_2368">
<rect width="948.531" height="765" fill="white"/>
</clipPath>
</defs>
</svg>
