<svg width="1410" height="782" viewBox="0 0 1410 782" fill="none" xmlns="http://www.w3.org/2000/svg">
<g clip-path="url(#clip0_209_2457)">
<path d="M1240.21 8.791C1294.22 -11.8102 1315.78 5.45455 1351.69 42.8969C1389.76 82.6695 1421.49 131.604 1404.38 188.853C1384.73 204.9 1384.31 182.551 1375.89 183.398C1348.45 186.205 1334.58 192.296 1351.42 215.333H1266.69C1264.83 197.645 1290.89 148.392 1256.09 157.078C1263.93 130.121 1270.66 111.056 1287.87 88.2832C1256.15 103.483 1240.47 66.1461 1237.61 67.0464C1225.54 70.8595 1209.22 121.754 1197.94 130.545C1199.64 115.822 1195.4 96.7567 1197.89 82.8813C1198.26 80.8689 1217.54 63.657 1208.48 45.8097C1227.6 58.5729 1230.78 48.8284 1242.11 50.8938C1247.3 51.8471 1243.86 62.7567 1248.15 61.6975C1251.17 60.9561 1297.14 27.3268 1298.51 24.52C1305.98 9.32059 1263.14 18.5885 1259.91 18.1648C1249.58 16.8938 1243.97 9.74427 1240.26 8.73804L1240.21 8.791Z" fill="#4B3FAD"/>
<path d="M313.417 294.772C314.37 294.242 308.703 280.42 326.656 284.074C328.51 284.445 328.669 292.283 331.952 293.342C363.94 303.828 398.893 304.199 431.198 312.249C440.202 314.526 448.251 313.89 445.815 326.548C437.289 350.379 457.784 364.414 478.015 376.436C494.379 386.127 568.099 419.809 572.918 384.803C573.183 385.068 575.831 380.46 577.79 379.613C580.703 394.018 587.906 410.277 604.694 411.283C605.435 414.196 604.164 418.538 604.694 421.875C572.441 428.389 540.401 430.348 509.367 443.006C513.815 433.579 515.828 413.189 498.775 416.632C498.934 421.875 498.298 427.277 498.775 432.467C471.183 432.89 474.731 464.242 443.061 463.607C404.242 462.812 417.853 430.719 409.167 424.099C383.164 404.133 295.993 508.781 279.099 506.663C276.292 506.292 264.111 456.987 265.435 451.32C265.7 450.102 285.719 438.398 286.99 437.763C287.784 437.392 291.226 444.965 304.307 437.18C315.906 430.295 407.314 364.626 408.744 358.217C409.432 354.987 379.563 317.068 355.837 331.844C352.818 310.342 330.046 303.087 313.469 294.772H313.417Z" fill="#A3CC6B"/>
<path d="M874.788 172.966C877.913 210.832 857.153 244.832 869.492 284.181C867.374 283.016 856.517 285.505 848.626 281.48C833.533 273.748 844.654 265.963 821.829 268.293C807.741 269.723 774.642 279.468 763.944 287.2C750.016 297.262 748.956 315.056 747.579 315.957C744.508 317.969 729.838 299.168 694.726 315.957C689.748 298.427 690.807 261.196 668.246 268.293C670.788 264.48 679.95 261.196 681.168 257.966C687.417 241.601 673.118 202.941 715.91 194.15C745.726 188.059 792.966 192.72 824 188.377C841.635 185.888 858.424 171.854 874.788 172.966Z" fill="#A3CC6B"/>
<path d="M1187.25 533.09C1220.45 532.084 1226.12 567.884 1234.81 572.862C1262.08 588.591 1264.3 550.778 1271.98 617.825C1265.68 620.791 1260.49 628.47 1256.1 633.713C1239.94 622.274 1235.71 649.707 1224.05 657.227C1186.72 681.271 1176.6 644.252 1147.26 639.327C1117.92 634.401 1111.3 645.841 1091.97 649.601C1072.64 653.361 1067.19 650.501 1070.42 631.012C1072.33 619.361 1097.32 614.595 1091.97 591.345C1106.33 587.32 1108.39 580.595 1118.45 575.458C1140.96 563.965 1160.03 547.071 1176.71 538.386C1179.57 536.903 1185.18 533.143 1187.3 533.09H1187.25Z" fill="#A3CC6B"/>
<path d="M874.787 172.965C878.283 173.177 881.884 172.647 885.379 172.965C885.273 234.504 887.392 248.485 943.476 275.759C949.354 278.619 960.794 272.105 964.819 273.641C966.778 274.382 982.454 291.118 986.002 294.825C974.881 309.653 974.563 324.323 978.006 342.435C999.348 319.875 1023.29 296.89 1054.85 289.529C1055.43 291.276 1054.11 293.818 1054.85 294.825C1018.15 310.342 1008.67 323.9 986.002 353.08C984.784 354.669 975.675 349.903 975.358 355.781C974.775 366.055 995.217 376.118 995.694 388.351C996.012 395.871 986.373 401.432 986.108 408.9C985.473 427.171 987.697 460.323 991.351 477.535C992.675 483.784 1006.44 492.681 986.002 490.775C981.766 484.42 967.414 474.357 959.523 474.887C962.277 435.803 980.971 407.734 959.523 374.264C942.734 348.049 929.018 345.348 901.267 337.192C888.345 325.223 883.791 292.071 869.491 284.233C857.152 244.884 877.912 210.884 874.787 173.018V172.965Z" fill="#A3CC6B"/>
<path d="M392.857 210.037C407.527 233.551 428.393 258.495 437.608 273.8C443.857 284.18 442.639 305.735 451.113 315.956C451.219 320.299 446.823 323.741 445.817 326.548C448.253 313.891 440.256 314.526 431.2 312.249C398.895 304.199 363.941 303.775 331.954 293.342C328.67 292.283 328.459 284.445 326.658 284.074C308.705 280.42 314.371 294.296 313.418 294.772C311.247 295.937 303.885 294.402 298.166 297.844C286.568 304.888 235.727 346.832 231.278 347.679C228.577 348.208 204.692 310.236 196.907 305.364C208.823 304.517 222.01 302.187 233.979 300.068C293.029 289.635 304.415 303.987 308.122 231.221C337.832 276.607 347.736 194.52 392.857 210.037Z" fill="#A3CC6B"/>
<path d="M1076.03 347.732C1082.97 347.732 1119.35 364.996 1123.7 368.915C1132.33 376.648 1137.62 390.682 1144.88 400.691C1139.9 421.716 1104.79 422.669 1086.84 435.327C1079.58 440.411 1071.8 458.364 1068.19 458.629C1066.66 458.735 1042.14 444.595 1041.24 443.324C1037.27 437.71 1052.31 413.243 1049.02 406.781C1048.23 405.246 1037.58 403.71 1033.51 398.361C1028.37 391.582 1026.73 371.722 1015.24 374.211C999.665 377.601 1012.53 432.996 1012.48 448.302C1012.48 457.252 998.553 480.342 1012.48 495.965C1008.35 494.8 996.911 500.732 991.298 501.261C990.715 498.719 987.644 493.158 986.002 490.669C1006.39 492.576 992.675 483.732 991.351 477.429C987.697 460.218 985.472 427.065 986.108 408.794C986.373 401.327 996.011 395.766 995.693 388.246C995.217 376.065 974.774 365.95 975.357 355.676C975.675 349.797 984.784 354.51 986.002 352.975C1016.82 363.355 1050.56 347.732 1076.03 347.679V347.732Z" fill="#5656B2"/>
<path d="M1134.29 72.3422C1128.99 74.3547 1115.12 82.3516 1097.22 88.2301C1040.71 106.713 1039.39 107.984 996.596 146.486C987.963 154.271 968.739 148.922 965.032 176.09C961.325 203.258 970.328 226.507 964.82 262.996C926.742 260.666 921.234 221.423 906.564 194.149C952.11 196.744 945.913 171.218 943.636 141.19C980.761 131.021 1029.85 62.3858 1059.83 53.4886C1087.69 45.2269 1115.91 59.8967 1139.53 29.9746L1134.29 72.3422Z" fill="#A3CC6B"/>
<path d="M1155.47 782C1104.16 782 1110.25 747.629 1093.56 740.691C1086.1 737.567 1055.12 735.13 1044.26 734.336C1045.42 701.289 1031.6 713.046 1018.31 704.943C985.633 685.137 1015.82 677.034 1016.03 662.841C1016.19 651.137 991.406 630.747 987.169 619.308C983.462 609.352 989.87 589.386 981.131 583.031C955.022 563.965 941.465 618.831 938.34 633.713C928.331 625.345 911.86 591.028 911.86 580.753C911.86 574.081 917.05 575.828 917.156 575.457C947.661 605.168 943.001 562.218 950.468 550.514C951.474 548.925 977.53 529.33 980.708 527.794C977.901 574.398 1024.98 602.626 1049.87 636.043C1056.65 645.152 1053.21 658.021 1059.88 668.401C1072.75 688.314 1120.41 713.788 1126.19 723.903C1130.69 731.741 1127.35 742.227 1131.75 750.118C1136.46 758.538 1160.88 761.186 1155.47 782Z" fill="#A3CC6B"/>
<path d="M1091.92 591.345C1097.21 614.595 1072.27 619.361 1070.36 631.012C1067.13 650.501 1072.91 653.308 1091.92 649.601C1117.55 696.629 1175.33 706.638 1197.84 760.816C1182.06 777.604 1181.95 782 1155.47 782C1160.87 761.134 1136.46 758.539 1131.74 750.118C1127.35 742.28 1130.63 731.794 1126.18 723.903C1120.41 713.841 1072.69 688.314 1059.88 668.401C1053.2 658.021 1056.65 645.152 1049.87 636.043C1024.98 602.573 977.896 574.398 980.703 527.794C983.722 526.364 989.124 522.604 991.295 522.498C1000.19 561.794 1012.27 540.504 1038.8 557.081C1062.53 571.909 1054.05 602.043 1091.92 591.345Z" fill="#A3CC6B"/>
<path d="M938.339 633.713C941.411 618.831 955.021 563.965 981.13 583.031C989.869 589.439 983.514 609.352 987.168 619.308C991.405 630.747 1016.19 651.19 1016.03 662.841C1015.82 677.034 985.632 685.137 1018.31 704.944C1031.65 712.993 1045.48 701.289 1044.26 734.336C1040.97 734.124 1029.59 740.479 1016.08 739.155C1002.58 737.831 940.352 726.339 935.162 718.66C931.825 713.682 935.903 645.47 938.339 633.766V633.713Z" fill="#A3CC6B"/>
<path d="M1256.1 633.713C1254.08 636.149 1223.74 679.947 1222.89 683.018C1213.41 716.383 1234.17 722.155 1197.84 760.816C1175.33 706.638 1117.56 696.629 1091.92 649.601C1111.25 645.841 1117.5 634.348 1147.21 639.327C1176.92 644.305 1186.72 681.271 1224 657.227C1235.65 649.707 1239.94 622.274 1256.04 633.713H1256.1Z" fill="#A3CC6B"/>
<path d="M657.652 458.947C657.864 460.006 653.044 473.299 652.356 480.13C651.985 483.626 652.568 487.227 652.356 490.722C644.041 479.707 623.44 469.75 622.169 468.268C605.275 448.514 618.144 412.66 570.216 464.19C548.714 487.28 543.418 529.383 502.427 517.361C491.359 514.13 482.938 461.171 488.87 454.021C498.297 442.635 502.004 472.61 498.773 432.467C498.349 427.224 498.985 421.822 498.773 416.632C515.773 413.243 513.761 433.579 509.365 443.006C540.399 430.349 572.44 428.389 604.692 421.875C606.069 421.61 609.617 428.071 618.038 422.458C627.2 416.367 630.642 400.479 641.764 395.395C642.558 435.38 654.209 439.775 657.652 458.947Z" fill="#A3CC6B"/>
<path d="M1012.48 448.355C1012.48 433.049 999.667 377.601 1015.24 374.264C1026.73 371.775 1028.42 391.635 1033.51 398.414C1037.59 403.763 1048.23 405.299 1049.03 406.834C1052.31 413.295 1037.27 437.763 1041.24 443.376C1042.14 444.647 1066.66 458.788 1068.2 458.682C1071.8 458.364 1079.58 440.464 1086.84 435.38C1104.79 422.775 1139.96 421.822 1144.88 400.744C1157.01 417.585 1167.81 434.956 1176.66 453.704C1133.6 417.056 1106.12 454.18 1076.03 485.426C1105.53 482.937 1140.22 489.028 1168.98 485.479C1184.5 483.573 1182.91 489.186 1181.95 469.591C1185.13 478.171 1190.59 486.697 1192.55 496.071C1190.85 495.753 1189 496.336 1187.25 496.071C1156.32 491.093 1123.33 490.51 1091.92 490.828L1107.81 511.959C1100.24 508.305 1087.9 505.392 1081.33 501.367C1059.51 487.915 1045.8 468.585 1028.16 450.844C1022.7 445.336 1029.75 435.327 1012.48 448.408V448.355Z" fill="#7881D5"/>
<path d="M906.564 194.149C888.823 161.208 873.888 125.302 853.604 93.579C883.421 97.3921 888.611 110.155 885.433 72.3423C907.623 105.654 907.782 84.2052 938.287 77.6382C935.692 99.2987 941.994 119.953 943.636 141.137C945.913 171.165 952.109 196.691 906.564 194.096V194.149Z" fill="#422F96"/>
<path d="M1256.1 157.078C1290.89 148.392 1264.83 197.645 1266.69 215.333H1351.42C1334.58 192.296 1348.46 186.152 1375.89 183.399C1384.31 182.551 1384.74 204.9 1404.38 188.853C1401.1 199.816 1367.68 232.704 1358.26 235.405C1331.19 243.243 1289.83 231.009 1261.39 247.109C1261.13 246.209 1265.89 239.165 1261.97 228.573C1253.4 205.483 1236.77 202.093 1213.78 204.688C1211.82 194.891 1220.67 190.972 1224.32 183.557C1226.07 180.062 1222.15 170.371 1229.25 164.863C1231.58 163.062 1240.58 166.928 1245.72 165.128C1250.85 163.327 1255.04 157.343 1256.1 157.078Z" fill="#6A5FCA"/>
<path d="M355.786 331.844C379.512 317.069 409.381 354.988 408.692 358.218C407.262 364.626 315.854 430.296 304.256 437.181C291.175 444.966 287.68 437.393 286.938 437.763C289.798 422.087 298.854 382.421 308.599 372.041C318.343 361.661 329.041 365.474 337.144 358.271C343.658 352.499 346.518 337.67 355.786 331.897V331.844Z" fill="#A3CC6B"/>
<path d="M996.595 146.486C1000.99 161.155 998.925 205.959 1007.08 212.579C1009.41 214.486 1017.46 209.507 1017.73 210.037C1018.84 212.261 1017.41 254.205 1015.82 259.607C1009.3 282.009 994.9 282.909 986.003 294.772C982.454 291.065 966.778 274.33 964.819 273.588C965.137 270.146 964.289 266.333 964.819 262.997C970.327 226.507 961.483 202.093 965.031 176.09C968.579 150.087 987.962 154.271 996.595 146.486Z" fill="#A3CC6B"/>
<path d="M424.632 146.486C418.118 150.405 401.542 174.29 387.56 178.262C383.906 176.832 375.645 179.639 371.673 178.262C355.414 172.701 335.236 152.947 308.121 157.078C308.916 150.193 307.592 142.885 308.121 135.894C331.847 133.564 391.691 122.972 411.445 125.143C424.791 126.626 425.321 136 424.632 146.486Z" fill="#A3CC6B"/>
<path d="M1181.95 67.0461C1180.68 73.1895 1172.47 107.507 1170.99 109.096C1169.03 111.214 1159.61 108.46 1155.47 109.414C1152.4 110.102 1145.57 108.408 1144.88 109.414C1138.84 118.099 1157.86 148.657 1128.99 141.242C1124.18 136.37 1105.59 137.482 1102.51 125.355C1104.74 114.551 1102.67 98.3452 1097.22 88.2829C1115.12 82.4044 1128.99 74.4075 1134.29 72.3951C1149.22 66.7284 1166.54 60.2144 1181.95 67.0991V67.0461Z" fill="#A3CC6B"/>
<path d="M1176.66 453.651C1179.25 459.212 1180.05 464.349 1181.95 469.539C1182.91 489.134 1184.5 483.52 1168.98 485.426C1140.22 488.975 1105.53 482.884 1076.04 485.374C1106.12 454.127 1133.6 417.003 1176.66 453.651Z" fill="#4F58B6"/>
<path d="M112.17 109.415C87.3319 129.645 66.8895 128.957 38.0266 151.782C29.1823 158.773 19.3319 164.651 11.5468 172.966C9.16364 172.331 1.64339 173.972 0.95492 172.966C-0.210189 171.218 -0.422027 132.134 0.95492 130.598C2.33187 129.063 31.0359 144.686 31.0359 117.253C31.0359 113.016 19.3319 106.449 22.0858 104.172C24.8397 101.894 37.3381 109.15 44.5406 108.25C66.0421 105.549 92.8926 86.5361 112.117 109.415H112.17Z" fill="#A3CC6B"/>
<path d="M1240.21 8.79126C1243.92 9.79749 1249.53 16.947 1259.86 18.2181C1263.09 18.6417 1305.93 9.37381 1298.46 24.5732C1297.09 27.38 1251.12 61.0093 1248.1 61.7508C1243.76 62.81 1247.2 51.9003 1242.06 50.947C1230.73 48.8816 1227.55 58.6262 1208.43 45.8629C1197.95 38.8723 1193.66 29.4984 1187.25 19.3832C1204.67 7.30839 1221.62 3.76011 1240.21 8.79126Z" fill="#422F96"/>
<path d="M1208.43 45.8626C1217.49 63.7099 1198.21 80.9218 1197.84 82.9342L1192.7 80.3392C1194.72 96.7037 1187.83 111.956 1186.93 127.897C1184.97 162.744 1208.7 165.233 1160.82 162.321C1159.13 151.94 1174.01 159.514 1176.71 157.078C1178.78 155.224 1173.48 107.243 1155.47 109.414C1159.6 108.461 1169.03 111.268 1170.99 109.096C1172.47 107.507 1180.68 73.1367 1181.95 67.0464C1187.2 41.6258 1175.17 27.7504 1187.25 19.3828C1193.66 29.4981 1197.95 38.8719 1208.43 45.8626Z" fill="#6650B4"/>
<path d="M604.695 321.252C604.536 349.32 598.499 387.716 604.695 411.283C587.907 410.277 580.705 394.018 577.792 379.613C575.832 380.461 573.184 385.015 572.92 384.803C562.116 374.9 566.935 359.859 556.979 350.433C548.346 342.224 505.237 339.046 535.848 321.252C559.68 322.629 578.586 329.408 604.695 321.252Z" fill="#A3CC6B"/>
<path d="M1012.48 496.018C1014.87 496.707 1047.96 525.781 1052.1 526.152C1054.16 526.364 1096.26 514.024 1081.33 501.314C1087.9 505.339 1100.24 508.252 1107.81 511.906C1129.95 522.551 1151.02 536.903 1176.66 538.386C1159.97 547.071 1140.91 563.965 1118.4 575.457C1119.35 552.367 1085.73 575.351 1069.04 569.42C1057.39 565.289 1059.35 550.196 1053.26 545.218C1045.58 538.915 1001.25 522.021 991.298 522.498C989.921 516.461 992.728 507.246 991.298 501.314C996.912 500.785 1008.35 494.853 1012.48 496.018Z" fill="#8C81EA"/>
<path d="M1187.25 496.018V533.09C1185.13 533.143 1179.52 536.903 1176.66 538.386C1151.03 536.903 1129.95 522.551 1107.81 511.906L1091.92 490.775C1123.33 490.457 1156.32 491.04 1187.25 496.018Z" fill="#4B53AF"/>
<path d="M853.602 427.171C870.761 448.99 872.932 478.012 892.104 491.94C915.883 509.258 949.459 517.838 948.929 480.13C946.811 486.274 950.306 500.202 946.334 511.906C938.814 533.99 923.35 555.174 917.154 575.458C917.048 575.828 911.858 574.081 911.858 580.753C861.228 598.919 714.689 611.735 683.602 557.186C674.97 541.987 670.786 515.137 652.356 490.722C652.568 487.227 651.985 483.626 652.356 480.13C686.409 489.239 719.985 492.47 737.091 458.947C738.362 456.458 742.069 454.604 742.387 453.651C742.864 456.669 744.982 458.099 747.683 458.947C733.066 483.255 751.549 483.414 768.867 490.722C765.213 519.744 805.197 528.324 821.879 514.554C828.87 508.781 827.599 490.987 835.119 480.13C849.471 459.476 865.2 472.451 853.655 427.171H853.602Z" fill="#7960D1"/>
<path d="M869.488 284.181C883.787 292.019 888.342 325.171 901.264 337.14C897.451 336.028 889.825 338.517 883.788 337.14C878.174 335.869 881.881 325.171 877.432 326.548C857.678 332.744 843.326 400.162 853.601 411.23C855.772 413.561 870.124 406.464 876.479 407.629C882.463 408.794 904.865 424.205 911.803 416.579C913.604 414.62 909.208 399.95 912.333 395.978C914.822 392.853 956.13 390.947 959.467 374.212C980.915 407.682 962.22 435.751 959.467 474.835C958.037 474.941 949.087 479.548 948.875 480.131C949.404 517.838 915.828 509.258 892.049 491.941C872.878 478.012 870.706 448.991 853.548 427.171C839.778 409.695 840.573 420.392 834.059 414.832C811.921 396.031 821.931 374.794 779.404 379.508C805.143 346.196 791.161 364.838 813.828 348.262C847.298 323.741 842.426 278.726 821.931 294.878C820.554 295.991 820.13 325.171 805.937 326.601L821.772 268.346C844.597 265.962 833.476 273.8 848.569 281.533C856.46 285.557 867.317 283.068 869.435 284.233L869.488 284.181Z" fill="#5F529E"/>
<path d="M673.539 331.844C669.408 343.76 707.327 355.834 694.67 368.862C689.533 374.158 652.885 332.056 652.355 363.514C676.134 358.218 723.056 432.361 729.146 432.308C743.604 432.308 730.523 401.75 731.794 400.691C733.065 399.632 757.109 400.691 763.57 400.691C751.548 419.915 752.819 409.588 742.386 437.763C741.009 441.523 743.71 449.573 742.386 453.651C742.068 454.604 738.361 456.457 737.09 458.947H657.651C654.209 439.775 642.558 435.38 641.763 395.395C640.757 344.395 641.287 355.57 673.539 331.844Z" fill="#7757CA"/>
<path d="M779.457 379.508C821.984 374.794 811.975 396.031 834.112 414.832C840.626 420.34 839.884 409.642 853.601 427.171C865.146 472.505 849.417 459.477 835.065 480.131C827.545 490.935 828.869 508.729 821.825 514.555C805.143 528.324 765.158 519.745 768.813 490.723C795.769 502.109 810.227 504.916 824.473 474.888C851.112 418.698 813.087 400.745 763.517 400.692C768.071 393.383 774.109 386.393 779.404 379.508H779.457Z" fill="#989BC4"/>
<path d="M763.573 400.691C813.144 400.691 851.116 418.697 824.53 474.887C810.284 504.915 795.826 502.109 768.869 490.722C751.552 483.414 733.069 483.255 747.686 458.947C767.122 465.196 765.374 484.049 781.103 484.367C824.053 485.162 825.271 424.046 786.081 417.426C762.196 413.401 763.362 434.691 742.39 437.816C752.823 409.641 751.552 419.968 763.573 400.744V400.691Z" fill="#C7D3CA"/>
<path d="M742.389 437.762C763.361 434.638 762.196 413.348 786.081 417.373C825.271 423.993 824.053 485.108 781.103 484.314C765.374 484.049 767.122 465.196 747.685 458.893C744.985 458.046 742.866 456.616 742.389 453.597C743.713 449.519 741.013 441.47 742.389 437.71V437.762Z" fill="#F2F7BC"/>
<path d="M737.094 458.947C719.988 492.47 686.411 489.239 652.358 480.13C653.047 473.299 657.866 460.006 657.654 458.947H737.094Z" fill="#58389E"/>
<path d="M821.829 268.292L805.994 326.548C820.187 325.118 820.611 295.937 821.988 294.825C842.43 278.725 847.302 323.741 813.885 348.208C791.218 364.784 805.199 346.143 779.461 379.454C774.165 386.339 768.128 393.33 763.573 400.638C757.112 400.638 733.122 399.632 731.798 400.638C730.474 401.644 743.555 432.202 729.15 432.255C723.059 432.255 676.137 358.164 652.358 363.46C652.888 332.002 689.536 374.105 694.673 368.809C707.33 355.728 669.411 343.654 673.542 331.791C681.274 326.124 682.28 321.834 694.726 315.903C729.838 299.115 744.508 317.915 747.58 315.903C748.957 315.002 750.016 297.208 763.944 287.146C774.642 279.414 807.742 269.722 821.829 268.239V268.292Z" fill="#513287"/>
<path d="M959.524 374.212C956.188 390.947 914.879 392.854 912.39 395.978C909.213 399.95 913.608 414.62 911.861 416.58C904.923 424.206 882.468 408.794 876.537 407.629C870.234 406.411 855.829 413.561 853.658 411.231C843.384 400.162 857.736 332.745 877.49 326.548C881.938 325.171 878.178 335.869 883.845 337.14C889.882 338.517 897.509 336.028 901.322 337.14C929.072 345.296 942.789 347.997 959.577 374.212H959.524Z" fill="#553B7E"/>
<path d="M1012.48 448.354C1029.75 435.273 1022.7 445.283 1028.16 450.79C1045.74 468.532 1059.51 487.862 1081.33 501.314C1096.27 514.024 1054.16 526.364 1052.1 526.152C1047.91 525.781 1014.87 496.706 1012.48 496.018C998.555 480.395 1012.48 457.304 1012.48 448.354Z" fill="#D7E2DA"/>
<path d="M1128.99 141.19C1143.45 155.912 1105.9 209.666 1132.44 220.046C1147.26 225.872 1158.28 213.532 1169.45 211.573C1175.07 210.567 1190.16 217.663 1192.54 215.28C1194.61 213.215 1177.56 177.52 1224.37 183.557C1220.67 191.024 1211.82 194.891 1213.83 204.688C1236.82 202.093 1253.45 205.482 1262.03 228.573C1265.95 239.165 1261.18 246.208 1261.44 247.109C1268.86 272.264 1279.87 290.165 1282.63 315.956C1239.52 327.766 1236.29 299.803 1213.36 287.04C1207.58 283.81 1200.12 285.398 1197.89 284.18C1188.47 279.202 1135.61 249.968 1131.91 249.333C1122.43 247.744 1098.38 259.13 1097.32 257.701C1096.48 256.588 1098.65 235.563 1083.98 236.517C1075.61 237.046 1095.15 263.685 1081.38 268.239C1067.24 245.785 1047.81 232.598 1044.31 209.984C1053.9 192.931 1098.59 144.42 1102.57 125.249C1105.64 137.377 1124.23 136.264 1129.05 141.137L1128.99 141.19Z" fill="#4A46AC"/>
<path d="M1081.33 268.292C1084.88 273.959 1088.8 279.202 1091.92 284.18C1096.48 291.436 1111.89 329.566 1114.06 330.943C1120.2 334.809 1132.65 330.202 1139.58 331.844C1147.63 333.75 1180.26 343.707 1181.95 342.383C1184.49 340.37 1169.08 329.408 1167.34 323.105C1165.85 317.651 1170.88 310.66 1171.36 305.364C1191.96 302.928 1170.46 314.526 1181.48 329.461C1192.49 344.395 1225.91 346.302 1229.62 368.915C1201.34 379.825 1189.84 379.56 1159.39 373.841C1157.38 373.47 1141.76 349.532 1123.7 368.915C1119.35 364.996 1082.97 347.732 1076.03 347.732C1075.03 330.943 1071.16 310.342 1065.34 294.772C1065.02 293.872 1055.48 295.672 1054.85 294.772C1054.11 293.766 1055.43 291.224 1054.85 289.476C1054.69 288.947 1059.51 284.551 1057.18 278.99C1048.34 257.912 1028.79 237.629 1044.26 210.037C1047.75 232.651 1067.19 245.837 1081.33 268.292Z" fill="#7975DC"/>
<path d="M1282.58 315.956C1282.84 318.286 1288.93 323.635 1287.55 325.965C1286.97 326.971 1275.69 329.09 1271.77 334.068C1252.23 358.747 1259.17 357.529 1229.67 368.915C1225.96 346.302 1192.86 344.872 1181.53 329.461C1170.2 314.049 1192.07 302.928 1171.41 305.364C1171.57 303.51 1163.84 296.096 1166.12 294.825C1175.33 289.741 1203.3 304.676 1197.89 284.18C1200.17 285.398 1207.64 283.809 1213.36 287.04C1236.29 299.803 1239.52 327.766 1282.63 315.956H1282.58Z" fill="#5E5AC4"/>
<path d="M1197.84 82.9347C1195.35 96.8101 1199.59 115.876 1197.89 130.598C1209.22 121.807 1225.54 70.9129 1237.56 67.0998C1240.42 66.1995 1256.09 103.483 1287.82 88.3366C1270.6 111.109 1263.93 130.175 1256.04 157.131C1254.98 157.396 1251.06 163.274 1245.66 165.181C1240.26 167.087 1231.52 163.115 1229.19 164.916C1222.04 170.424 1225.96 180.115 1224.26 183.611C1177.5 177.573 1194.5 213.321 1192.44 215.333C1190 217.77 1174.96 210.673 1169.35 211.626C1158.22 213.586 1147.21 225.872 1132.33 220.1C1105.79 209.72 1143.4 155.966 1128.88 141.243C1157.75 148.657 1138.74 118.153 1144.77 109.414C1145.46 108.408 1152.29 110.156 1155.36 109.414C1173.37 107.243 1178.67 155.171 1176.6 157.078C1173.9 159.514 1158.97 151.941 1160.71 162.321C1208.54 165.234 1184.81 162.745 1186.82 127.897C1187.72 111.957 1194.66 96.7042 1192.59 80.3397L1197.73 82.9347H1197.84Z" fill="#422F96"/>
<path d="M1081.33 268.293C1095.1 263.738 1075.61 237.1 1083.93 236.57C1098.59 235.617 1096.42 256.642 1097.27 257.754C1098.33 259.184 1122.37 247.797 1131.85 249.386C1135.51 249.969 1188.41 279.255 1197.84 284.234C1203.24 304.729 1175.28 289.847 1166.07 294.878C1163.74 296.149 1171.52 303.564 1171.36 305.417C1170.88 310.766 1165.85 317.704 1167.34 323.159C1169.03 329.461 1184.5 340.424 1181.95 342.436C1180.26 343.76 1147.64 333.804 1139.59 331.897C1175.86 320.352 1150.07 299.804 1150.28 297.42C1150.81 291.436 1167.76 292.654 1166.07 284.287C1143.24 285.981 1123.54 274.648 1101.4 272.053C1083.82 269.987 1092.56 266.333 1091.97 284.234C1088.85 279.255 1084.93 274.012 1081.38 268.346L1081.33 268.293Z" fill="#8EA0CA"/>
<path d="M1091.92 284.18C1092.5 266.332 1083.77 269.934 1101.35 271.999C1123.48 274.594 1143.19 285.927 1166.01 284.233C1167.71 292.653 1150.76 291.382 1150.23 297.367C1150.02 299.697 1175.81 320.298 1139.53 331.843C1132.54 330.201 1120.15 334.809 1114.01 330.943C1111.83 329.566 1096.42 291.488 1091.87 284.18H1091.92Z" fill="#E4ECD7"/>
<path d="M308.122 135.894C307.592 142.885 308.916 150.193 308.122 157.078C305.315 182.128 309.234 196.692 308.122 215.333C293.399 255.053 288.58 210.726 283.866 209.561C273.857 207.125 213.059 223.171 202.203 215.227L223.334 183.611C189.016 156.125 172.916 178.897 133.355 188.801C132.826 180.91 135.739 170.318 132.137 163.539C130.549 160.573 112.383 154.112 109.471 146.433C101.156 168.199 133.885 194.203 98.9317 193.249C74.4115 192.561 50.7386 171.271 38.0283 151.729C66.8912 128.903 87.3336 129.592 112.172 109.361C120.857 102.265 125.147 90.1371 136.692 83.5701C198.072 48.6169 242.134 147.227 308.122 135.841V135.894Z" fill="#343D9D"/>
<path d="M101.578 231.221C102.425 235.616 94.2695 237.682 96.282 244.408C97.1823 247.373 132.189 285.822 143.946 273.588C155.438 278.302 159.357 277.454 170.425 278.884C172.914 279.202 177.151 287.252 187.796 283.651C194.681 281.32 197.382 271.894 202.201 268.292C207.179 286.458 213.322 298.638 233.977 300.068C222.008 302.187 208.821 304.517 196.905 305.364C177.098 306.741 167.142 313.202 142.622 309.283C131.765 307.535 56.0857 262.255 53.9144 257.595C52.1138 253.729 63.7648 248.168 63.7648 244.461C63.7648 240.118 12.1823 191.607 16.8427 172.965C30.0296 177.096 99.8832 222.43 101.578 231.221Z" fill="#7673DA"/>
<path d="M38.0286 151.782C50.7918 171.324 74.4118 192.613 98.932 193.302C133.938 194.308 101.209 168.305 109.471 146.486C112.384 154.165 130.549 160.626 132.138 163.592C135.739 170.37 132.826 180.962 133.356 188.853C172.916 178.95 189.016 156.177 223.334 183.663L202.203 215.28C213.06 223.224 273.857 207.177 283.867 209.613C288.58 210.778 293.399 255.053 308.122 215.386C307.804 220.629 308.387 225.978 308.122 231.274C304.415 304.04 293.029 289.688 233.979 300.121C213.325 298.691 207.181 286.511 202.203 268.345C209.088 263.208 211.206 255.794 213.96 253.782C221.374 248.433 236.733 259.289 233.926 244.567C227.941 234.61 195.477 229.95 192.035 225.13C190.446 222.906 196.06 214.38 194.047 209.931C183.402 186.046 135.421 212.685 133.409 210.037C132.191 208.501 133.673 194.202 133.356 188.853C110.159 194.679 129.172 207.866 122.711 215.28C117.574 221.211 102.586 199.498 96.284 204.794C94.9071 205.959 131.608 245.361 101.58 231.221C99.8853 222.43 30.0317 177.096 16.8448 172.965C15.256 172.489 13.2435 173.389 11.5488 172.965C19.3339 164.651 29.1843 158.772 38.0286 151.782Z" fill="#5659B9"/>
<path d="M133.351 188.853C133.722 194.202 132.186 208.501 133.404 210.037C135.417 212.685 183.451 186.046 194.043 209.931C196.002 214.38 190.389 222.906 192.031 225.13C195.473 229.95 227.937 234.61 233.921 244.566C236.728 259.289 221.423 248.38 213.956 253.781C211.149 255.794 209.031 263.208 202.199 268.345C197.379 271.946 194.678 281.32 187.794 283.703C177.149 287.358 172.859 279.255 170.423 278.937C209.507 280.526 179.797 241.654 180.803 220.682C166.186 228.573 153.9 211.837 141.348 215.121C136.264 216.445 139.707 228.573 133.563 234.027C131.286 236.04 122.971 230.797 122.759 231.327C121.7 233.339 122.018 266.598 123.183 267.975C123.872 268.769 136.529 270.622 143.89 273.641C132.133 285.875 97.1271 247.426 96.2268 244.461C94.2143 237.735 102.37 235.722 101.523 231.274C131.551 245.414 94.8498 206.012 96.2268 204.847C102.582 199.551 117.516 221.317 122.654 215.333C129.062 207.865 110.049 194.679 133.298 188.906L133.351 188.853Z" fill="#98ABD6"/>
<path d="M143.945 273.589C136.584 270.57 123.926 268.717 123.238 267.922C122.073 266.545 121.755 233.287 122.814 231.274C123.079 230.798 131.341 236.041 133.618 233.975C139.761 228.573 136.266 216.393 141.403 215.069C153.954 211.785 166.241 228.52 180.858 220.629C179.851 241.601 209.562 280.474 170.478 278.885C159.409 277.455 155.49 278.302 143.998 273.589H143.945Z" fill="#F1F6D5"/>
<path d="M594.104 82.9342C588.172 124.454 678.945 122.76 684.135 130.651C688.742 137.747 645.527 158.507 715.91 151.782C717.87 157.554 720.783 167.246 721.206 172.965C697.586 178.897 658.608 204.476 647.063 225.925C585.683 248.644 614.917 230.638 607.714 215.333C604.801 209.084 579.116 196.691 575.409 183.557L533.306 225.872C512.758 216.922 528.169 175.507 511.963 178.155C474.521 184.299 512.493 216.975 512.493 233.763C512.493 252.193 496.234 248.274 494.699 248.909C493.057 249.598 494.963 261.09 485.59 257.648C476.216 254.205 442.269 211.996 424.633 207.336C453.602 199.233 401.172 183.451 387.562 178.208C401.543 174.236 418.119 150.352 424.633 146.433C434.325 140.607 445.923 138.965 456.409 135.841C489.72 125.937 486.278 120.324 518.054 101.841C521.178 100.04 519.695 93.632 520.119 93.5261C523.985 92.4139 572.973 153.158 535.901 72.2893C548.77 74.1958 581.552 79.8096 594.157 82.8812L594.104 82.9342Z" fill="#403F9A"/>
<path d="M721.207 172.965C721.736 180.433 719.671 187.741 715.911 194.149C673.119 202.94 687.418 241.601 681.169 257.965C679.951 261.196 670.789 264.479 668.247 268.292C653.418 290.535 634.565 314.791 604.696 315.956C604.643 303.193 609.462 298.85 604.696 284.18C610.151 278.143 618.677 266.81 615.288 257.701C620.478 250.763 650.559 238.158 652.253 235.881C654.795 232.492 646.799 226.454 647.063 225.925C658.609 204.476 697.587 178.897 721.207 172.965Z" fill="#6052B0"/>
<path d="M715.909 151.781C645.526 158.507 688.741 137.747 684.134 130.651C678.997 122.76 588.224 124.401 594.103 82.9341C611.844 87.2768 682.598 112.803 696.367 120.959C705.212 126.202 712.679 142.249 715.909 151.781Z" fill="#6052B0"/>
<path d="M535.844 72.3429C572.915 153.265 523.928 92.4675 520.062 93.5797C519.638 93.6856 521.121 100.094 517.996 101.894C486.274 120.324 489.663 125.991 456.352 135.894C466.573 111.215 508.57 68.3709 535.791 72.3429H535.844Z" fill="#655EBF"/>
<path d="M387.562 178.261C401.173 183.504 453.602 199.286 424.634 207.388C442.322 211.996 476.534 254.364 485.59 257.7C494.646 261.036 493.057 249.65 494.699 248.962C496.235 248.326 512.44 252.245 512.493 233.815C512.493 217.027 474.521 184.351 511.964 178.208C528.169 175.56 512.758 216.974 533.307 225.924L575.409 183.61C579.117 196.691 604.802 209.136 607.715 215.385C614.864 230.691 585.683 248.697 647.064 225.977C646.799 226.454 654.743 232.491 652.254 235.934C650.559 238.211 620.531 250.815 615.288 257.753C611.475 247.532 581.235 227.619 570.166 227.99C560.21 228.307 549.671 243.348 541.409 244.99C534.101 246.42 525.045 231.485 519.961 236.622C518.213 238.423 524.833 248.326 523.509 254.152C514.241 295.195 497.877 269.616 493.481 273.694C481.141 285.08 513.447 288.787 514.612 289.582C518.743 292.23 519.113 304.093 532.724 304.993C555.973 306.476 589.497 301.127 604.643 284.286C609.409 298.955 604.59 303.298 604.643 316.061C604.643 317.809 604.643 319.61 604.643 321.357C578.534 329.513 559.627 322.734 535.796 321.357C519.113 320.404 491.733 314.737 479.923 315.426C475.422 315.691 467.054 335.445 451.06 316.061C442.587 305.84 443.858 284.286 437.556 273.906C428.341 258.6 407.422 233.603 392.805 210.142C386.397 199.815 361.4 194.731 371.621 178.367C375.593 179.744 383.855 176.937 387.509 178.367L387.562 178.261Z" fill="#6965BB"/>
<path d="M514.663 289.477C513.444 288.735 481.192 285.028 493.532 273.589C497.927 269.564 514.292 295.09 523.56 254.047C524.884 248.221 518.264 238.318 520.011 236.517C525.043 231.327 534.099 246.315 541.46 244.885C549.722 243.243 560.261 228.202 570.217 227.885C581.286 227.514 611.525 247.48 615.339 257.648C618.728 266.757 610.202 278.09 604.747 284.128C596.167 257.913 565.821 251.134 544.267 263.368C538.018 266.916 537.276 276.607 535.052 278.355C530.497 281.956 518.793 263.632 514.716 289.424L514.663 289.477Z" fill="#9DADC1"/>
<path d="M604.695 284.18C589.549 301.021 556.025 306.37 532.776 304.887C519.166 304.04 518.795 292.177 514.664 289.476C518.742 263.737 530.446 282.008 535 278.407C537.225 276.659 537.966 266.968 544.215 263.42C565.77 251.186 596.116 257.965 604.695 284.18Z" fill="#D4DCC2"/>
</g>
<defs>
<clipPath id="clip0_209_2457">
<rect width="1409.15" height="782" fill="white"/>
</clipPath>
</defs>
</svg>
