<svg width="710" height="1069" viewBox="0 0 710 1069" fill="none" xmlns="http://www.w3.org/2000/svg">
<g clip-path="url(#clip0_209_2313)">
<path d="M312.233 376.057C334.199 391.408 322.957 492.33 342.501 497.129C333.032 547.98 354.868 600.084 346.868 652.793C347.344 653.442 358.673 645.572 359.797 644.145V726.301C359.451 726.647 358.543 730.841 355.473 734.949C355.214 735.295 351.279 728.333 347.776 737.76C338.047 763.92 354.219 763.444 325.205 782.513C324.211 783.162 321.832 781.821 320.881 782.513C319.843 773.389 323.476 765.174 325.205 756.569C330.394 730.712 336.188 703.254 333.767 676.618C332.772 665.635 332.859 648.037 316.557 652.793C321.962 621.444 331.172 568.432 323.303 538.034C319.714 524.154 307.347 516.155 307.909 497.129C308.212 487.141 315.606 475.423 316.557 462.537C318.892 430.799 309.25 408.401 312.233 376.057Z" fill="#769448"/>
<path d="M299.263 795.485C303.069 792.372 308.041 789.561 312.235 786.837C314.441 785.41 317.77 784.675 320.883 782.513C321.835 781.821 324.213 783.162 325.207 782.513C326.807 797.95 309.209 845.168 333.855 834.401C331.737 859.567 339.736 887.802 338.179 907.909C336.32 931.993 310.592 967.407 320.883 998.713H316.559C316.862 984.703 307.782 960.662 307.695 944.749C307.479 913.444 317.338 884.127 310.333 851.437C303.328 818.748 271.676 805.949 256.023 778.189C264.931 780.61 285.081 809.192 292.821 808.37C297.75 807.852 298.572 796.047 299.263 795.485Z" fill="#769448"/>
<path d="M243.052 605.229C251.397 626.114 261.17 653.226 273.32 670.089L312.236 786.837C308.042 789.561 303.069 792.372 299.264 795.485C275.569 733.003 258.964 665.635 230.08 605.229H243.052Z" fill="#769448"/>
<path d="M152.246 510.101C172.396 515.203 148.268 558.486 217.106 531.721C224.63 556.324 233.537 581.404 243.05 605.229H230.078C226.749 598.267 202.534 552.39 199.81 550.919C194.276 547.849 186.276 554.119 181.217 552.519C170.018 548.974 167.337 541.926 152.203 540.369C150.992 539.072 149.263 536.261 147.879 536.045C142.344 519.225 113.071 500.156 152.203 510.101H152.246Z" fill="#769448"/>
<path d="M428.983 505.777C420.421 534.488 402.823 562.508 388.813 589.057C385.743 594.851 388.164 602.418 377.095 600.905C377.225 600.472 372.079 600.688 374.673 592.257C381.894 569.037 388.208 545.298 398.715 523.073C407.795 520.695 420.637 516.587 420.335 505.777C422.367 506.642 426.821 504.912 428.983 505.777Z" fill="#769448"/>
<path d="M320.881 1041.95C321.27 1039.4 320.146 1033.82 320.881 1033.3C324.08 1031.01 363.818 1029.54 368.488 1041.95C369.353 1044.29 372.985 1067.29 370.65 1067.94C361.31 1065.99 320.275 1070.58 316.6 1067.85C315.562 1067.08 320.059 1047.44 320.924 1041.95H320.881Z" fill="#769448"/>
<path d="M147.923 536.045C149.307 536.261 151.037 539.072 152.247 540.369C120.207 537.039 79.3448 553.773 44.1475 536.002C52.5793 529.429 94.0464 519.657 104.683 518.749C105.894 518.662 108.013 518.403 109.007 518.749C120.336 522.641 121.028 531.548 147.923 536.045Z" fill="#A3CC6B"/>
<path d="M186.839 713.329C192.374 684.834 236.954 737.803 225.236 756.007C221.777 761.369 200.33 754.969 204.179 769.498C220.826 772.611 231.204 753.023 247.375 765.217C247.591 765.952 253.948 774.514 256.023 778.189C251.137 776.848 249.667 776.33 247.419 781.172C241.97 793.02 239.722 819.743 231.636 838.076C215.81 873.922 193.325 905.531 149.956 903.628C136.551 903.023 128.898 894.807 117.699 890.57C135.73 859.61 110.996 827.266 83.1067 855.978C39.4344 832.369 58.5032 850.616 63.9947 821.732C69.1835 794.49 64.6433 756.309 83.1932 732.83C107.278 702.303 155.015 700.53 184.807 721.89C197.909 723.62 186.45 715.621 186.883 713.329H186.839Z" fill="#A3CC6B"/>
<path d="M247.376 765.217C231.161 753.023 220.827 772.611 204.179 769.498C200.331 754.969 221.778 761.369 225.237 756.007C236.955 737.76 192.375 684.791 186.84 713.329C169.977 711.902 134.952 660.922 134.952 650.631V587.933C189.175 590.484 246.598 644.448 251.268 698.757C253.473 724.355 240.977 741.175 247.376 765.217Z" fill="#A3CC6B"/>
<path d="M83.0606 856.021C110.95 827.31 135.684 859.653 117.653 890.613C103.729 885.381 89.7628 883.651 78.6934 871.198C67.624 858.745 90.1952 866.442 83.0606 856.021Z" fill="#A3CC6B"/>
<path d="M709.998 907.909C674.498 906.396 658.111 934.675 624.427 945.571C577.684 960.705 445.11 980.466 426.777 916.384C426.388 915.044 425.004 889.748 425.307 888.365C426.042 884.992 434.214 884.862 436.679 879.068C447.964 852.648 446.235 841.492 475.119 826.531C533.796 796.177 587.456 826.834 648.338 828.996C669.353 837.687 672.034 859.48 682.065 873.101C690.627 884.732 707.75 892.516 709.955 907.866L709.998 907.909Z" fill="#A3CC6B"/>
<path d="M390.065 886.289C395.297 889.316 401.351 890.483 407.318 890.656C388.465 902.201 406.064 902.936 409.739 916.298C417.566 944.966 401.048 991.622 385.741 1016.01C359.754 1018 348.512 996.983 320.881 998.713C310.59 967.407 336.318 931.994 338.177 907.909C349.939 906.655 373.591 904.147 382.974 898.526C391.319 893.467 388.682 887.932 390.065 886.289Z" fill="#A3CC6B"/>
<path d="M398.715 696.032C405.633 692.184 451.857 673.288 454.451 674.758C456.397 675.839 481.735 707.275 482.816 709.264C484.935 713.199 488.394 729.024 489.562 734.948C467.293 739.791 460.98 750.212 446.322 760.892C430.669 772.308 415.362 785.496 398.758 795.484C398.412 782.426 393.785 764.741 396.207 756.439C398.974 747.012 433.22 720.204 433.263 715.49C433.35 710.258 422.929 707.577 415.967 711.08C413.589 712.291 391.234 742.861 381.462 752.244C388.856 732.7 403.428 719.252 398.758 696.032H398.715Z" fill="#A3CC6B"/>
<path d="M446.28 760.893C444.55 767.768 438.324 779.573 446.064 784.891C459.944 794.447 484.98 764.396 485.196 786.837C467.381 839.244 424.227 845.989 390.068 886.289C377.226 878.895 384.101 880.192 381.42 877.641C384.749 864.193 402.045 838.206 402.391 826.747C402.607 819.181 399.105 808.889 398.716 795.485C415.32 785.497 430.627 772.308 446.28 760.893Z" fill="#A3CC6B"/>
<path d="M320.881 998.713C348.511 996.983 359.753 1018 385.74 1016.01C378.001 1028.33 364.942 1027.08 368.444 1041.95C363.775 1029.54 324.08 1031.01 320.837 1033.3C320.102 1033.82 321.27 1039.36 320.837 1041.95H290.569L312.189 1033.26C317.465 1021.93 302.158 1025.78 303.541 1022.49C306.611 1015.19 316.081 1016.74 316.513 998.669H320.837L320.881 998.713Z" fill="#A3CC6B"/>
<path d="M485.196 786.837C484.979 764.396 459.944 794.491 446.063 784.891C438.324 779.573 444.55 767.768 446.28 760.893C460.938 750.213 467.251 739.792 489.52 734.949C494.492 760.288 493.454 762.536 485.196 786.837Z" fill="#A3CC6B"/>
<path d="M382.628 749.737C373.158 758.86 362.002 767.768 351.798 776.2L356.165 732.095C359.322 727.901 360.23 723.62 360.576 723.274C368.661 714.972 390.238 697.979 400.27 692.401C405.026 716.096 390.152 729.803 382.628 749.737Z" fill="#A3CC6B"/>
<path d="M382.63 749.737C392.619 740.138 415.363 708.962 417.828 707.751C424.919 704.205 435.556 706.929 435.469 712.248C435.383 717.091 400.488 744.419 397.678 754.018C395.213 762.493 399.926 780.524 400.315 793.842C400.705 807.549 404.293 818.013 404.077 825.71C403.731 837.384 386.089 863.891 382.673 877.641C363.086 859.134 346.438 839.373 342.936 811.484C331.91 814.77 334.85 825.407 334.158 833.536C308.993 844.519 326.98 796.35 325.337 780.61C354.913 761.152 338.439 761.628 348.341 734.949C351.887 725.35 355.951 732.441 356.211 732.095L351.843 776.2C362.005 767.768 373.204 758.861 382.673 749.737H382.63Z" fill="#A3CC6B"/>
<path d="M165.217 272.281C157.131 249.71 142.127 189.607 143.727 166.516C144.116 160.809 151.423 155.101 151.38 153.285C151.207 146.453 129.76 142.432 126.431 127.341C120.334 99.8837 132.571 87.6468 142.862 65.6809C145.759 59.4543 144.202 49.2065 144.851 48.2984C153.628 35.975 192.717 39.4342 210.835 34.6778C226.315 30.6565 271.587 0.129112 275.349 -0.000607402C277.814 -0.0870873 313.4 7.4799 322.264 8.9933C362.434 15.9117 396.983 27.8027 420.332 64.7728C425.089 72.2966 426.602 86.0469 428.98 94.9976C414.495 93.8301 413.933 73.1181 394.388 77.7881C416.83 99.8837 425.392 116.531 411.684 146.929C409.739 149.869 410.647 157.09 406.106 162.928C401.826 168.419 380.163 179.488 377.093 188.05C376.574 189.477 397.934 189.909 374.239 211.14C360.142 223.809 333.636 232.63 315.086 228.22C310.157 227.052 308.514 220.696 307.865 220.437C343.192 200.503 411.295 168.938 401.999 119.861C398.842 103.213 379.125 84.5767 364.077 95.084C362.823 95.9488 373.071 117.569 368.358 125.266L351.105 103.689C354.521 75.799 316.384 75.7125 312.233 49.5956C311.93 47.7363 351.494 33.8563 322.956 29.9214C298.612 26.5487 266.312 70.4805 246.94 83.8417C235.049 92.014 229.817 90.9762 221.385 95.0408C224.672 80.7716 239.244 64.6864 227.871 56.2113C212.046 95.43 153.758 78.3934 148.05 119.169C145.456 137.675 154.58 142.734 155.099 149.826C155.92 161.501 149.045 171.921 153.196 187.012C157.088 201.108 178.318 211.443 184.459 220.61C186.923 224.285 196.998 248.24 199.765 255.029C202.23 261.039 209.884 274.097 208.413 278.594C206.424 284.648 195.96 283.437 192.285 286.551C189.993 288.496 191.55 293.642 191.117 293.945C174.816 304.582 169.93 285.686 165.174 272.325L165.217 272.281Z" fill="#BE0619"/>
<path d="M113.33 324.17C108.79 328.839 104.638 336.234 100.358 341.466C68.3602 364.988 83.278 359.453 86.7372 383.668C87.9046 391.97 82.1105 401.223 84.9211 406.369C89.5478 414.844 105.157 412.811 109.049 414.973C119.945 421.114 119.427 444.593 134.993 451.771L113.373 462.537C98.8011 458.213 86.4345 451.338 74.4138 447.447C60.7932 442.993 66.6306 448.744 65.809 458.213C52.4046 447.36 52.4046 440.528 44.1891 432.269C39.2165 427.254 24.9905 422.627 15.9966 410.736C-3.20193 385.397 -4.71533 369.312 9.5971 341.466C27.4552 351.8 45.3998 331.304 63.82 329.834C78.3054 328.666 92.2286 339.476 113.373 324.17H113.33Z" fill="#970110"/>
<path d="M515.463 224.717C506.643 220.047 509.886 226.619 499.724 227.83C491.725 228.781 486.449 219.096 480.872 233.365C485.282 218.966 486.752 188.698 483.985 171.834C482.471 162.581 478.926 126.908 463.576 142.561C462.581 127.903 443.21 114.239 429.07 112.293C431.016 129.113 418.26 136.983 411.688 146.885C425.395 116.487 416.833 99.8832 394.392 77.7443C413.893 73.0744 414.498 93.7864 428.984 94.9538C426.649 86.0032 425.092 72.2529 420.336 64.7291C444.161 58.7188 456.138 83.7979 473.391 91.6676C488.828 98.7157 504.005 92.4892 517.28 108.315C544.132 140.486 525.884 189.995 515.463 224.717Z" fill="#9A0316"/>
<path d="M515.463 224.718C516.155 225.063 527.83 232.89 528.435 233.366C543.483 245.775 582.874 290.745 596.279 298.485C610.634 306.744 629.833 298.701 642.891 320.105C652.88 336.536 643.497 338.698 645.183 351.886C646.178 359.583 665.592 381.808 640.859 384.705C639.778 372.123 636.751 335.023 627.93 330.569C607.694 320.408 607.737 340.341 606.094 341.336C596.235 347.303 552.995 278.335 567.351 350.113C548.326 343.454 536.997 349.378 558.746 360.923L541.407 367.409C516.631 344.968 546.682 353.054 555.287 330.915C574.053 282.789 486.492 255.072 489.476 321.964C489.779 327.11 485.368 319.716 485.195 319.845C478.925 308.603 496.654 267.395 493.8 263.634C490.557 259.396 467.553 303.068 463.575 263.634C465.045 262.639 475.38 248.845 476.547 246.338C479.487 239.938 479.185 238.814 480.871 233.366C486.449 219.096 491.724 228.825 499.724 227.831C509.885 226.62 506.642 220.004 515.463 224.718Z" fill="#7B0216"/>
<path d="M511.139 402.001C534.489 417.222 588.409 437.285 614.915 427.945C630.222 424.184 621.574 445.804 623.563 458.213C596.841 481.087 573.75 503.096 538.121 508.977C527.7 510.707 517.322 510.318 506.815 510.101C512.177 497.302 554.855 485.109 554.293 477.671C554.033 474.255 543.137 472.656 541.926 470.45C539.332 465.564 546.12 458.213 543.742 453.673C541.018 448.528 524.154 445.285 519.787 440.961C508.156 429.416 493.886 411.125 480.871 397.721C491.897 398.542 501.54 411.471 511.139 402.045V402.001Z" fill="#740718"/>
<path d="M165.219 272.282C169.976 285.643 174.862 304.539 191.163 293.902C187.445 315.09 198.86 302.896 209.757 307.782C215.248 310.247 216.286 315.09 217.107 315.522C228.825 352.189 209.8 340.212 208.459 341.466C202.881 322.008 184.332 307.739 167.425 298.183C177.283 314.311 185.802 329.921 182.472 350.114L178.191 341.509C145.632 327.845 146.107 290.356 113.332 324.213C92.1872 339.477 78.2207 328.71 63.7786 329.878C45.3583 331.348 27.457 351.843 9.55566 341.509C24.8194 311.803 53.2713 298.788 85.4418 293.815C93.7438 292.518 101.743 298.788 110.132 297.404C122.715 295.286 147.794 270.293 165.176 272.325L165.219 272.282Z" fill="#D60319"/>
<path d="M528.436 233.366C542.229 240.889 564.108 233.884 575.956 239.895C578.81 241.322 589.663 259.742 597.576 265.839C651.237 307.046 666.63 287.934 658.372 374.112C657.464 383.581 651.021 388.511 649.767 395.775C643.194 434.042 655.302 431.059 623.563 458.213C621.574 445.803 630.222 424.184 614.915 427.945C615.651 427.686 618.158 421.805 621.834 419.859C627.844 416.66 637.443 416.271 639.995 414.325C642.546 412.379 641.119 393.526 640.859 389.029C640.773 387.603 640.989 386.132 640.859 384.705C665.593 381.808 646.135 359.583 645.183 351.886C643.497 338.698 652.923 336.579 642.892 320.105C629.876 298.701 610.635 306.744 596.279 298.485C582.831 290.745 543.44 245.775 528.436 233.366Z" fill="#9F0E22"/>
<path d="M519.787 440.917C524.154 445.241 541.018 448.484 543.742 453.63C546.164 458.17 539.332 465.521 541.926 470.407C543.137 472.656 554.033 474.212 554.293 477.628C554.855 485.065 512.177 497.259 506.815 510.058C505.086 514.209 509.885 526.143 504.567 527.441C499.248 528.738 438.972 509.669 428.983 505.734C426.821 504.869 422.368 506.599 420.335 505.734C419.6 505.431 408.833 498.167 407.363 497.086C418.562 476.417 438.15 498.686 453.025 501.107C491.335 507.377 523.333 479.401 519.787 440.874V440.917Z" fill="#8F1321"/>
<path d="M65.7652 458.213C71.9486 463.229 90.2823 477.931 96.0332 479.833C105.33 492.2 121.934 488.006 134.949 488.525L109.005 518.749C108.011 518.403 105.892 518.663 104.681 518.749C85.3097 480.914 24.6008 483.509 44.1453 432.269C52.3609 440.528 52.3609 447.36 65.7652 458.213Z" fill="#C11425"/>
<path d="M221.431 94.9976C229.863 90.933 235.095 91.9708 246.986 83.7984C266.358 70.4805 298.658 26.5487 323.002 29.8782C351.54 33.813 311.976 47.6931 312.279 49.5524C316.43 75.6693 354.567 75.7558 351.151 103.646C347.606 116.055 323.175 122.109 321.143 127.99C319.802 131.795 328.45 158.777 329.661 159.901C330.093 160.29 337.185 154.409 338.136 155.534C341.855 159.987 330.699 177.37 319.413 163.317C304.409 144.68 317.381 116.877 322.224 95.7327C322.44 94.7814 343.109 85.3983 319.673 87.1711C283.438 89.8953 276.389 121.244 286.248 151.21C270.509 145.026 284.302 115.969 273.363 108.013C273.968 121.158 263.936 136.594 264.844 148.831C266.488 170.322 291.999 166.257 273.319 198.773C272.93 199.465 265.882 197.736 264.931 198.99C259.396 206.384 317.467 257.753 329.531 263.633C315.219 264.282 300.604 262.855 286.291 263.633C303.544 258.012 301.988 255.893 286.291 246.337C285.081 228.868 256.456 220.912 248.673 210.448C245.905 206.686 247.246 197.563 243.397 192.071C210.794 145.718 207.811 154.409 221.431 94.9976Z" fill="#800111"/>
<path d="M273.316 198.773C291.996 166.257 266.484 170.321 264.841 148.831C263.89 136.551 273.921 121.157 273.359 108.012C284.299 115.968 270.505 145.026 286.245 151.209C276.386 121.244 283.434 89.8948 319.669 87.1707C343.149 85.3979 322.437 94.7809 322.22 95.7322C317.378 116.92 304.406 144.723 319.41 163.316C330.695 177.326 341.851 159.944 338.133 155.533C337.181 154.409 330.133 160.289 329.658 159.9C328.404 158.819 319.799 131.838 321.139 127.989C323.172 122.109 347.646 116.055 351.148 103.645L368.401 125.222C373.114 117.482 362.866 95.9052 364.12 95.0404C379.124 84.533 398.885 103.169 402.041 119.817C411.338 168.851 343.278 200.459 307.908 220.393C295.195 215.42 279.716 213.085 273.316 198.773Z" fill="#41000C"/>
<path d="M411.683 146.886C418.213 136.984 431.012 129.114 429.066 112.294C443.205 114.24 462.577 127.903 463.571 142.562C464.825 160.809 453.669 215.81 441.951 229.042C435.465 236.349 437.238 242.014 424.655 233.366C430.233 218.016 429.714 206.038 428.936 190.126C423.445 201.628 400.095 202.017 398.928 203.314C397.587 204.827 395.814 232.587 393.609 243.441C392.225 250.273 383.318 256.586 398.711 254.986C371.47 265.493 356.985 262.38 329.527 263.634C317.464 257.753 259.435 206.384 264.927 198.99C265.878 197.736 272.926 199.422 273.316 198.774C279.715 213.086 295.195 215.421 307.907 220.394C308.556 220.653 310.199 227.009 315.129 228.177C333.678 232.587 360.185 223.766 374.281 211.097C397.976 189.823 376.616 189.434 377.135 188.007C380.205 179.489 401.825 168.419 406.149 162.885C410.689 157.047 409.781 149.826 411.727 146.886H411.683Z" fill="#580010"/>
<path d="M221.431 94.9979C181.348 114.413 217.842 172.484 217.107 198.774C216.891 206.081 209.151 223.031 210.102 234.922C213.259 274.487 244.997 273.363 273.319 276.606C284.475 277.86 296.712 275.438 307.911 276.606C310.332 290.572 300.863 284 292.777 285.038C252.694 290.14 228.998 284.086 199.811 254.986C197.044 248.24 186.926 224.242 184.504 220.567C178.407 211.4 157.133 201.109 153.242 186.969C149.091 171.835 155.966 161.414 155.144 149.783C154.625 142.692 145.502 137.633 148.096 119.126C153.761 78.3505 212.091 95.3871 227.917 56.1685C239.289 64.6435 224.717 80.7287 221.431 94.9979Z" fill="#710111"/>
<path d="M178.191 341.465C164.657 338.957 170.797 348.167 169.414 356.253C167.468 367.798 166.56 388.986 162.971 397.59C157.912 409.611 113.202 430.928 145.718 445.241C156.355 421.805 179.143 407.925 191.336 387.04C196.439 378.305 206.038 343.8 208.503 341.508C209.843 340.254 228.869 352.232 217.15 315.564C235.441 325.596 250.143 329.747 247.418 354.48C246.77 360.274 242.749 367.712 238.77 371.776C214.297 396.855 224.545 390.586 208.503 415.016C201.973 425.005 174.386 442.214 171.619 449.738C166.041 465.002 187.315 469.282 152.291 479.876C151.858 462.667 130.108 467.553 113.375 462.58L134.995 451.813C119.428 444.636 119.947 421.113 109.051 415.016C105.808 401.871 120.509 397.201 122.152 386.694C123.795 376.187 117.136 366.631 118.607 357.68C120.639 345.14 143.426 332.558 143.513 330.698C144.291 314.916 105.073 338.049 100.359 341.508C104.64 336.276 108.791 328.882 113.331 324.212C146.107 290.355 145.632 327.844 178.191 341.508V341.465Z" fill="#83000F"/>
<path d="M109.004 414.973C105.112 412.811 89.5029 414.8 84.8762 406.368C82.0656 401.223 87.8597 391.969 86.6923 383.667C83.2763 359.453 68.3153 365.031 100.313 341.465C105.026 338.006 144.245 314.916 143.466 330.655C143.38 332.471 120.592 345.097 118.56 357.637C117.09 366.588 123.749 376.1 122.106 386.651C120.463 397.201 105.718 401.828 109.004 414.973Z" fill="#5A000D"/>
<path d="M113.328 462.537C130.062 467.51 151.812 462.623 152.244 479.833C135.51 484.892 112.68 485.281 96.0324 479.833C90.2815 477.93 71.9477 463.229 65.7644 458.213C66.586 448.743 60.7486 442.993 74.3692 447.446C86.3899 451.338 98.7565 458.213 113.328 462.537Z" fill="#62010E"/>
<path d="M463.575 142.561C478.925 126.952 482.471 162.582 483.984 171.835C486.752 188.655 485.282 218.923 480.871 233.365C479.185 238.814 479.487 239.938 476.547 246.337C462.062 238.77 445.458 255.288 441.955 229.041C453.673 215.81 464.829 160.809 463.575 142.561Z" fill="#D9021C"/>
<path d="M463.574 263.634C467.552 303.069 490.556 259.396 493.799 263.634C496.653 267.396 478.924 308.603 485.194 319.846C480.87 322.699 479.703 321.618 480.87 328.494C466.904 313.533 470.276 302.852 467.077 299.09C465.779 297.534 434.863 286.032 429.025 285.297C426.301 298.658 446.321 303.025 449.391 308.128C457.002 320.667 458.515 334.158 472.265 354.481C483.638 371.344 494.231 391.019 511.181 402.045C501.582 411.471 491.94 398.542 480.913 397.721C470.709 387.213 460.807 379.819 450.645 367.453C447.013 363.042 445.111 347.822 433.436 345.833C421.156 370.653 409.265 351.238 398.757 384.749C387.126 386.132 382.11 408.228 374.846 388.9C368.965 373.29 392.185 355.692 385.742 337.185C376.402 344.838 369.138 337.315 364.166 337.185C348.34 336.709 334.027 335.455 320.926 345.833C319.023 347.346 312.624 353.313 312.278 354.481C293.555 346.438 280.453 354.481 260.39 354.481C260.995 331.131 273.535 340.471 284.95 333.726C308.559 319.846 334.243 303.025 359.842 293.945C387.299 284.216 439.662 280.022 463.617 263.677L463.574 263.634Z" fill="#4E0311"/>
<path d="M485.194 319.846C485.194 319.846 489.777 327.11 489.475 321.965C486.491 255.072 574.052 282.789 555.286 330.915C546.638 353.054 516.629 344.968 541.406 367.41C550.875 376.015 581.23 399.926 593.25 388.986C597.488 385.181 581.662 355.086 567.35 350.114C552.994 278.335 596.234 347.303 606.093 341.336C607.736 340.342 607.693 320.408 627.929 330.569C636.707 334.98 639.777 372.123 640.858 384.706C640.987 386.133 640.771 387.603 640.858 389.03L554.421 393.397L619.238 402.002C621.659 412.12 615.043 412.206 607.433 413.72C544.822 426.043 536.736 387.084 493.885 358.762C489.302 351.973 491.507 332.429 488.999 328.883C487.615 326.937 481.518 329.099 480.913 328.494C479.746 321.619 480.913 322.7 485.237 319.846H485.194Z" fill="#540415"/>
<path d="M476.548 246.338C475.38 248.846 465.046 262.639 463.576 263.634C439.621 279.978 387.257 284.173 359.8 293.902C348.341 281.967 324.17 278.335 307.912 276.606C296.713 275.438 284.476 277.86 273.32 276.606C262.294 259.396 272.282 264.369 286.292 263.634C300.302 262.899 315.219 264.282 329.532 263.634C356.989 262.38 371.475 265.493 398.716 254.986C415.19 248.629 417.828 252.261 424.66 233.366C437.243 242.014 435.47 236.349 441.956 229.042C445.458 255.288 462.062 238.771 476.548 246.338Z" fill="#AF0519"/>
<path d="M567.351 350.113C581.707 355.129 597.489 385.181 593.252 388.986C581.188 399.882 550.877 376.014 541.407 367.409L558.746 360.923C536.997 349.378 548.326 343.454 567.351 350.113Z" fill="#BE0822"/>
<path d="M480.867 397.678C493.883 411.082 508.152 429.372 519.783 440.917C523.372 479.444 491.332 507.377 453.021 501.151C438.146 498.729 418.559 476.461 407.36 497.129C400.917 492.503 392.831 487.833 390.064 479.833C388.334 474.818 391.88 462.667 390.064 458.213C407.403 462.148 413.975 478.623 435.552 480.093C502.66 484.633 452.545 403.645 450.599 367.41C460.761 379.776 470.663 387.17 480.867 397.678Z" fill="#C01023"/>
<path d="M493.84 358.762C536.734 387.084 544.777 426.043 607.388 413.72C614.998 412.206 621.614 412.12 619.193 402.002L554.376 393.397L640.813 389.03C641.115 393.527 642.585 412.336 639.948 414.325C637.31 416.314 627.797 416.66 621.787 419.86C618.112 421.805 615.604 427.729 614.869 427.946C588.363 437.285 534.442 417.222 511.093 402.002C494.143 390.975 483.549 371.301 472.177 354.438C476.976 344.017 487.57 354.654 493.797 358.762H493.84Z" fill="#AE081E"/>
<path d="M199.812 254.986C228.999 284.086 252.694 290.14 292.778 285.037C300.864 284 310.333 290.572 307.912 276.606C324.17 278.335 348.341 281.967 359.8 293.902C334.202 302.982 308.517 319.802 284.908 333.682C273.493 340.384 260.996 331.088 260.348 354.437C257.364 354.437 252.262 359.237 247.376 354.437C250.1 329.704 235.398 325.553 217.108 315.522C216.286 315.089 215.248 310.203 209.757 307.782C198.86 302.895 187.445 315.132 191.164 293.902C191.596 293.642 190.04 288.453 192.331 286.508C196.007 283.394 206.471 284.605 208.46 278.551C209.93 274.054 202.276 260.996 199.812 254.986Z" fill="#9C0416"/>
<path d="M178.19 341.465L182.471 350.07C185.8 329.92 177.282 314.311 167.423 298.139C184.33 307.695 202.88 321.964 208.458 341.422C206.037 343.757 196.437 378.219 191.292 386.954C179.098 407.839 156.311 421.762 145.674 445.155C113.157 430.842 157.867 409.568 162.926 397.504C166.515 388.9 167.423 367.712 169.369 356.167C170.753 348.081 164.569 338.871 178.147 341.379L178.19 341.465Z" fill="#62000C"/>
<path d="M238.728 371.734C247.376 408.228 276.563 435.642 268.996 475.509C265.277 495.14 235.788 524.457 217.108 531.721C148.27 558.487 172.398 515.204 152.248 510.101C169.414 473.823 187.143 494.189 213.476 490.427C250.187 485.195 212.957 435.512 208.46 414.973C224.502 390.543 214.254 396.813 238.728 371.734Z" fill="#6B0816"/>
<path d="M208.46 414.973C212.957 435.512 250.187 485.195 213.476 490.427C187.143 494.189 169.458 473.823 152.248 510.101C113.116 500.156 142.389 519.225 147.924 536.045C121.029 531.548 120.337 522.641 109.008 518.749L134.952 488.525C121.937 488.006 105.333 492.2 96.0361 479.833C112.684 485.282 135.514 484.892 152.248 479.833C187.272 469.24 165.998 464.959 171.576 449.695C174.344 442.171 201.888 424.962 208.46 414.973Z" fill="#A20415"/>
<path d="M217.108 198.774C241.538 199.206 249.711 223.853 266.834 237.733C274.747 244.132 281.535 243.441 286.292 246.338C301.988 255.894 303.545 258.012 286.292 263.634C272.282 264.369 262.294 259.396 273.32 276.606C244.954 273.363 213.216 274.487 210.103 234.922C209.152 223.031 216.935 206.038 217.108 198.774Z" fill="#58000C"/>
<path d="M221.431 94.9978C207.81 154.409 210.837 145.718 243.397 192.071C247.245 197.563 245.905 206.73 248.672 210.448C256.455 220.913 285.08 228.869 286.291 246.338C281.534 243.441 274.746 244.132 266.833 237.733C249.71 223.853 241.537 199.206 217.107 198.774C217.842 172.484 181.347 114.413 221.431 94.9978Z" fill="#B60317"/>
<path d="M424.659 233.366C417.827 252.262 415.19 248.629 398.715 254.986C383.322 256.586 392.229 250.229 393.613 243.441C395.818 232.631 397.591 204.827 398.932 203.314C400.056 202.06 423.449 201.628 428.94 190.126C429.718 206.038 430.237 217.972 424.659 233.366Z" fill="#20010A"/>
<path d="M450.603 367.41C452.506 403.645 502.664 484.633 435.556 480.093C413.979 478.623 407.407 462.148 390.067 458.213C386.479 449.436 377.528 437.631 372.771 427.945C388.511 431.794 377.052 414.801 383.365 406.023C386.392 401.785 396.294 403.299 398.024 401.31C401.094 397.85 397.418 388.813 398.715 384.706C409.266 351.238 421.114 370.609 433.394 345.79C445.025 347.779 446.971 362.999 450.603 367.41Z" fill="#EB162A"/>
<path d="M364.124 337.142C369.096 337.271 376.36 344.795 385.7 337.142C392.143 355.648 368.923 373.204 374.804 388.857C382.068 408.185 387.084 386.089 398.716 384.706C397.418 388.857 401.094 397.85 398.024 401.31C396.251 403.299 386.392 401.785 383.365 406.023C377.052 414.844 388.511 431.837 372.772 427.945C368.621 419.47 360.967 407.839 355.476 397.678C373.334 399.321 360.275 353.962 364.124 337.142Z" fill="#7D0817"/>
<path d="M472.22 354.438C458.512 334.115 456.956 320.624 449.346 308.084C446.276 303.025 426.255 298.615 428.98 285.254C434.817 285.989 465.734 297.491 467.031 299.047C470.23 302.809 466.901 313.489 480.824 328.45C481.386 329.056 487.526 326.937 488.91 328.84C491.418 332.342 489.213 351.93 493.796 358.718C487.57 354.611 476.976 343.974 472.176 354.394L472.22 354.438Z" fill="#7B0216"/>
</g>
<defs>
<clipPath id="clip0_209_2313">
<rect width="710" height="1068.76" fill="white"/>
</clipPath>
</defs>
</svg>
