<svg width="500" height="886" viewBox="0 0 500 886" fill="none" xmlns="http://www.w3.org/2000/svg">
<g clip-path="url(#clip0_209_947)">
<path d="M381.618 471.052C380.933 469.742 372.982 466.525 372.177 466.347C370.391 459.884 380.784 466.883 380.04 462.416C379.682 460.331 369.408 456.042 366.698 456.817C366.132 456.966 360.712 465.215 359.58 466.347C358.031 466.496 356.423 466.257 354.845 466.347C359.58 456.847 367.174 455.089 361.158 449.014L369.05 442.7L353.266 439.544C353.356 434.6 352.7 430.162 351.658 425.368C351.122 455.894 347.667 429.775 339.061 420.632C342.188 415.182 347.757 408.422 351.688 403.3C350.586 408.571 358.955 404.908 361.158 411.192C360.682 413.515 361.635 416.761 361.158 419.084C360.384 422.896 351.747 432.753 363.809 432.783C373.577 432.813 369.348 423.313 370.599 420.662C371.105 419.59 371.701 418.577 372.177 417.505C372.326 417.178 377.479 414.378 378.491 414.348C376.347 432.307 384.447 422.27 387.604 428.882C389.659 433.2 385.013 437.965 387.872 441.896C393.382 449.431 410.03 440.318 417.892 439.573C414.408 445.917 389.987 452.826 413.157 449.044C414.11 454.911 403.091 452.796 402.138 453.779C400.648 455.298 404.818 458.306 404.758 459.289C404.639 461.105 400.797 465.215 402.138 466.377L381.618 471.112V471.052Z" fill="#F1ACD4"/>
<path d="M480.968 330.723C480.253 328.608 470.723 308.833 466.792 313.39C470.306 324.945 463.754 338.555 471.498 348.085C453.956 379.534 455.386 417.416 421.048 437.966C420.452 438.323 420.006 439.068 419.469 439.544C418.963 439.633 418.397 439.484 417.891 439.544C409.999 440.289 393.381 449.402 387.871 441.867C384.983 437.936 389.658 433.171 387.603 428.852C384.446 422.271 376.346 432.307 378.49 414.319C379.294 407.499 391.564 378.82 396.031 376.556C397.431 375.842 400.528 378.76 401.869 377.807C408.569 373.012 412.411 362.827 413.215 362.261C415.479 360.683 419.261 365.21 421.524 365.061C424.979 364.822 432.543 355.948 433.675 357.526C434.152 358.181 433.199 361.844 433.705 362.231C436.087 364.018 443.295 355.977 447.464 367.979C448 369.528 445.498 374.025 446.302 374.859C454.254 383.019 461.551 355.024 454.195 351.242L460.449 344.869C449.846 340.7 459.585 340.402 460.419 337.334C461.134 334.654 463.516 315.862 462.891 314.909C456.994 306.302 445.737 328.4 444.664 329.115C444.069 329.502 432.752 326.524 432.097 322.801C441.001 314.76 451.187 305.141 458.9 295.998C459.853 294.866 460.985 293.853 462.057 292.841C465.065 314.283 493.685 308.178 480.968 330.693V330.723Z" fill="#F1ACD4"/>
<path d="M380.04 247.156C388.379 254.81 385.967 266.068 388.23 272.828C389.451 276.461 394.246 277.742 395.467 281.375C396.956 285.783 393.71 299.989 400.53 300.763V278.695C411.549 276.551 404.491 293.794 405.265 294.449C406.784 295.73 435.612 282.358 443.117 281.852C449.074 281.435 454.494 279.916 455.745 286.587C455.923 287.51 455.983 290.548 455.745 291.322L397.403 329.174C398.981 326.911 403.776 313.748 402.108 311.842C397.671 306.689 372.148 333.165 378.462 343.38V344.959C374.293 347.847 366.758 354.101 362.708 357.586C355.381 348.8 370.838 329.353 370.302 324.141C369.498 316.1 359.968 311.842 359.729 310.978C359.283 309.489 363.005 295.7 361.099 292.93C360.861 292.573 354.905 297.964 353.237 296.087C352.552 295.313 353.922 287.48 353.237 286.647C351.391 284.413 343.379 294.956 346.953 281.911C348.085 277.802 350.795 272.649 353.267 269.284C357.287 263.804 364.107 261.243 367.473 255.078C369.379 254.721 369.766 253.887 370.629 253.5C372.714 252.606 374.144 249.39 375.365 248.765C376.02 248.407 376.616 247.276 376.943 247.186C377.628 246.978 379.177 247.127 380.1 247.186L380.04 247.156ZM402.912 296.028V297.606L403.687 296.832L402.912 296.058V296.028Z" fill="#F1ACD4"/>
<path d="M293.317 710.763C302.728 697.719 295.104 668.831 294.806 650.128C294.538 633.034 294.508 615.582 298.023 598.815C294.747 618.471 302.311 612.485 304.366 614.569C305.945 616.177 301.418 629.192 301.239 632.736C300.465 645.959 306.421 734.737 313.837 739.145C325.481 746.024 313.181 716.66 312.705 714.248C307.344 686.432 306.391 657.782 307.523 629.49C307.642 626.452 305.915 623.176 310.68 624.04C309.995 662.041 312.169 701.739 324.885 737.566C324.915 738.103 324.826 738.639 324.885 739.145C325.183 742.063 326.434 743.612 326.464 743.88C326.553 744.386 326.345 744.952 326.464 745.459C327.03 748.109 327.357 748.318 328.042 750.194C329.621 754.453 329.829 760.498 334.326 762.821C336.262 757.669 329.293 743.553 337.513 742.331C338.108 754.393 335.726 766.752 339.925 778.546C350.497 800.137 362.976 820.389 375.365 841.027C363.006 865.15 346.358 833.075 339.061 821.163C336.768 817.41 335.964 808.893 329.591 808.536C328.638 798.44 326.404 800.227 324.856 795.908C322.354 788.91 320.299 783.668 316.964 776.997C319.376 771.219 313.837 761.183 309.072 759.664C308.476 759.456 307.91 758.622 307.493 758.086C307.374 757.58 307.612 757.014 307.493 756.507C304.515 744.327 300.524 733.457 298.023 721.812C296.802 716.124 300.703 717.047 294.866 715.498C294.33 715.35 293.645 715.677 293.287 715.498C293.555 714.277 292.9 711.329 293.287 710.763H293.317Z" fill="#A3CC6B"/>
<path d="M471.498 396.957C474.029 392.311 478.884 386.771 480.641 381.649C481.534 379.058 487.103 341.593 491.988 348.085C497.438 355.322 488.682 369.468 487.61 374.442C485.793 382.9 484.423 391.626 482.547 400.084C484.274 401.334 488.89 392.102 489.069 391.596C493.625 379.802 492.643 369.141 495.174 358.3C496.336 353.357 497.11 356.096 499.88 357.526C500.624 374.74 497.944 384.955 490.409 400.113C478.884 423.283 449.37 464.441 421.406 467.628C419.738 467.807 402.852 466.943 402.137 466.317C400.797 465.186 404.639 461.046 404.758 459.229C404.817 458.247 400.678 455.209 402.137 453.72C403.09 452.737 414.139 454.852 413.156 448.985C421.435 447.615 429.536 444.309 436.803 439.514C444.963 439.544 432.306 451.725 435.254 455.269C436.951 457.294 472.808 425.308 473.076 419.025C465.542 419.829 457.501 429.716 454.135 436.328L451.008 426.887C455.267 422.509 460.925 415.093 463.636 409.554C468.252 410.745 467.06 405.772 468.371 403.24C469.443 401.185 470.456 398.892 471.528 396.927L471.498 396.957Z" fill="#F1ACD4"/>
<path d="M342.216 512.061C339.744 526.267 339.655 541.158 339.059 554.649C339 555.87 337.57 558.312 337.481 560.962V562.541C336.528 611.144 343.824 660.462 337.481 709.184C337.034 699.089 336.26 675.323 334.324 666.597C334.265 666.269 330.482 670.677 329.619 661.862C329.678 660.879 329.738 659.688 329.619 658.705C332.21 656.948 329.916 656.412 329.619 655.548C322.233 634.433 322.709 585.979 321.727 562.511C322.948 557.686 325.032 555.095 326.462 549.884C339.863 551.194 331.971 547.322 332.954 542.706C334.175 537.078 336.915 531.211 337.481 524.659C337.689 522.276 337.481 515.516 337.481 512.031H342.216V512.061Z" fill="#A3CC6B"/>
<path d="M313.835 23.2297C308.921 22.3065 311.125 25.6717 310.618 28.6201C305.347 60.7245 310.201 94.4072 307.432 128.03C306.657 137.441 308.146 147.746 307.491 157.276C302.726 158.497 303.53 152.481 302.756 149.413C300.076 148.669 301.505 152.481 301.207 152.57C300.254 152.779 298.855 152.302 298.051 152.57C298.438 148.729 296.204 144.768 296.472 141.521C299.51 103.669 296.651 40.5922 306.121 6.87969C311.75 -13.193 313.031 16.5289 313.835 23.2595V23.2297Z" fill="#A3CC6B"/>
<path d="M189.259 127.316C189.527 125.708 192.833 116.386 193.607 115.135C198.938 106.29 198.58 130.473 198.729 133.63C198.759 134.672 198.729 135.744 198.729 136.786C198.729 141.879 199.742 155.906 198.461 159.391C196.853 163.768 192.624 160.135 192.416 160.433C189.557 164.394 196.198 212.521 197.181 221.247C197.627 225.237 195.096 229.943 195.453 231.908C195.662 232.951 204.745 237.239 203.435 247.156L190.837 236.137C190.42 241.557 192.773 246.442 192.416 251.892C191.641 263.536 189.05 272.441 190.927 285.425C190.986 285.842 198.759 290.756 189.259 288.165C189.199 287.004 187.8 283.877 187.68 280.273C187.561 277.116 187.77 273.96 187.68 270.803C187.651 269.224 187.71 267.646 187.68 266.068C187.591 262.404 187.74 258.712 187.68 255.019V253.44C187.591 248.735 187.74 243.97 187.68 239.234V237.656C187.68 237.12 187.68 236.614 187.68 236.078C187.68 235.035 187.68 233.963 187.68 232.921C187.621 220.055 187.68 207.1 187.68 194.294V148.55C187.68 144.857 188.663 130.771 189.259 127.256V127.316Z" fill="#A3CC6B"/>
<path d="M313.837 23.2296C317.798 56.6741 319.972 90.5058 321.729 124.159C320.627 126.869 322.801 134.701 316.994 133.629C317.5 121.687 314.313 109.03 312.288 97.3555C312.258 116.326 312.914 135.208 310.68 154.119C310.114 158.943 310.948 164.155 307.523 168.325C306.898 164.691 302.073 156.889 301.21 152.57C301.507 152.511 300.078 148.699 302.758 149.413C303.532 152.481 302.728 158.497 307.493 157.276C308.149 147.746 306.66 137.471 307.434 128.03C310.204 94.4072 305.349 60.7244 310.62 28.6201C311.097 25.6717 308.893 22.3064 313.837 23.2296Z" fill="#A3CC6B"/>
<path d="M480.971 330.723C481.209 331.408 480.911 332.867 480.971 333.88C472.066 335.637 480.733 336.649 480.971 337.036C481.269 337.513 480.345 340.461 481.328 341.295C493.628 351.719 498.512 325.183 499.882 357.526C497.112 356.126 496.308 353.386 495.177 358.3C492.645 369.141 493.658 379.803 489.071 391.596C488.893 392.102 484.277 401.335 482.549 400.084C484.455 391.626 485.825 382.9 487.612 374.442C488.684 369.468 497.44 355.322 491.99 348.085C487.106 341.593 481.537 379.058 480.643 381.649C478.886 386.771 474.032 392.311 471.5 396.957C467.182 388.528 478.291 381.381 479.065 372.566C479.631 365.954 474.866 363.81 474.538 361.547C473.257 352.553 477.546 357.943 477.784 357.556C482.43 349.247 471.917 348.621 471.5 348.085C463.757 338.585 470.309 324.945 466.795 313.39C470.726 308.833 480.256 328.608 480.971 330.723ZM478.618 346.507V348.085L479.392 347.311L478.618 346.537V346.507ZM477.04 360.683V362.261L477.814 361.487L477.04 360.713V360.683Z" fill="#E575B1"/>
<path d="M329.592 661.892C330.456 670.707 334.238 666.299 334.298 666.627C336.233 675.323 337.008 699.119 337.455 709.214C337.961 720.204 336.918 731.372 337.455 742.331C329.235 743.552 336.233 757.669 334.268 762.821C329.771 760.528 329.562 754.482 327.984 750.194L326.406 745.458C326.286 744.952 326.495 744.386 326.406 743.88L324.827 739.145C324.768 738.639 324.857 738.102 324.827 737.566C322.713 712.342 327.716 686.789 329.562 661.862L329.592 661.892Z" fill="#A3CC6B"/>
<path d="M386.355 248.734C389.542 250.819 393.711 261.421 395.826 264.489C398.685 268.628 399.072 271.398 406.875 269.224V270.802C405.713 270.802 402.348 270.594 402.139 270.802C395.409 277.622 420.574 276.222 424.207 275.537C412.801 288.343 427.96 286.229 435.256 278.694C435.673 278.903 436.418 278.486 436.835 278.694C437.996 279.32 439.187 283.191 443.148 281.851C435.643 282.357 406.815 295.729 405.296 294.449C404.552 293.823 411.58 276.55 400.561 278.694V300.762C393.741 299.988 396.957 285.782 395.498 281.375C394.277 277.741 389.482 276.431 388.261 272.827C385.998 266.037 388.41 254.81 380.071 247.156C381.024 247.215 385.849 248.377 386.385 248.734H386.355Z" fill="#E575B1"/>
<path d="M189.26 300.762L193.965 297.605C195.127 301.953 193.965 311.752 194.799 315.176C195.722 318.869 199.981 319.227 200.279 320.835C201.023 324.647 203.853 350.854 203.585 353.624C203.287 356.662 199.564 356.334 199.266 359.015C198.849 362.618 206.414 371.999 198.7 371.731C197.837 360.593 195.037 347.966 192.387 337.036C192.387 335.994 192.357 334.921 192.387 333.879C192.476 330.99 196.914 325.123 190.808 321.252C190.66 317.202 189.349 313.747 189.23 311.781C189.17 310.739 189.29 309.667 189.23 308.624C189.081 306.004 189.379 303.353 189.23 300.732L189.26 300.762ZM191.612 303.919V305.497L192.387 304.723L191.612 303.949V303.919Z" fill="#A3CC6B"/>
<path d="M455.744 286.587C469.146 285.277 461.552 289.327 462.058 292.901C460.986 293.913 459.854 294.926 458.901 296.057C458.782 287.212 451.724 299.929 449.49 298.44C451.158 296.266 455 293.913 455.774 291.322C456.012 290.578 455.953 287.54 455.774 286.587H455.744Z" fill="#A3CC6B"/>
<path d="M480.97 333.88C481.03 334.922 480.94 335.994 480.97 337.037C480.732 336.649 472.065 335.637 480.97 333.88Z" fill="#E575B1"/>
<path d="M316.963 133.629C316.665 140.776 315.354 148.46 310.649 154.118C312.883 135.207 312.198 116.326 312.257 97.3551C314.282 109 317.469 121.657 316.963 133.629Z" fill="#A3CC6B"/>
<path d="M320.121 532.581C318.87 544.047 315.058 555.929 313.807 567.276C314.939 558.252 316.369 545.506 316.994 536.542C317.024 535.946 308.119 537.882 318.543 527.845C318.543 528.084 320.091 529.99 320.121 532.581Z" fill="#A3CC6B"/>
<path d="M383.198 366.996V368.575C373.192 377.479 363.155 389.571 354.817 400.113C353.893 401.275 352.523 402.138 351.66 403.27C347.729 408.422 342.159 415.183 339.032 420.603C337.543 423.194 337.067 424.474 335.876 426.916C324.32 450.622 321.759 488.058 320.121 515.218L312.229 506.522C311.842 505.271 314.939 506.224 315.267 504.557C315.565 503.008 321.164 474.031 315.386 480.523C315.207 487.015 310.383 498.124 309.608 503.604C308.745 509.887 309.876 538.835 309.013 540.473C308.923 540.622 306.69 539.162 305.886 538.894C300.138 553.636 306.749 565.936 304.307 579.874L309.013 575.168L310.591 587.766C310.234 580.886 312.944 573.858 313.778 567.276C311.812 585.085 310.949 606.052 310.621 624.039C305.856 623.146 307.583 626.452 307.464 629.489C306.362 657.782 307.315 686.432 312.646 714.247C313.123 716.66 325.422 746.024 313.778 739.145C306.362 734.737 300.406 645.959 301.18 632.736C301.389 629.192 305.886 616.177 304.307 614.569C302.252 612.484 294.688 618.441 297.964 598.815C294.45 615.582 294.479 633.033 294.747 650.128C295.045 668.801 302.64 697.719 293.258 710.763C288.523 691.197 287.243 670.796 285.366 650.843C287.957 624.397 284.8 596.73 285.277 569.54C285.605 552.117 288.076 534.189 288.523 516.797C289.119 519.328 293.378 521.323 294.837 519.924C296.594 518.226 296.058 476.324 295.641 470.963C295.284 466.734 295.849 463.548 290.131 464.769C289.804 459.14 288.672 439.871 286.975 436.387C290.042 436.119 293.407 436.774 296.445 436.387C295.79 440.854 301.18 447.972 301.18 451.367V489.993C307.047 483.948 307.553 473.643 310.651 466.347C310.71 466.198 313.212 466.645 313.42 466.139L323.278 431.652C329.741 417.654 344.75 406.873 350.081 390.643C359.075 389.541 364.227 376.675 369.588 372.297C373.251 369.319 382.632 367.473 383.198 366.996ZM304.754 609.804C304.754 608.732 303.89 607.868 302.818 607.868C301.746 607.868 300.882 608.732 300.882 609.804C300.882 610.876 301.746 611.74 302.818 611.74C303.89 611.74 304.754 610.876 304.754 609.804Z" fill="#A3CC6B"/>
<path d="M432.097 322.83C432.752 326.553 444.099 329.561 444.665 329.144C445.737 328.429 456.964 306.331 462.891 314.938C463.516 315.861 461.134 334.683 460.419 337.364C459.615 340.431 449.847 340.729 460.449 344.898L454.195 351.272C461.521 355.024 454.254 383.048 446.303 374.888C445.499 374.054 448 369.557 447.464 368.009C443.295 356.007 436.088 364.048 433.705 362.261C433.199 361.874 434.122 358.211 433.675 357.555C432.544 355.977 424.979 364.882 421.525 365.09C419.231 365.239 415.479 360.682 413.216 362.291C412.411 362.857 408.57 373.012 401.869 377.837C400.558 378.79 397.431 375.871 396.032 376.586C391.594 378.849 379.324 407.529 378.49 414.349C377.478 414.378 372.326 417.178 372.177 417.505C373.16 415.004 372.058 402.734 372.385 402.019C375.066 396.003 397.878 369.706 404.46 363.81C406.247 362.201 409.791 362.857 411.071 361.784C415.896 357.675 431.025 344.69 422.388 338.912C420.75 337.81 415.568 339.091 413.156 338.674C419.291 333.343 426.111 328.31 432.067 322.92L432.097 322.83Z" fill="#E575B1"/>
<path d="M471.499 348.086C471.945 348.622 482.428 349.247 477.782 357.556C477.574 357.943 473.256 352.553 474.536 361.547C474.864 363.81 479.629 365.954 479.063 372.566C478.289 381.381 467.18 388.529 471.499 396.957C470.426 398.922 469.414 401.186 468.342 403.271C463.755 402.198 464.887 406.934 463.606 409.584C460.926 415.124 455.238 422.569 450.979 426.917C447.971 430.014 440.079 437.34 436.773 439.544C429.507 444.339 421.406 447.645 413.127 449.015C389.957 452.827 414.348 445.888 417.862 439.544C418.368 439.485 418.934 439.634 419.441 439.544C420.126 439.395 420.721 438.591 421.019 437.966C455.357 417.417 453.927 379.505 471.469 348.086H471.499Z" fill="#E575B1"/>
<path d="M413.157 338.615C415.54 339.032 420.722 337.751 422.389 338.853C430.996 344.631 415.897 357.645 411.073 361.725C409.792 362.797 406.248 362.142 404.461 363.75C397.879 369.647 375.067 395.944 372.386 401.96C372.059 402.675 373.161 414.944 372.178 417.446C371.701 418.518 371.106 419.531 370.6 420.603L361.129 419.024C361.606 416.702 360.653 413.455 361.129 411.132C362.559 404.015 370.689 401.156 354.815 400.084C363.154 389.541 373.191 377.45 383.197 368.545C387.635 377.956 408.928 355.292 403.687 348.055C406.605 345.554 409.524 341.742 413.157 338.585V338.615Z" fill="#E575B1"/>
<path d="M361.129 448.984C367.145 455.089 359.551 456.817 354.816 466.317C352.79 470.367 351.569 472.988 350.08 477.366C347.549 484.93 343.796 502.799 342.188 512.061H337.453C337.483 506.879 339.538 493.12 334.296 494.728C334.445 494.222 334.117 493.567 334.296 493.15C334.802 492.644 335.428 492.167 335.875 491.572C337.155 489.844 339.835 480.344 340.61 477.366L350.587 456.579C352.284 453.154 351.152 449.074 351.659 445.827C351.688 445.559 353.178 444.874 353.237 444.249C356.037 444.666 359.223 447.048 361.129 448.984Z" fill="#A3CC6B"/>
<path d="M372.179 466.347C372.983 466.526 380.935 469.742 381.62 471.053L350.081 477.366C351.54 472.989 352.791 470.368 354.816 466.318C356.365 466.228 358.003 466.466 359.552 466.318C365.299 465.781 365.925 465.007 372.179 466.318V466.347Z" fill="#A3CC6B"/>
<path d="M370.598 420.603C369.347 423.253 373.576 432.754 363.807 432.724C351.746 432.664 360.383 422.836 361.157 419.024L370.627 420.603H370.598Z" fill="#F1ACD4"/>
<path d="M359.55 466.348C360.682 465.216 366.102 456.966 366.668 456.817C369.378 456.043 379.683 460.332 380.01 462.416C380.755 466.913 370.361 459.915 372.148 466.348C365.894 465.037 365.298 465.811 359.521 466.348H359.55Z" fill="#A3CC6B"/>
<path d="M361.131 411.162C358.927 404.879 350.558 408.571 351.66 403.27C352.524 402.139 353.894 401.275 354.817 400.114C370.69 401.186 362.56 404.045 361.131 411.162Z" fill="#F1ACD4"/>
<path d="M353.236 439.544L369.02 442.701L361.128 449.014C359.222 447.079 356.036 444.696 353.236 444.279C353.385 442.731 353.236 441.093 353.236 439.544Z" fill="#A3CC6B"/>
<path d="M455.743 291.292C454.969 293.883 451.157 296.206 449.459 298.41C451.693 299.899 458.781 287.153 458.87 296.027C451.157 305.17 440.972 314.79 432.067 322.831C426.111 328.221 419.291 333.254 413.156 338.585C409.552 341.712 406.604 345.524 403.685 348.056C399.784 351.421 393.917 355.382 389.48 359.104C388.02 360.326 388.05 362.142 387.901 362.261C387.603 362.529 386.621 361.993 386.323 362.261C384.298 363.959 384.893 365.299 384.744 365.418C384.268 365.805 383.821 366.46 383.166 366.997C382.6 367.473 373.219 369.32 369.556 372.298C364.195 376.676 359.043 389.541 350.049 390.643C350.317 389.809 349.781 388.38 350.049 387.486C354.099 385.521 354.606 381.441 356.363 378.016L411.548 328.34C403.626 327.774 394.662 335.964 387.901 340.164C385.161 341.861 380.486 343.469 378.431 344.899V343.32C383.315 340.61 394.602 333.105 397.342 329.115L455.684 291.262L455.743 291.292Z" fill="#A3CC6B"/>
<path d="M419.471 439.544C420.007 439.067 420.453 438.323 421.049 437.965C420.751 438.591 420.156 439.395 419.471 439.544Z" fill="#F1ACD4"/>
<path d="M212.907 214.039C213.085 227.888 219.727 229.883 220.799 232.95C222.586 238.192 222.586 242.54 223.956 247.156C228.214 261.54 231.877 276.61 235.004 291.322C230.865 310.114 227.142 327.149 227.112 346.507C223.539 344.214 226.666 333.492 225.534 332.331C225.087 331.854 217.046 332.837 215.289 326.017C213.77 337.155 221.782 346.507 217.642 357.526C213.383 355.501 215.438 341.355 214.485 340.193C213.472 338.972 206.444 345.286 205.819 338.645C205.61 336.471 208.201 335.011 208.112 333.046C207.695 324.647 208.112 315.415 207.635 308.059C207.218 302.013 199.713 263.03 204.27 261.332C205.878 260.736 203.287 268.092 208.171 266.067C206.385 259.247 216.063 262.077 214.396 255.733C213.443 252.04 209.869 250.819 209.78 247.99C209.72 245.667 214.604 240.515 214.664 235.214C214.664 233.933 210.554 216.124 209.78 210.882L212.936 214.039H212.907Z" fill="#A3CC6B"/>
<path d="M340.641 255.049C341.981 258.265 341.475 261.898 342.219 264.519C343.827 270.237 344.334 276.521 346.955 281.852C343.411 294.896 351.392 284.353 353.238 286.587C353.923 287.421 352.583 295.253 353.238 296.028C354.906 297.934 360.862 292.543 361.101 292.871C362.977 295.641 359.284 309.429 359.731 310.918C359.999 311.782 369.529 316.041 370.303 324.082C370.809 329.323 355.353 348.741 362.709 357.526C361.13 358.867 358.808 359.879 357.974 360.683C358.391 352.583 354.996 343.291 354.757 336.292C354.579 331.468 357.706 311.931 356.306 310.293C355.442 309.281 345.585 312.259 348.503 300.763L343.768 305.498C342.07 296.623 340.283 299.423 337.663 295.015C336.739 293.467 339.033 290.697 339.003 290.488C338.884 289.952 330.396 292.007 328.371 287.808C327.239 285.426 328.55 281.435 327.626 278.308C326.912 275.866 323.665 273.543 323.546 271.369C323.427 269.195 330.456 250.969 329.562 250.313C318.632 242.183 322.147 287.51 314.582 288.136C312.706 288.285 314.85 260.618 299.483 255.823C285.635 251.505 300.108 276.342 301.985 280.214C297.875 273.99 291.293 280.839 289.387 280.273C285.932 279.261 287.719 271.875 286.2 269.165C285.277 267.467 267.081 260.231 264.907 256.627C282.269 263.09 289.298 251.505 305.916 250.313C306.571 250.254 308.298 251.892 309.073 251.892C321.462 251.802 315.863 247.931 326.405 245.578C334.655 243.732 337.008 246.382 340.611 255.049H340.641Z" fill="#E575B1"/>
<path d="M378.46 343.35C372.147 333.135 397.669 306.689 402.107 311.811C403.774 313.717 398.98 326.881 397.401 329.144C394.632 333.135 383.344 340.64 378.49 343.35H378.46Z" fill="#E575B1"/>
<path d="M387.933 340.193C392.49 342.695 388.023 343.201 386.563 344.303C372.179 355.292 364.793 361.576 356.395 378.045C354.638 381.47 354.131 385.52 350.081 387.516C351.034 384.21 356.514 365.716 351.659 368.605C353.119 366.907 357.586 361.07 357.973 360.713C358.807 359.908 361.13 358.926 362.708 357.556C366.788 354.071 374.293 347.847 378.463 344.928C380.518 343.499 385.193 341.891 387.933 340.193Z" fill="#A3CC6B"/>
<path d="M402.913 296.028L403.717 296.832L402.913 297.606V296.028Z" fill="#E575B1"/>
<path d="M313.835 567.276C313.001 573.858 310.321 580.886 310.648 587.766L309.07 575.168L304.365 579.874C306.836 565.936 300.195 553.636 305.943 538.894C306.747 539.163 308.981 540.652 309.07 540.473C309.934 538.835 308.772 509.887 309.666 503.604C310.41 498.154 315.235 487.045 315.443 480.523C321.221 474.031 315.622 503.008 315.324 504.557C314.997 506.224 311.869 505.271 312.286 506.522L320.178 515.218C319.97 518.613 318.779 521.711 318.6 527.846C308.177 537.882 317.081 535.946 317.051 536.542C316.426 545.506 315.026 558.252 313.865 567.276H313.835ZM310.648 570.403C310.648 570.403 310.768 567.395 310.648 567.276C308.623 565.251 308.623 572.428 310.648 570.403Z" fill="#A3CC6B"/>
<path d="M320.12 535.738C320.12 538.895 320.06 542.052 320.12 545.208C320.209 551.433 321.49 557.478 321.698 562.541C322.681 586.009 322.204 634.463 329.59 655.578C325.421 657.335 329.59 658.586 329.59 658.735C329.709 659.718 329.65 660.909 329.59 661.892C327.744 686.819 322.741 712.371 324.855 737.596C312.138 701.769 309.994 662.041 310.649 624.07C310.977 606.082 311.841 585.115 313.806 567.306C315.057 555.959 318.869 544.077 320.12 532.611C320.12 533.653 320.12 534.725 320.12 535.768V535.738Z" fill="#A3CC6B"/>
<path d="M309.103 759.634C313.868 761.153 319.407 771.189 316.995 776.967C314.285 771.487 309.579 766.544 309.103 759.634Z" fill="#A3CC6B"/>
<path d="M294.895 715.498C300.732 717.017 296.831 716.094 298.052 721.812L294.895 715.498Z" fill="#A3CC6B"/>
<path d="M326.435 743.88C326.405 743.642 325.154 742.063 324.856 739.145L326.435 743.88Z" fill="#A3CC6B"/>
<path d="M328.012 750.194C327.327 748.347 326.999 748.109 326.434 745.458L328.012 750.194Z" fill="#A3CC6B"/>
<path d="M451.01 426.916L454.137 436.357C457.503 429.745 465.544 419.828 473.078 419.054C472.81 425.338 436.953 457.323 435.256 455.298C432.308 451.754 444.965 439.573 436.805 439.544C440.11 437.369 447.973 430.043 451.01 426.916Z" fill="#E575B1"/>
<path d="M468.372 403.27C467.062 405.802 468.253 410.745 463.637 409.584C464.917 406.933 463.786 402.198 468.372 403.27Z" fill="#E575B1"/>
<path d="M334.327 494.729C339.539 493.15 337.513 506.88 337.484 512.062C337.484 515.546 337.692 522.306 337.484 524.689C328.162 530.02 328.4 542.736 326.435 549.914C325.005 555.126 322.921 557.687 321.7 562.541C321.491 557.478 320.21 551.403 320.121 545.208C326.524 546.31 323.189 536.661 323.278 534.159C323.278 533.623 323.248 533.117 323.278 532.581C327.745 534.1 329.443 517.69 326.435 513.67C326.941 512.419 327.864 510.93 328.013 510.513C328.877 508.071 332.421 500.774 334.327 494.759V494.729Z" fill="#A3CC6B"/>
<path d="M337.483 524.689C336.917 531.27 334.177 537.108 332.956 542.736C331.944 547.323 339.836 551.224 326.464 549.914C328.429 542.736 328.191 530.02 337.513 524.689H337.483Z" fill="#A3CC6B"/>
<path d="M329.591 658.735C329.591 658.586 325.422 657.335 329.591 655.578C329.889 656.442 332.182 656.948 329.591 658.735Z" fill="#A3CC6B"/>
<path d="M406.872 270.802C409.195 270.832 417.355 270.713 417.921 270.802C422.865 271.547 430.519 276.342 435.254 278.695C427.958 286.229 412.799 288.344 424.205 275.538C420.572 276.223 395.407 277.622 402.137 270.802C402.346 270.594 405.711 270.802 406.872 270.802Z" fill="#E575B1"/>
<path d="M203.435 247.156C203.048 249.985 195.632 253.678 192.386 251.891C192.743 246.441 190.391 241.557 190.808 236.137L203.405 247.156H203.435Z" fill="#A3CC6B"/>
<path d="M478.617 346.507L479.391 347.281L478.617 348.085V346.507Z" fill="#E575B1"/>
<path d="M477.039 360.683L477.813 361.487L477.039 362.261V360.683Z" fill="#E575B1"/>
<path d="M191.614 303.919L192.388 304.723L191.614 305.498V303.919Z" fill="#A3CC6B"/>
<path d="M249.18 411.162C249.895 411.728 264.786 419.114 265.709 419.203C271.308 419.68 275.209 416.047 278.068 416.285C281.136 416.523 286.497 420.365 291.202 420.514C314.372 421.169 311.185 390.554 315.414 374.889C324.259 377.301 317.35 384.478 317.38 385.104C317.469 390.673 318.035 396.093 318.571 401.662L320.15 385.908C325.57 394.485 318.571 400.858 332.747 398.505C330.871 401.007 328.161 407.946 326.404 411.103L321.728 403.241C322.502 413.575 310.024 415.332 306.718 419.055C305.467 420.484 306.271 423.283 305.944 423.73C304.663 425.458 303.889 426.589 302.787 428.465C293.138 433.29 290.845 427.334 282.297 431.622C281.434 431.176 278.634 432.069 277.562 431.622C271.308 429.061 260.885 427.215 255.494 423.73C254.005 422.777 249.448 416.225 247.602 414.26L249.18 411.103V411.162Z" fill="#F1ACD4"/>
<path d="M231.819 384.329C237.15 389.779 243.731 406.963 249.152 411.132L247.573 414.289C238.43 404.521 233.516 398.803 231.819 384.329Z" fill="#E575B1"/>
<path d="M230.239 376.467C236.701 375.603 231.817 380.16 231.817 381.202C229.673 380.279 230.507 378.135 230.239 376.467Z" fill="#E575B1"/>
<path d="M205.014 184.079C206.354 193.073 208.439 201.918 209.749 210.882C210.494 216.124 214.633 233.933 214.633 235.213C214.603 240.515 209.689 245.667 209.749 247.99C209.838 250.849 213.412 252.04 214.365 255.733C216.003 262.046 206.354 259.247 208.141 266.067C203.227 268.092 205.848 260.736 204.239 261.332C199.653 263.029 207.188 302.013 207.605 308.059C208.081 315.415 207.664 324.617 208.081 333.045C208.171 334.981 205.609 336.47 205.788 338.644C206.413 345.315 213.442 338.972 214.454 340.193C215.407 341.325 213.353 355.501 217.611 357.526C221.751 346.477 213.74 337.155 215.259 326.017C217.045 332.807 225.057 331.824 225.503 332.331C226.635 333.522 223.538 344.213 227.082 346.507C227.082 348.591 227.022 350.706 227.082 352.82C220.917 364.852 227.171 381.053 228.72 393.085C231.192 412.234 232.979 432.783 236.701 452.469C236.91 453.63 241.764 455.894 242.747 460.927C245.546 475.252 247.363 494.818 249.328 509.828C250.013 515.069 244.236 512.657 246.082 516.767C246.172 516.946 249.001 516.35 249.477 518.941C250.46 524.242 254.57 539.014 254.094 542.855C253.617 546.697 248.256 546.608 249.18 548.335C249.388 548.693 255.434 548.514 256.595 552.326C258.203 557.567 256.327 567.693 257.042 573.56C250.281 574.483 254.421 565.579 253.289 562.422C247.214 545.446 242.27 528.739 236.493 511.764C235.718 509.5 231.281 509.441 230.447 506.224C229.464 502.442 233.455 494.967 231.936 490.857C231.251 488.981 227.409 490.44 227.112 489.993C226.248 488.772 231.668 464.858 225.563 460.808C235.808 471.618 230.358 451.784 229.405 443.415C229.345 442.82 232.919 438.144 227.112 434.838C222.615 443.653 231.281 444.487 227.052 453.749L223.925 449.044V456.906C214.663 441.777 219.666 456.459 213.621 455.358L198.67 393.829C198.67 387.903 199.087 376.973 198.67 371.761C206.384 372.029 198.849 362.648 199.236 359.045C199.534 356.364 203.257 356.692 203.554 353.654C203.822 350.884 200.993 324.677 200.249 320.865C199.921 319.257 195.662 318.899 194.769 315.206C193.905 311.781 195.097 301.983 193.935 297.635L189.23 300.792C188.962 296.623 189.408 292.364 189.23 288.165C198.73 290.756 190.957 285.842 190.897 285.425C189.021 272.44 191.612 263.536 192.386 251.891C195.633 253.678 203.048 249.985 203.435 247.156C204.746 237.209 195.662 232.95 195.454 231.908C195.067 229.942 197.628 225.237 197.181 221.246C196.198 212.52 189.557 164.393 192.416 160.432C192.625 160.135 196.854 163.768 198.462 159.39C199.742 155.906 198.73 141.879 198.73 136.786C199.951 152.719 202.661 168.324 205.044 184.079H205.014Z" fill="#A3CC6B"/>
<path d="M290.159 464.769C295.907 463.578 295.341 466.734 295.668 470.963C296.115 476.324 296.651 518.226 294.864 519.924C293.435 521.324 289.146 519.328 288.551 516.797C288.64 513.64 288.461 510.483 288.551 507.326C288.551 506.761 288.551 506.254 288.551 505.748C288.61 503.634 288.521 501.549 288.551 499.434C288.551 499.256 290.099 498.869 290.129 496.278C290.218 488.445 290.367 480.434 290.129 472.631C290.04 470.01 290.278 467.36 290.129 464.739L290.159 464.769Z" fill="#A3CC6B"/>
<path d="M403.716 348.085C408.958 355.322 387.664 377.986 383.227 368.575V366.997C383.882 366.461 384.329 365.805 384.805 365.418L386.383 362.261C386.681 361.993 387.664 362.529 387.962 362.261L389.54 359.105C393.978 355.382 399.845 351.421 403.746 348.056L403.716 348.085Z" fill="#E575B1"/>
<path d="M302.786 428.495C301.595 430.55 299.778 432.188 299.629 434.809C298.408 435.166 296.83 436.328 296.472 436.387C293.435 436.774 290.099 436.119 287.002 436.387C286.853 436.089 282.564 431.801 282.267 431.652C290.844 427.364 293.137 433.32 302.756 428.495H302.786Z" fill="#A3CC6B"/>
<path d="M302.816 611.74C303.885 611.74 304.751 610.874 304.751 609.804C304.751 608.735 303.885 607.869 302.816 607.869C301.747 607.869 300.88 608.735 300.88 609.804C300.88 610.874 301.747 611.74 302.816 611.74Z" fill="#A3CC6B"/>
<path d="M351.657 445.827C351.151 449.074 352.312 453.154 350.585 456.578L340.608 477.366C340.936 476.026 340.281 473.971 340.608 472.631C341.115 470.576 341.531 468.312 342.187 466.317C342.425 465.602 344.807 463.964 343.765 461.582C346.296 457.323 348.381 450.622 350.079 445.827H351.657Z" fill="#A3CC6B"/>
<path d="M334.325 493.15C334.563 492.585 335.457 492.078 335.904 491.572C335.457 492.168 334.831 492.614 334.325 493.15Z" fill="#729A0B"/>
<path d="M387.933 340.194C394.693 335.965 403.658 327.775 411.579 328.37L356.395 378.046C364.823 361.577 372.179 355.322 386.563 344.303C387.993 343.201 392.46 342.695 387.933 340.194Z" fill="#A3CC6B"/>
<path d="M387.933 362.261C387.933 362.261 388.052 360.325 389.511 359.104L387.933 362.261Z" fill="#A3CC6B"/>
<path d="M384.774 365.418C384.774 365.418 384.328 363.959 386.353 362.261L384.774 365.418Z" fill="#A3CC6B"/>
<path d="M343.795 308.655C347.071 328.936 345.463 349.842 348.53 370.153C344.986 374.561 346.475 375.871 345.373 379.624C342.217 385.104 339.923 391.149 337.481 396.957C336.558 397.165 334.89 396.659 334.325 396.957C338.047 387.337 335.546 382.691 335.933 374.889C337.988 381.589 340.817 362.559 340.668 361.636C340.459 360.415 335.516 359.521 334.98 356.067C334.652 353.982 338.017 351.51 337.66 348.83C337.362 346.507 334.146 339.032 334.265 333.314C334.265 332.242 338.077 333.224 337.63 328.34C337.362 325.303 334.265 325.958 334.354 325.273C334.533 323.575 337.184 308.714 337.481 307.851C338.166 305.826 342.425 308.595 343.795 308.625V308.655Z" fill="#E575B1"/>
<path d="M343.798 305.498L348.533 300.762C345.615 312.258 355.472 309.28 356.336 310.292C357.736 311.93 354.608 331.467 354.787 336.292C355.025 343.29 358.421 352.582 358.004 360.683C357.646 361.04 353.149 366.877 351.69 368.575C350.856 369.557 348.801 369.796 348.533 370.153C345.466 349.842 347.074 328.936 343.798 308.654C343.649 307.672 343.977 306.48 343.798 305.498Z" fill="#E575B1"/>
<path d="M314.879 307.552C317.351 314.7 316.517 325.779 315.534 333.194C315.147 336.113 312.437 335.338 312.199 336.47C311.603 339.299 317.202 346.06 310.68 344.928C308.118 329.084 304.902 315.325 309.101 299.214C308.774 302.49 314.7 307.106 314.879 307.582V307.552Z" fill="#E575B1"/>
<path d="M337.482 396.956C336.231 399.905 333.968 405.623 332.747 408.005C328.577 416.046 327.594 422.33 316.992 425.338C321.459 420.662 323.872 418.518 323.276 411.162C318.898 417.088 312.823 420.96 305.943 423.759C306.271 423.313 305.467 420.513 306.718 419.084C310.023 415.361 322.502 413.604 321.727 403.27L326.403 411.132C328.13 407.975 330.87 401.036 332.747 398.535C333.283 397.82 333.432 397.433 334.325 396.956C334.891 396.658 336.559 397.165 337.482 396.956Z" fill="#F1ACD4"/>
<path d="M264.935 250.313C265.292 251.861 264.429 255.792 264.935 256.626C267.139 260.23 285.305 267.497 286.228 269.164C287.718 271.874 285.931 279.26 289.415 280.273C291.351 280.839 297.903 273.989 302.013 280.213C300.136 276.342 285.663 251.504 299.511 255.822C314.848 260.617 312.734 288.284 314.61 288.135C322.175 287.51 318.66 242.153 329.59 250.313C330.454 250.968 323.455 269.135 323.574 271.368C323.693 273.602 326.94 275.865 327.654 278.307C328.548 281.434 327.237 285.425 328.399 287.808C330.424 292.007 338.912 289.952 339.031 290.488C339.09 290.726 336.768 293.466 337.691 295.015C340.312 299.422 342.128 296.593 343.796 305.498C343.975 306.48 343.647 307.672 343.796 308.654C342.426 308.595 338.137 305.855 337.482 307.88C337.214 308.714 334.564 323.605 334.355 325.302C334.266 325.987 337.363 325.302 337.631 328.37C338.078 333.284 334.296 332.271 334.266 333.343C334.147 339.061 337.363 346.536 337.661 348.859C338.018 351.54 334.653 354.012 334.981 356.096C335.517 359.551 340.46 360.444 340.669 361.665C340.818 362.589 337.989 381.619 335.934 374.918C335.547 382.751 338.048 387.397 334.325 396.986C333.432 397.463 333.283 397.85 332.747 398.565C318.571 400.888 325.57 394.544 320.15 385.967L318.571 401.721C318.035 396.152 317.469 390.732 317.38 385.163C317.38 384.508 324.259 377.36 315.414 374.948C311.185 390.583 314.372 421.228 291.202 420.573C286.467 420.424 281.136 416.582 278.068 416.344C275.209 416.136 271.308 419.739 265.709 419.263C264.786 419.173 249.895 411.787 249.18 411.222C243.76 407.052 237.179 389.868 231.848 384.418C231.729 383.406 231.848 382.304 231.848 381.262C231.848 380.219 236.732 375.663 230.269 376.526C229.048 369.2 227.351 360.147 227.112 352.88C227.053 350.795 227.112 348.681 227.112 346.566C227.142 327.179 230.865 310.173 235.004 291.381C235.362 289.743 239.293 284.383 239.74 278.754C245.041 275.21 248.198 266.305 252.427 261.094C256.656 255.882 259.693 254.035 264.965 250.372L264.935 250.313ZM314.878 307.553C314.7 307.076 308.773 302.49 309.101 299.184C304.901 315.296 308.118 329.055 310.679 344.898C317.201 346.03 311.602 339.27 312.198 336.441C312.436 335.279 315.146 336.083 315.533 333.165C316.516 325.779 317.35 314.7 314.878 307.523V307.553Z" fill="#F1ACD4"/>
<path d="M321.699 124.158C329.651 104.592 344.899 72.3983 362.679 60.2773C373.221 53.1 377.331 60.039 378.463 70.5519C377.42 70.9092 374.829 69.8073 373.966 70.7306C373.191 71.5347 365.806 89.6418 365.329 91.3095C363.483 97.9805 365.091 104.92 362.708 111.531L378.463 70.5519C398.893 63.7319 410.597 83.3281 420.633 86.0084C425.756 87.3784 429.538 84.2215 434.005 85.0256C440.885 86.2764 453.988 101.584 455.597 109.297C458.485 123.116 464.352 152.212 460.57 164.453C459.468 168.026 457.741 171.332 454.167 173.03C453.78 168.622 456.282 156.382 455.745 155.697C448.866 146.852 444.756 191.167 436.834 190.362C435.345 181.19 440.974 178.241 442.701 173.387C444.28 169.009 443.624 162.755 444.994 159.032C445.233 158.377 448.866 159.747 449.491 157.871C450.861 153.761 453.75 123.92 452.559 122.58C450.742 120.525 444.012 130.829 446.245 113.109C443.327 112.425 445.709 116.266 443.892 116.266C442.076 116.266 444.458 112.395 441.54 113.109C436.06 128.715 423.73 141.223 414.171 155.22C413.694 155.905 411.073 155.161 410.001 156.799C402.258 168.801 404.373 170.349 408.393 182.441C403.807 184.942 405.891 175.591 403.688 177.735C400.888 180.475 402.079 188.188 401.186 190.273C399.816 193.519 386.176 206.98 399.727 198.255L416.255 176.157C416.404 183.155 411.222 187.801 410.001 194.472C409.376 197.927 412.086 201.65 411.49 205.164C409.495 217.404 401.424 222.258 392.579 229.763C386.861 234.618 392.52 236.732 379.952 237.655C376.646 237.894 353.804 235.332 349.992 234.498C329.383 230.031 341.504 222.765 335.071 217.106C331.497 213.979 323.933 216.332 323.188 215.587C322.712 215.111 324.409 210.941 321.61 207.695C317.441 202.841 317.441 210.554 316.875 212.43H312.14C312.08 211.924 312.199 211.358 312.14 210.852C311.961 209.303 312.318 207.665 312.14 206.117C312.11 205.759 315.177 201.679 313.599 199.356L307.404 179.314C307.047 176.782 307.791 173.953 307.404 171.421C307.255 170.409 307.583 169.247 307.404 168.265C310.829 164.095 309.995 158.913 310.561 154.059C315.267 148.4 316.577 140.687 316.875 133.569C322.682 134.671 320.508 126.809 321.61 124.099L321.699 124.158Z" fill="#F1ACD4"/>
<path d="M189.259 127.316C188.663 130.83 187.681 144.917 187.681 148.609V194.354C187.681 207.16 187.621 220.115 187.681 232.98V236.137C187.681 236.673 187.681 237.179 187.681 237.715C187.681 238.251 187.681 238.758 187.681 239.294C187.74 243.999 187.591 248.764 187.681 253.5C187.681 254.036 187.681 254.542 187.681 255.078C187.74 258.741 187.591 262.434 187.681 266.127V270.862C187.77 274.019 187.561 277.176 187.681 280.333C183.213 282.864 176.334 289.744 179.789 294.509L171.896 289.803C170.735 286.557 169.782 283.609 168.74 280.333C167.429 276.253 166.089 272.024 165.553 267.735C162.724 268.003 163.975 275.032 164.004 277.176C164.183 288.88 165.166 285.425 168.74 292.93C169.514 294.538 169.544 298.231 170.318 299.244L167.161 300.822C129.964 255.763 138.869 215.201 145.302 156.74C148.816 124.755 160.192 124.487 189.259 127.375V127.316ZM162.426 168.295V143.07C154.832 150.545 155.755 160.611 162.426 168.295ZM162.426 218.745L164.004 195.098C161.83 202.008 149.828 216.72 162.426 218.745Z" fill="#F1ACD4"/>
<path d="M253.885 136.756C254.124 136.935 253.23 140.449 255.434 142.266C256.446 143.07 270.92 149.86 272.022 149.384C273.839 148.609 272.38 143.308 272.826 141.492C273.184 141.551 274.107 141.611 274.405 141.492C282.654 153.345 277.323 169.665 283.071 182.501C283.994 169.069 286.675 154.923 287.002 141.492H296.473C296.205 144.738 298.438 148.699 298.051 152.54C295.728 153.285 292.125 151.051 290.07 153.553C286.466 157.99 291.41 169.307 291.767 174.609C291.469 167.223 297.485 158.11 298.051 152.54C298.855 152.272 300.255 152.749 301.208 152.54C302.072 156.859 306.896 164.691 307.522 168.295C307.7 169.278 307.373 170.439 307.522 171.452C301.595 170.171 304.573 186.998 304.365 191.941C304.275 194.026 304.514 196.17 304.365 198.255C298.23 197.719 300.731 214.069 299.63 215.588C299.213 216.154 295.847 213.354 294.924 214.009C292.81 215.469 287.36 245.875 284.62 250.283C283.428 252.189 271.158 244.595 267.406 245.458C266.006 245.786 266.662 249.122 264.934 250.313C259.663 253.946 256.566 255.882 252.396 261.034C248.227 266.186 244.981 275.151 239.709 278.694C240.186 272.857 235.272 249.27 230.269 262.91C234.378 253.47 227.082 254.78 223.955 247.156C222.585 242.54 222.585 238.192 220.798 232.95C220.798 230.33 220.828 227.679 220.798 225.058C220.768 222.11 221.9 217.643 219.22 215.588C219.428 211.627 218.386 207.368 222.377 204.539C223.091 206.445 229.703 219.638 230.418 220.144C233.902 222.557 239.65 214.367 238.131 223.48C243.76 225.058 242.33 211.359 242.866 210.882C246.112 207.964 247.125 218.536 252.218 215.528C254.898 213.95 255.017 201.65 255.493 198.285L261.777 206.147C264.487 200.101 257.012 185.985 257.072 184.853C257.161 183.007 261.152 185.24 261.867 183.275C262.165 182.471 260.527 168.116 260.11 166.329C259.871 165.257 253.439 147.507 252.932 146.435C249.746 139.764 243.968 134.701 239.68 128.894C247.631 131.991 247.065 131.723 253.885 136.786V136.756ZM283.845 207.725L290.159 182.501C287.508 185.866 275.983 206.355 283.845 207.725Z" fill="#E575B1"/>
<path d="M239.709 128.894C243.998 134.701 249.775 139.734 252.962 146.435C253.468 147.507 259.901 165.257 260.139 166.329C260.526 168.116 262.164 182.471 261.896 183.275C261.182 185.24 257.191 183.036 257.102 184.853C257.042 185.985 264.517 200.101 261.807 206.147L255.523 198.284C255.047 201.65 254.927 213.95 252.247 215.528C247.125 218.536 246.142 207.993 242.896 210.882C242.36 211.359 243.789 225.058 238.161 223.48C239.679 214.366 233.932 222.556 230.447 220.144C229.732 219.638 223.091 206.445 222.406 204.539C221.155 201.203 221.066 195.604 220.798 191.911C219.279 192.328 216.629 195.455 216.093 196.647C206.652 192.12 221.483 182.381 205.044 184.019C202.661 168.265 199.981 152.659 198.73 136.726C198.73 135.684 198.76 134.612 198.73 133.569C207.784 127.256 221.453 123.206 232.472 124.576C235.361 124.933 237.386 127.911 239.739 128.834L239.709 128.894Z" fill="#F1ACD4"/>
<path d="M392.667 229.793C401.512 222.288 409.583 217.434 411.578 205.194C412.144 201.68 409.464 197.957 410.089 194.502C411.31 187.831 416.492 183.185 416.343 176.187L399.815 198.285C386.264 207.011 399.874 193.579 401.274 190.303C402.167 188.218 400.976 180.535 403.775 177.765C405.949 175.621 403.895 184.972 408.481 182.471C404.46 170.379 402.346 168.831 410.089 156.829C411.161 155.161 413.782 155.906 414.259 155.25C423.818 141.223 436.148 128.745 441.628 113.14C444.546 112.425 442.164 116.296 443.98 116.296C445.797 116.296 443.414 112.455 446.333 113.14C444.099 130.83 450.83 120.555 452.647 122.61C453.838 123.95 450.949 153.791 449.579 157.901C448.954 159.777 445.32 158.407 445.082 159.062C443.712 162.785 444.367 169.039 442.789 173.417C441.062 178.242 435.403 181.22 436.922 190.393C444.844 191.197 448.954 146.852 455.833 155.727C456.369 156.412 453.868 168.652 454.255 173.06C454.434 175.144 454.106 177.289 454.255 179.373C448.001 187.265 441.479 195.068 435.344 203.02C432.098 207.249 429.03 212.937 425.873 217.226C422.716 221.514 413.722 226.249 413.246 231.431H411.667C403.984 224.611 401.333 234.975 392.756 229.853L392.667 229.793ZM434.45 195.128V196.706L435.225 195.932L434.45 195.158V195.128Z" fill="#E575B1"/>
<path d="M274.405 141.492C275.328 141.134 287.33 129.043 287.033 141.492C286.705 154.923 284.025 169.069 283.101 182.501C277.354 169.665 282.685 153.345 274.435 141.492H274.405Z" fill="#F1ACD4"/>
<path d="M253.888 136.757C259.874 134.404 270.864 141.134 272.799 141.492C272.353 143.309 273.812 148.61 271.995 149.384C270.893 149.86 256.42 143.07 255.407 142.266C253.203 140.45 254.097 136.935 253.858 136.757H253.888Z" fill="#F1ACD4"/>
<path d="M392.669 229.793C401.276 234.916 403.897 224.552 411.58 231.372L386.355 248.704C385.819 248.347 380.995 247.186 380.042 247.126C379.089 247.066 377.57 246.918 376.885 247.126L375.306 248.704C374.085 249.33 372.656 252.546 370.571 253.44C371.762 248.556 366.908 250.491 362.679 250.283C362.262 241.229 356.068 241.587 350.052 240.812V237.656C361.696 234.558 372.418 253.023 380.012 237.656C392.58 236.732 386.921 234.618 392.639 229.763L392.669 229.793Z" fill="#E575B1"/>
<path d="M321.699 207.725C324.499 210.972 322.801 215.141 323.278 215.618C324.022 216.362 331.557 214.009 335.161 217.136C341.593 222.765 329.502 230.062 350.081 234.529V240.842C347.579 240.515 344.452 242.689 341.623 242.212C339.955 241.944 338.943 236.762 335.875 237.686C335.875 236.643 335.875 235.571 335.875 234.529C336.143 221.038 312.556 231.253 321.67 207.725H321.699Z" fill="#F1ACD4"/>
<path d="M378.462 70.5522L362.708 111.531C365.091 104.92 363.482 98.0107 365.329 91.3099C365.805 89.6421 373.191 71.535 373.965 70.7309C374.829 69.8077 377.42 70.8798 378.462 70.5522Z" fill="#E575B1"/>
<path d="M380.041 237.685C372.447 253.053 361.726 234.588 350.081 237.685V234.529C353.893 235.362 376.735 237.924 380.041 237.685Z" fill="#E575B1"/>
<path d="M307.523 171.451C307.91 173.983 307.166 176.782 307.523 179.343C308.714 188.189 307.851 197.957 312.258 206.147C312.437 207.695 312.08 209.333 312.258 210.882H309.101C309.28 206.504 308.059 193.966 304.366 191.971C304.575 186.997 301.597 170.201 307.523 171.481V171.451Z" fill="#E575B1"/>
<path d="M321.7 207.725C312.557 231.252 336.144 221.037 335.905 234.528C333.136 236.017 317.113 220.025 320.151 229.793C317.084 225.207 315.743 225.445 313.837 218.744C319.287 219.846 316.041 215.587 316.994 212.43C317.56 210.554 317.56 202.841 321.729 207.695L321.7 207.725Z" fill="#F1ACD4"/>
<path d="M307.522 179.344L313.716 199.386C315.295 201.709 312.198 205.819 312.257 206.147C307.85 197.957 308.713 188.189 307.522 179.344Z" fill="#E575B1"/>
<path d="M316.963 212.461C316.01 215.618 319.256 219.876 313.806 218.774C313.151 216.422 312.525 215.26 312.228 212.461H316.963Z" fill="#E575B1"/>
<path d="M187.681 280.273C187.8 283.877 189.199 287.004 189.259 288.165C189.438 292.335 188.991 296.623 189.259 300.792C189.408 303.413 189.11 306.064 189.259 308.685C182.796 305.26 177.376 298.499 171.926 294.479C174.16 294.181 172.373 290.965 171.926 289.744L179.818 294.449C176.364 289.684 183.243 282.804 187.71 280.273H187.681Z" fill="#F1ACD4"/>
<path d="M171.9 294.449C177.379 298.44 182.8 305.23 189.232 308.655C189.292 309.697 189.173 310.769 189.232 311.812C183.574 310.412 173.537 303.532 170.321 299.184C169.547 298.172 169.517 294.479 168.743 292.871C169.696 293.496 170.976 293.764 171.9 294.449Z" fill="#F1ACD4"/>
<path d="M162.426 168.295C155.755 160.582 154.832 150.545 162.426 143.07V168.295Z" fill="#E575B1"/>
<path d="M162.427 218.744C149.8 216.719 161.802 202.007 164.006 195.098L162.427 218.744Z" fill="#E575B1"/>
<path d="M164.005 277.116L168.74 280.273C169.782 283.519 170.735 286.497 171.897 289.743C172.344 290.935 174.131 294.181 171.897 294.479C170.974 293.823 169.693 293.526 168.74 292.9C165.166 285.366 164.184 288.85 164.005 277.146V277.116Z" fill="#F1ACD4"/>
<path d="M168.742 280.273L164.006 277.117C163.977 274.972 162.726 267.944 165.555 267.676C166.091 271.964 167.431 276.193 168.742 280.273Z" fill="#F1ACD4"/>
<path d="M187.68 270.803V266.067C187.71 267.646 187.651 269.224 187.68 270.803Z" fill="#F1ACD4"/>
<path d="M304.367 198.255C303.533 209.006 296.713 236.226 297.905 243.254C298.441 246.441 301.449 245.041 304.367 248.704C304.814 249.27 305.499 249.717 305.946 250.283C289.328 251.474 282.299 263.029 264.937 256.596C264.43 255.763 265.294 251.831 264.937 250.283C266.664 249.092 265.979 245.756 267.408 245.428C271.161 244.565 283.431 252.159 284.622 250.253C287.362 245.875 292.812 215.468 294.926 213.979C295.85 213.324 299.215 216.124 299.632 215.558C300.764 214.039 298.262 197.689 304.367 198.225V198.255Z" fill="#E575B1"/>
<path d="M309.102 210.882C309.102 211.18 307.642 213.294 307.523 215.617C306.987 226.428 305.349 237.953 304.366 248.734C301.448 245.071 298.44 246.471 297.904 243.284C296.713 236.226 303.533 209.036 304.366 198.284C304.515 196.2 304.277 194.056 304.366 191.971C308.059 193.966 309.28 206.534 309.102 210.882Z" fill="#F1ACD4"/>
<path d="M223.926 247.156C227.053 254.78 234.349 253.499 230.239 262.91C235.272 249.27 240.157 272.857 239.68 278.694C239.204 284.531 235.302 289.684 234.945 291.322C231.848 276.61 228.185 261.54 223.896 247.156H223.926Z" fill="#E575B1"/>
<path d="M219.219 217.196C219.249 219.727 218.266 223.45 220.797 225.088C220.827 227.709 220.797 230.359 220.797 232.98C219.755 229.912 213.084 227.917 212.905 214.069C212.876 211.567 213.918 207.308 214.484 204.598L219.219 217.225V217.196Z" fill="#A3CC6B"/>
<path d="M298.052 152.541C297.487 158.11 291.471 167.223 291.769 174.609C291.441 169.308 286.467 158.021 290.071 153.553C292.096 151.052 295.73 153.285 298.052 152.541Z" fill="#F1ACD4"/>
<path d="M222.348 204.568C218.357 207.398 219.399 211.627 219.191 215.617C219.191 216.124 219.191 216.66 219.191 217.196L214.456 204.568C214.873 202.573 215.498 197.868 216.034 196.676C216.57 195.485 219.25 192.358 220.739 191.941C220.978 195.604 221.097 201.203 222.348 204.568Z" fill="#BAA862"/>
<path d="M283.847 207.725C275.985 206.356 287.51 185.866 290.161 182.501L283.847 207.725Z" fill="#F1ACD4"/>
<path d="M220.799 225.088C218.267 223.45 219.25 219.728 219.22 217.196C219.22 216.66 219.22 216.154 219.22 215.618C221.901 217.673 220.739 222.14 220.799 225.088Z" fill="#A3CC6B"/>
<path d="M205.016 184.079C221.425 182.441 206.624 192.179 216.065 196.706C215.528 197.867 214.903 202.603 214.486 204.598C213.92 207.278 212.878 211.567 212.908 214.068L209.751 210.912C208.44 201.947 206.386 193.102 205.016 184.108V184.079Z" fill="#E575B1"/>
<path d="M375.333 248.734L376.911 247.156C376.584 247.245 376.018 248.377 375.333 248.734Z" fill="#E575B1"/>
<path d="M434.451 195.128L435.255 195.902L434.451 196.706V195.128Z" fill="#F1ACD4"/>
<path d="M324.856 237.685C336.501 245.816 335.191 237.894 335.905 237.685C338.973 236.792 339.985 241.944 341.653 242.212C344.482 242.689 347.609 240.515 350.111 240.842C356.097 241.617 362.292 241.259 362.738 250.313C361.19 250.253 359.582 250.313 358.003 250.313C352.374 250.402 340.789 247.781 340.67 255.048C337.067 246.382 334.744 243.731 326.465 245.578L324.886 237.685H324.856Z" fill="#F1ACD4"/>
<path d="M320.119 229.794C317.081 220.025 333.103 235.988 335.873 234.529C335.873 235.571 335.873 236.643 335.873 237.686C335.158 237.894 336.469 245.816 324.824 237.686C318.898 233.546 321.548 231.968 320.089 229.794H320.119Z" fill="#F1ACD4"/>
<path d="M305.945 423.76C312.824 420.96 318.899 417.089 323.277 411.162C323.873 418.518 321.461 420.663 316.993 425.338C311.931 430.61 305.974 432.933 299.661 434.809C299.78 432.218 301.626 430.55 302.817 428.495C303.89 426.619 304.694 425.487 305.974 423.76H305.945Z" fill="#A3CC6B"/>
<path d="M288.58 499.464L290.158 496.307C290.158 498.898 288.58 499.286 288.58 499.464Z" fill="#A3CC6B"/>
<path d="M332.747 408.005C333.968 405.623 336.231 399.934 337.482 396.956C339.924 391.119 342.188 385.103 345.374 379.623C343.051 387.635 343.379 403.865 332.747 408.005Z" fill="#E575B1"/>
<path d="M310.649 570.404C308.624 572.429 308.624 565.251 310.649 567.277C310.768 567.396 310.768 570.285 310.649 570.404Z" fill="#A3CC6B"/>
<path d="M143.516 310.233H142.742L141.968 311.007L142.742 311.781L143.516 310.203C143.933 310.59 145.661 310.739 146.673 311.781C151.051 323.634 143.725 318.899 141.998 321.311C138.692 325.957 149.502 327.923 149.83 329.144C150.575 331.943 146.197 329.799 146.703 331.467C148.013 335.785 157.424 334.058 149.86 338.555C159.003 336.5 151.289 344.749 152.987 346.447C153.374 346.834 157.514 345.226 160.819 348.978C162.279 350.646 161.832 357.704 162.815 360.95C163.589 363.541 166.835 365.15 167.163 366.162C167.431 367.026 161.385 366.371 166.061 371.314C166.865 372.148 169.784 371.314 170.32 371.701C172.166 372.923 166.061 372.357 167.163 377.092C168.771 383.971 176.216 382.333 167.163 385.848C171.422 386.265 174.31 393.889 176.604 398.475C178.897 403.061 181.071 407.737 182.917 412.681C172.911 416.433 182.173 414.259 181.369 418.19C181.071 419.59 178.122 418.637 178.122 420.037C178.182 425.338 180.267 430.282 179.939 435.612C179.611 440.467 176.842 442.79 176.484 446.572C176.157 450.146 179.046 464.083 176.514 466.198C174.519 467.895 166.508 462.892 168.711 471.022C164.185 460.539 164.423 469.236 162.964 469.474C158.109 470.218 153.046 468.342 148.192 470.248C147.716 470.427 140.508 476.353 140.211 476.8C138.126 480.106 140.747 484.752 140.36 485.228C137.53 488.713 119.81 484.841 119.84 493.15C115.998 492.078 109.059 488.474 108.017 488.385C104.026 487.998 106.171 491.125 105.664 491.572C102.954 493.984 100.214 494.401 100.929 499.464C58.8181 492.078 39.0432 448.359 18.9408 412.74C34.4867 410.804 25.7012 416.374 28.6793 424.295C30.1982 428.346 38.2987 426.857 37.852 436.387V425.368L41.0088 433.23C40.026 430.669 43.3615 421.466 42.617 420.632C42.349 420.335 35.0227 418.756 34.7249 419.054C33.4741 420.305 39.5495 426.827 33.1465 425.338V401.691L28.4113 409.554C29.9003 404.193 24.0036 404.61 23.5867 400.947C23.2293 397.879 26.3266 394.157 25.046 390.136C23.1697 384.239 10.3042 377.509 9.50008 388.111C9.11292 393.174 17.1241 397.879 12.6271 403.24C8.72576 395.616 -3.00811 377.479 0.714567 368.545C1.60801 366.4 5.56894 365.894 6.01566 365.15C6.34325 364.614 4.46702 361.784 5.42003 360.682C13.0738 351.927 32.7891 348.651 44.1656 349.633C38.5965 363.095 30.4662 367.83 36.6012 384.776C39.6389 393.114 52.2066 400.262 55.9293 409.613C56.376 410.745 62.4514 429.865 62.6301 430.996C63.2555 434.808 57.746 454.256 67.8121 444.249C69.5394 448.865 69.6287 461.582 71.773 464.858C72.6962 466.287 79.814 465.185 80.4692 466.347C81.1244 467.508 78.2951 470.933 78.9801 472.452C79.3673 473.316 95.3599 481.297 96.2235 480.523C83.5069 457.71 65.9656 434.064 64.5957 407.439C64.5063 405.742 68.1992 407.528 67.8419 404.878C67.7525 404.282 57.4184 399.071 64.685 396.986C54.0531 396.629 63.5533 380.725 63.1364 379.653C62.9875 379.296 58.1331 379.236 57.0014 375.335C55.691 370.778 60.1285 369.051 59.7711 365.626C59.7413 365.239 53.7552 362.618 53.6659 362.261C53.0405 358.925 60.3965 361.993 59.9498 359.938C59.6817 358.687 45.208 355.768 47.3522 344.958C53.2787 332.182 49.3178 332.896 60.0689 320.597C61.8856 318.512 61.0517 314.402 61.7962 313.687C66.9484 308.565 93.9006 312.705 100.959 313.419C100.214 321.282 111.74 322.652 116.207 326.553C121.836 331.437 123.057 339.835 123.771 340.163C123.95 340.252 126.958 338.048 127.613 338.644C128.387 339.389 128.149 343.469 129.698 344.6C142.355 353.714 136.458 330.782 124.605 332.301C136.667 325.302 128.447 326.91 123.95 321.162C122.372 319.167 121.746 313.687 121.389 313.449C120.614 312.913 108.732 314.194 102.537 313.419C107.213 301.477 127.673 295.818 137.769 302.638C142.385 305.765 142.385 309.19 143.546 310.262L143.516 310.233ZM150.604 346.506V348.085L151.379 347.311L150.604 346.536V346.506ZM23.676 379.594C24.5397 378.611 18.5238 354.071 14.2353 357.526C13.6695 357.972 11.9719 370.451 12.6569 371.731C12.7463 371.88 15.6946 369.974 15.784 370.153C16.1413 370.778 19.0599 384.805 23.676 379.623V379.594Z" fill="#F1ACD4"/>
<path d="M182.947 352.791C180.386 362.649 185.509 376.973 188.159 387.129C188.338 387.814 190.78 387.397 190.81 387.516C191.614 390.196 186.015 387.903 187.683 391.417C188.755 393.621 193.49 394.634 193.967 395.378C194.205 395.736 195.068 396.093 195.545 396.957C185.33 399.399 198.017 422.301 198.612 429.299C198.761 431.205 195.605 433.439 195.724 435.524C196.289 445.471 194.562 452.946 201.888 459.379L201.829 501.043C209.304 499.226 210.019 505.153 211.329 511.288C210.674 518.018 208.768 506.195 206.564 510.513C204.539 514.504 212.729 517.154 209.691 519.954C209.185 520.43 205.403 519.507 204.956 519.954C204.062 520.907 208.47 541.397 208.232 542.498C207.994 543.6 200.608 546.727 201.799 551.463L197.123 545.894L209.721 587.736C209.81 588.243 209.632 588.809 209.721 589.315C210.168 591.548 211.27 592.293 211.299 592.472C217.643 619.722 230.568 643.755 239.681 669.754C241.349 674.46 242.659 679.106 244.416 683.96C246.65 690.155 248.437 696.617 250.73 702.871C260.885 730.717 269.075 759.456 281.494 786.438C284.204 781.196 271.19 758.235 272.828 756.508C278.486 750.462 283.281 781.852 291.739 773.84C292.871 772.768 289.833 744.208 283.817 745.995L279.112 710.763C281.613 715.29 283.579 720.115 285.425 724.969C287.391 730.121 290.071 735.72 291.739 740.723C292.305 742.481 292.603 744.774 293.317 747.037C300.048 768.033 307.851 815.981 321.669 829.413C323.694 831.408 325.243 831.884 328.013 832.182C328.578 847.698 347.668 875.663 332.331 882.989C314.909 891.328 317.351 876.348 309.876 868.426C307.702 866.133 303.264 867.265 302.847 866.788C302.073 865.865 303.383 856.007 302.311 852.314C301.239 848.622 290.637 820.746 289.356 819.555C285.276 815.773 276.133 820.091 273.483 816.487C271.904 814.343 273.096 804.485 272.351 800.256C265.353 760.885 255.763 730.687 239.443 694.384C216.481 643.219 194.711 590.983 170.29 540.414C166.985 533.594 164.632 525.761 160.82 518.346C171.094 519.15 156.68 512.062 171.869 510.454H173.447C173.566 510.93 173.328 511.526 173.447 512.032C173.715 513.223 174.192 514.295 175.026 515.189C176.395 519.835 179.135 526.208 182.888 529.395C183.364 516.321 182.292 503.038 182.888 489.964C186.551 488.803 185.896 485.824 186.134 482.965C187.415 467.777 192.031 453.839 192.358 439.514C192.775 420.484 190.839 421.467 183.603 406.487C181.012 401.156 186.73 396.54 176.604 395.349C173.06 379.535 170.261 359.492 168.712 343.32C168.086 336.709 167.61 329.472 167.908 322.831C176.187 330.246 179.076 342.546 182.888 352.791H182.947ZM193.967 486.867C188.159 485.169 192.18 504.229 195.545 505.778L193.967 486.867ZM292.543 775.419V776.997L293.317 776.223L292.543 775.449V775.419ZM283.847 791.173C283.847 791.173 283.966 788.165 283.847 788.046C281.822 786.021 281.822 793.198 283.847 791.173Z" fill="#A3CC6B"/>
<path d="M141.939 504.17C142.207 502.829 134.493 501.072 134.076 501.043L136.399 497.916C130.711 496.963 125.38 494.729 119.871 493.18C119.841 484.871 137.561 488.743 140.39 485.258C140.777 484.782 138.186 480.136 140.241 476.83C140.509 476.384 147.716 470.487 148.223 470.278C153.077 468.402 158.14 470.278 162.994 469.504C164.483 469.266 164.215 460.57 168.742 471.053C166.538 462.922 174.549 467.926 176.545 466.228C179.076 464.084 176.158 450.176 176.515 446.602C176.872 442.82 179.642 440.497 179.97 435.643C180.327 430.312 178.212 425.368 178.153 420.067C178.153 418.667 181.101 419.62 181.399 418.22C182.203 414.289 172.941 416.463 182.948 412.711C185.807 420.395 188.904 428.019 189.261 436.357C189.857 450.384 184.079 462.237 182.948 475.788L168.742 494.699C167.729 495.265 166.598 495.682 165.585 496.278C162.22 498.243 150.486 500.566 149.831 501.013" fill="#F1ACD4"/>
<path d="M47.323 344.928C45.1788 355.739 59.6525 358.658 59.9206 359.908C60.3673 361.963 53.0113 358.896 53.6367 362.231C53.6962 362.559 59.6823 365.209 59.7419 365.597C60.0992 369.051 55.6618 370.749 56.9722 375.305C58.0741 379.207 62.9583 379.266 63.1072 379.624C63.5241 380.696 54.0238 396.599 64.6558 396.956C57.3891 399.041 67.7233 404.253 67.8126 404.849C68.1998 407.499 64.4771 405.682 64.5665 407.41C65.9364 434.034 83.4776 457.681 96.1943 480.493C95.3306 481.268 79.338 473.286 78.9509 472.423C78.2659 470.933 81.0951 467.479 80.4399 466.317C79.7848 465.156 72.6968 466.288 71.7438 464.828C69.6293 461.552 69.54 448.865 67.7829 444.22C57.7167 454.226 63.2263 434.779 62.6009 430.967C62.4222 429.835 56.3468 410.715 55.9001 409.584C52.1774 400.232 39.6096 393.085 36.5719 384.746C30.437 367.8 38.5673 363.065 44.1364 349.604C45.0299 347.43 46.7274 346.09 47.2932 344.869L47.323 344.928Z" fill="#E575B1"/>
<path d="M307.521 756.478C307.64 756.984 307.402 757.55 307.521 758.056C307.581 758.295 305.377 759.754 306.181 763.06C309.636 777.236 315.771 792.871 320.119 806.957C320.387 812.884 323.514 818.304 323.276 824.32C332.508 824.945 318.6 807.642 329.559 810.114C329.917 817.589 327.802 824.29 327.981 830.604C327.981 831.14 327.981 831.646 327.981 832.182C325.211 831.855 323.663 831.378 321.638 829.413C307.849 815.981 300.016 768.033 293.286 747.037C300.165 736.614 300.82 756.657 307.491 756.508L307.521 756.478Z" fill="#A3CC6B"/>
<path d="M168.739 343.35C170.258 359.521 173.057 379.564 176.631 395.378C176.84 396.301 176.482 397.522 176.631 398.535C174.308 393.919 171.449 386.295 167.191 385.907C176.244 382.363 168.769 384.031 167.191 377.152C166.089 372.416 172.194 372.982 170.347 371.761C169.811 371.404 166.893 372.208 166.089 371.374C161.413 366.43 167.488 367.086 167.191 366.222C166.863 365.209 163.617 363.601 162.842 361.01C161.86 357.764 162.306 350.676 160.847 349.038C157.541 345.286 153.372 346.864 153.015 346.507C151.317 344.809 159.03 336.56 149.888 338.615C157.452 334.118 148.041 335.845 146.731 331.527C146.224 329.859 150.602 332.003 149.858 329.204C149.53 327.953 138.719 326.017 142.025 321.371C143.753 318.959 151.079 323.664 146.701 311.841C155.844 321.52 161.264 332.658 168.769 343.38L168.739 343.35ZM151.377 322.86C144.944 321.699 145.152 325.66 150.602 324.439C151.853 324.171 151.466 324.2 151.377 322.86Z" fill="#E575B1"/>
<path d="M12.6276 403.27C17.0948 397.909 9.11336 393.204 9.50052 388.141C10.3046 377.539 23.2 384.269 25.0464 390.166C26.327 394.186 23.2297 397.909 23.5871 400.977C24.0041 404.64 29.9008 404.223 28.4117 409.583L33.1172 401.721V425.368C39.55 426.857 33.5043 420.305 34.7254 419.084C35.0232 418.786 42.3196 420.364 42.6174 420.662C43.362 421.496 40.0265 430.698 41.0092 433.26L37.8822 425.397V436.417C38.2991 426.886 30.1688 428.405 28.6797 424.325C25.7314 416.374 34.5169 410.834 18.9412 412.77C17.3032 409.852 15.0696 408.065 12.6276 403.3V403.27Z" fill="#E575B1"/>
<path d="M193.966 384.329C194.71 386.92 195.514 392.787 193.966 395.378C193.489 394.633 188.724 393.621 187.682 391.417C185.984 387.933 191.583 390.196 190.809 387.516C190.779 387.397 188.337 387.813 188.158 387.129C185.508 376.973 180.415 362.648 182.947 352.791C186.699 362.827 191.077 374.144 193.995 384.329H193.966Z" fill="#A3CC6B"/>
<path d="M127.763 501.043C118.233 500.566 112.217 501.43 100.959 499.464C100.245 494.431 102.984 494.014 105.695 491.572L127.763 501.043Z" fill="#F1ACD4"/>
<path d="M119.868 493.15C125.378 494.699 130.709 496.932 136.397 497.886L134.074 501.013C131.99 500.893 129.845 501.132 127.761 501.013L105.693 491.542C106.199 491.095 104.055 487.939 108.045 488.355C109.117 488.475 116.027 492.048 119.868 493.121V493.15Z" fill="#F1ACD4"/>
<path d="M176.634 395.378C186.76 396.569 181.042 401.185 183.633 406.516C190.899 421.496 192.835 420.484 192.388 439.544L189.232 436.387C188.874 428.048 185.777 420.424 182.918 412.741C181.101 407.797 178.957 403.211 176.604 398.535C176.455 397.522 176.813 396.301 176.604 395.378H176.634Z" fill="#A3CC6B"/>
<path d="M23.6769 379.594C19.0608 384.776 16.1423 370.749 15.7849 370.123C15.6955 369.975 12.7472 371.881 12.6578 371.702C11.9729 370.451 13.6704 357.973 14.2362 357.496C18.5248 354.041 24.5406 378.581 23.6769 379.564V379.594Z" fill="#E575B1"/>
<path d="M102.506 313.39C108.701 314.164 120.583 312.884 121.358 313.42C121.715 313.658 122.37 319.138 123.919 321.133C128.416 326.881 136.636 325.303 124.574 332.271C136.427 330.753 142.324 353.684 129.667 344.571C128.118 343.439 128.356 339.359 127.582 338.615C126.957 338.019 123.949 340.223 123.74 340.134C122.996 339.776 121.775 331.408 116.176 326.524C111.679 322.622 100.183 321.252 100.928 313.39C101.434 313.45 102 313.33 102.506 313.39Z" fill="#E575B1"/>
<path d="M150.603 346.507L151.407 347.281L150.603 348.085V346.507Z" fill="#E575B1"/>
<path d="M143.516 310.233L142.742 311.811L141.938 311.007L142.742 310.233H143.516Z" fill="#E575B1"/>
<path d="M230.241 376.467C230.509 378.134 229.676 380.279 231.82 381.202C231.82 382.244 231.701 383.346 231.82 384.359C233.547 398.832 238.461 404.55 247.574 414.319C249.391 416.284 253.977 422.806 255.466 423.789L274.377 606.707C273.544 618.649 267.706 637.382 268.391 646.495C269.702 664.572 289.328 697.093 291.77 717.077C292.842 717.553 293.229 715.439 293.318 715.498C293.676 715.677 294.361 715.349 294.897 715.498L298.054 721.812C300.555 733.456 304.546 744.327 307.524 756.507C300.853 756.656 300.198 736.613 293.318 747.037C292.604 744.773 292.306 742.48 291.74 740.723C295.85 738.013 292.038 727.411 285.426 724.969C283.58 720.114 281.644 715.319 279.113 710.763C279.113 700.637 271.727 698.791 269.672 709.184C267.051 698.761 257.462 683.215 255.824 673.328C255.317 670.32 253.918 667.342 258.593 668.175C256.926 673.119 267.796 693.311 271.25 687.891C273.305 684.674 268.094 683.692 268.004 682.977C267.2 674.995 274.169 676.246 274.407 675.263C275.36 671.273 270.685 673.983 268.898 671.362C265.324 666.031 257.759 641.819 258.593 635.088C258.861 637.828 261.899 650.247 263.329 642.117C264.877 633.272 256.181 615.82 252.339 608.702C251.505 607.183 252.875 602.835 252.28 601.942C251.893 601.346 248.587 604.145 247.604 603.55C246.859 603.103 241.737 589.076 237.329 589.344C232.594 589.642 242.958 606.468 242.809 607.481C242.75 607.868 235.275 608.494 234.977 608.225C234.202 607.57 237.836 604.622 235.751 603.49C224.881 597.623 242.214 623.116 241.231 623.235C231.999 622.789 241.588 626.333 242.065 627.107C246.591 634.463 231.85 629.728 233.428 639.764C238.134 632.914 236.972 638.513 241.261 641.342L242.839 633.48C243.167 643.189 251.952 655.25 253.59 663.083C255.496 672.047 252.518 681.458 251.416 688.516C250.493 694.294 252.816 698.404 250.731 702.871C248.438 696.617 246.651 690.154 244.417 683.96C252.548 682.679 248.229 674.162 249.153 668.205C242.482 668.563 249.361 677.765 239.712 669.784C230.599 643.784 217.674 619.781 211.33 592.501L209.752 589.344C209.662 588.838 209.841 588.272 209.752 587.766C208.173 579.397 209.424 570.82 206.595 562.541L211.3 565.668C211.33 561.469 211.3 557.27 211.3 553.07V548.335C212.611 548.99 221.664 570.909 222.349 575.138L225.476 570.433L231.82 590.893C234.709 588.064 231.82 581.035 231.82 576.717C231.939 576.925 234.56 576.24 234.887 576.776C235.275 577.432 236.317 594.794 241.29 587.736C243.405 584.728 232.654 564.715 231.85 565.668C231.492 566.085 231.85 574.87 231.85 576.717C229.795 572.964 227.263 570.165 226.132 565.698C224.821 560.456 230.778 550.926 219.252 562.511C220.86 557.448 214.249 536.363 214.547 534.904C215.023 532.521 226.697 544.374 220.801 527.846C210.467 535.618 219.222 526.088 219.252 525.493C220.354 495.533 206.357 433.974 197.154 403.24C199.805 401.215 198.733 396.718 198.733 393.77L213.683 455.298C219.729 456.37 214.696 441.718 223.928 456.847V448.984L227.085 453.69C231.314 444.458 222.617 443.624 227.144 434.779C232.922 438.084 229.348 442.76 229.437 443.356C230.39 451.754 235.811 471.559 225.596 460.748C231.671 464.798 226.281 488.713 227.144 489.934C227.442 490.38 231.314 488.921 231.969 490.797C233.488 494.907 229.497 502.412 230.48 506.165C231.314 509.381 235.751 509.441 236.525 511.704C242.303 528.679 247.247 545.387 253.322 562.362C254.454 565.519 250.314 574.424 257.074 573.5C256.33 567.633 258.236 557.478 256.628 552.266C255.466 548.454 249.421 548.633 249.212 548.276C248.289 546.548 253.65 546.429 254.126 542.796C254.603 539.162 250.493 524.182 249.51 518.881C249.034 516.29 246.204 516.886 246.115 516.707C244.268 512.597 250.046 515.01 249.361 509.768C247.425 494.758 245.579 475.192 242.779 460.867C241.797 455.804 236.942 453.571 236.734 452.409C233.011 432.724 231.254 412.145 228.752 393.025C227.204 380.993 220.95 364.792 227.114 352.761C227.353 360.057 229.05 369.081 230.271 376.407L230.241 376.467ZM216.066 573.59L218.716 590.684L222.349 594.079L219.193 572.011L216.066 573.62V573.59ZM244.745 655.34L242.065 655.846L244.179 666.925L246.859 666.418L244.745 655.34Z" fill="#A3CC6B"/>
<path d="M250.759 702.871C252.844 698.404 250.521 694.294 251.444 688.516C252.576 681.488 255.524 672.047 253.618 663.083C251.95 655.25 243.194 643.189 242.867 633.48L241.288 641.342C236.97 638.513 238.161 632.914 233.456 639.764C231.907 629.728 246.649 634.463 242.092 627.107C241.616 626.333 232.026 622.789 241.259 623.235C242.212 623.116 224.909 597.623 235.779 603.49C237.863 604.622 234.23 607.541 235.004 608.226C235.302 608.494 242.777 607.868 242.837 607.481C242.986 606.439 232.622 589.642 237.357 589.344C241.765 589.076 246.887 603.073 247.632 603.55C248.615 604.175 251.92 601.376 252.307 601.942C252.903 602.805 251.533 607.153 252.367 608.702C256.209 615.82 264.905 633.272 263.356 642.117C261.927 650.247 258.889 637.828 258.621 635.088C257.787 641.819 265.352 666.031 268.926 671.362C270.683 673.983 275.388 671.273 274.435 675.263C274.197 676.216 267.228 674.995 268.032 682.977C268.092 683.692 273.303 684.674 271.278 687.891C267.824 693.341 256.983 673.119 258.621 668.176C253.945 667.342 255.345 670.32 255.851 673.328C257.489 683.215 267.079 698.731 269.7 709.185C271.755 698.791 279.141 700.637 279.141 710.763L283.846 745.994C289.862 744.207 292.9 772.768 291.768 773.84C283.31 781.851 278.515 750.462 272.857 756.507C271.219 758.234 284.263 781.196 281.523 786.437C269.104 759.456 260.944 730.716 250.759 702.871ZM261.778 663.44C262.165 662.845 261.391 655.34 258.651 655.578C257.579 658.407 259.187 667.61 261.778 663.44ZM274.375 748.615C270.325 743.671 270.325 758.264 274.375 753.321C274.524 753.142 274.524 748.794 274.375 748.615Z" fill="#A3CC6B"/>
<path d="M197.123 403.27C206.326 434.005 220.323 495.563 219.221 525.523C219.221 526.119 210.436 535.649 220.77 527.876C226.666 544.404 215.022 532.551 214.516 534.934C214.218 536.393 220.829 557.478 219.221 562.541C230.746 550.986 224.79 560.486 226.101 565.728C227.232 570.195 229.734 572.995 231.819 576.747C231.819 574.901 231.491 566.145 231.819 565.698C232.593 564.745 243.374 584.758 241.259 587.766C236.316 594.795 235.273 577.432 234.856 576.807C234.529 576.271 231.908 576.956 231.789 576.747C231.789 581.065 234.707 588.094 231.789 590.923L225.445 570.463L222.318 575.169C221.604 570.94 212.55 549.021 211.269 548.365C207.04 546.281 206.058 554.59 211.269 553.101C211.269 557.3 211.269 561.529 211.269 565.698L206.564 562.571C209.393 570.821 208.142 579.427 209.721 587.796L197.123 545.953L201.799 551.522C200.608 546.787 207.993 543.63 208.232 542.558C208.47 541.486 204.092 520.966 204.956 520.013C205.402 519.537 209.185 520.46 209.691 520.013C212.699 517.214 204.509 514.563 206.564 510.573C208.768 506.284 210.674 518.078 211.329 511.347C210.019 505.182 209.304 499.286 201.829 501.102L201.888 459.438C194.562 453.005 196.319 445.53 195.724 435.583C195.604 433.498 198.761 431.265 198.612 429.359C198.017 422.36 185.33 399.458 195.545 397.016C195.694 397.314 196.587 401.543 197.123 403.33V403.27Z" fill="#A3CC6B"/>
<path d="M165.585 496.307L171.899 510.513C156.711 512.121 171.154 519.209 160.85 518.405C159.301 515.368 148.967 501.668 149.801 501.072C150.486 500.596 162.22 498.303 165.556 496.337L165.585 496.307Z" fill="#A3CC6B"/>
<path d="M192.389 439.544C192.061 453.898 187.475 467.806 186.164 482.995C185.926 485.854 186.581 488.832 182.918 489.993C183.127 485.318 182.531 480.463 182.918 475.788C184.05 462.237 189.828 450.384 189.232 436.357L192.389 439.514V439.544Z" fill="#A3CC6B"/>
<path d="M239.71 669.754C249.359 677.765 242.48 668.563 249.151 668.176C248.227 674.132 252.576 682.65 244.415 683.93C242.658 679.106 241.348 674.46 239.68 669.724L239.71 669.754Z" fill="#A3CC6B"/>
<path d="M285.424 724.969C292.036 727.411 295.848 738.043 291.738 740.723C290.07 735.72 287.39 730.121 285.424 724.969Z" fill="#A3CC6B"/>
<path d="M193.965 486.866L195.543 505.778C192.208 504.229 188.157 485.169 193.965 486.866Z" fill="#A3CC6B"/>
<path d="M283.846 791.173C281.82 793.198 281.82 786.021 283.846 788.046C283.965 788.165 283.965 791.054 283.846 791.173Z" fill="#A3CC6B"/>
<path d="M175.056 515.218C174.222 514.325 173.746 513.253 173.478 512.061C174.907 512.716 174.699 514.027 175.056 515.218Z" fill="#A3CC6B"/>
<path d="M173.476 510.483H171.897L165.583 496.278C166.596 495.682 167.728 495.265 168.74 494.699C170.914 499.613 172.106 505.272 173.476 510.454V510.483Z" fill="#A3CC6B"/>
<path d="M211.329 592.501C211.299 592.323 210.197 591.578 209.75 589.344L211.329 592.501Z" fill="#A3CC6B"/>
<path d="M292.542 775.419L293.316 776.193L292.542 776.997V775.419Z" fill="#A3CC6B"/>
<path d="M151.38 322.861C151.439 324.171 151.827 324.141 150.606 324.439C145.156 325.66 144.947 321.729 151.38 322.861Z" fill="#F1ACD4"/>
<path d="M216.064 573.59L219.191 571.982L222.348 594.05L218.744 590.685L216.064 573.59Z" fill="#A3CC6B"/>
<path d="M244.7 655.343L242.009 655.858L244.13 666.944L246.821 666.429L244.7 655.343Z" fill="#A3CC6B"/>
<path d="M211.328 548.335V553.071C206.116 554.56 207.099 546.251 211.328 548.335Z" fill="#A3CC6B"/>
<path d="M261.777 663.441C259.186 667.61 257.578 658.378 258.65 655.578C261.39 655.34 262.164 662.845 261.777 663.441Z" fill="#A3CC6B"/>
<path d="M274.375 748.615C274.524 748.794 274.524 753.142 274.375 753.321C270.325 758.264 270.325 743.672 274.375 748.615Z" fill="#A3CC6B"/>
</g>
<defs>
<clipPath id="clip0_209_947">
<rect width="500" height="885.431" fill="white"/>
</clipPath>
</defs>
</svg>
