<svg width="500" height="383" viewBox="0 0 500 383" fill="none" xmlns="http://www.w3.org/2000/svg">
<g clip-path="url(#clip0_209_1219)">
<path d="M39.6888 76.0273C40.503 82.3329 52.7545 100.436 57.7157 102.519C64.116 105.226 57.015 95.588 56.9014 94.1489C56.3901 87.7107 62.4307 88.3166 54.8563 81.6891C57.4695 83.4691 67.1836 81.1968 67.9221 81.8406C68.4712 82.314 67.9978 85.7792 69.1908 87.1616C71.1222 89.377 73.7922 89.5475 75.2502 92.5583C78.7723 99.7917 76.4621 111.286 85.1536 113.899C89.3385 115.168 90.0769 110.32 94.6405 112.857C96.1932 113.728 100.946 123.215 104.052 126.264C107.384 129.54 118.859 136.66 119.238 138.534C113.217 137.341 108.71 135.05 102.234 137.644C100.851 138.194 80.041 155.046 79.3025 156.467C76.4621 161.844 80.609 164.969 77.5793 168.832C77.3332 169.154 74.5307 168.302 74.0005 168.964C73.546 169.513 76.9166 172.846 73.8679 175.421C73.3756 175.819 63.1124 180.761 62.4875 180.913C54.2125 182.901 55.3676 176.974 54.8563 176.406C62.9041 179.057 61.5217 168.51 60.1394 164.495C58.3027 159.193 51.7887 158.076 49.062 154.668C47.6418 152.888 47.6797 150.35 47.282 149.896L62.3928 159.364C61.2567 152.433 82.3511 142.89 79.4729 138.553C77.1438 135.05 54.6859 139.652 54.8753 130.96C63.5289 131.699 73.9247 134.331 82.3701 134.709C98.5034 135.448 76.5757 126.586 75.8372 126.075C73.4892 124.427 71.2548 118.027 69.0961 118.046C68.4144 118.046 60.1205 124.522 56.7499 119.58C55.8599 118.273 62.1277 115.906 59.666 111.986C57.2044 108.067 47.1495 107.423 43.6085 105.283C41.2604 103.863 40.806 99.6971 37.7194 97.9171C33.8187 95.6637 23.7827 93.3914 18.8594 93.1074C18.9919 90.9298 21.1695 86.5935 18.8594 85.5331C20.147 84.7756 22.2489 80.9885 24.5401 79.8523C26.8314 78.7162 31.7925 76.4439 34.008 76.0652C35.5797 75.8001 37.9088 76.0273 39.6888 76.0652V76.0273Z" fill="#A3CC6B"/>
<path d="M102.177 102.537C118.215 110.831 106.948 115.186 109.846 119.409C111.076 121.208 122.04 120.526 124.104 123.272C125.221 124.768 121.624 128.991 123.896 132.948C124.388 133.8 139.707 136.073 141.961 140.39C141.374 141.394 140.238 143.249 140.067 144.177C139.953 144.783 140.143 145.446 140.067 146.071C128.687 148.135 111.039 150.634 109.77 165.007C106.854 165.101 102.442 162.791 102.214 163.094C101.722 163.757 102.877 167.923 102.082 168.585C100.832 169.608 92.0648 168.472 88.9404 168.794C93.3335 159.875 121.093 147.321 119.238 138.496C123.441 139.33 128.403 142.7 128.687 142.284C132.947 136.054 122.665 136.489 119.332 133.668C112.004 127.457 98.9007 112.782 102.195 102.518L102.177 102.537Z" fill="#A3CC6B"/>
<path d="M54.838 72.24L85.1353 76.0272C84.5105 78.8486 86.1011 84.4158 87.0289 87.3887C81.0831 96.1938 85.9496 104.223 85.1353 113.899C76.4438 111.286 78.754 99.7916 75.2319 92.5582C73.7739 89.5474 71.1039 89.3769 69.1725 87.1614C67.9606 85.7791 68.4529 82.3328 67.9038 81.8405C67.1653 81.1967 57.4512 83.4879 54.838 81.689C51.619 78.8865 47.775 76.7846 43.4766 76.0083C45.1429 70.9903 50.6532 72.24 54.838 72.2211V72.24Z" fill="#A3CC6B"/>
<path d="M43.477 76.0272C47.7754 76.8036 51.6194 78.9055 54.8385 81.708C62.4317 88.3166 56.3723 87.7295 56.8835 94.1677C56.9972 95.5879 64.0981 105.226 57.6978 102.537C52.7555 100.435 40.5041 82.3328 39.6709 76.0461C40.9017 76.0651 42.3598 75.8379 43.4581 76.0461L43.477 76.0272Z" fill="#A3CC6B"/>
<path d="M68.0923 250.237C76.5945 248.135 77.7874 252.036 75.6477 259.686C55.803 250.028 58.3593 273.092 77.5413 271.066C78.1851 275.024 75.3258 276.595 71.8795 276.728C71.709 276.728 71.2924 274.531 69.1148 274.721C57.3936 275.667 38.5524 277.58 39.6886 293.77C36.1097 295.588 36.015 305.359 32.1143 293.77C34.2351 281.537 33.2315 271.804 41.5822 261.579C50.3305 260.632 59.2682 252.395 68.0923 250.218V250.237Z" fill="#A3CC6B"/>
<path d="M39.6886 293.789C43.116 292.066 55.9166 290.305 56.5793 289.737C57.4883 288.96 56.2764 284.851 56.7308 284.321C58.0374 282.768 64.0779 287.805 64.2862 289.093C64.9679 293.183 35.8068 300.095 40.5597 310.775C44.4794 319.599 51.1258 302.916 59.7227 310.756C60.821 312.252 58.8327 323.405 58.3783 323.897C57.3747 324.957 53.6822 323.632 52.9437 324.086C39.2531 317.875 44.9149 329.067 45.3693 335.448C32.0575 339.595 40.1809 333.592 37.7193 325.45C37.3027 324.067 34.6138 324.181 34.1594 322.647C32.9096 318.33 34.5381 312.555 30.2207 308.957C30.7509 303.011 31.0917 299.716 32.1143 293.808C36.0151 305.397 36.1097 295.626 39.6886 293.808V293.789Z" fill="#A3CC6B"/>
<path d="M30.2222 308.938C34.5395 312.554 32.911 318.33 34.1608 322.628C34.6153 324.181 37.3041 324.067 37.7207 325.431C40.1824 333.592 32.0589 339.576 45.3708 335.429C45.901 342.909 42.947 360.311 52.9451 358.152C52.8126 360.027 53.0398 361.958 52.9451 363.833C51.809 364.609 50.3509 365.007 49.158 365.726C48.9307 365.613 45.9957 367.771 44.5944 367.222C41.5836 366.01 42.057 359.743 35.9029 361.939C35.0318 352.982 30.4494 348.021 30.2222 346.79C27.4954 332.021 28.9724 322.893 30.2222 308.919V308.938Z" fill="#A3CC6B"/>
<path d="M160.877 45.73C150.785 52.0356 150.217 66.7108 162.771 68.4529C159.135 73.3762 150.898 93.7512 150.008 100.189C148.38 112.081 151.258 123.253 149.516 134.728C148.815 135.126 148.304 136.224 147.622 136.622C145.672 137.796 144.422 136.148 141.942 140.409C139.688 136.092 124.369 133.819 123.877 132.967C121.605 129.01 125.202 124.787 124.085 123.291C122.021 120.545 111.057 121.227 109.826 119.428C106.929 115.187 118.196 110.85 102.157 102.556C100.851 101.875 96.7608 103.825 93.5985 100.72C93.0683 100.208 87.255 88.2219 87.0088 87.4077C86.081 84.4348 84.4904 78.8676 85.1153 76.0462C85.2667 75.3266 93.8257 65.2149 94.5832 64.6847C95.2838 64.1924 108.918 57.3566 109.732 57.1104C116.151 55.1032 134.841 53.5126 142.396 51.1267C147.054 49.6686 151.41 42.3026 160.858 45.7489L160.877 45.73ZM115.829 71.7856C114.958 71.388 112.459 62.1473 108.899 70.2708C108.084 72.1265 110.338 75.3266 109.732 76.0083C109.126 76.69 95.1891 65.3664 100.207 80.6855C113.936 81.7837 131.489 96.5916 143.324 98.4473C152.356 99.8674 150.349 78.7919 149.497 77.9208C148.777 77.1823 144.119 79.6251 141.828 78.7919C139.783 78.0345 138.42 73.7171 135.049 72.7703C132 71.8993 120.885 74.1337 115.829 71.7856Z" fill="#769448"/>
<path d="M109.751 165.026C113.86 164.912 118.519 158.436 117.326 168.813C113.842 168.964 107.725 167.98 105.245 168.68C102.991 169.324 104.79 174.702 101.003 176.16C96.8183 177.75 88.1835 175.573 83.2224 176.387C78.5263 176.349 74.4551 176.671 70.8383 180.099C69.7779 181.102 56.6365 204.299 56.769 205.757C57.375 212.365 78.6778 200.492 81.3288 210.453C67.089 211.456 78.1476 217.819 77.5605 220.811C76.7274 224.939 66.4642 223.31 68.0926 229.407C72.4668 229.18 76.9735 229.767 81.3288 229.407C82.427 231.036 85.7976 244.121 85.1349 244.537C83.7336 245.408 77.7499 243.212 77.5605 245.484C77.3901 247.586 84.8508 253.74 85.968 256.012C86.4793 257.073 90.6641 267.601 90.7967 268.245C91.0807 269.835 83.5821 269.21 85.1538 275.781C86.0249 279.474 95.417 275.081 94.5838 281.462C94.4324 282.655 80.0411 284.984 87.0284 299.47C82.9194 300.152 70.6868 299.811 69.9862 294.717C69.2856 289.623 86.0249 291.952 71.8609 276.766C75.3261 276.614 78.1665 275.062 77.5227 271.104C58.3218 273.13 55.7844 250.066 75.6291 259.724C77.7688 252.074 76.5759 248.173 68.0737 250.275C67.7518 243.287 57.962 239.368 54.8186 235.126C48.6834 226.87 43.1731 212.801 39.67 202.935C37.6817 197.349 38.1741 191.782 35.8828 185.893C36.2994 183.715 35.2769 180.023 35.8828 178.319C44.3093 183.355 45.9946 166.503 54.8186 176.425C55.3299 176.993 54.1559 182.92 62.4498 180.932C63.0557 180.78 73.3379 175.857 73.8302 175.44C76.8789 172.865 73.5272 169.532 73.9627 168.983C74.4929 168.32 77.2954 169.173 77.5416 168.851C81.8779 172.808 85.7219 169.192 88.9031 168.851C92.0843 168.51 100.814 169.665 102.045 168.642C102.84 167.98 101.685 163.833 102.177 163.151C102.404 162.848 106.835 165.139 109.732 165.064L109.751 165.026Z" fill="#A3CC6B"/>
<path d="M166.558 310.831C157.185 314.637 162.033 326.188 159.192 330.771C158.549 331.812 144.119 343.496 141.942 344.916C111.076 365.234 85.1155 361.409 54.8371 373.319C45.9563 376.823 46.3539 379.436 41.5631 381.822C31.9059 386.669 36.6588 369.816 35.9013 361.958C42.0555 359.742 41.5821 366.029 44.5929 367.241C45.9941 367.809 48.9292 365.65 49.1564 365.745C49.5541 365.916 47.1871 370.555 53.4738 369.248C56.2005 368.68 65.6684 363.586 64.3051 360.064C81.3662 371.18 94.8864 359.723 102.177 343.022C102.423 343.628 105.093 347.339 105.964 348.703C106.664 349.782 105.907 353.531 108.956 354.213C119.408 356.599 123.385 345.332 122.627 336.811C122.249 332.532 116.568 335.505 122.892 328.972C117.534 323.329 118.367 315.66 116.341 308.9C115.943 307.574 113.614 307.252 113.538 307.044C106.532 288.108 119.03 299.602 119.92 299.527C131.47 298.504 130.505 291.346 134.368 282.428C134.708 282.749 135.939 282.106 136.261 282.428C145.843 291.687 158.454 301.363 166.558 310.831ZM139.67 307.423C139.329 306.741 128.403 299.64 126.793 301.382C125.998 302.253 130.315 322.685 130.94 324.673C132.436 329.388 138.117 329.142 138.174 330.752C138.268 333.403 126.528 346.449 128.687 348.703C150.009 342.151 139.991 334.236 141.753 321.132C142.34 316.758 147.149 320.167 145.71 314.637C132.209 320.148 142.472 312.857 139.688 307.423H139.67Z" fill="#A3CC6B"/>
<path d="M18.8596 85.4951C21.1698 86.5555 18.9922 90.8918 18.8596 93.0694C18.0264 106.04 19.8064 97.8223 26.8884 99.2046C35.9965 100.985 54.724 116.02 46.4112 123.461C39.7647 129.426 33.1751 121.947 34.0272 134.728C32.4176 133.63 27.4565 134.35 22.6657 130.941C11.077 122.704 -1.26916 113.823 0.113151 97.6519C0.719097 90.6078 13.6144 88.5438 18.8596 85.4951Z" fill="#A3CC6B"/>
<path d="M18.8604 93.0695C23.7648 93.3535 33.8007 95.6258 37.7205 97.8792C40.807 99.6591 41.2425 103.825 43.6095 105.245C47.1505 107.385 57.1675 107.972 59.6671 111.948C62.1666 115.925 55.861 118.235 56.7509 119.542C60.1215 124.503 68.4154 118.008 69.0971 118.008C71.2368 118.008 73.4902 124.408 75.8382 126.037C76.5767 126.548 98.5044 135.41 82.3711 134.671C73.9257 134.293 63.53 131.642 54.8763 130.922C54.6869 139.595 77.1448 135.012 79.4739 138.515C82.3711 142.852 61.2766 152.395 62.3938 159.326L47.283 149.858C44.5752 146.639 36.5843 136.47 34.028 134.709C33.1948 121.928 39.7655 129.388 46.412 123.443C54.7248 116.001 35.9973 100.966 26.8892 99.1857C19.8072 97.8034 18.0272 106.022 18.8604 93.0505V93.0695Z" fill="#A3CC6B"/>
<path d="M102.177 102.537C98.8826 112.801 111.986 127.476 119.314 133.687C122.647 136.508 132.91 136.073 128.669 142.303C128.385 142.719 123.423 139.349 119.22 138.515C118.822 136.641 107.366 129.54 104.033 126.245C100.928 123.196 96.1747 113.71 94.622 112.839C90.0774 110.301 89.3389 115.149 85.1352 113.88C85.9494 104.204 81.0829 96.175 87.0287 87.3699C87.2938 88.203 93.0882 100.17 93.6184 100.682C96.7807 103.768 100.871 101.837 102.177 102.519V102.537Z" fill="#A3CC6B"/>
<path d="M119.219 138.515C121.075 147.34 93.3151 159.894 88.922 168.813C85.7408 169.154 81.8968 172.77 77.5605 168.813C80.5903 164.95 76.4433 161.825 79.2837 156.448C80.0411 155.027 100.852 138.175 102.215 137.625C108.672 135.031 113.198 137.322 119.219 138.515Z" fill="#A3CC6B"/>
<path d="M81.3475 229.407C88.6378 228.839 107.252 220.981 110.66 227.514C115.47 236.717 100.832 241.943 95.1517 245.976C94.1103 246.715 89.0355 248.021 92.7279 250.237C93.9588 250.975 119.333 248.078 121.113 247.567C122.893 247.055 139.897 232.948 140.011 241.735C140.03 243.552 128.138 252.187 125.506 253.702C118.575 257.716 89.3195 265.31 113.519 265.423C107.725 275.97 111.19 272.335 121.113 276.747C117.818 272.108 117.894 268.945 119.238 263.53L123.991 269.229L158.984 259.724C161.238 265.272 164.097 270.536 166.559 276.766C158.549 278.281 134.879 268.945 136.261 282.447C135.939 282.125 134.709 282.768 134.368 282.447C132.342 280.534 132.607 277.031 132.361 276.86C128.327 274.077 106.759 297.103 102.177 301.382C96.2311 306.931 93.1824 306.116 89.8686 308.957C87.6153 310.907 80.9688 325.09 77.5036 327.04C74.0383 328.991 68.9824 325.071 68.0925 325.999C67.3918 326.737 70.005 330.449 69.5126 332.38C69.0203 334.312 65.7255 336.906 64.2864 339.235C57.621 340.901 57.4884 334.482 54.7238 332.589C53.2657 331.585 38.42 333.1 52.9249 324.086C53.6823 323.613 57.3559 324.938 58.3594 323.897C58.8328 323.405 60.8211 312.251 59.7039 310.756C51.107 302.916 44.4606 319.599 40.5409 310.774C35.788 300.076 64.9491 293.183 64.2674 289.093C64.0591 287.805 58.0186 282.787 56.712 284.321C56.2576 284.87 57.4505 288.96 56.5605 289.737C55.8978 290.305 43.0972 292.066 39.6698 293.789C38.5147 277.58 57.3748 275.686 69.0961 274.74C71.2737 274.569 71.6903 276.766 71.8607 276.747C86.0247 291.933 69.2475 289.339 69.986 294.698C70.7245 300.057 82.9192 300.133 87.0283 299.451C80.0409 284.946 94.4322 282.636 94.5837 281.443C95.3979 275.062 86.0247 279.474 85.1536 275.762C83.6009 269.191 91.0805 269.797 90.7965 268.226C90.6829 267.582 86.4981 257.054 85.9679 255.993C84.8506 253.721 77.371 247.567 77.5604 245.465C77.7497 243.193 83.7334 245.389 85.1347 244.518C85.7974 244.102 82.4458 231.017 81.3286 229.388L81.3475 229.407Z" fill="#A3CC6B"/>
<path d="M52.944 324.086C38.4392 333.119 53.2848 331.604 54.7429 332.588C57.5075 334.463 57.6401 340.901 64.3055 339.235C60.2343 345.825 53.4931 350.18 52.944 358.171C42.9459 360.329 45.8999 342.927 45.3697 335.448C44.9152 329.066 39.2534 317.875 52.944 324.086Z" fill="#A3CC6B"/>
<path d="M113.538 307.044C113.614 307.252 115.943 307.593 116.341 308.9C118.367 315.66 117.534 323.329 122.893 328.972C116.568 335.505 122.249 332.532 122.627 336.811C123.385 345.332 119.408 356.599 108.956 354.213C105.907 353.513 106.665 349.782 105.964 348.703C108.35 345.503 113.709 331.717 113.728 328.82C113.728 327.779 108.634 309.6 107.839 308.938C106.721 307.991 99.9992 311.229 99.2228 312.725C97.7837 315.452 101.173 318.481 99.45 322.325C99.2039 322.893 89.736 324.257 88.9596 328.858C87.653 336.584 99.6773 331.244 100.283 331.623C101.59 332.456 101.59 341.526 102.196 343.003C94.9054 359.705 81.3853 371.161 64.3241 360.045C58.6244 356.334 57.8481 360.5 52.9626 363.833C53.0573 361.958 52.8301 360.026 52.9626 358.152C53.5118 350.161 60.2529 345.806 64.3241 339.216C65.7632 336.887 69.0581 334.331 69.5504 332.361C70.0427 330.392 67.4296 326.699 68.1302 325.98C69.0202 325.052 73.9435 329.047 77.5413 327.021C81.1391 324.995 87.6341 310.888 89.9064 308.938C93.2201 306.078 96.2688 306.911 102.215 301.363L113.576 307.044H113.538Z" fill="#A3CC6B"/>
<path d="M64.3059 360.064C65.6503 363.586 56.2013 368.68 53.4746 369.248C47.1879 370.574 49.5549 365.934 49.1572 365.745C50.3502 365.025 51.8082 364.628 52.9444 363.851C57.8298 360.519 58.6062 356.353 64.3059 360.064Z" fill="#A3CC6B"/>
<path d="M115.83 71.7857C120.886 74.1337 132.02 71.8993 135.05 72.7703C138.42 73.7361 139.784 78.0345 141.829 78.7919C144.12 79.644 148.759 77.1824 149.498 77.9209C150.35 78.7919 152.357 99.8675 143.325 98.4473C131.471 96.5916 113.936 81.7838 100.208 80.6855C95.1899 65.3664 109.127 76.709 109.733 76.0084C110.339 75.3077 108.085 72.1076 108.899 70.2708C112.478 62.1284 114.959 71.3691 115.83 71.7857Z" fill="#769448"/>
<path d="M177.922 53.3043C178.3 53.8155 177.675 56.0121 177.922 57.0914C175.1 57.811 174.04 59.8182 172.241 60.8786C169.666 62.3934 164.42 66.2185 162.773 68.4529C150.219 66.7108 150.787 52.0356 160.879 45.7299C161.807 45.1619 167.147 41.9996 167.526 42.0374C168.283 42.0943 177.354 52.5089 177.922 53.3043Z" fill="#769448"/>
<path d="M83.2414 176.387C98.3711 176.538 123.082 183.242 138.155 185.855H140.049C140.522 191.46 142.492 201.041 143.836 206.684C144.84 210.888 146.146 214.088 147.623 218.046C149.1 222.003 150.028 226.624 153.304 229.407C153.115 229.956 153.474 230.695 153.304 231.301C152.262 234.861 150.71 235.505 151.41 240.769C152.073 245.711 156.845 254.421 158.985 259.705L123.991 269.21L119.238 263.511C117.894 268.926 117.799 272.089 121.113 276.728C111.191 272.297 107.725 275.951 113.52 265.404C89.3198 265.31 118.576 257.697 125.506 253.683C128.138 252.168 140.03 243.533 140.011 241.716C139.897 232.929 122.969 247.018 121.113 247.548C119.257 248.078 93.9402 250.956 92.7283 250.218C89.0358 248.002 94.0916 246.696 95.1521 245.957C100.833 241.943 115.47 236.698 110.66 227.495C107.252 220.962 88.6381 228.82 81.3478 229.388C76.9926 229.729 72.467 229.161 68.1117 229.388C66.4832 223.291 76.7464 224.919 77.5796 220.791C78.1666 217.819 67.1081 211.456 81.3478 210.434C78.6968 200.473 57.3941 212.327 56.7881 205.737C56.6556 204.279 69.797 181.102 70.8574 180.079C74.4741 176.652 78.5453 176.33 83.2414 176.368V176.387Z" fill="#769448"/>
<path d="M140.049 146.09C138.932 156.202 139.178 175.535 140.049 185.855H138.156C140.466 164.306 136.565 167.961 117.326 168.813C118.519 158.436 113.861 164.912 109.752 165.026C111.021 150.653 128.669 148.154 140.049 146.09Z" fill="#A3CC6B"/>
<path d="M117.326 168.813C136.564 167.96 140.465 164.306 138.155 185.855C123.082 183.242 98.3709 176.538 83.2412 176.387C88.2024 175.573 96.8371 177.75 101.022 176.16C104.809 174.721 102.991 169.324 105.264 168.68C107.744 167.979 113.86 168.964 117.345 168.813H117.326Z" fill="#769448"/>
<path d="M166.559 310.831C158.455 301.363 145.844 291.687 136.262 282.428C134.88 268.926 158.55 278.262 166.559 276.747C170.839 287.559 175.914 297.198 179.815 308.938C181.292 313.388 180.061 318.538 181.708 324.086L166.559 310.831Z" fill="#769448"/>
<path d="M102.178 343.022C101.553 341.545 101.553 332.475 100.265 331.642C99.6784 331.263 87.6352 336.603 88.9418 328.877C89.7182 324.257 99.1861 322.893 99.4322 322.344C101.155 318.5 97.7659 315.471 99.205 312.744C100 311.248 106.704 308.01 107.821 308.957C108.616 309.619 113.71 327.817 113.71 328.839C113.71 331.736 108.332 345.522 105.946 348.722C105.075 347.358 102.405 343.647 102.159 343.041L102.178 343.022Z" fill="#A3CC6B"/>
<path d="M139.669 307.423C142.453 312.857 132.209 320.148 145.691 314.637C147.13 320.167 142.32 316.758 141.733 321.132C139.972 334.236 149.989 342.151 128.668 348.703C126.509 346.468 138.249 333.403 138.155 330.752C138.098 329.142 132.398 329.369 130.921 324.673C130.296 322.704 125.979 302.253 126.774 301.382C128.384 299.64 139.31 306.741 139.651 307.423H139.669Z" fill="#A3CC6B"/>
<path d="M102.177 301.363C106.778 297.084 128.346 274.058 132.36 276.841C132.607 277.012 132.323 280.515 134.368 282.428C130.505 291.346 131.47 298.504 119.92 299.527C119.03 299.602 106.513 288.108 113.538 307.044L102.177 301.363Z" fill="#A3CC6B"/>
<path d="M177.92 236.982C181.007 236.641 184.301 237.322 187.388 236.982L189.244 237.909C181.783 243.533 182.332 245.787 181.707 254.024C179.852 278.224 191.251 302.973 200.378 323.405C203.37 330.127 204.809 339.936 210.111 344.916C214.902 349.403 216.038 349.422 223.366 348.703C220.507 350.028 205.869 354.8 203.616 354.478C195.568 353.361 196.685 341.583 189.282 341.128C188.032 336.944 182.446 326.586 181.707 324.086C180.06 318.538 181.291 313.388 179.814 308.938C183.241 305.453 177.617 298.125 177.92 297.595C179.189 295.474 185.324 299.11 183.601 293.789C177.769 275.838 178.545 254.781 164.665 240.769C167.714 235.902 173.357 237.474 177.92 236.982Z" fill="#769448"/>
<path d="M151.41 240.769C159.174 241.905 160.821 255.444 163.397 260.992C163.889 262.034 167.146 262.678 168.149 264.836C172.069 273.301 170.687 291.384 183.601 293.808C185.324 299.129 179.208 295.493 177.92 297.614C177.617 298.125 183.241 305.454 179.814 308.957C175.913 297.216 170.838 287.578 166.559 276.766C164.097 270.536 161.238 265.272 158.984 259.724C156.731 254.175 152.073 245.73 151.41 240.788V240.769Z" fill="#769448"/>
<path d="M164.665 240.769C178.545 254.781 177.769 275.838 183.601 293.789C170.687 291.365 172.069 273.282 168.149 264.817C167.146 262.659 163.889 262.034 163.396 260.973C160.821 255.425 159.174 241.886 151.41 240.75C150.709 235.486 152.262 234.842 153.304 231.282C154.8 236.83 162.222 238.269 164.665 240.75V240.769Z" fill="#769448"/>
<path d="M444.915 310.831C450.71 311.835 470.365 325.298 456.258 324.086C458.89 337.341 464.078 336.243 475.213 339.235C478.621 340.144 481.802 339.746 484.681 343.022C483.98 344.215 483.563 345.673 482.787 346.809C475.932 356.751 480.571 355.236 478.773 360.746C476.803 366.786 455.993 359.212 451.221 358.758C448.778 358.531 446.07 360.216 444.915 360.064C441.848 359.686 436.981 358.739 433.554 358.171C432.853 353.475 426.415 350.218 425.979 344.916C429.842 345.9 434.955 342.511 438.042 342.927C438.723 343.022 445.275 344.556 449.195 345.275C452.262 345.843 458.398 354.402 461.086 346.828C462.488 342.852 446.335 319.977 444.915 314.618C444.764 314.05 445.029 313.35 444.915 312.725C444.802 312.138 444.915 311.437 444.915 310.831Z" fill="#A3CC6B"/>
<path d="M433.553 316.512C428.081 324.086 417.534 332.835 427.873 339.235C426.888 340.731 425.828 343.174 425.979 344.916C426.415 350.218 432.853 353.475 433.553 358.171C419.295 355.766 404.089 353.891 391.895 344.916C405.888 333.365 413.273 333.194 422.192 314.618C423.82 316.001 425.373 322.117 426.926 322.155C427.532 322.155 431.451 316.929 433.553 316.512Z" fill="#769448"/>
<path d="M484.68 360.064C485.059 361.617 484.377 363.946 485.078 366.218C486.063 369.437 491.005 371.293 490.361 374.228C487.502 386.934 446.941 370.763 444.915 360.064C446.089 360.197 448.778 358.512 451.221 358.758C455.974 359.212 476.803 366.786 478.772 360.746C480.571 355.255 475.913 356.769 482.787 346.809C481.404 352.149 483.601 355.709 484.68 360.064Z" fill="#A3CC6B"/>
<path d="M488.467 276.747C494.262 290.892 501.192 289.244 499.829 308.938L496.041 310.831C500.946 297.917 492.216 296.023 482.086 288.771C480.401 287.559 476.954 288.62 475.742 287.635C473.603 285.912 472.315 279.777 471.122 279.019C470.573 278.678 463.188 280.629 460.063 274.853C468.111 268.093 480.931 270.706 488.467 276.747Z" fill="#A3CC6B"/>
<path d="M499.829 308.938C498.826 323.348 490.418 333.251 484.681 343.022C481.803 339.746 478.621 340.144 475.213 339.235C475.27 332.74 481.803 334.047 482.484 333.308C483.658 332.039 482.39 329.313 482.787 327.873C483.583 324.976 482.939 320.886 485.628 318.254C488.032 315.887 491.839 321.909 496.042 310.831L499.829 308.938Z" fill="#A3CC6B"/>
<path d="M458.17 276.747C461.105 290.911 458.265 283.715 455.046 286.745C452.281 289.339 447.244 296.004 450.596 299.47C443.457 299.905 444.859 305.453 444.915 310.831C444.915 311.437 444.802 312.138 444.915 312.725C437.682 302.708 438.648 309.487 433.554 316.512C431.452 316.928 427.532 322.174 426.926 322.155C425.374 322.117 423.821 316.001 422.192 314.618C428.422 301.647 423.859 302.026 435.447 290.002C440.087 285.192 451.922 274.91 454.383 269.172C458.757 270.403 457.527 273.66 458.17 276.747Z" fill="#769448"/>
<path d="M444.915 314.618C446.335 319.977 462.488 342.852 461.086 346.828C458.416 354.403 452.262 345.844 449.195 345.275C445.275 344.556 438.704 343.022 438.041 342.927C434.955 342.492 429.842 345.9 425.979 344.916C425.828 343.174 426.888 340.731 427.873 339.235C428.725 337.947 432.796 336.414 434.406 333.497C438.098 326.813 437.947 318.254 444.915 314.618Z" fill="#769448"/>
<path d="M450.596 299.47C458.511 307.631 454.951 305.87 460.007 313.728C463.624 319.352 475.534 327.987 482.787 327.873C482.389 329.313 483.658 332.058 482.484 333.308C481.802 334.047 475.269 332.74 475.212 339.235C464.078 336.243 458.89 337.341 456.258 324.086C470.365 325.298 450.71 311.835 444.915 310.831C444.858 305.453 443.457 299.905 450.596 299.47Z" fill="#A3CC6B"/>
<path d="M444.915 312.725C445.029 313.35 444.764 314.05 444.915 314.618C437.947 318.254 438.098 326.794 434.406 333.497C432.777 336.432 428.725 337.966 427.873 339.235C417.534 332.835 428.081 324.086 433.554 316.512C438.647 309.487 437.682 302.708 444.915 312.725Z" fill="#769448"/>
<path d="M460.065 274.853C463.189 280.629 470.574 278.678 471.123 279.019C472.316 279.776 473.604 285.912 475.744 287.635C476.955 288.601 480.402 287.559 482.087 288.771C492.199 296.042 500.947 297.917 496.043 310.831C491.82 321.909 488.033 315.887 485.628 318.254C482.939 320.886 483.583 324.976 482.788 327.873C475.535 327.987 463.625 319.352 460.008 313.728C454.952 305.87 458.512 307.631 450.597 299.47C447.226 296.004 452.282 289.32 455.047 286.745C458.266 283.715 461.106 290.93 458.171 276.747C458.853 276.179 459.383 275.421 460.065 274.853Z" fill="#A3CC6B"/>
<path d="M342.663 47.6235C340.751 51.8651 335.998 52.3574 332.021 53.077C315.036 56.2203 301.459 50.2745 281.993 56.0688C277.145 57.508 263.985 67.1842 268.814 72.2211C269.722 73.1679 287.124 66.2752 294.263 66.5403C313.616 67.2599 326.625 80.0037 344.538 79.8144C343.44 81.102 343.061 83.753 342.644 85.4951C342.512 86.0442 340.183 86.8017 340.959 89.7178C344.235 102.007 353.116 87.0668 356.392 84.8323C361.921 81.0831 364.572 81.6511 369.135 79.8144C364.174 82.276 338.895 110.699 338.876 112.952C338.838 115.982 356.543 122.855 360.122 125.241C366.806 129.672 361.41 136.982 372.923 127.154C369.931 135.296 376.539 140.598 379.512 148.021C383.091 156.978 382.353 164.363 389.965 170.706L388.071 174.493C386.594 172.392 380.44 170.062 379.19 168.226C376.066 163.643 377.07 157.451 370.84 151.013C363.019 142.908 344.292 134.785 333.176 132.835C332.059 138.25 337.077 136.432 339.69 140.466C341.906 143.893 344.027 152.452 346.412 155.539C331.131 146.26 316.191 136.716 299.073 130.922V129.029C301.213 127.154 315.717 114.883 316.039 113.804C316.778 111.153 315.339 109.392 312.953 108.559C304.678 105.662 268.927 114.581 261.22 119.58C266.863 109.335 279.721 108.029 287.73 100.644C298.334 97.0838 313.369 82.4275 296.384 75.8946C277.486 68.6233 269.476 83.2228 262.205 81.7269C254.934 80.2309 269.419 67.8848 263.114 64.6846C263.758 64.0787 264.326 63.397 265.007 62.7911C270.631 57.8299 275.536 54.7055 283.867 52.3006C299.849 47.6803 320.508 50.9751 333.176 41.9617C336.471 43.7606 339.558 45.5027 342.644 47.6424L342.663 47.6235Z" fill="#DEDBCB"/>
<path d="M348.343 49.517C351.562 52.5467 355.785 65.745 361.598 68.4528C359.439 69.4564 345.692 78.4698 344.556 79.8143C326.643 80.0226 313.634 67.2788 294.281 66.5403C287.143 66.2752 269.722 73.1678 268.832 72.221C264.003 67.1841 277.163 57.5268 282.011 56.0688C301.458 50.2555 315.035 56.2203 332.039 53.0769C335.997 52.3384 340.769 51.8461 342.681 47.6234C344.367 48.7974 347.964 49.1572 348.362 49.517H348.343Z" fill="#DEDBCB"/>
<path d="M295.322 0.284003C295.946 0.359747 296.59 0.189324 297.215 0.284003C297.84 0.378682 303.918 1.91248 304.789 2.17758C314.163 5.05583 314.996 5.79432 318.045 13.5391C320.43 19.5796 322.078 37.0763 323.498 38.9131C324.918 40.7498 330.126 40.2764 333.193 41.9428C320.525 50.9562 299.847 47.6425 283.884 52.2817C275.553 54.6866 270.648 57.811 265.024 62.7722C263.737 58.3223 272.561 51.1835 272.561 50.4639C272.561 49.8958 266.861 45.5595 265.536 42.3783C256.333 20.3938 266.861 15.4705 280.173 0.284003C284.642 0.0378378 291.023 -0.208328 295.322 0.284003ZM287.255 4.46882C266.937 8.21811 266.918 36.2431 277.541 38.0609C279.397 38.3829 298.029 22.7987 298.806 19.7311C300.813 11.8159 297.12 2.65098 287.255 4.46882ZM282.066 49.5171C292.027 47.7182 318.972 46.2601 318.007 33.63C315.924 5.98368 289.395 33.4217 283.392 43.9878C282.294 45.9193 281.328 46.7146 282.066 49.5171Z" fill="#FAF9F7"/>
<path d="M378.64 28.6877C380.534 28.593 382.427 28.7634 384.321 28.6877L389.074 32.4748C377.182 40.4468 367.07 54.3078 363.491 68.4529C362.942 68.6801 362.109 68.2067 361.598 68.4529C355.785 65.7451 351.562 52.5468 348.343 49.5171C356.561 35.5235 362.242 29.5019 378.64 28.6877Z" fill="#DEDBCB"/>
<path d="M395.682 30.5812C400.511 37.1141 399.375 43.8742 399.469 51.4106C399.507 54.4404 399.791 57.9624 399.469 60.8785C399.356 61.9011 397.935 63.4538 397.576 64.6657C395.909 64.0597 393.486 63.1698 391.895 62.7721C383.203 60.6324 372.088 64.8172 363.491 68.4529C367.051 54.3078 377.182 40.4468 389.073 32.4748L384.321 28.6877C388.468 28.5172 393.467 30.8085 395.682 30.5812Z" fill="#DEDBCB"/>
<path d="M424.087 77.9209C430.431 81.405 437.115 85.1543 443.023 89.2823C444.898 90.5889 448.874 93.5618 450.597 94.9631C454.157 97.8603 456.714 98.8071 460.065 102.537C454.593 101.004 457.206 106.211 455.824 107.707C454.763 108.862 452.794 107.972 452.491 108.218C431.207 115.83 419.865 104.261 397.577 112.005C387.466 115.508 380.592 120.659 372.961 127.154C361.448 136.963 366.825 129.653 360.16 125.241C356.581 122.874 338.895 115.982 338.914 112.952C338.933 110.699 364.212 82.2761 369.174 79.8144C372.052 78.6404 388.147 72.278 389.227 72.2022C396.744 71.6531 412.726 95.7963 424.087 77.9209Z" fill="#FAF9F7"/>
<path d="M397.575 64.6657C404.619 67.1841 417.06 74.0578 424.085 77.9207C412.724 95.8151 396.742 71.653 389.224 72.2021C388.164 72.2779 372.05 78.6403 369.171 79.8143C364.608 81.67 361.957 81.083 356.428 84.8323C353.152 87.0478 344.271 102.007 340.995 89.7177C340.219 86.8016 342.548 86.0442 342.68 85.4951C343.097 95.9666 358.738 79.2273 362.184 77.542C371.482 72.9596 388.41 73.3193 391.913 62.7721C393.504 63.1697 395.928 64.0597 397.594 64.6657H397.575Z" fill="#FAF9F7"/>
<path d="M460.064 102.537C463.264 106.097 465.953 111.248 467.638 115.792C467.108 120.545 468.396 126.453 467.638 130.941C461.125 132.532 460.083 143.344 456.315 145.181C452.547 147.018 435.296 148.57 429.256 150.312C424.238 151.751 419.807 152.982 414.618 154.459C394.508 160.178 415.641 165.745 422.174 170.706C425.904 173.547 430.979 176.273 433.535 180.174C436.754 185.079 440.352 193.259 431.641 193.429C421.075 187.351 397.708 177.125 389.983 170.706C382.257 164.287 383.109 156.997 379.53 148.021C376.557 140.598 369.949 135.277 372.94 127.154C380.572 120.659 387.445 115.508 397.557 112.005C409.941 108.237 415.319 123.537 426.964 123.158C433.478 122.95 435.334 116.966 439.31 114.94C445.843 111.645 444.802 114.429 452.471 108.218C452.774 107.972 454.743 108.843 455.804 107.707C457.186 106.211 454.573 101.004 460.045 102.537H460.064Z" fill="#FAF9F7"/>
<path d="M255.557 58.985C245.2 46.9039 204.241 78.1291 216.758 81.7269C226.718 84.5862 241.469 72.7324 247.983 66.5593C248.665 89.945 256.656 70.6684 263.132 64.6657C269.456 67.8659 255.065 80.2499 262.223 81.708C269.381 83.166 277.523 68.6233 296.402 75.8757C313.387 82.4086 298.333 97.0838 287.748 100.625C298.788 90.4184 295.834 81.3292 280.666 80.212C274.039 79.7197 250.085 94.9062 253.664 100.606L266.9 103.446C262.886 108.086 256.883 112.517 253.664 117.686C240.598 108.635 236.925 113.899 225.26 117.686C220.318 119.296 214.864 119.163 210.111 121.473C207.195 109.203 205.756 104.772 206.324 91.1759C206.627 84.0181 212.403 76.6142 206.324 68.4529C213.331 68.7937 224.124 58.2276 227.154 57.0914C227.968 56.7884 243.325 53.3421 244.196 53.3043C248.551 53.1528 257.318 55.7091 255.557 58.985Z" fill="#FAF9F7"/>
<path d="M346.45 155.558C344.045 152.452 341.943 143.893 339.727 140.485C337.114 136.451 332.096 138.269 333.213 132.854C344.348 134.804 363.056 142.927 370.877 151.032C377.107 157.47 376.103 163.662 379.227 168.245C380.477 170.081 386.631 172.41 388.108 174.512C393.354 181.973 399.375 189.623 399.47 199.129C399.489 201.704 398.069 214.846 397.576 218.065L367.279 185.874C358.209 163.435 357.679 170.081 346.45 155.576V155.558Z" fill="#FAF9F7"/>
<path d="M280.173 0.283936C266.861 15.4705 256.332 20.3938 265.535 42.3782C266.861 45.5595 272.56 49.8958 272.56 50.4638C272.56 51.1834 263.736 58.3222 265.024 62.7721C264.342 63.3781 263.774 64.0597 263.13 64.6657C256.654 70.6683 248.663 89.945 247.982 66.5593C250.822 63.8514 253.246 63.2834 255.556 58.9849C257.317 55.709 248.55 53.1527 244.195 53.3042C239.214 32.2097 239.801 14.1828 261.237 4.0711C269.474 0.189257 271.557 0.776267 280.173 0.283936Z" fill="#FAF9F7"/>
<path d="M261.239 119.58C268.965 114.6 304.715 105.662 312.971 108.559C315.357 109.392 316.815 111.153 316.058 113.804C315.755 114.903 301.231 127.154 299.092 129.029C298.618 129.445 291.801 130.733 287.73 134.709C283.318 132.077 275.403 139.159 270.688 142.284L276.35 132.835C262.754 129.9 256.183 143.59 247.965 151.752C248.23 148.381 249.215 145.503 249.858 142.284C251.752 132.778 251.771 125.658 261.22 119.561L261.239 119.58Z" fill="#FAF9F7"/>
<path d="M346.449 155.558C357.678 170.063 358.208 163.416 367.278 185.855C369.304 190.854 373.054 201.174 374.853 206.684C369.589 205.151 358.795 193.41 359.704 202.897C358.663 187.483 339.708 159.364 327.513 151.771C317.155 145.313 305.529 141.375 293.429 146.09C294.186 141.886 291.119 137.02 299.109 130.941C316.227 136.736 331.168 146.279 346.449 155.558Z" fill="#BEB38E"/>
<path d="M287.748 100.644C279.738 108.029 266.88 109.335 261.238 119.58C251.789 125.677 251.77 132.797 249.876 142.303H244.195C245.918 134.084 249.251 124.768 253.663 117.686C256.882 112.517 262.885 108.086 266.899 103.446L253.663 100.606C250.084 94.9062 274.038 79.7197 280.666 80.212C295.833 81.3482 298.787 90.4184 287.748 100.625V100.644Z" fill="#FAF9F7"/>
<path d="M431.66 193.429C439.064 197.69 447.964 200.151 452.489 206.665C446.543 210.756 429.255 194.66 427.873 204.791C419.2 200.568 408.842 194.793 399.469 199.11C399.374 189.604 393.353 181.954 388.107 174.493L390.001 170.706C397.727 177.126 421.094 187.351 431.66 193.429Z" fill="#FAF9F7"/>
<path d="M391.895 62.7722C388.392 73.3005 371.463 72.9597 362.166 77.5421C358.739 79.2274 343.079 95.9667 342.662 85.4952C343.079 83.7531 343.457 81.1021 344.556 79.8144C345.654 78.5268 359.439 69.4565 361.598 68.4529C362.109 68.2068 362.942 68.6802 363.491 68.4529C372.088 64.8173 383.204 60.6324 391.895 62.7722Z" fill="#FAF9F7"/>
<path d="M299.111 129.048V130.941C291.12 137.02 294.188 141.886 293.43 146.09C292.01 154.1 290.987 156.41 283.962 161.238C281.52 161.541 278.603 163.075 276.388 163.132C275.763 163.132 275.119 163.17 274.494 163.132C273.567 155.425 282.694 139.671 287.749 134.728C291.821 130.752 298.638 129.464 299.111 129.048Z" fill="#F9F8F7"/>
<path d="M287.257 4.46884C297.122 2.65101 300.815 11.8159 298.808 19.7311C298.031 22.7798 279.398 38.3639 277.543 38.061C266.92 36.2621 266.92 8.21813 287.257 4.46884Z" fill="#FAF9F7"/>
<path d="M282.068 49.5171C281.348 46.7146 282.314 45.9193 283.393 43.9879C289.396 33.4217 315.925 6.00264 318.008 33.63C318.955 46.2412 292.009 47.7182 282.068 49.5171Z" fill="#FAF9F7"/>
<path d="M183.601 57.0914C188.088 71.1796 183.942 87.0667 185.703 101.439C186.1 104.658 186.479 109.222 191.175 108.218C189.868 112.157 185.778 116.379 185.703 120.507C185.608 125.298 191.175 132.342 189.319 138.515C193.618 137.606 188.827 123.745 194.034 123.423C196.382 123.272 213.16 143.155 210.13 125.279C214.731 139.86 223.423 151.202 230.959 130.96C231.508 131.812 233.686 132.456 234.746 134.747C221.302 150.559 228.516 156.656 229.066 174.512C227.342 174.815 225.203 174.342 223.404 174.493C230.05 170.195 227.286 164.59 222.438 159.402C220.544 169.816 210.717 174.721 212.023 185.874C210.679 185.135 207.119 184.605 202.555 182.087C208.179 183.469 208.236 173.395 207.479 170.687C207.157 169.494 194.243 151.316 193.163 150.71C190.834 149.422 175.553 158 170.365 155.577C167.941 150.899 152.754 140.182 147.642 136.641C148.323 136.243 148.835 135.145 149.535 134.747C152.357 133.157 159.022 134.141 160.669 129.729C162.468 124.957 158.871 119.58 159.23 115.092C159.893 106.703 162.696 97.4814 163.339 88.9035L172.258 60.8975C174.057 59.837 175.117 57.8299 177.939 57.1103C179.359 56.7505 181.84 57.186 183.62 57.1103L183.601 57.0914Z" fill="#DEDBCB"/>
<path d="M149.517 134.728C151.259 123.253 148.381 112.081 150.009 100.189C150.899 93.7511 159.136 73.3762 162.772 68.4529C164.419 66.2184 169.665 62.3934 172.24 60.8785L163.321 88.8846C162.677 97.4436 159.875 106.665 159.212 115.073C158.871 119.561 162.45 124.938 160.651 129.71C159.004 134.122 152.338 133.138 149.517 134.728Z" fill="#FAF9F7"/>
<path d="M147.623 136.622C152.736 140.163 167.922 150.88 170.346 155.558C172.107 158.966 171.501 163.605 172.24 166.919C162.866 164.079 155.633 155.861 147.623 149.877C145.256 148.116 144.328 143.874 140.049 144.196C140.219 143.268 141.355 141.413 141.942 140.409C144.423 136.148 145.673 137.796 147.623 136.622Z" fill="#FAF9F7"/>
<path d="M236.621 325.98C239.859 328.404 241.81 331.433 244.196 333.554C237.777 333.441 234.482 342.397 230.941 344.916C229.047 346.26 225.639 347.642 223.366 348.703C216.038 349.422 214.902 349.403 210.111 344.916C216.228 331.736 233.08 339.197 230.96 322.193C231.301 321.757 235.504 325.147 236.621 325.98Z" fill="#DEDBCB"/>
<path d="M437.341 180.174C446.619 183.052 455.936 200 460.064 208.578C461.068 210.642 460.954 214.069 461.958 216.152C462.81 220.432 461.295 223.651 460.064 227.514C458.341 226.112 455.993 225.222 454.383 223.727C446.922 216.777 437 209.241 427.873 204.791C429.255 194.66 446.544 210.756 452.49 206.665C447.964 200.151 439.064 197.69 431.66 193.429C440.371 193.259 436.773 185.079 433.554 180.174C434.747 180.382 436.356 179.871 437.341 180.174Z" fill="#DEDBCB"/>
<path d="M456.277 159.345V161.238C450.956 164.495 444.518 169.892 439.765 174.096C437.36 176.236 433.8 175.989 437.341 180.174C436.356 179.871 434.747 180.383 433.554 180.174C430.998 176.273 425.923 173.547 422.192 170.706C426.585 163.7 428.744 166.465 433.554 165.026C440.996 162.81 448.494 160.254 456.277 159.345Z" fill="#DEDBCB"/>
<path d="M452.49 108.218C444.821 114.429 445.862 111.645 439.33 114.94C435.353 116.947 433.497 122.931 426.983 123.158C415.357 123.537 409.96 108.256 397.576 112.005C419.864 104.26 431.206 115.83 452.49 108.218Z" fill="#FAF9F7"/>
<path d="M467.638 130.941C466.237 139.311 461.882 144.707 455.406 149.953C448.589 155.482 437.474 157.073 433.554 165.026C428.744 166.465 426.586 163.7 422.192 170.706C415.66 165.745 394.527 160.178 414.637 154.459C419.825 152.982 424.237 151.752 429.274 150.312C435.315 148.57 452.414 147.112 456.334 145.181C460.253 143.249 461.124 132.532 467.657 130.941H467.638Z" fill="#FAF9F7"/>
<path d="M456.277 159.345C448.494 160.254 440.995 162.81 433.554 165.025C437.473 157.072 448.589 155.501 455.406 149.953C462.223 144.404 466.237 139.292 467.638 130.941C468.396 126.453 467.108 120.545 467.638 115.792C473.982 133.024 467.543 146.184 456.277 159.345Z" fill="#DEDBCB"/>
<path d="M187.389 57.0915C197.86 58.5685 191.517 60.8408 195.929 64.6847C197.595 66.1239 205.624 67.5251 206.325 68.453C212.403 76.6143 206.628 84.0182 206.325 91.1759C190.362 89.0551 194.092 99.4319 191.176 108.218C186.461 109.241 186.101 104.658 185.703 101.439C183.942 87.0669 188.089 71.1608 183.602 57.0915C184.795 57.0536 186.234 56.9211 187.389 57.0915Z" fill="#FAF9F7"/>
<path d="M206.325 91.176C205.757 104.772 207.196 109.203 210.112 121.473C210.377 122.609 209.79 124.257 210.112 125.26C213.142 143.136 196.365 123.253 194.017 123.405C188.809 123.727 193.6 137.607 189.302 138.497C191.176 132.323 185.59 125.279 185.685 120.489C185.779 116.361 189.851 112.157 191.157 108.199C194.073 99.413 190.343 89.0362 206.306 91.157L206.325 91.176Z" fill="#DEDBCB"/>
<path d="M253.663 117.686C249.251 124.768 245.919 134.084 244.195 142.303C243.855 143.893 242.378 145.578 242.302 146.09C243.192 140.844 240.541 141.431 236.621 144.196C236.697 139.273 236.773 139.121 234.727 134.728C233.667 132.437 231.489 131.793 230.94 130.941C227.835 126.207 220.942 123.045 225.26 117.686C236.924 113.899 240.598 108.635 253.663 117.686Z" fill="#DEDBCB"/>
<path d="M255.558 58.985C253.248 63.2834 250.824 63.8515 247.984 66.5593C241.47 72.7513 226.719 84.6052 216.758 81.7269C204.242 78.1291 245.2 46.904 255.558 58.985Z" fill="#FAF9F7"/>
<path d="M225.26 117.686C220.942 123.045 227.835 126.207 230.94 130.941C223.404 151.183 214.712 139.841 210.111 125.26C209.789 124.257 210.376 122.609 210.111 121.473C214.864 119.163 220.317 119.295 225.26 117.686Z" fill="#DEDBCB"/>
<path d="M427.873 204.791C437 209.241 446.922 216.777 454.383 223.727C443.722 234.861 441.848 253.115 423.196 253.683C415.565 253.91 408.824 248.854 398.977 250.653C391.459 252.017 380.742 263.113 379.322 263.34C375.534 264.003 373.868 258.209 372.959 257.792C369.91 254.1 372.618 253.513 375.004 251.354C385.229 242.094 395.417 234.842 397.576 219.92C397.67 219.296 397.481 218.652 397.576 218.027C398.068 214.808 399.488 201.666 399.469 199.091C408.842 194.774 419.2 200.549 427.873 204.772V204.791Z" fill="#FAF9F7"/>
<path d="M397.576 218.046C397.481 218.671 397.67 219.315 397.576 219.939C391.592 224.938 390.153 233.441 380.533 227.514C380.533 221.738 376.746 212.498 374.853 206.684C373.054 201.174 369.304 190.854 367.278 185.855L397.576 218.046Z" fill="#FAF9F7"/>
<path d="M249.878 142.303C249.234 145.522 248.249 148.4 247.984 151.771C247.738 154.895 248.154 158.114 247.984 161.238C243.288 169.854 247.965 173.793 248.022 181.235C248.06 185.173 246.015 189.055 246.09 191.536C241.716 187.597 239.576 192.35 236.622 193.429C220.224 199.432 225.791 193.486 212.006 185.855C210.699 174.702 220.527 169.816 222.421 159.383C227.268 164.552 230.014 170.176 223.386 174.475C225.204 174.342 227.344 174.796 229.048 174.493C233.725 173.66 233.498 172.013 234.729 165.026C233.252 168.68 240.447 183.905 244.197 180.155C245.409 178.943 241.3 153.929 242.303 146.09C242.379 145.579 243.856 143.893 244.197 142.303H249.878Z" fill="#AAAA94"/>
<path d="M287.749 134.728C282.693 139.671 273.566 155.425 274.494 163.132C273.85 163.094 273.13 163.265 272.6 163.132C267.544 161.882 266.938 161.617 266.9 155.558C264.06 156.826 260.538 160.348 259.345 163.132C256.94 168.699 255.88 179.758 263.132 182.068C263.606 182.219 264.363 182.049 265.026 182.068C261.542 198.069 285.211 197.179 285.855 185.855H293.43C292.843 188.582 294.036 192.672 293.43 195.323C280.44 192.009 261.901 202.291 253.664 187.749C250.085 174.001 252.396 161.163 261.239 149.877C264.363 147.358 267.374 144.518 270.707 142.303C275.422 139.178 283.337 132.096 287.749 134.728Z" fill="#DDD6C5"/>
<path d="M247.983 151.77C256.201 143.609 262.791 129.919 276.368 132.854L270.706 142.303C267.374 144.518 264.363 147.358 261.238 149.877C258.36 152.187 250.218 157.129 247.983 161.238C248.154 158.114 247.737 154.895 247.983 151.77Z" fill="#BB9F57"/>
<path d="M327.513 151.77C322.969 159.383 330.467 174.115 334.292 181.916C336.47 186.347 341.469 187.597 344.044 194.887C357.489 233.138 332.702 252.395 302.897 269.172C311.172 250.369 329.52 247.907 335.088 225.62C337.284 216.834 337.606 208.01 338.856 199.11C335.201 201.325 332.721 208.426 331.3 212.365H329.407C331.944 197.557 332.266 177.731 318.064 168.813C318.405 173.092 317.515 177.902 318.045 182.068L304.809 174.493C305.302 176.841 303.768 178.299 302.897 180.174C303.787 175.118 301.685 176.292 297.216 176.387C300.303 168.945 291.781 166.673 310.471 170.687C307.536 158.076 298.75 175.705 300.984 157.451C295.36 162.147 290.001 160.481 283.961 161.238C290.986 156.41 292.009 154.1 293.429 146.09C305.529 141.375 317.155 145.313 327.513 151.77Z" fill="#D9D1BD"/>
<path d="M374.853 206.684C376.746 212.498 380.514 221.738 380.533 227.514C380.533 231.642 376.046 245.673 372.997 247.491C366.805 251.183 363.586 239.992 358.057 242.927C356.22 243.893 354.137 254.535 352.224 256.978C344.196 267.222 320.848 279.095 307.593 280.515C304.809 280.818 293.599 282.825 295.303 276.747C298.541 275.989 300.397 276.198 304.771 274.853C334.179 265.764 361.863 234.899 359.685 202.897C358.776 193.41 369.57 205.15 374.834 206.684H374.853Z" fill="#AAAA94"/>
<path d="M327.513 151.771C339.708 159.364 358.662 187.483 359.704 202.897C361.881 234.899 334.197 265.764 304.79 274.853C294.281 272.562 302.272 270.593 302.896 269.173C332.701 252.395 357.488 233.138 344.044 194.887C341.488 187.597 336.47 186.347 334.292 181.916C330.467 174.115 322.968 159.383 327.513 151.771Z" fill="#F7F6F5"/>
<path d="M283.961 161.238C290.002 160.481 295.36 162.147 300.984 157.451C298.75 175.705 307.536 158.076 310.471 170.687C291.8 166.673 300.303 168.945 297.216 176.387C296.724 177.561 295.266 177.315 293.429 185.855H285.855C286.101 181.367 282.427 173.433 287.748 166.938C286.12 165.651 279.587 169.021 278.28 170.706L276.387 163.132C278.602 163.075 281.518 161.541 283.961 161.238Z" fill="#CFB689"/>
<path d="M276.387 163.132L278.281 170.706C277.827 171.293 277.486 174.588 276.387 176.387C266.37 181.859 267.734 169.532 272.6 163.132C273.131 163.265 273.85 163.094 274.494 163.132C275.138 163.17 275.763 163.132 276.387 163.132Z" fill="#B7893F"/>
<path d="M202.537 182.068C207.101 184.586 210.66 185.116 212.005 185.855C225.79 193.486 220.223 199.432 236.621 193.429C237.19 198.315 229.805 201.212 229.312 204.109C228.82 207.006 232.91 209.79 232.456 212.952C231.793 217.535 223.594 219.485 230.089 229.275C232.986 233.63 237.038 233.213 240.39 240.75C226.983 238.648 222.325 227.059 215.072 220.602C210.433 216.474 200.246 210.036 196.837 206.665C186.176 196.156 184.813 188.847 194.035 176.368C196.402 175.819 200.208 180.761 202.518 182.049L202.537 182.068Z" fill="#FAF9F7"/>
<path d="M170.346 155.558C175.534 157.981 190.815 149.404 193.144 150.691C194.224 151.278 207.138 169.475 207.46 170.668C208.217 173.376 208.142 183.45 202.537 182.068C200.207 180.78 196.42 175.838 194.053 176.387C184.832 188.866 186.195 196.175 196.856 206.684L193.107 216.152C191.819 204.052 177.712 191.308 174.133 182.068C171.936 176.406 173.224 171.407 172.239 166.919C171.501 163.605 172.107 158.966 170.346 155.558Z" fill="#FAF9F7"/>
<path d="M236.622 144.196C236.565 148.57 235.448 160.898 234.728 165.026C233.497 172.013 233.725 173.66 229.047 174.493C228.498 156.637 221.284 150.54 234.728 134.728C236.773 139.121 236.698 139.273 236.622 144.196Z" fill="#DEDBCB"/>
<path d="M147.623 149.877C149.024 153.702 149.762 159.761 151.41 163.132C148.134 176.387 152.527 195.058 143.835 206.684C142.491 201.041 140.522 191.46 140.048 185.855C139.177 175.535 138.931 156.201 140.048 146.09C140.124 145.465 139.935 144.802 140.048 144.196C144.328 143.874 145.256 148.116 147.623 149.877Z" fill="#FAF9F7"/>
<path d="M172.24 166.919C173.224 171.407 171.937 176.406 174.133 182.068C171.312 197.766 153.077 166.54 151.41 163.132C149.744 159.724 149.024 153.702 147.623 149.877C155.633 155.861 162.866 164.079 172.24 166.919Z" fill="#FAF9F7"/>
<path d="M174.133 182.068C177.712 191.309 191.819 204.033 193.107 216.152L196.856 206.684C200.265 210.055 210.471 216.493 215.091 220.621C222.344 227.078 226.983 238.648 240.409 240.769C241.242 242.625 242.132 244.386 242.302 246.45H229.047C227.21 245.465 224.237 245.143 223.366 244.556C219.825 242.208 212.99 236.338 210.111 233.195C209.505 232.532 205.302 221.379 200.605 219.031C193.675 215.584 177.977 218.463 170.346 206.684C168.528 202.632 161.333 181.197 155.216 185.855C152.793 187.711 158.606 217.724 147.623 218.046C146.146 214.088 144.84 210.888 143.836 206.684C152.527 195.058 148.134 176.387 151.41 163.132C153.077 166.541 171.312 197.766 174.133 182.068Z" fill="#FAF9F7"/>
<path d="M176.026 219.939C182.862 227.836 181.669 227.154 177.919 236.982C173.356 237.474 167.713 235.902 164.664 240.769C162.222 238.288 154.799 236.849 153.303 231.301C153.473 230.695 153.113 229.956 153.303 229.407C158.056 216.247 164.948 207.139 176.026 219.939Z" fill="#FAF9F7"/>
<path d="M170.346 206.684C172.277 211.021 174.095 215.584 176.027 219.939C164.949 207.139 158.057 216.247 153.304 229.407C150.028 226.624 149.081 221.928 147.623 218.046C158.606 217.724 152.793 187.711 155.216 185.855C161.333 181.216 168.528 202.632 170.346 206.684Z" fill="#FAF9F7"/>
<path d="M374.853 297.576C374.91 297.179 372.979 295.418 373.433 293.221C373.963 290.646 380.25 280.629 381.519 276.766C384.908 274.967 387.256 288.601 390.892 291.952C406.003 305.889 419.542 288.544 435.448 290.002C423.859 302.026 428.423 301.647 422.193 314.618C413.274 333.194 405.889 333.365 391.895 344.916C389.093 347.226 390.172 344.12 386.215 350.596C376.766 352.017 375.383 351.998 367.279 348.703C356.542 332.494 377.807 330.354 386.025 324.844C392.729 320.356 398.674 314.694 405.302 309.979C406.684 308.995 419.92 303.655 409.865 303.181C406.173 303.011 402.575 305.226 398.958 304.734C391.346 303.711 379.057 290.4 374.853 299.47C374.91 298.845 374.777 298.201 374.853 297.576Z" fill="#DEDBCB"/>
<path d="M374.853 299.47C379.057 290.399 391.346 303.711 398.958 304.734C402.575 305.226 406.173 302.992 409.865 303.181C419.92 303.655 406.684 308.994 405.302 309.979C398.693 314.694 392.728 320.337 386.025 324.844C377.807 330.354 356.561 332.494 367.279 348.703C361.219 346.241 356.996 343.476 352.13 339.235C350.066 337.436 349.403 333.138 344.556 333.554C351.373 329.653 354.175 329.691 361.598 324.086C374.436 314.391 373.584 314.713 374.853 299.47Z" fill="#DEDBCB"/>
<path d="M189.283 259.705C186.443 272.07 211.76 326.245 222.421 326.037C232.078 325.866 222.515 311.967 221.436 306.135C221.095 304.279 219.391 292.009 225.261 297.576C227.988 306.93 233.1 315.092 236.623 324.086V325.98C235.505 325.147 231.302 321.757 230.961 322.193C233.082 339.197 216.229 331.736 210.112 344.916C204.81 339.936 203.371 330.127 200.379 323.405C191.252 302.973 179.872 278.205 181.709 254.024H183.602C185.079 255.936 187.257 258.512 189.283 259.705Z" fill="#DEDBCB"/>
<path d="M210.112 233.194C212.99 236.338 219.826 242.208 223.367 244.556C225.204 254.213 203.162 257.091 198.182 254.137C195.323 252.433 186.688 235.751 183.602 254.024H181.708C182.333 245.787 181.784 243.533 189.244 237.909L187.389 236.982C194.887 236.167 202.613 234.368 210.112 233.194Z" fill="#DEDBCB"/>
<path d="M210.111 233.194C202.612 234.368 194.887 236.167 187.388 236.982C184.301 237.322 181.007 236.641 177.92 236.982C181.669 227.154 182.862 227.836 176.026 219.939C174.095 215.584 172.277 211.021 170.346 206.684C177.977 218.462 193.675 215.584 200.605 219.03C205.301 221.36 209.505 232.532 210.111 233.194Z" fill="#FAF9F7"/>
<path d="M312.365 316.512C316.19 319.958 320.185 324.673 323.726 327.873C316.55 329.237 316.114 336.792 311.437 341.147C307.82 344.518 287.048 352.017 299.11 360.064C282.958 357.016 281.007 355.633 266.919 348.703C296.516 354.081 281.462 342.265 282.049 330.922C282.087 330.146 284.132 316.853 284.321 316.095C285.893 309.903 291.99 304.715 291.535 297.576C298.542 304.582 305.131 310.017 312.365 316.512Z" fill="#FAF9F7"/>
<path d="M289.641 295.683C290.266 296.326 290.91 296.951 291.535 297.576C292.008 304.715 285.911 309.903 284.32 316.095C284.131 316.834 282.086 330.146 282.048 330.922C281.442 342.265 296.515 354.099 266.918 348.703C264.911 347.718 261.029 347.832 259.344 346.809C253.095 343.022 249.157 337.928 244.195 333.554C241.81 331.433 239.859 328.404 236.621 325.98V324.086C277.295 344.953 266.256 312.971 278.28 286.215C280.742 289.112 286.782 292.766 289.641 295.683Z" fill="#FAF9F7"/>
<path d="M331.3 331.661C333.667 333.99 335.334 337.701 335.088 341.128C328.914 346.658 318.992 360.822 312.213 362.905C305.434 364.988 303.275 360.86 299.11 360.064C287.047 352.017 307.82 344.518 311.437 341.147C316.114 336.792 316.549 329.237 323.726 327.873C325.373 329.369 329.823 330.203 331.3 331.661Z" fill="#FAF9F7"/>
<path d="M361.598 324.086C354.175 329.691 351.373 329.653 344.556 333.554C338.61 336.963 339.424 337.247 335.088 341.128C335.334 337.701 333.668 333.99 331.301 331.661C339.064 326.889 338.97 316.436 342.662 308.938C351.202 315.83 362.09 309.563 361.598 324.086Z" fill="#FAF9F7"/>
<path d="M460.064 227.514C458.094 233.687 453.36 240.523 452.565 245.749C451.561 252.244 460.423 255.103 454.383 269.172C451.921 274.91 440.086 285.192 435.447 290.002C419.522 288.544 406.002 305.889 390.891 291.952C387.255 288.601 384.907 274.948 381.518 276.766C380.249 280.629 373.962 290.646 373.432 293.221C372.978 295.418 374.909 297.179 374.852 297.576C365.517 296.137 349.422 299.773 342.51 306.23C340.332 308.256 342.718 308.824 342.662 308.938C338.969 316.436 339.064 326.889 331.3 331.661C329.823 330.203 325.373 329.369 323.726 327.873C320.185 324.673 316.189 319.958 312.364 316.512C329.785 320.261 317.306 304.128 323.593 294.603C325.6 291.555 351.277 276.292 357.848 270.157C363.472 264.893 365.214 254.403 372.959 257.811C373.868 258.209 375.534 264.003 379.321 263.359C380.741 263.113 391.459 252.036 398.977 250.672C408.823 248.873 415.564 253.929 423.196 253.702C441.847 253.134 443.722 234.88 454.383 223.745C455.992 225.241 458.34 226.131 460.064 227.533V227.514Z" fill="#FAF9F7"/>
<path d="M236.622 144.196C240.542 141.432 243.193 140.845 242.303 146.09C241.28 153.929 245.39 178.962 244.197 180.155C240.466 183.886 233.252 168.68 234.729 165.026C235.448 160.898 236.565 148.57 236.622 144.196Z" fill="#C8AA54"/>
<path d="M372.959 257.811C365.215 254.403 363.453 264.893 357.848 270.157C351.297 276.311 325.601 291.574 323.594 294.603C317.307 304.128 329.786 320.261 312.365 316.512C305.131 310.017 298.542 304.583 291.535 297.576C290.91 296.951 290.267 296.326 289.642 295.683L282.067 278.659C286.442 278.356 291.062 277.75 295.322 276.747C293.618 282.825 304.828 280.799 307.612 280.515C320.867 279.095 344.215 267.222 352.243 256.978C354.156 254.535 356.22 243.912 358.076 242.928C363.605 239.992 366.824 251.184 373.016 247.491C376.046 245.673 380.553 231.642 380.553 227.514C390.172 233.441 391.611 224.939 397.595 219.939C395.436 234.861 385.23 242.113 375.023 251.373C372.637 253.532 369.93 254.119 372.978 257.811H372.959Z" fill="#DEDBCB"/>
<path d="M329.406 212.365C318.783 219.826 312.8 233.554 301.003 238.875C299.62 239.5 290.929 242.397 289.641 242.662C277.162 245.275 267.6 243.761 255.557 240.788C261.124 249.479 250.065 246.449 242.302 246.449C242.131 244.385 241.241 242.624 240.408 240.769C237.056 233.232 232.985 233.649 230.107 229.294C223.612 219.504 231.811 217.534 232.474 212.971C232.928 209.809 228.838 207.101 229.331 204.128C229.823 201.155 237.208 198.315 236.64 193.448C239.594 192.369 241.733 187.616 246.108 191.555C246.146 192.785 245.88 194.3 246.108 195.342C235.674 194.944 234.348 217.781 237.454 221.984C239.101 224.219 243.93 223.177 246.127 224.73C248.323 226.283 246.846 230.316 250.274 231.982C255.178 234.368 287.179 232.134 293.921 230.865C309.675 227.911 321.472 213.236 323.385 197.69C324.066 192.066 320.185 190.797 319.938 189.661C319.427 187.142 318.367 184.605 318.045 182.087C317.515 177.921 318.405 173.111 318.064 168.832C332.266 177.75 331.925 197.576 329.406 212.384V212.365Z" fill="#F6F5F3"/>
<path d="M261.238 149.877C252.395 161.163 250.084 174.001 253.663 187.749C257.242 201.496 264.551 197.425 266.918 208.578C258.871 208.767 247.85 203.427 246.089 195.323C245.862 194.281 246.127 192.767 246.089 191.536C246.013 189.055 248.058 185.192 248.02 181.235C247.945 173.793 243.267 169.854 247.982 161.238C250.217 157.129 258.359 152.187 261.238 149.877Z" fill="#B18526"/>
<path d="M297.217 176.387C301.686 176.292 303.788 175.118 302.898 180.174C300.341 185.571 297.936 195.91 299.129 201.629C299.413 202.992 306.552 202.102 299.129 209.582C296.99 211.74 293.903 212.498 291.536 214.259C288.241 216.701 273.964 226.662 270.707 223.708C270.366 223.405 272.203 215.717 273.074 214.751C277.088 210.301 282.579 215.452 289.624 202.897C291.006 200.417 292.748 198.182 293.411 195.323C294.017 192.672 292.824 188.582 293.411 185.855C295.247 177.315 296.706 177.561 297.198 176.387H297.217Z" fill="#F6F4F0"/>
<path d="M293.429 195.323C292.767 198.182 291.024 200.417 289.642 202.897C283.658 204.564 272.562 208.445 266.919 208.578C264.552 197.425 257.073 200.795 253.664 187.749C261.901 202.291 280.439 192.009 293.429 195.323Z" fill="#D5B57B"/>
<path d="M278.281 170.706C279.587 169.021 286.12 165.669 287.749 166.938C282.428 173.433 286.101 181.367 285.855 185.855C285.211 197.178 261.541 198.068 265.026 182.068C273.149 182.39 273.679 180.837 276.387 176.387C277.485 174.588 277.826 171.293 278.281 170.706Z" fill="#EFEBE1"/>
<path d="M272.6 163.132C267.733 169.532 266.37 181.86 276.387 176.387C273.679 180.837 273.149 182.39 265.025 182.068C264.363 182.049 263.605 182.219 263.132 182.068C260.273 173.774 270.233 156.808 259.345 163.132C260.538 160.348 264.06 156.826 266.9 155.558C266.957 161.617 267.544 161.882 272.6 163.132Z" fill="#D4BD8F"/>
<path d="M263.131 182.068C255.878 179.758 256.939 168.699 259.344 163.132C270.232 156.807 260.272 173.774 263.131 182.068Z" fill="#B58726"/>
<path d="M302.897 269.172C302.272 270.593 294.281 272.562 304.791 274.853C300.416 276.198 298.561 275.989 295.323 276.747C291.062 277.75 286.442 278.356 282.068 278.659L289.642 295.683C286.783 292.766 280.742 289.112 278.28 286.215C274.266 281.519 259.155 255.823 257.413 254.876C254.895 253.532 248.987 256.467 244.991 256.145C241.848 255.898 238.837 254.024 238.496 254.005C239.007 248.514 232.815 248.438 229.028 246.431H242.283C250.047 246.431 261.106 249.441 255.538 240.769C267.582 243.761 277.144 245.276 289.623 242.643C306.381 268.794 323.082 240.977 335.069 225.601C329.502 247.889 311.153 250.35 302.878 269.154L302.897 269.172Z" fill="#AAAA94"/>
<path d="M318.045 182.068C318.367 184.586 319.428 187.124 319.939 189.642C314.978 202.424 309.24 220.659 291.535 214.259C293.921 212.479 297.008 211.721 299.128 209.582C306.551 202.102 299.394 202.992 299.128 201.629C297.954 195.91 300.34 185.571 302.897 180.174C303.787 178.319 305.32 176.861 304.809 174.494L318.045 182.068Z" fill="#D5BB8E"/>
<path d="M335.088 225.62C323.101 240.996 306.4 268.813 289.642 242.662C290.929 242.397 299.621 239.5 301.003 238.875C309.108 248.949 329.047 225.753 331.85 219.352C334.122 214.145 331.187 212.706 331.3 212.365C332.721 208.427 335.201 201.326 338.856 199.11C337.625 208.01 337.284 216.834 335.088 225.62Z" fill="#C5BA98"/>
<path d="M301.003 238.875C312.8 233.554 318.784 219.826 329.407 212.365H331.3C331.187 212.687 334.122 214.145 331.849 219.352C329.047 225.753 309.107 248.968 301.003 238.875Z" fill="#B9A46F"/>
<path d="M229.048 246.449C232.835 248.457 239.027 248.532 238.515 254.024C224.522 253.816 221.966 262.015 221.473 274.853C209.619 277.182 203.162 266.275 194.812 260.727C192.88 259.439 190.002 260.14 189.282 259.705C187.256 258.512 185.079 255.936 183.602 254.024C186.688 235.732 195.323 252.433 198.182 254.137C203.162 257.11 225.204 254.232 223.367 244.556C224.238 245.143 227.211 245.465 229.048 246.449Z" fill="#DEDBCB"/>
<path d="M374.854 297.576C374.778 298.201 374.91 298.845 374.854 299.47C373.585 314.713 374.437 314.391 361.598 324.086C362.091 309.563 351.203 315.83 342.663 308.938C342.719 308.824 340.334 308.256 342.511 306.23C349.423 299.773 365.537 296.137 374.854 297.576Z" fill="#FAF9F7"/>
<path d="M238.516 254.024C238.856 254.024 241.848 255.917 245.01 256.164C249.006 256.485 254.914 253.531 257.432 254.895C259.174 255.823 274.285 281.519 278.3 286.234C266.275 312.99 277.315 344.973 236.641 324.105C233.119 315.111 228.006 306.949 225.279 297.595C223.064 289.983 221.189 282.977 221.492 274.872C221.985 262.034 224.541 253.834 238.534 254.043L238.516 254.024Z" fill="#FAF9F7"/>
<path d="M221.473 274.853C221.17 282.958 223.045 289.964 225.26 297.576C219.39 292.009 221.094 304.279 221.435 306.135C222.515 311.967 232.077 325.866 222.42 326.037C211.759 326.226 186.442 272.07 189.282 259.705C190.021 260.14 192.88 259.44 194.812 260.727C203.162 266.275 209.6 277.182 221.473 274.853Z" fill="#DEDBCB"/>
<path d="M319.938 189.642C320.165 190.778 324.066 192.047 323.385 197.671C321.472 213.198 309.694 227.892 293.92 230.846C287.179 232.115 255.159 234.35 250.273 231.964C246.846 230.297 248.323 226.245 246.126 224.711C243.93 223.177 239.101 224.2 237.454 221.966C234.348 217.781 235.674 194.925 246.107 195.323C247.869 203.427 258.889 208.767 266.937 208.578C272.58 208.445 283.676 204.564 289.66 202.897C282.616 215.471 277.124 210.32 273.11 214.751C272.239 215.717 270.383 223.386 270.743 223.708C273.981 226.662 288.278 216.701 291.572 214.259C309.277 220.659 315.015 202.424 319.976 189.642H319.938Z" fill="#E0D8C7"/>
</g>
<defs>
<clipPath id="clip0_209_1219">
<rect width="500" height="382.693" fill="white"/>
</clipPath>
</defs>
</svg>
