<svg width="639" height="515" viewBox="0 0 639 515" fill="none" xmlns="http://www.w3.org/2000/svg">
<g clip-path="url(#clip0_209_1441)">
<path d="M545.873 395.284L555.407 399.09L541.99 414.468C559.982 414.199 581.741 418.389 598.234 425.617C608.229 429.999 603.578 430.192 599.656 437.534C546.795 441.763 474.02 449.721 422.812 460.601V437.534C455.913 428.884 494.28 403.55 526.612 395.246C537.761 392.362 541.567 395.707 545.834 395.246L545.873 395.284Z" fill="#769448"/>
<path d="M376.718 437.573C371.951 450.183 413.548 439.995 422.851 437.573V460.64C387.637 468.098 360.687 482.591 330.624 502.928C334.776 485.206 309.018 441.917 336.16 441.225C356.074 440.725 351.653 450.875 376.718 437.573Z" fill="#769448"/>
<path d="M526.651 395.284C494.319 403.588 455.952 428.923 422.851 437.573C413.548 439.995 371.951 450.183 376.718 437.573C388.405 431.383 399.631 415.814 415.162 414.468C417.469 410.662 389.059 390.44 384.407 387.595C389.02 375.216 405.474 382.79 415.162 376.062C415.624 384.558 411.741 407.932 421.236 410.239C433.27 413.199 504.084 382.713 526.651 395.284Z" fill="#A3CC6B"/>
<path d="M415.162 376.062C405.474 382.79 389.02 375.216 384.406 387.595C359.571 372.333 353.343 381.713 334.429 349.151C346.616 343.654 354.996 361.569 370.22 356.34C377.333 353.88 390.827 327.199 392.095 318.396C417.699 333.504 413.893 353.649 415.162 376.062Z" fill="#A3CC6B"/>
<path d="M545.872 395.284C557.905 393.977 567.093 389.249 582.509 391.401C618.147 396.361 599.924 432.998 638.177 435.651C638.177 439.418 605.768 437.073 599.694 437.573C603.615 430.192 608.228 430 598.271 425.655C581.779 418.428 560.019 414.237 542.027 414.506L555.444 399.129L545.91 395.323L545.872 395.284Z" fill="#A3CC6B"/>
<path d="M303.673 356.84C306.21 379.138 300.79 400.513 299.828 422.195C283.836 455.834 285.22 441.764 284.451 414.507C283.759 389.787 294.139 366.836 265.229 360.684C265.805 355.264 265.728 349.997 269.073 345.307C302.635 377.908 277.877 327.199 297.868 337.656C305.672 341.731 302.942 350.381 303.673 356.84Z" fill="#A3CC6B"/>
<path d="M284.451 414.506C285.22 441.763 283.836 455.834 299.829 422.195C299.29 434.382 299.329 511.271 296.023 514.5C295.331 515.154 277.454 515.154 276.762 514.5C273.187 511.002 283.221 426.885 284.451 414.545V414.506Z" fill="#A3CC6B"/>
<path d="M111.452 360.684C119.372 364.836 139.132 379.138 140.824 379.445C144.668 380.137 148.859 374.14 151.819 374.102C166.62 373.986 172.041 392.324 188.303 395.284C174.693 413.353 197.721 418.582 215.214 418.351C173.54 460.486 128.599 390.171 84.5029 426.04C84.5029 405.434 85.5409 406.472 96.0362 387.595C100.573 379.407 108.492 371.641 111.414 360.684H111.452Z" fill="#A3CC6B"/>
<path d="M215.252 418.351C216.482 418.351 217.943 418.62 219.096 418.351C213.676 438.765 232.244 436.381 237.204 442.571C242.471 449.145 246.584 477.017 261.385 464.484C248.545 508.657 237.473 466.829 222.787 451.182C192.147 418.543 195.915 441.264 167.35 453.297C161.276 455.834 153.895 455.181 149.858 456.834C131.213 439.726 107.262 433.075 88.3474 452.989C89.0394 444.378 84.5029 438.65 84.5029 426.078C128.599 390.21 173.54 460.524 215.214 418.389L215.252 418.351Z" fill="#A3CC6B"/>
<path d="M73.0057 337.618C78.042 339.463 85.7308 345.999 92.2279 349.151C98.725 352.303 105.568 357.57 111.45 360.684C108.528 371.641 100.609 379.407 96.0723 387.595C69.0844 365.99 34.9074 348.382 0 356.801C23.9124 327.084 35.907 324.047 73.0057 337.618Z" fill="#769448"/>
<path d="M261.383 383.751C262.959 414.199 272.57 426.04 261.383 464.484C246.582 477.017 242.468 449.145 237.201 442.571C232.242 436.382 213.673 438.727 219.094 418.351C225.091 417.006 249.465 392.209 249.849 383.751C253.579 384.251 257.615 383.444 261.383 383.751Z" fill="#A3CC6B"/>
<path d="M149.894 456.795C121.791 468.136 93.381 475.325 73.0439 499.084C77.5035 482.284 86.8455 471.519 88.3832 452.951C107.298 433.037 131.249 439.687 149.894 456.795Z" fill="#A3CC6B"/>
<path d="M249.85 383.751C249.466 392.209 225.092 417.005 219.095 418.351C217.941 418.62 216.48 418.351 215.25 418.351C197.758 418.582 174.73 413.353 188.339 395.284C188.877 394.592 199.642 397.63 196.066 383.751C215.635 387.749 228.859 381.06 249.85 383.751Z" fill="#A3CC6B"/>
<path d="M518.961 110.796C524.113 119.869 535.992 126.751 539.144 134.824C543.143 145.05 540.105 158.852 543.796 164.734C549.486 173.768 572.36 165.157 563.172 183.802C558.443 193.375 538.722 197.296 561.25 203.14C537.876 221.055 573.129 233.818 553.561 256.885C552.831 254.078 555.253 249.234 552.869 246.12C545.718 236.932 514.963 246.236 511.272 222.285C531.878 212.712 515.386 210.982 522.575 205.023C533.416 195.989 550.985 204.562 545.872 172.307C525.458 167.233 531.148 183.418 519.23 193.721C507.312 204.024 490.705 211.367 476.672 203.063C474.519 201.794 469.291 199.526 468.983 199.218C463.717 193.99 466.062 187.07 464.101 184.994C456.835 177.305 441.073 178.305 442.072 160.774L445.917 156.929C447.801 157.929 448.992 160.428 449.761 160.774C450.53 161.12 451.568 167.04 455.759 167.732C462.986 168.886 473.405 160.466 480.671 162.888C486.13 164.695 500.277 188.646 507.351 183.84C517.039 177.228 507.543 133.824 476.634 141.59C477.249 128.75 460.334 111.527 445.878 114.679C451.837 93.3426 430.001 99.0323 411.279 95.457C411.778 93.1888 410.51 89.1137 411.279 87.7682C454.106 68.1231 479.133 117.37 518.923 110.835L518.961 110.796Z" fill="#A9C6E8"/>
<path d="M322.894 3.15234L338.272 30.0634C331.236 27.7567 330.506 19.5681 319.165 24.1429C314.398 26.0652 291.485 50.7464 292.139 56.9744C293.1 66.1626 306.709 72.0061 315.205 72.3521C317.05 78.2341 328.584 70.2761 330.583 72.3521C343.269 85.9229 322.279 80.1947 321.202 80.3485C305.556 82.6552 318.088 155.469 338.31 122.33C338.925 122.637 341.194 122.483 342.155 122.33C341.924 127.789 352.189 138.246 355.649 137.669C359.877 136.977 356.264 130.98 357.494 128.942C363.76 118.716 368.681 138.976 372.91 145.358C374.871 148.28 378.177 150.471 380.599 153.047C361.031 159.928 339.271 164.772 319.126 156.853C317.358 149.241 335.235 157.083 330.66 147.357C328.545 142.859 316.012 146.473 311.399 145.396C311.053 144.666 300.558 134.286 299.866 133.863C298.251 126.328 294.907 99.9551 292.177 95.4187C290.947 93.3427 266.15 69.2381 261.422 64.6632C237.932 41.9811 245.506 64.471 236.433 64.5863C232.742 64.6248 223.054 46.6713 219.133 45.4411L243.045 19.4912C270.494 13.2248 292.023 4.42101 322.932 3.15234H322.894Z" fill="#BFD7F5"/>
<path d="M511.271 222.285C514.962 246.236 545.718 236.932 552.868 246.12C555.29 249.234 552.868 254.04 553.56 256.885C554.368 260.076 552.368 265.342 554.098 269.764C556.52 275.953 565.017 274.877 565.209 278.106C565.286 279.644 554.598 304.863 553.56 306.862C547.102 319.203 540.066 331.774 526.649 329.929C527.918 328.276 534.146 327.046 536.183 322.202C543.103 305.747 528.302 282.758 530.494 279.99C532.147 277.875 546.602 286.141 542.027 268.456C535.415 266.265 516.615 278.952 515.193 282.873C514.424 284.949 505.774 324.662 507.427 326.085C508.157 326.738 523.92 329.583 526.688 329.929C521.844 336.118 511.118 337.925 515.154 352.996C501.276 355.879 493.433 359.954 476.71 360.684C492.588 336.003 450.491 319.357 434.421 322.24C443.648 311.245 431.192 316.781 426.732 306.862C439.573 305.786 447.608 309.707 454.028 308.785C456.604 308.4 497.047 284.757 498.777 282.835C507.158 273.377 508.465 252.079 492.088 249.196C488.628 237.009 501.776 243.16 503.621 241.507C506.005 239.316 498.277 223.9 499.777 222.323C500.891 221.132 508.965 223.4 511.31 222.323L511.271 222.285Z" fill="#92B0D1"/>
<path d="M107.605 326.084C117.869 347.229 134.016 341.501 151.239 342.769C155.083 343.038 158.928 349.113 159.543 349.074C161.004 348.92 170.307 328.353 176.843 326.084C176.266 368.027 209.713 370.872 203.754 337.618C219.247 346.383 240.007 334.465 253.731 326.084C255.154 326.853 262.343 334.888 265.265 337.618C266.841 339.079 267.494 343.73 269.109 345.307C265.764 349.997 265.841 355.264 265.265 360.684C264.688 366.105 261.343 382.598 261.42 383.751C257.653 383.443 253.616 384.251 249.887 383.751C228.896 381.021 215.671 387.711 196.103 383.751C199.679 397.629 188.914 394.592 188.376 395.284C172.114 392.362 166.693 373.986 151.892 374.101C148.932 374.101 144.742 380.137 140.897 379.445C139.167 379.138 119.445 364.836 111.526 360.684C105.644 357.57 98.8777 352.342 92.3037 349.151C115.063 351.342 92.6882 341.385 107.681 326.084H107.605Z" fill="#5A737E"/>
<path d="M119.139 203.063C115.756 205.715 111.989 207.176 107.606 206.946C119.024 227.052 150.625 213.289 169.117 229.974C169.578 231.127 172.077 232.357 172.961 233.818C162.312 235.587 155.239 248.581 153.739 249.196C151.356 250.157 136.016 252.041 130.673 253.04C108.836 257.192 125.944 253.694 117.217 245.544C111.912 240.584 104.915 242.122 100.494 235.164C98.1103 231.435 95.4961 199.334 84.6163 206.907C82.1174 208.637 70.9686 257.231 65.3557 264.535C79.657 250.234 115.91 296.329 88.3839 291.523L99.9556 306.862C84.7701 323.086 69.6999 279.144 69.1617 268.456C65.5095 267.457 62.6646 273.57 61.5113 276.107C60.8577 264.035 40.29 239.469 42.6736 228.859C44.0576 222.708 73.429 195.143 76.889 187.685L119.178 203.063H119.139Z" fill="#92AEC9"/>
<path d="M219.096 45.441C223.017 46.6712 232.705 64.6247 236.396 64.5863C245.469 64.4709 237.895 41.9426 261.384 64.6632C219.057 74.0051 242.431 101.877 272.879 91.5742L257.54 103.107C250.889 102.108 244.815 100.839 238.318 99.263C232.321 97.8022 224.824 91.4973 221.556 92.0355C216.558 92.8044 194.645 116.294 199.912 122.33C201.604 124.29 223.171 112.065 226.785 122.33C168.58 141.436 198.182 114.91 190.455 103.031C182.727 91.1513 179.767 103.876 176.807 110.796L149.896 106.952C150.396 106.375 148.435 101.493 150.588 99.955C153.625 97.7637 168.734 102.415 169.157 89.5751C169.157 88.614 155.47 85.0002 161.429 72.352C165.581 71.5447 172.77 74.1974 176.115 71.6985C182.843 66.6623 180.036 33.1388 219.096 45.441Z" fill="#ADC7DE"/>
<path d="M319.047 260.729C306.629 282.104 349.149 281.566 361.297 285.756C399.05 298.866 403.355 323.201 399.78 260.729C408.353 267.841 417.81 266.265 426.691 272.262C424.307 278.529 427.767 297.213 419.002 306.862C404.586 309.592 396.82 317.319 392.091 318.396C384.518 320.164 342.652 329.506 340.038 329.006C338.807 328.776 324.275 312.629 322.891 310.707C313.78 298.097 303.785 275.992 311.358 260.729C313.857 260.537 316.625 261.075 319.047 260.729Z" fill="#6A87AC"/>
<path d="M176.803 110.796C173.343 118.87 169.73 136.054 169.115 145.396C167.923 145.089 166.462 145.704 165.27 145.396C155.121 142.859 152.084 136.554 136.514 137.438C100.107 139.476 106.181 176.997 121.52 179.765C129.171 181.149 140.243 155.007 157.581 168.463C157.274 168.809 157.543 171.077 157.581 172.307C143.741 181.226 132.054 192.99 119.137 203.063L76.8482 187.685C85.5751 168.732 72.6962 166.617 72.85 158.852C72.9269 155.661 80.5004 157.276 80.6926 156.93C97.1084 160.044 104.874 144.589 116.369 136.785C120.828 133.748 129.402 135.439 133.438 132.825C135.437 131.518 143.741 114.064 149.892 106.99L176.803 110.835V110.796Z" fill="#9DBADE"/>
<path d="M322.895 3.15237C328.2 2.92171 330.391 -8.91914 334.466 14.6857C361.339 -1.03806 347.614 7.15058 356.456 10.6875C364.76 13.9937 384.521 25.181 386.212 25.2194C388.711 25.2963 395.516 16.2234 404.858 18.2994C407.587 18.9145 408.894 27.257 416.776 30.6401C424.657 34.0232 429.501 29.7558 434.383 30.0634L430.539 37.7523C425.349 36.2914 413.277 42.6347 405.511 41.9811C400.245 41.5198 373.026 25.9498 372.949 43.5189C372.949 46.4407 412.662 71.7755 399.783 91.5743C394.901 90.3056 384.828 93.7272 381.176 90.9592C381.637 79.003 370.95 75.2739 367.144 68.4308C363.876 62.5488 366.759 53.6298 364.53 49.9775C362.877 47.3249 351.266 47.4402 347.845 41.6351C344.808 36.4836 347.038 27.9874 345.923 26.219C344.962 24.6812 339.003 30.2941 338.272 30.0634L322.895 3.15237Z" fill="#CCDEE8"/>
<path d="M492.051 249.196C508.428 252.079 507.121 273.377 498.74 282.835C497.01 284.757 456.567 308.438 453.991 308.784C447.533 309.707 439.536 305.786 426.696 306.862C424.197 307.054 421.313 306.439 419.007 306.862C427.772 297.213 424.312 278.529 426.696 272.262C426.811 271.955 431.77 273.07 433.154 270.917C435.346 267.495 433.001 261.421 436.499 260.421C446.495 257.577 466.024 270.34 478.288 261.113C483.055 257.5 479.48 251.618 480.518 249.196C484.208 249.619 488.514 248.581 492.051 249.196Z" fill="#6F8FB7"/>
<path d="M434.384 30.0634C449.915 31.0245 438.613 47.2095 452.107 56.7822C460.449 62.7026 473.597 53.8219 492.204 66.4701C515.194 82.0785 509.658 94.496 518.961 110.835C479.172 117.37 454.144 68.1232 411.317 87.7683C425.311 62.6257 423.235 76.927 440.574 76.0428C461.064 74.9663 432.846 38.4442 430.54 37.7907L434.384 30.1018V30.0634Z" fill="#C3D9EC"/>
<path d="M311.361 260.729C303.787 275.992 313.782 298.097 322.894 310.707C323.509 315.512 321.971 321.663 322.894 326.084C307.401 332.389 309.938 344.538 303.672 356.84C302.941 350.381 305.671 341.731 297.867 337.656C277.837 327.199 302.634 377.946 269.072 345.307C267.457 343.73 266.804 339.079 265.227 337.618C260.23 317.127 289.37 313.744 294.445 295.406C298.328 281.527 289.716 280.912 288.294 276.107C286.103 268.841 288.525 265.112 288.294 264.574C295.445 259.576 303.441 261.306 311.361 260.729Z" fill="#577285"/>
<path d="M161.427 72.352C155.507 85.0002 169.193 88.6524 169.155 89.5751C168.732 102.415 153.585 97.7637 150.586 99.9551C148.472 101.493 150.394 106.375 149.894 106.952C143.743 114.064 135.477 131.479 133.44 132.787C129.403 135.439 120.792 133.748 116.371 136.746C104.876 144.589 97.11 160.005 80.6943 156.891C82.1936 154.046 77.5803 144.896 78.0801 139.976C79.5409 125.29 115.871 111.642 125.059 103.223C143.589 86.3073 121.215 80.1178 161.427 72.3136V72.352Z" fill="#BDD3EB"/>
<path d="M99.9182 306.862C104.07 302.403 103.417 295.867 107.607 291.485C107.415 296.406 106.262 306.709 108.299 310.015C108.722 310.745 119.14 315.858 122.985 318.396C113.143 316.627 112.566 321.01 107.607 326.085C92.6138 341.385 114.988 351.342 92.2293 349.151C85.7322 345.999 78.0434 339.463 73.0072 337.618C92.9213 313.859 45.7502 311.553 61.4739 276.107C62.5888 273.57 65.4721 267.457 69.1243 268.457C69.6625 279.183 84.7327 323.086 99.9182 306.862Z" fill="#6A8495"/>
<path d="M434.383 322.24C450.453 319.357 492.55 336.003 476.672 360.685C469.983 360.992 428.463 360.762 426.656 359.032C418.314 350.92 421.389 324.585 434.383 322.24Z" fill="#455C5E"/>
<path d="M392.094 318.396C390.825 327.199 377.369 353.88 370.219 356.34C354.995 361.569 346.614 343.654 334.427 349.151C330.044 341.578 324.739 335.004 322.894 326.085C321.971 321.663 323.509 315.512 322.894 310.707C324.278 312.629 338.81 328.776 340.04 329.006C342.654 329.506 384.52 320.126 392.094 318.396Z" fill="#8CA1B7"/>
<path d="M553.562 306.862C574.053 356.263 546.411 346.537 515.118 352.996C511.081 337.925 521.807 336.119 526.651 329.929C540.068 331.774 547.103 319.203 553.562 306.862Z" fill="#B4C6D8"/>
<path d="M338.272 30.0634C339.003 30.2941 344.962 24.6812 345.923 26.219C346.999 27.9875 344.769 36.4836 347.845 41.6352C351.266 47.4403 362.877 47.3249 364.53 49.9776C366.798 53.6298 363.876 62.5489 367.144 68.4309C370.95 75.274 381.637 79.0415 381.176 90.9592C384.828 93.7657 394.901 90.3441 399.783 91.5743C403.858 92.6123 408.587 94.8806 411.316 95.4188C430.039 98.9941 451.875 93.3043 445.916 114.641C430.039 118.139 439.189 140.591 426.694 145.396C404.819 134.978 395.208 135.516 372.872 145.396C368.605 139.015 363.722 118.754 357.456 128.981C356.226 131.018 359.839 137.016 355.611 137.708C352.151 138.246 341.886 127.789 342.117 122.368C344.539 122.022 348.46 116.409 352.574 115.564C359.071 114.256 373.564 122.33 376.101 108.336C380.715 82.6937 325.163 89.3446 322.894 91.6128C317.397 97.0719 333.851 120.254 338.272 122.368C318.051 155.507 305.518 82.6937 321.165 80.387C322.241 80.2333 343.232 85.9615 330.545 72.3906C328.584 70.2762 317.013 78.2726 315.167 72.3906C315.667 72.3906 319.089 68.5462 324.471 68.354C333.467 68.0849 371.68 74.1975 345.692 51.4769C319.704 28.7563 314.898 40.8663 292.101 57.0129C291.447 50.7849 314.36 26.1037 319.127 24.1815C330.468 19.645 331.198 27.8337 338.234 30.1019L338.272 30.0634Z" fill="#A5C3EA"/>
<path d="M426.695 145.396C427.579 145.819 434.538 152.701 442.073 156.93V160.774C441.073 178.305 456.835 177.305 464.101 184.994C466.062 187.07 463.755 193.99 468.984 199.218L435.652 248.004C401.975 248.965 423.619 225.13 422.889 220.478C421.236 210.06 406.742 219.44 402.052 218.786C398.9 218.364 400.937 209.944 397.9 210.752C388.635 213.174 374.334 225.591 365.184 229.974C363.608 228.359 362.954 224.322 361.34 222.285C359.725 220.247 359.11 216.672 357.495 214.596C379.485 212.674 376.41 191.76 380.562 183.841C384.022 177.267 394.094 173.653 395.939 183.841C391.403 188.723 377.486 203.563 390.25 206.907C400.976 209.714 406.012 194.297 412.855 195.528C420.428 196.912 428.771 224.63 442.073 222.285C454.029 190.299 432.116 157.276 399.822 180.035C382.561 171.269 393.287 146.934 392.095 145.435C390.903 143.935 383.676 152.047 380.6 153.124C378.178 150.548 374.872 148.356 372.911 145.435C395.247 135.555 404.859 135.016 426.733 145.435L426.695 145.396Z" fill="#85A9D5"/>
<path d="M476.673 203.063C461.564 239.239 476.981 217.749 485.554 234.972C489.167 242.238 482.632 244.314 480.518 249.196C479.48 251.618 483.055 257.5 478.288 261.114C466.024 270.379 446.533 257.615 436.499 260.422C433 261.421 435.345 267.495 433.154 270.917C431.77 273.07 426.811 271.955 426.695 272.263C417.815 266.265 408.358 267.841 399.784 260.729C396.67 258.115 386.867 247.274 380.562 241.507C376.487 237.816 371.874 236.932 365.185 229.974C374.334 225.591 388.674 213.174 397.901 210.752C400.938 209.944 398.9 218.364 402.053 218.787C406.743 219.44 421.236 210.06 422.889 220.478C423.62 225.13 401.976 249.004 435.653 248.004L468.984 199.218C469.292 199.526 474.52 201.794 476.673 203.063Z" fill="#ABC5E9"/>
<path d="M430.538 37.7522C432.883 38.4058 461.063 74.9279 440.572 76.0043C423.195 76.927 425.309 62.6257 411.316 87.7298C410.547 89.0754 411.815 93.1505 411.316 95.4187C408.586 94.8805 403.857 92.6122 399.782 91.5742C412.661 71.7754 372.948 46.4406 372.948 43.5189C372.987 25.9498 400.244 41.5198 405.511 41.9811C413.276 42.6731 425.348 36.3298 430.538 37.7522Z" fill="#ADCCF0"/>
<path d="M476.674 203.063C490.706 211.367 506.929 204.37 519.231 193.721C531.534 183.072 525.459 167.233 545.873 172.308C550.986 204.524 533.456 195.989 522.576 205.024C515.387 210.983 531.88 212.713 511.273 222.285C508.928 223.362 500.855 221.132 499.74 222.285C498.241 223.861 506.007 239.239 503.585 241.469C501.739 243.16 488.591 236.971 492.051 249.158C488.514 248.543 484.209 249.581 480.518 249.158C482.632 244.275 489.13 242.199 485.554 234.933C477.02 217.71 461.603 239.201 476.674 203.025V203.063Z" fill="#7EA1C7"/>
<path d="M445.917 114.641C460.373 111.488 477.288 128.711 476.673 141.552C456.297 146.665 469.484 153.585 449.762 160.774C448.993 160.428 447.801 157.929 445.917 156.929C444.918 156.391 443.034 157.468 442.073 156.929C434.538 152.701 427.58 145.819 426.695 145.396C439.19 140.591 430.04 118.139 445.917 114.641Z" fill="#D0E0EB"/>
<path d="M476.672 141.552C507.582 133.786 517.077 177.228 507.389 183.802C500.316 188.608 486.168 164.657 480.709 162.85C473.405 160.428 463.025 168.847 455.797 167.694C451.607 167.002 450.569 161.082 449.8 160.736C469.522 153.547 456.335 146.627 476.711 141.514L476.672 141.552Z" fill="#7BA4D8"/>
<path d="M442.073 160.774V156.93C443.034 157.468 444.918 156.391 445.918 156.93L442.073 160.774Z" fill="#638DBA"/>
<path d="M311.362 145.396C315.975 146.473 328.47 142.859 330.623 147.357C335.236 157.122 317.321 149.279 319.089 156.853C339.234 164.772 360.994 159.928 380.562 153.047C383.637 151.97 390.865 143.859 392.057 145.358C393.248 146.857 382.522 171.193 399.784 179.958C398.4 180.919 397.131 182.534 395.94 183.802C394.094 173.615 384.022 177.228 380.562 183.802C359.225 164.003 346.692 174.922 330.623 193.452C344.924 193.452 348.576 202.986 357.495 214.558C359.11 216.634 359.725 220.209 361.34 222.247C351.344 227.244 331.161 221.862 325.048 223.015C320.704 223.861 319.897 229.551 319.051 229.935C296.869 239.854 297.099 213.058 283.182 248.12C282.413 250.003 276.877 248.85 276.762 249.158C280.991 234.741 286.719 226.552 272.918 222.247C270.842 212.789 281.183 213.52 288.295 206.869C303.25 192.875 321.55 167.348 311.362 145.358V145.396Z" fill="#7292A7"/>
<path d="M311.363 145.396C321.55 167.386 303.251 192.913 288.296 206.907C283.413 194.72 255.811 184.494 254.35 182.918C253.619 182.11 252.312 162.658 242.201 172.269C241.432 172.999 244.508 193.451 232.629 191.491C220.749 189.53 227.131 151.97 199.874 156.929V153.085C201.642 152.547 210.6 138.861 222.941 137.707C221.826 141.552 215.021 144.32 216.905 149.24C224.709 169.654 272.226 171.308 284.721 162.965C290.564 159.044 287.027 149.74 288.296 145.435C289.334 141.936 294.255 137.63 295.985 133.901C296.869 134.478 298.868 133.325 299.829 133.901C300.521 134.324 311.017 144.704 311.363 145.435V145.396Z" fill="#92B3E2"/>
<path d="M315.205 72.3525C306.709 72.0065 293.1 66.1629 292.139 56.9747C314.898 40.8281 320.626 29.4871 345.73 51.4388C370.834 73.3905 333.505 68.0467 324.509 68.3158C319.165 68.4696 315.705 72.3525 315.205 72.3525Z" fill="#86B1EC"/>
<path d="M292.139 95.4187C294.868 99.9551 298.213 126.328 299.828 133.863C298.867 133.286 296.867 134.44 295.983 133.863C295.022 133.248 289.14 134.132 284.757 131.787C261.729 119.331 266.958 105.837 234.511 126.136L238.317 99.2631C244.814 100.839 250.888 102.108 257.539 103.108C285.795 107.298 270.033 99.2247 292.139 95.4187Z" fill="#5B88BF"/>
<path d="M342.116 122.33C341.155 122.483 338.887 122.637 338.272 122.33C333.812 120.215 317.358 97.0718 322.894 91.5743C325.162 89.306 380.714 82.6552 376.101 108.298C373.602 122.291 359.109 114.218 352.573 115.525C348.459 116.332 344.538 121.945 342.116 122.33Z" fill="#6998DD"/>
<path d="M261.382 64.6632C266.111 69.2381 290.907 93.3427 292.138 95.4187C270.032 99.2246 285.794 107.298 257.538 103.108L272.877 91.5742C242.468 101.877 219.094 74.0052 261.382 64.6632Z" fill="#9CB6C2"/>
<path d="M526.651 329.929C523.921 329.545 508.121 326.7 507.39 326.085C505.737 324.624 514.387 284.911 515.156 282.873C516.617 278.99 535.378 266.265 541.99 268.457C546.603 286.141 532.11 277.876 530.457 279.99C528.265 282.758 543.067 305.748 536.147 322.202C534.109 327.046 527.881 328.315 526.612 329.929H526.651Z" fill="#6C91B9"/>
<path d="M176.808 233.818C177.077 233.934 180.344 237.24 180.652 237.663C182.651 240.546 181.498 250.349 188.341 253.04C174.347 269.764 181.152 287.948 196.03 301.134C196.875 304.633 190.955 302.634 188.341 303.018C185.265 303.518 177.461 302.211 176.808 303.018C176.039 303.941 176.884 321.394 176.808 326.123C170.272 328.391 160.968 348.959 159.508 349.113C158.893 349.19 155.087 343.115 151.204 342.808C134.019 341.539 117.834 347.267 107.569 326.123C112.529 321.048 113.105 316.666 122.947 318.434C166.312 346.575 152.665 314.244 153.703 287.679C153.818 285.065 159.354 279.721 159.777 274.185C160.084 269.956 152.434 256.154 153.703 249.234C155.202 248.619 162.276 235.625 172.925 233.857C173.809 233.703 176 233.549 176.769 233.857L176.808 233.818Z" fill="#6486AE"/>
<path d="M196.026 249.196C197.334 259.845 188.222 279.106 199.832 285.872C211.443 292.638 217.747 279.99 224.091 280.682C227.282 281.028 237.431 291.831 242.16 287.64C244.12 285.91 237.046 272.724 249.848 276.145C246.196 325.623 273.684 316.204 288.293 276.145C289.754 280.951 298.327 281.566 294.444 295.444C289.331 313.782 260.19 317.127 265.226 337.656C262.304 334.927 255.115 326.892 253.693 326.123C247.772 323.009 213.595 310.745 204.676 307.823C197.641 305.517 190.106 303.672 192.182 314.59C190.721 311.399 186.146 309.323 188.338 303.056C190.913 302.634 196.872 304.633 196.026 301.173C181.148 288.025 174.344 269.802 188.338 253.079C189.337 251.849 193.874 250.58 196.026 249.234V249.196Z" fill="#8CACD7"/>
<path d="M253.693 326.084C239.969 334.465 219.209 346.383 203.716 337.618C203.1 334.158 194.912 320.51 192.182 314.551C190.106 303.671 197.641 305.517 204.677 307.785C213.596 310.707 247.773 322.932 253.693 326.084Z" fill="#B2C8E5"/>
<path d="M188.34 303.018C186.149 309.285 190.724 311.361 192.185 314.552C194.914 320.51 203.103 334.158 203.718 337.618C209.677 370.872 176.231 368.028 176.807 326.085C176.884 321.356 176 303.902 176.807 302.98C177.461 302.211 185.265 303.48 188.34 302.98V303.018Z" fill="#425D70"/>
<path d="M99.9173 306.862L88.3455 291.523C115.833 296.329 79.5802 250.234 65.3174 264.535C70.9303 257.231 82.0791 208.637 84.578 206.907C95.4577 199.334 98.0719 231.435 100.455 235.164C104.877 242.084 111.873 240.584 117.179 245.544C125.944 253.694 108.798 257.192 130.634 253.04C138.016 270.071 131.672 261.767 119.101 268.418C108.452 274.031 108.26 275.184 107.568 291.485C103.377 295.867 104.031 302.403 99.8788 306.862H99.9173Z" fill="#698DB7"/>
<path d="M153.739 249.196C152.47 256.116 160.121 269.917 159.813 274.146C159.429 279.682 153.854 285.026 153.739 287.64C127.097 322.548 102.8 312.744 119.139 268.418C131.71 261.767 138.054 270.071 130.672 253.04C136.016 252.041 151.355 250.157 153.739 249.196Z" fill="#3E5C84"/>
<path d="M161.429 191.53C139.401 195.797 161.506 211.367 169.118 229.974C150.627 213.327 119.064 227.052 107.607 206.946C111.99 207.176 115.719 205.715 119.141 203.063C132.058 192.99 143.745 181.226 157.585 172.307C157.662 174.46 165.159 184.879 161.429 191.53Z" fill="#769298"/>
<path d="M161.426 191.53C185.261 186.916 191.759 206.254 211.404 199.257C206.867 203.832 199.832 218.018 195.987 220.324C186.645 226.014 173.036 214.827 176.804 233.818C176.035 233.511 173.843 233.665 172.959 233.818C172.075 232.357 169.576 231.127 169.115 229.974C161.503 211.367 139.397 195.797 161.426 191.53Z" fill="#93B6DB"/>
<path d="M238.319 99.2631L234.513 126.136C266.96 105.799 261.731 119.331 284.759 131.787C289.142 134.132 295.024 133.248 295.985 133.863C294.255 137.592 289.334 141.898 288.296 145.396C271.035 135.324 256.195 141.167 240.126 141.513C233.974 141.629 226.593 137.361 222.941 137.707C224.21 133.325 228.515 127.289 226.785 122.33C223.172 112.027 201.604 124.29 199.913 122.33C194.684 116.294 216.559 92.8045 221.557 92.0356C224.825 91.5358 232.321 97.8407 238.319 99.2631Z" fill="#8FB0DB"/>
<path d="M226.785 122.33C228.515 127.289 224.209 133.325 222.94 137.708C210.6 138.861 201.642 152.547 199.874 153.085C186.495 157.007 177.576 147.511 169.118 145.397C169.733 136.055 173.347 118.87 176.807 110.797C179.767 103.877 182.766 91.3054 190.455 103.031C198.144 114.756 168.618 141.437 226.785 122.33Z" fill="#BAD3F0"/>
<path d="M399.782 260.729C403.319 323.201 399.052 298.904 361.299 285.756C349.189 281.566 306.67 282.066 319.049 260.729C320.318 260.537 321.625 260.921 322.893 260.729C338.963 258.269 359.339 253.617 376.062 250.388C385.481 248.581 386.672 250.772 380.56 241.507C386.865 247.274 396.668 258.115 399.782 260.729Z" fill="#496584"/>
<path d="M319.049 229.974C332.389 226.206 327.468 250.695 322.894 260.729C321.625 260.921 320.318 260.537 319.049 260.729C316.627 261.075 313.859 260.537 311.36 260.729C303.441 261.306 295.444 259.576 288.294 264.574C287.794 263.343 274.992 253.655 276.76 249.196C276.876 248.888 282.45 250.042 283.181 248.158C297.097 213.097 296.867 239.892 319.049 229.974Z" fill="#9FB9D6"/>
<path d="M199.873 153.085V156.93C180.766 174.729 222.709 192.76 219.095 214.596C218.711 214.75 220.095 220.132 216.365 222.285C204.832 229.013 193.53 239.162 180.651 237.663C180.343 237.24 177.075 233.934 176.806 233.818C173.039 214.827 186.648 226.052 195.99 220.324C199.834 217.979 206.87 203.793 211.406 199.257C191.761 206.254 185.302 186.916 161.429 191.529C165.158 184.879 157.661 174.46 157.584 172.307C157.546 171.077 157.277 168.809 157.584 168.463C161.544 163.504 172.654 170.731 165.273 145.396C166.465 145.704 167.926 145.089 169.117 145.396C177.575 147.511 186.494 157.006 199.873 153.085Z" fill="#7698B5"/>
<path d="M165.273 145.396C172.654 170.731 161.544 163.504 157.584 168.463C140.245 155.007 129.174 181.149 121.523 179.765C106.145 176.998 100.071 139.476 136.516 137.438C152.086 136.554 155.123 142.859 165.273 145.396Z" fill="#6E99D5"/>
<path d="M196.03 249.196C228.361 228.974 204.026 251.695 216.828 261.075C219.365 262.92 251.39 272.762 255.503 272.724C274.225 272.493 272.034 265.265 276.724 249.234C274.956 253.694 287.758 263.382 288.258 264.612C288.488 265.15 286.066 268.879 288.258 276.145C273.649 316.243 246.123 325.623 249.813 276.145C237.011 272.724 244.085 285.91 242.124 287.64C237.396 291.83 227.246 281.028 224.056 280.682C217.712 279.99 211.6 292.753 199.797 285.872C187.995 278.99 197.298 259.845 195.991 249.196H196.03Z" fill="#6A8DBC"/>
<path d="M119.138 268.418C102.8 312.744 127.096 322.548 153.738 287.64C152.7 314.205 166.348 346.537 122.983 318.396C119.1 315.897 108.72 310.745 108.297 310.015C106.26 306.709 107.413 296.367 107.605 291.485C108.297 275.184 108.489 274.031 119.138 268.418Z" fill="#517096"/>
<path d="M399.784 179.996C432.077 157.237 453.99 190.261 442.034 222.246C428.732 224.63 420.39 196.873 412.816 195.489C406.012 194.259 400.937 209.675 390.211 206.869C377.448 203.563 391.365 188.685 395.901 183.802C397.093 182.533 398.361 180.919 399.745 179.958L399.784 179.996Z" fill="#668EC7"/>
<path d="M361.34 222.285C362.954 224.322 363.608 228.359 365.184 229.974C371.873 236.932 376.487 237.816 380.562 241.507C386.636 250.772 385.483 248.581 376.064 250.388C359.34 253.617 338.965 258.269 322.895 260.729C327.47 250.695 332.391 226.206 319.051 229.974C319.935 229.589 320.704 223.9 325.048 223.054C331.161 221.9 351.344 227.283 361.34 222.285Z" fill="#80A2C3"/>
<path d="M380.56 183.841C376.408 191.76 379.484 212.674 357.494 214.596C348.536 202.986 344.922 193.452 330.621 193.49C346.691 174.96 359.224 164.08 380.56 183.841Z" fill="#9EB2AD"/>
<path d="M272.916 222.285C286.718 226.591 280.99 234.779 276.761 249.196C272.032 265.227 274.262 272.493 255.54 272.685C251.388 272.724 219.402 262.921 216.865 261.037C204.024 251.695 228.359 228.936 196.066 249.157C193.913 250.503 189.377 251.772 188.377 253.002C181.534 250.311 182.688 240.507 180.688 237.624C193.567 239.123 204.908 228.974 216.403 222.246C220.094 220.094 218.748 214.711 219.133 214.558C224.477 212.212 264.651 219.671 272.955 222.246L272.916 222.285Z" fill="#52749F"/>
<path d="M199.873 156.929C227.13 151.97 221.286 189.646 232.627 191.491C244.507 193.452 241.431 172.999 242.2 172.269C252.311 162.658 253.618 182.072 254.348 182.918C255.809 184.494 283.412 194.72 288.295 206.907C281.183 213.558 270.841 212.827 272.917 222.285C264.613 219.709 224.439 212.251 219.095 214.596C222.709 192.76 180.766 174.729 199.873 156.929Z" fill="#B6CEF0"/>
<path d="M288.294 145.396C287.025 149.702 290.562 159.006 284.719 162.927C272.224 171.308 224.707 169.655 216.903 149.202C215.019 144.282 221.824 141.514 222.939 137.669C226.591 137.323 233.972 141.59 240.123 141.475C256.155 141.129 271.032 135.324 288.294 145.358V145.396Z" fill="#6A93CD"/>
</g>
<defs>
<clipPath id="clip0_209_1441">
<rect width="638.214" height="515" fill="white"/>
</clipPath>
</defs>
</svg>
