<svg width="457" height="687" viewBox="0 0 457 687" fill="none" xmlns="http://www.w3.org/2000/svg">
<g clip-path="url(#clip0_209_1631)">
<path d="M220.048 350.921C215.111 347.94 207.504 347.567 201.418 341.606C200.921 341.109 195.891 330.863 195.208 329.186C194.525 328.068 193.345 326.236 192.103 326.081C191.886 325.181 192.103 323.97 192.103 322.976C192.103 321.268 195.519 316.58 195.208 313.661C196.233 313.413 197.972 314.065 198.313 313.661L220.048 350.921Z" fill="#769448"/>
<path d="M260.412 310.556C260.567 312.606 260.164 314.748 260.412 316.766C257.959 316.704 255.848 314.189 254.202 313.661C253.053 301.397 258.642 310.246 260.412 310.556Z" fill="#5E6929"/>
<path d="M288.355 37.3213C290.901 37.8181 295.217 35.4894 297.669 34.2164C300.557 40.6436 301.147 48.9338 306.984 55.951C313.598 63.8686 316.02 58.497 316.268 59.0249C317.572 61.602 314.188 71.4757 317.852 71.5068C321.515 71.5378 316.61 57.845 322.509 55.951C322.975 59.5217 321.546 66.2594 322.54 68.3397C324.279 72.0656 328.812 44.9284 328.719 43.5312L334.929 46.6362C334.401 49.9584 329.092 58.8075 331.886 62.0988C332.29 62.5956 340.518 64.0859 344.244 65.2658C327.446 57.4414 307.729 98.9234 305.121 99.6376C290.776 103.426 292.112 84.6096 279.04 83.8955C265.689 59.1801 257.988 34.9305 240.259 12.4507C239.39 11.3329 230.82 0.124085 229.361 6.27188C229.237 5.89928 222.002 3.69477 227.839 0.0309367C254.076 -1.11789 266.62 33.1296 288.355 37.3213Z" fill="#E2DECF"/>
<path d="M353.558 68.3705C359.551 60.7944 378.833 40.1466 386.16 34.2161C390.507 30.7386 430.002 5.68166 432.672 6.2716C455.121 11.1774 395.817 67.8116 389.358 71.7859C384.949 74.4872 382.652 71.9722 378.429 71.4754C379.671 91.1918 403.362 65.6381 406.342 87.0002C399.325 80.4487 380.696 77.9027 384.608 90.1051C384.918 91.1297 384.204 92.4959 384.608 93.2101C374.299 91.6576 370.667 101.221 362.873 105.63C368.09 99.3579 373.741 87.1244 381.503 80.8213C374.02 80.1072 366.692 77.1885 359.768 74.5804C357.626 73.7731 355.67 72.3759 353.558 71.4754C354.055 70.8234 353.062 69.0225 353.558 68.3705Z" fill="#E4E1D7"/>
<path d="M195.207 90.1053C170.771 92.3409 178.44 77.1267 167.293 62.1919C163.785 72.6866 180.334 87.4661 167.293 93.2103L157.947 62.1608C153.911 48.9648 148.105 40.8298 145.497 28.0375C140.094 27.727 142.298 39.9915 142.423 43.5312C135.343 29.0311 136.151 4.28465 156.55 15.4314C163.785 19.3747 192.35 79.0207 195.207 90.1053Z" fill="#BFC860"/>
<path d="M344.242 65.2658C347.378 66.2594 350.7 66.6009 353.557 68.3708C353.06 69.0228 354.054 70.8237 353.557 71.4757C350.452 75.4811 344.801 77.1577 340.485 84.827C327.32 108.238 337.908 122.645 300.773 121.155C299.686 119.106 298.754 116.963 297.668 114.945C291.83 104.171 284.906 94.7628 279.038 83.8955C292.11 84.6096 290.775 103.426 305.12 99.6375C307.759 98.9545 327.444 57.4724 344.242 65.2658Z" fill="#DBD4BA"/>
<path d="M176.576 28.0063C217.22 12.2021 237.029 45.8908 255.783 74.5494C256.466 60.0804 243.084 50.7966 247.99 34.2162C256.932 49.5546 262.242 61.9744 269.725 77.6854C265.409 87.9628 271.277 106.934 260.41 105.63C246.437 87.466 241.221 70.4819 229.36 52.8459C214.488 30.7386 204.148 29.4967 176.576 28.0063Z" fill="#E6E1CE"/>
<path d="M157.946 62.1608C159.964 68.7744 167.447 109.698 170.397 111.809C178.314 114.728 179.028 102.898 179.743 102.525C180.581 102.059 190.889 112.616 198.31 105.63C198.528 120.565 192.318 123.018 192.1 124.26C188.25 118.081 177.6 123.328 173.471 127.365C155.307 102.246 143.632 75.1085 142.421 43.5312C142.297 39.9915 140.092 27.696 145.495 28.0375C148.134 40.8299 153.909 48.9648 157.946 62.1608Z" fill="#9CA527"/>
<path d="M279.038 83.8954C284.907 94.7627 291.831 104.171 297.668 114.945C282.702 105.382 301.27 131.618 297.637 136.679C296.085 138.822 290.03 126.619 288.353 133.575C286.149 131.463 284.255 129.538 282.143 127.365C288.198 121.714 275.934 115.814 279.07 111.84C280.591 109.884 290.092 120.099 288.322 110.35C281.367 100.134 275.002 88.7702 269.724 77.6855C262.241 61.9745 256.931 49.5547 247.989 34.2163C242.183 24.3115 234.203 19.2194 229.359 6.2718C230.819 0.155057 239.388 11.3329 240.258 12.4506C257.987 34.9304 265.687 59.1801 279.038 83.8954Z" fill="#D0C88A"/>
<path d="M359.766 74.5805L341.137 127.365C339.895 128.669 336.169 129.197 334.927 130.47L330.3 118.081L306.982 133.574C305.213 129.352 302.915 125.191 300.772 121.155C337.939 122.645 327.32 108.207 340.485 84.8268C344.801 77.1887 350.452 75.512 353.557 71.4756C355.668 72.376 357.624 73.7732 359.766 74.5805Z" fill="#D0C992"/>
<path d="M359.767 74.5804C366.691 77.1886 374.019 80.1383 381.502 80.8214C373.74 87.1244 368.089 99.3579 362.872 105.63C357.656 111.902 347.223 120.875 341.138 127.364L359.767 74.5804Z" fill="#DDDAC6"/>
<path d="M157.946 62.1606L167.292 93.2101C180.333 87.4659 163.784 72.6864 167.292 62.1917C178.439 77.1265 170.77 92.3718 195.206 90.1051C196.075 93.4895 198.28 102.929 198.311 105.63C190.89 112.616 180.581 102.059 179.743 102.525C179.029 102.929 178.315 114.727 170.397 111.809C167.447 109.697 159.965 68.7742 157.946 62.1606Z" fill="#B3BB47"/>
<path d="M269.724 77.6854C275.002 88.7701 281.336 100.134 288.323 110.349C290.092 120.099 280.622 109.884 279.07 111.84C275.934 115.814 288.198 121.714 282.144 127.365C274.568 119.602 267.799 115.224 260.409 105.63C271.276 106.934 265.408 87.9628 269.724 77.6854Z" fill="#DFDAB3"/>
<path d="M316.298 155.309C312.106 173.038 298.817 187.259 294.563 204.988C291.707 205.174 286.646 211.788 282.144 208.093C291.955 194.711 300.09 168.722 303.878 152.204C307.449 154.005 312.355 156.582 316.298 155.309Z" fill="#769448"/>
<path d="M325.615 18.6915C327.851 19.002 327.354 22.6348 334.899 15.5865C335.644 27.7579 336.886 34.3404 334.93 46.636L328.72 43.531C328.348 38.3147 320.616 31.2665 319.406 28.0063C318.94 26.7333 319.499 23.7526 319.406 21.7964C319.312 19.7472 319.468 17.6358 319.406 15.5865C321.455 16.1144 323.939 18.4741 325.615 18.6915Z" fill="#8A422B"/>
<path d="M306.984 40.4261C305.214 35.4271 294.378 16.5801 297.7 12.4816C301.271 8.07257 313.939 23.442 316.299 28.0063C318.845 32.9121 318.255 36.1102 319.404 40.4261C311.207 26.0812 316.578 42.0407 306.984 40.4261Z" fill="#913F28"/>
<path d="M306.984 133.574L330.302 118.081L334.928 130.47C332.568 132.86 330.581 137.921 325.613 142.889C330.395 128.327 312.386 134.879 306.984 142.889C306.301 141.896 307.636 138.232 306.984 136.679C306.611 135.81 307.356 134.444 306.984 133.574Z" fill="#BDB067"/>
<path d="M229.36 52.8459L176.576 28.0063C204.148 29.4967 214.488 30.7387 229.36 52.8459Z" fill="#C9C184"/>
<path d="M319.403 40.4262C321.173 47.1018 321.577 48.7474 322.508 55.9509C316.609 57.8449 321.608 71.5377 317.851 71.5067C314.094 71.4756 317.602 61.6019 316.267 59.0248C315.988 58.497 313.566 63.8685 306.983 55.9509C313.628 52.1939 308.691 45.2078 306.983 40.4262C316.578 42.0408 311.206 26.0813 319.403 40.4262Z" fill="#EEEADA"/>
<path d="M192.1 124.26C191.014 130.097 193.87 137.145 195.205 142.889C192.442 144.815 187.381 147.919 185.89 149.099C185.953 141.492 184.09 136.586 179.681 130.47L176.576 127.365C176.203 126.868 173.843 127.862 173.471 127.365C177.6 123.328 188.25 118.081 192.1 124.26Z" fill="#769448"/>
<path d="M297.668 114.945C298.755 116.963 299.687 119.106 300.773 121.155C302.916 125.191 305.213 129.352 306.983 133.575C307.356 134.444 306.611 135.81 306.983 136.68C297.668 134.724 301.146 141.306 300.773 149.099C293.911 143.604 292.7 137.735 288.354 133.575C289.999 126.62 296.085 138.822 297.637 136.68C301.301 131.619 282.703 105.382 297.668 114.945Z" fill="#AD9E4B"/>
<path d="M403.236 99.42C402.119 101.718 405.596 109.045 395.536 105.754C394.76 105.506 385.01 93.9553 384.607 93.2101C384.203 92.4649 384.917 91.1298 384.607 90.1052C390.817 81.3492 400.162 93.8311 403.236 99.42Z" fill="#CBC88C"/>
<path d="M350.391 12.5126L353.496 43.531C348.434 41.4507 337.505 9.594 350.391 12.5126Z" fill="#A8624D"/>
<path d="M306.986 136.679C307.638 138.232 306.303 141.896 306.986 142.889C313.692 152.422 320.772 136.276 316.301 155.309C312.357 156.582 307.451 154.005 303.881 152.204C302.856 151.676 301.863 149.969 300.776 149.099C301.148 141.306 297.671 134.723 306.986 136.679Z" fill="#736A26"/>
<path d="M406.342 87.0002C407.242 93.3964 405.566 94.6073 403.237 99.42C400.163 93.8311 390.817 81.3492 384.607 90.1052C380.695 77.9027 399.325 80.4488 406.342 87.0002Z" fill="#DDDAC6"/>
<path d="M294.566 28.0063L297.671 31.1112C298.044 31.9806 297.298 33.3468 297.671 34.2162C295.218 35.4892 290.902 37.8179 288.356 37.3211L285.282 12.4816C292.734 14.655 292.362 22.7589 294.566 28.0063Z" fill="#905443"/>
<path d="M325.613 142.889C323.098 145.404 319.248 154.347 316.298 155.309C320.769 136.276 313.69 152.422 306.983 142.889C312.386 134.879 330.395 128.327 325.613 142.889Z" fill="#9C8D3C"/>
<path d="M328.718 43.5311C328.811 44.9283 324.278 72.0655 322.539 68.3396C321.545 66.2282 322.973 59.5215 322.508 55.9509C321.576 48.7474 321.173 47.1018 319.403 40.4261C318.254 36.1103 318.844 32.9122 316.298 28.0063H319.403C320.614 31.2665 328.345 38.3148 328.718 43.5311Z" fill="#DBD4BA"/>
<path d="M325.614 18.6916C323.937 18.4743 321.453 16.1145 319.404 15.5867H316.299C307.357 -6.9552 328.626 1.30395 325.614 18.6916Z" fill="#DDDE94"/>
<path d="M319.403 21.7964C316.826 20.3371 317.136 17.6979 316.298 15.5865H319.403C319.465 17.6358 319.31 19.7472 319.403 21.7964Z" fill="#DBD4BA"/>
<path d="M179.681 130.469C178.936 129.414 177.477 128.575 176.576 127.365L179.681 130.469Z" fill="#9CA527"/>
<path d="M297.668 31.1113L294.563 28.0063C294.657 28.2237 296.768 29.031 297.668 31.1113Z" fill="#E2DECF"/>
<path d="M195.206 329.186C195.112 328.969 192.753 328.907 192.101 326.081C193.343 326.236 194.522 328.068 195.206 329.186Z" fill="#DAD0A1"/>
<path d="M229.362 307.451C230.387 307.451 231.473 307.296 232.467 307.451C234.609 309.283 236.379 312.047 238.677 313.661C229.766 312.233 214.241 318.474 216.942 307.451C221.072 307.513 225.232 307.358 229.362 307.451Z" fill="#C7C471"/>
<path d="M164.157 298.137C125.438 302.204 84.2047 265.1 53.1863 258.518C46.045 256.996 4.50081 256.437 2.6689 254.667C-14.7809 237.652 58.7442 225.233 66.755 224.053C72.406 223.214 91.7498 224.487 92.7123 223.618C95.0721 221.413 82.8386 186.017 99.45 160.494C119.539 129.631 135.995 165.773 154.842 177.075C151.209 196.17 148.011 203.529 157.947 220.544C159.5 223.183 161.735 228.803 164.157 229.859C164.312 231.629 169.032 234.765 167.231 239.174C136.834 219.892 151.427 253.767 147.235 260.939C144.813 265.069 132.549 266.59 130.003 271.838C127.457 277.085 150.806 283.512 154.811 285.779C171.392 295.125 162.263 291.989 164.126 298.199L164.157 298.137Z" fill="#F0EBE2"/>
<path d="M204.52 183.253C210.295 190.115 205.234 196.977 208.029 201.479C209.985 204.646 226.037 202.566 229.018 210.08C231.16 215.483 226.441 235.075 226.161 243.862C225.975 249.699 223.522 256.53 232.465 254.698C226.224 259.852 219.175 264.137 213.835 270.192C226.472 268.298 239.668 265.659 244.015 252.556C244.636 250.693 241.686 248.675 241.779 248.488C245.04 241.254 248.455 235.261 254.199 229.859C261.961 222.562 273.76 219.519 282.144 208.124C286.646 211.819 291.707 205.205 294.563 205.019C316.05 203.622 355.42 212.657 356.631 239.142C337.101 227.313 292.794 215.731 281.336 243.086C277.672 251.811 279.132 253.115 282.113 260.877C278.045 272.458 266.526 268.733 258.142 272.614C242.121 280.066 226.627 292.361 213.804 304.346C210.388 304.75 207.594 306.178 204.489 307.451C199.676 298.913 188.188 307.234 185.859 307.451C180.798 307.948 175.458 307.203 170.335 307.451C169.31 307.513 168.254 307.327 167.23 307.451V304.346C167.012 303.353 167.509 302.173 167.23 301.241C172.539 302.701 177.973 295.466 179.649 295.031C180.612 294.783 181.761 295.28 182.754 295.031C187.381 293.914 192.442 293.355 198.279 291.926C199.956 291.523 219.796 292.858 210.699 285.717C204.147 280.593 204.924 295.404 201.384 273.297C209.488 260.784 206.445 246.47 204.458 232.933C182.382 249.14 198.434 229.703 192.069 217.408C192.318 217.159 192.908 214.272 195.174 211.198C195.609 210.608 202.129 211.757 204.023 206.168C206.166 199.865 203.682 190.208 204.489 183.253H204.52Z" fill="#ECE6D6"/>
<path d="M195.206 142.89C198.745 140.437 232.31 121.993 234.545 121.869C240.569 121.496 249.232 129.849 257.335 127.365L254.2 229.828C248.455 235.231 245.04 241.223 241.78 248.458C238.83 250.662 235.29 252.308 232.465 254.668C223.492 256.499 225.945 249.669 226.162 243.831C226.441 235.044 231.161 215.483 229.018 210.049C226.038 202.536 209.985 204.616 208.029 201.449C205.235 196.947 210.296 190.085 204.52 183.223C198.062 175.554 193.591 203.498 195.206 211.167C192.939 214.241 192.349 217.129 192.101 217.377C191.759 217.75 191.883 220.668 188.996 223.587L185.891 198.747C186.325 196.822 188.592 194.525 188.996 192.538C194.088 168.226 181.73 154.688 179.681 183.223H176.576C175.582 183.005 174.402 183.502 173.471 183.223C172.322 182.881 170.428 180.925 167.261 180.118C167.199 166.829 176.203 156.675 185.891 149.068C187.381 147.888 192.442 144.784 195.206 142.858V142.89Z" fill="#EDEAE5"/>
<path d="M133.108 304.346C137.455 315.089 151.986 309.035 161.053 310.556C162.108 310.742 163.319 310.277 164.158 310.556C165.058 310.836 166.083 313.071 167.263 313.661C172.106 316.114 176.577 328.627 192.102 322.976C192.102 323.97 191.885 325.18 192.102 326.081C170.678 323.473 136.679 366.104 123.793 381.97C109.107 372.624 102.462 371.041 86.5339 378.865C82.2491 334.464 85.3851 307.607 133.108 304.346Z" fill="#F0ECE4"/>
<path d="M260.409 310.556C258.639 310.246 253.05 301.397 254.199 313.661C247.244 311.426 239.575 308.538 232.465 307.451C231.471 307.296 230.384 307.451 229.36 307.451C227.124 303.104 221.007 304.067 216.94 304.346C215.915 304.409 214.86 304.222 213.835 304.346C226.689 292.392 242.152 280.066 258.174 272.614C266.557 268.702 278.076 272.428 282.144 260.877C293.787 291.306 341.479 324.063 260.409 310.556Z" fill="#EFECE6"/>
<path d="M123.792 381.97C122.55 383.492 121.898 390.788 117.613 395.942C96.8096 420.875 88.9851 404.512 86.5322 378.865C102.461 371.041 109.105 372.624 123.792 381.97Z" fill="#E6E1D4"/>
<path d="M161.051 180.149L157.946 220.513C148.011 203.498 151.209 196.139 154.841 177.044C156.115 177.789 159.592 179.528 161.051 180.149Z" fill="#61210D"/>
<path d="M167.261 180.149C170.428 180.956 172.322 182.912 173.471 183.253C160.213 180.987 171.329 195.425 170.397 202.784C170.087 205.299 164.249 207.286 164.156 208.093C163.535 214.303 163.659 223.525 164.156 229.828C161.734 228.772 159.499 223.152 157.946 220.513L161.051 180.149C166.578 182.539 166.951 180.086 167.261 180.149Z" fill="#DCD1B0"/>
<path d="M179.683 295.031C178.006 295.466 172.573 302.701 167.263 301.241C166.953 300.186 164.438 299.068 164.158 298.136C162.295 291.927 171.424 295.063 154.843 285.717C152.204 272.924 169.902 286.089 167.263 273.297C170.461 282.922 165.804 294.224 179.683 295.031Z" fill="#D6D385"/>
<path d="M167.261 304.347V307.452C164.715 307.731 162.2 307.607 161.051 310.557C151.985 309.035 137.453 315.09 133.106 304.347C144.377 303.57 155.959 304.874 167.261 304.347Z" fill="#E4DDA5"/>
<path d="M176.577 254.667C177.509 262.274 186.358 282.363 173.472 273.297C172.882 271.745 174.062 268.702 173.472 267.087C172.572 264.634 172.386 262.958 170.367 260.877C164.779 245.787 151.365 235.199 155.308 252.649C156.426 257.555 163.568 259.666 164.158 260.877C166.61 265.969 166.021 269.509 167.263 273.297C169.902 286.089 152.204 272.924 154.843 285.717C150.837 283.45 127.426 277.178 130.034 271.776C132.642 266.373 144.845 265.038 147.267 260.877C151.458 253.705 136.834 219.83 167.263 239.112C169.063 234.703 164.344 231.567 164.189 229.797C164.654 229.983 166.828 229.983 167.294 229.797C170.461 228.555 169.032 222.407 173.472 223.618C173.007 234.113 175.366 244.328 176.608 254.636L176.577 254.667Z" fill="#EBE5C4"/>
<path d="M192.102 217.408C198.437 229.704 182.415 249.14 204.491 232.933C206.478 246.47 209.521 260.784 201.417 273.297C200.175 265.566 200.796 256.499 198.281 248.488L188.966 279.507C183.843 276.961 180.242 259.604 179.683 254.698C178.782 246.563 179.341 235.23 179.683 226.754C183.378 228.213 186.358 226.319 188.997 223.649C191.885 220.73 191.761 217.812 192.102 217.439V217.408Z" fill="#E9E4B4"/>
<path d="M201.415 273.297C204.955 295.404 204.148 280.593 210.73 285.717C219.828 292.827 199.987 291.492 198.31 291.926C192.473 293.355 187.412 293.914 182.786 295.031C176.576 288.728 176.234 280.562 173.471 273.297C186.356 282.363 177.507 262.274 176.576 254.667H179.681C180.208 259.573 183.841 276.961 188.964 279.476L198.279 248.457C200.794 256.499 200.204 265.566 201.415 273.266V273.297Z" fill="#D0D075"/>
<path d="M167.261 307.451C168.285 307.327 169.341 307.514 170.366 307.451C174.278 312.73 183.22 310.463 188.995 310.556C191.79 310.587 196.354 302.328 195.205 313.661C195.516 316.58 192.069 321.268 192.1 322.976C176.576 328.627 172.104 316.114 167.261 313.661L164.156 310.556C163.317 310.277 162.106 310.743 161.051 310.556C162.2 307.607 164.715 307.731 167.261 307.451Z" fill="#DAD0A1"/>
<path d="M204.521 183.254C203.714 190.178 206.198 199.865 204.056 206.168C202.162 211.757 195.641 210.608 195.207 211.198C193.592 203.529 198.063 175.584 204.521 183.254Z" fill="#692F1A"/>
<path d="M170.365 260.877C171.203 263.113 171.483 265.442 173.47 267.087C174.06 268.702 172.88 271.745 173.47 273.297C176.234 280.563 176.575 288.729 182.785 295.032C181.791 295.28 180.643 294.783 179.68 295.032C165.801 294.224 170.458 282.922 167.26 273.297C166.018 269.509 166.608 265.969 164.155 260.877L165.677 257.865C166.701 259.542 169.403 259.915 170.365 260.877Z" fill="#B2AF3B"/>
<path d="M241.779 248.457C241.686 248.675 244.636 250.662 244.015 252.525C239.668 265.597 226.503 268.267 213.835 270.161C219.175 264.106 226.224 259.821 232.465 254.667C235.29 252.307 238.83 250.662 241.779 248.457Z" fill="#E2D9AA"/>
<path d="M204.519 307.451C193.466 311.954 201.042 310.618 198.309 313.661C197.968 314.065 196.229 313.413 195.204 313.661C196.353 302.328 191.789 310.587 188.995 310.556L185.89 307.451C188.218 307.234 199.707 298.913 204.519 307.451Z" fill="#B0A97D"/>
<path d="M185.89 307.452L188.995 310.557C183.22 310.463 174.277 312.73 170.365 307.452C175.488 307.203 180.829 307.948 185.89 307.452Z" fill="#93981D"/>
<path d="M173.47 183.254C174.402 183.533 175.581 183.036 176.575 183.254C173.284 190.116 174.495 224.705 179.68 226.723C179.338 235.199 178.78 246.532 179.68 254.667H176.575C175.302 244.359 172.973 234.113 173.439 223.649C168.999 222.469 170.427 228.617 167.26 229.828L164.155 208.093C164.248 207.255 170.086 205.299 170.396 202.784C171.328 195.425 160.212 181.018 173.47 183.254Z" fill="#CEC355"/>
<path d="M188.995 223.618C186.356 226.288 183.376 228.182 179.681 226.723C180.364 209.335 183.934 207.565 185.891 198.778L188.995 223.618Z" fill="#753D26"/>
<path d="M179.683 183.253C178.752 196.108 177.292 197.257 188.998 192.568C188.594 194.555 186.328 196.853 185.893 198.778C183.937 207.565 180.366 209.335 179.683 226.723C174.498 224.704 173.287 190.115 176.578 183.253H179.683Z" fill="#DCD1B0"/>
<path d="M179.682 183.254C181.732 154.719 194.089 168.257 188.997 192.568C177.292 197.257 178.751 196.108 179.682 183.254Z" fill="#663727"/>
<path d="M167.26 313.661C166.08 313.071 165.056 310.836 164.155 310.556L167.26 313.661Z" fill="#E4DDA5"/>
<path d="M229.359 307.451C225.23 307.358 221.069 307.514 216.939 307.451V304.347C221.007 304.067 227.124 303.105 229.359 307.451Z" fill="#ECE6D6"/>
<path d="M167.263 229.828C166.797 230.014 164.623 230.014 164.158 229.828C163.661 223.525 163.537 214.303 164.158 208.093L167.263 229.828Z" fill="#712A0C"/>
<path d="M170.365 260.877C169.434 259.915 166.701 259.511 165.677 257.866L164.155 260.877C163.565 259.666 156.424 257.555 155.306 252.649C151.363 235.231 164.776 245.818 170.365 260.877Z" fill="#E1D78D"/>
<path d="M173.47 267.087C171.483 265.441 171.204 263.113 170.365 260.877C172.383 262.958 172.57 264.634 173.47 267.087Z" fill="#D0D075"/>
<path d="M344.244 295.032C338.842 307.948 320.647 330.707 319.902 332.881C318.349 337.445 327.819 347.07 316.3 350.921C316.176 349.896 316.331 348.84 316.3 347.816C315.244 314.127 329.869 304.191 347.349 279.507C351.541 283.264 346.48 289.691 344.244 295.032Z" fill="#D9D78E"/>
<path d="M375.295 254.667L369.116 298.105L378.4 288.822C376.909 295.777 368.619 324.528 365.98 329.186C365.7 329.683 363.589 331.701 362.875 332.291C354.957 332.136 352.411 335.303 354.181 325.181C356.696 310.929 375.202 291.709 365.98 273.297C370.265 267.77 369.985 258.611 375.295 254.667Z" fill="#A7A738"/>
<path d="M375.293 254.667C369.983 258.611 370.263 267.77 365.978 273.297C363.494 276.495 347.969 286.151 344.243 295.032C346.479 289.691 351.54 283.264 347.348 279.507C351.416 273.794 360.761 252.742 365.947 249.886C369.921 247.681 372.591 252.835 375.293 254.667Z" fill="#CFD16F"/>
<path d="M381.504 257.773C383.708 266.839 380.355 279.693 378.399 288.822L369.115 298.106L375.294 254.668C376.008 255.164 377.964 254.14 378.399 254.668L381.504 257.773Z" fill="#8F9031"/>
<path d="M381.501 257.772L378.396 254.667C379.111 255.506 381.036 255.816 381.501 257.772Z" fill="#A7A738"/>
<path d="M365.977 273.297C375.198 291.709 356.693 310.929 354.178 325.181C352.408 335.303 354.954 332.136 362.872 332.291C355.171 338.408 327.227 341.699 317.819 357.099C315.025 357.348 316.546 353.311 316.298 350.92C327.817 347.07 318.378 337.445 319.899 332.881C320.644 330.707 338.808 307.917 344.242 295.031C347.968 286.151 363.493 276.495 365.977 273.297Z" fill="#C8C84C"/>
<path d="M254.199 580.687C254.882 595.125 267.892 610.929 244.884 608.631C221.876 606.334 223.553 572.707 210.729 558.952C212.437 558.362 213.834 553.829 218.927 558.114L254.199 580.687Z" fill="#A3CC6B"/>
<path d="M263.515 543.427C259.324 573.607 258.485 592.082 266.62 621.051C258.237 632.198 254.014 637.631 257.957 653.032C259.106 657.472 265.844 660.577 266.123 662.968C266.279 664.365 261.249 668.215 260.41 670.73C253.548 671.631 249.916 667.656 244.886 664.52C241.253 652.877 238.8 653.746 241.781 642.786C242.712 639.37 246.128 633.843 247.991 630.366C247.649 665.11 263.484 635.458 247.991 624.156C247.897 617.046 256.157 613.506 244.886 608.631C267.893 610.929 254.883 595.125 254.2 580.687C253.517 566.249 254.666 551.624 254.2 537.218C257.988 537.466 261.466 542.62 263.515 543.427Z" fill="#769448"/>
<path d="M272.83 642.786C274.879 643.251 287.175 633.44 279.04 645.891C277.798 647.94 274.289 657.751 272.83 661.415C269.538 669.674 267.054 677.313 266.62 686.255C263.546 686.348 260.379 686.317 257.305 686.255C256.125 680.324 258.702 675.946 260.41 670.73C261.248 668.184 266.247 664.365 266.123 662.968C265.875 660.577 259.106 657.503 257.957 653.032C254.014 637.631 258.236 632.198 266.62 621.051C268.141 626.423 269.011 641.916 272.83 642.786Z" fill="#769448"/>
<path d="M229.361 664.52C230.945 647.288 232.311 656.727 244.886 664.52C249.916 667.656 253.549 671.63 260.411 670.73C258.703 675.946 256.126 680.324 257.306 686.255C231.255 685.634 226.598 694.328 229.361 664.52Z" fill="#A3CC6B"/>
<path d="M306.983 655.205C311.827 664.147 274.195 676.691 300.774 676.94C299.656 678.461 301.488 683.895 295.744 685.789C289.161 687.993 274.816 685.975 266.619 686.254C267.054 677.312 269.538 669.674 272.829 661.415C271.37 688.676 285.777 667.097 300.774 658.31C301.953 657.627 302.916 655.609 303.878 655.205C304.717 654.863 306.021 655.516 306.983 655.205Z" fill="#A3CC6B"/>
<path d="M269.723 534.112C288.042 534.827 298.102 521.817 294.531 555.816C284.751 549.886 273.884 547.464 263.513 543.427C261.464 542.62 257.986 537.466 254.198 537.217V534.112C258.297 534.454 262.519 533.864 266.618 534.112C267.643 534.175 268.698 534.081 269.723 534.112Z" fill="#769448"/>
<path d="M275.934 503.063C284.69 502.566 281.212 507.689 288.354 512.378C286.801 526.412 269.041 523.68 269.724 534.112C268.699 534.081 267.644 534.174 266.619 534.112L272.829 518.619C255.503 519.612 265.905 510.67 247.989 515.483C248.238 513.495 247.648 511.198 247.989 509.273H251.094L254.199 506.168C258.174 507.099 264.973 505.888 269.724 506.168C270.749 506.23 271.804 506.168 272.829 506.168C273.636 506.168 275.22 503.094 275.934 503.063Z" fill="#769448"/>
<path d="M241.783 642.786C238.802 653.746 241.255 652.877 244.887 664.52C232.312 656.727 230.946 647.288 229.363 664.52C222.439 649.244 222.656 624.249 241.783 642.786Z" fill="#A3CC6B"/>
<path d="M306.983 655.205C327.321 648.592 308.194 666.88 300.773 676.94C274.195 676.692 311.827 664.148 306.983 655.205Z" fill="#A3CC6B"/>
<path d="M285.248 630.366C293.787 623.473 300.804 616.114 313.161 617.977C306.672 624.063 295.184 626.764 288.353 633.471L285.248 630.366Z" fill="#A3CC6B"/>
<path d="M247.992 624.156C263.485 635.458 247.65 665.11 247.992 630.366C247.992 628.286 247.992 626.236 247.992 624.156Z" fill="#769448"/>
<path d="M288.354 633.471C287.795 634.03 279.536 645.052 279.039 645.89C287.174 633.44 274.878 643.251 272.829 642.786C275.282 636.762 280.591 634.123 285.249 630.366L288.354 633.471Z" fill="#A3CC6B"/>
<path d="M300.772 658.311L303.877 655.206C302.915 655.609 301.952 657.627 300.772 658.311Z" fill="#A3CC6B"/>
<path d="M247.99 515.483C265.905 510.67 255.504 519.612 272.829 518.619L266.619 534.112C262.521 533.864 258.298 534.454 254.2 534.112C251.467 533.895 249.263 531.287 247.99 531.007L238.675 518.588C243.394 515.762 243.891 516.6 247.99 515.483Z" fill="#769448"/>
<path d="M247.989 531.008C243.207 530.014 237.214 531.536 232.464 527.903C233.116 527.344 231.719 522.749 238.674 518.588L247.989 531.008Z" fill="#769448"/>
<path d="M251.094 509.273H247.989C248.61 505.888 249.821 506.882 251.094 509.273Z" fill="#E1DDBC"/>
<path d="M272.829 506.168L275.934 503.063C275.22 503.094 273.636 506.137 272.829 506.168Z" fill="#E1DDBC"/>
<path d="M244.884 354.026L249.479 369.519C264.414 310.867 263.141 360.794 285.248 378.865C283.261 396.004 289.781 393.148 291.458 397.495L286.831 413.051L275.964 397.495C278.665 409.045 281.118 416.249 282.143 428.544C282.547 433.605 282.143 438.977 282.143 444.069C272.549 442.796 237.401 402.96 234.078 403.736C220.572 406.841 234.886 435.344 242.12 442.206C247.461 447.298 254.012 447.826 257.334 450.279C261.464 453.353 265.407 456.83 269.754 459.594C270.499 460.06 272.114 459.128 272.859 459.594C269.941 473.442 279.069 466.89 288.384 472.014C288.943 473.256 290.682 474.063 291.489 475.119C297.047 482.26 296.364 479.807 304.219 481.018C329.928 486.545 297.575 469.778 319.433 465.804L328.717 490.612L285.279 496.853C271.369 483.999 273.077 492.196 269.754 506.168C265.004 505.889 258.204 507.099 254.23 506.168C243.611 503.715 227.31 487.259 218.554 487.228C204.054 487.166 170.303 529.486 195.236 478.223C206.165 470.151 211.133 469.747 223.18 465.804C226.006 464.872 231.47 466.89 234.265 462.885C243.3 449.968 206.072 425.905 205.016 411.653C202.687 380.542 226.782 391.285 229.173 383.15C230.756 377.81 221.814 365.017 229.39 357.131C239.885 362.44 238.922 369.923 244.915 354.026H244.884ZM263.482 468.909C262.83 468.194 247.492 472.262 244.884 473.566L266.587 487.538C264.848 483.999 264.103 469.592 263.482 468.909Z" fill="#E1DDBC"/>
<path d="M369.084 335.396C369.084 336.203 365.234 338.004 368.122 343.593C381.722 370.078 400.506 358.466 415.659 378.865C409.852 400.817 393.365 419.261 381.504 437.859C377.033 438.76 371.134 442.765 369.084 447.174C368.122 447.516 366.787 446.802 365.979 447.174C359.801 438.76 367.967 430.439 365.483 421.496C364.551 418.081 359.987 415.876 358.341 412.74C356.323 408.89 357.161 401.345 356.478 400.724C351.852 396.408 343.344 411.188 341.109 378.834C340.985 376.847 347.66 369.023 342.692 366.446C337.135 370.917 333.098 376.475 328.689 381.939C323.473 388.429 319.902 392.807 316.269 400.569C315.338 402.587 313.816 404.761 313.164 406.779C305.526 400.414 312.326 387.683 311.643 380.232C311.332 376.971 307.203 374.146 306.954 372.624C306.489 369.737 307.544 366.011 306.954 363.31C318.412 366.011 309.128 353.715 316.269 347.785C316.3 348.81 316.145 349.865 316.269 350.89C316.518 353.281 314.996 357.317 317.791 357.069C327.199 341.668 355.143 338.346 362.843 332.26C363.558 331.67 365.669 329.652 365.948 329.155C366.507 331.049 369.022 333.906 369.053 335.365L369.084 335.396Z" fill="#E9E7D9"/>
<path d="M220.047 350.921C223.121 352.784 227.281 356.075 229.362 357.131C221.786 365.048 230.728 377.81 229.144 383.15C226.754 391.285 202.628 380.542 204.988 411.654C206.075 425.905 243.303 450 234.236 462.885C231.442 466.859 225.946 464.872 223.152 465.804C210.359 455.247 198.716 451.8 187.383 437.921C181.173 430.314 179.155 421.434 173.473 414.572C154.688 391.875 120.937 381.908 159.314 356.913C160.308 356.261 178.285 348.344 179.683 347.785C185.644 355.05 193.034 349.493 198.312 344.68C199.399 343.686 200.393 342.631 201.417 341.575C207.503 347.536 215.11 347.909 220.047 350.89V350.921Z" fill="#E7E6DD"/>
<path d="M446.707 465.804C418.421 454.16 430.468 477.075 415.657 490.643C404.014 486.669 386.098 484.465 375.293 490.643C364.177 474.125 348.994 492.072 347.318 504.864C346.231 513.31 352.907 524.549 350.392 534.113C339.586 528.927 339.99 500.672 324.465 503.56C301.737 507.783 332.321 537.559 337.537 545.539C341.046 550.91 340.021 556.903 341.108 558.952C327.601 550.631 318.069 534.92 306.953 524.798C302.265 517.687 290.932 502.132 285.219 496.853L328.657 490.612L319.373 465.804C343.778 461.364 351.789 469.84 378.367 453.384C385.043 449.255 390.259 450.341 390.787 437.859C410.596 438.015 436.305 448.54 446.676 465.804H446.707Z" fill="#E9E6D0"/>
<path d="M195.205 478.224C170.273 529.486 204.023 487.166 218.524 487.228C227.248 487.259 243.58 503.715 254.199 506.168L251.094 509.273C249.821 506.882 248.61 505.889 247.99 509.273C247.648 511.198 248.238 513.496 247.99 515.483C243.891 516.601 243.394 515.762 238.675 518.588C231.72 522.749 233.117 527.344 232.465 527.903C213.494 544.421 217.53 545.539 204.52 562.057C184.711 587.176 174.527 583.699 170.738 550.848C167.82 525.636 173.75 494.09 195.205 478.224Z" fill="#EAE8DB"/>
<path d="M375.295 490.643C389.453 511.694 363.341 600.154 341.14 558.952C340.023 556.902 341.078 550.91 337.57 545.538C332.385 537.559 301.77 507.813 324.498 503.559C340.023 500.672 339.619 528.896 350.424 534.112C352.908 524.549 346.233 513.309 347.35 504.863C349.027 492.071 364.21 474.125 375.326 490.643H375.295Z" fill="#E8E7DE"/>
<path d="M254.198 313.661C255.844 314.189 257.955 316.704 260.408 316.766C260.843 320.337 262.116 322.914 263.513 326.081C265.78 331.235 286.024 368.619 288.353 369.55C288.912 372.872 285.496 376.692 285.248 378.865C263.141 360.794 264.414 310.867 249.479 369.519L244.884 354.025C246.343 350.144 251.715 324.342 250.845 321.858C249.541 318.132 242.338 316.238 238.674 313.661C236.376 312.047 234.606 309.283 232.464 307.451C239.574 308.538 247.243 311.426 254.198 313.661Z" fill="#D4CEAF"/>
<path d="M415.656 378.865C400.504 358.466 381.719 370.078 368.12 343.593C365.232 337.973 369.113 336.203 369.082 335.396C380.819 332.695 417.55 356.913 418.73 365.017C419.289 368.805 416.712 374.798 415.656 378.865Z" fill="#D8D5C7"/>
<path d="M446.706 465.803C451.084 473.1 451.332 476.547 452.916 484.433C439.813 470.492 437.577 492.258 434.286 503.063C428.759 498.685 422.27 492.91 415.656 490.643C430.467 477.074 418.42 454.16 446.706 465.803Z" fill="#D8D5C0"/>
<path d="M452.916 484.433C454.313 491.42 456.455 496.946 456.3 504.616C455.648 536.41 446.675 512.906 434.286 503.063C437.577 492.258 439.813 470.492 452.916 484.433Z" fill="#C6C1A6"/>
<path d="M300.773 354.026C294.222 360.981 300.4 367.718 300.773 372.655C300.866 373.928 298.227 377.064 297.668 378.865C295.339 373.649 294.967 366.942 294.532 366.445C291.148 362.378 288.664 369.674 288.353 369.55C286.025 368.619 265.78 331.235 263.514 326.081C279.535 332.943 284.224 345.394 300.773 354.026Z" fill="#E5E2D4"/>
<path d="M285.249 496.853C290.962 502.131 302.295 517.687 306.984 524.797C300.743 519.115 293.136 515.514 288.354 512.378C281.213 507.689 284.69 502.566 275.934 503.063L272.83 506.168C271.805 506.168 270.749 506.23 269.725 506.168C273.047 492.196 271.339 483.999 285.249 496.853Z" fill="#E8E7DE"/>
<path d="M390.817 437.859C390.289 450.341 385.072 449.254 378.397 453.384C383.986 443.231 377.745 444.069 369.082 447.174C371.131 442.765 377.031 438.76 381.502 437.859C383.986 437.362 387.929 437.859 390.817 437.859Z" fill="#E6E1BD"/>
<path d="M300.774 354.026C301.923 354.616 306.052 353.125 306.89 354.088C307.915 355.33 306.425 360.826 306.984 363.341C307.574 366.042 306.518 369.768 306.984 372.655H300.774C300.401 367.719 294.222 360.981 300.774 354.026Z" fill="#502F23"/>
<path d="M198.31 344.711C193.032 349.523 185.642 355.081 179.681 347.816C185.487 345.611 192.1 344.742 198.31 344.711Z" fill="#6E8329"/>
<path d="M282.146 428.545C281.152 416.249 278.668 409.046 275.967 397.495L286.834 413.051L291.46 397.495C292.827 401.004 296.863 406.313 297.67 409.915C299.502 418.267 294.441 424.881 300.775 434.754C301.241 435.469 300.341 438.325 303.818 437.859C304.563 432.333 307.14 423.949 313.195 422.335C313.537 422.242 318.38 427.209 319.374 425.44C320.989 422.552 318.349 408.797 319.374 403.705C325.801 411.467 325.056 416.156 322.51 425.44C342.009 413.268 337.817 444.069 331.794 456.458C350.175 461.83 355.857 451.863 365.948 447.174C366.755 446.802 368.091 447.516 369.053 447.174C377.716 444.069 383.957 443.231 378.368 453.384C351.79 469.84 343.779 461.364 319.374 465.804C297.546 469.778 329.869 486.545 304.16 481.018C305.65 482.508 308.072 482.508 309.593 481.018C311.115 479.528 311.084 477.106 309.593 475.584C308.103 474.063 305.681 474.094 304.16 475.584C302.638 477.075 302.669 479.497 304.16 481.018C296.273 479.838 296.987 482.291 291.429 475.119C299.192 477.82 309.593 462.792 313.164 456.489C313.537 455.837 315.679 455.278 316.269 453.384C316.486 452.67 316.393 451.086 316.269 450.279C328.347 442.331 329.931 419.137 313.164 444.069C310.804 447.578 291.988 477.23 288.324 462.699C288.045 461.022 285.375 458.911 285.22 453.384C284.971 445.746 295.652 426.123 282.115 428.545H282.146Z" fill="#DAD690"/>
<path d="M282.145 444.069V453.384C271.371 452.018 262.242 434.413 255.691 431.68C250.599 429.569 249.357 435.624 251.096 437.797C253.176 440.405 264.229 436.803 257.274 450.279C253.952 447.826 247.432 447.267 242.06 442.206C234.826 435.344 220.512 406.841 234.018 403.736C237.341 402.96 272.489 442.796 282.083 444.069H282.145Z" fill="#DCD89F"/>
<path d="M288.354 369.55C288.664 369.674 291.148 362.378 294.533 366.445C294.936 366.942 295.309 373.618 297.669 378.865C299.532 382.995 299.78 383.46 300.774 388.18L297.669 409.914C296.861 406.313 292.825 401.003 291.459 397.495C289.782 393.148 283.262 396.004 285.249 378.865C285.497 376.692 288.913 372.872 288.354 369.55Z" fill="#6D341D"/>
<path d="M282.144 453.384H285.249C285.404 458.91 288.074 461.022 288.353 462.699C288.819 465.462 287.608 470.306 288.353 472.013C279.039 466.89 269.91 473.442 272.829 459.594C274.971 460.929 274.568 465.307 277.517 465.834C289.689 467.977 277.735 444.286 269.724 459.594C265.377 456.83 261.434 453.353 257.304 450.279C264.259 436.803 253.205 440.405 251.125 437.797C249.386 435.623 250.628 429.569 255.721 431.68C262.272 434.412 271.4 452.017 282.175 453.384H282.144Z" fill="#C5C763"/>
<path d="M316.299 450.279C316.423 451.086 316.516 452.67 316.299 453.384L313.194 456.489C309.623 462.792 299.222 477.82 291.459 475.119C290.652 474.063 288.913 473.256 288.354 472.014C287.609 470.306 288.82 465.462 288.354 462.699C292.018 477.23 310.834 447.578 313.194 444.069C313.846 446.056 316.05 448.478 316.299 450.279Z" fill="#8D9C24"/>
<path d="M263.483 468.908C264.135 469.591 264.85 483.998 266.588 487.538L244.885 473.566C247.493 472.262 262.831 468.194 263.483 468.908Z" fill="#CECC5F"/>
<path d="M282.144 428.544C295.681 426.123 285 445.746 285.248 453.384H282.144V444.069C282.144 438.977 282.547 433.606 282.144 428.544Z" fill="#A4A63D"/>
<path d="M269.725 459.594C277.766 444.286 289.689 467.977 277.518 465.835C274.568 465.307 274.972 460.929 272.83 459.594C272.084 459.128 270.47 460.059 269.725 459.594Z" fill="#9DAA2E"/>
<path d="M341.14 378.865C343.375 411.219 351.883 396.439 356.509 400.755C357.161 401.376 356.354 408.89 358.372 412.771C359.987 415.876 364.551 418.111 365.513 421.527C367.997 430.438 359.831 438.79 366.01 447.205C355.919 451.862 350.237 461.86 331.856 456.489C337.879 444.1 342.071 413.299 322.572 425.47C325.118 416.186 325.894 411.498 319.436 403.736C318.505 402.618 317.387 401.624 316.331 400.631C319.964 392.868 323.535 388.49 328.751 382.001C328.006 388.583 328.378 388.956 334.961 388.211C329.341 420.875 348.405 403.053 338.066 385.106C338.19 384.795 333.843 380.573 341.171 378.896L341.14 378.865Z" fill="#E6E1BD"/>
<path d="M306.984 372.655C307.232 374.176 311.362 377.002 311.672 380.262C312.355 387.714 305.556 400.444 313.194 406.809C311.548 412.026 309.375 417.18 313.194 422.334C307.17 423.949 304.593 432.332 303.817 437.859C300.339 438.325 301.209 435.468 300.774 434.754C306.58 418.888 304.003 403.611 300.774 388.18C299.78 383.46 299.532 382.994 297.669 378.865C298.228 377.064 300.867 373.928 300.774 372.655H306.984Z" fill="#BFB445"/>
<path d="M319.404 403.705C318.349 408.797 320.988 422.521 319.404 425.44C318.411 427.209 313.567 422.242 313.225 422.335C309.406 417.181 311.58 412.026 313.225 406.81C313.877 404.792 315.399 402.618 316.33 400.6C317.386 401.594 318.504 402.587 319.435 403.705H319.404Z" fill="#642A12"/>
<path d="M341.139 378.865C333.812 380.542 338.159 384.764 338.034 385.075C337.569 386.255 335.054 387.435 334.93 388.18C328.347 388.925 327.974 388.552 328.72 381.97C333.129 376.505 337.165 370.947 342.723 366.476C347.691 369.053 341.015 376.878 341.139 378.865Z" fill="#4F2F21"/>
<path d="M300.773 434.754C294.439 424.88 299.5 418.267 297.668 409.915L300.773 388.18C304.003 403.612 306.58 418.888 300.773 434.754Z" fill="#E1DBB8"/>
<path d="M316.298 450.279C316.05 448.478 313.845 446.056 313.193 444.069C329.96 419.137 328.377 442.33 316.298 450.279Z" fill="#BDC241"/>
<path d="M306.891 482.136C309.001 482.136 310.71 480.426 310.71 478.317C310.71 476.207 309.001 474.498 306.891 474.498C304.782 474.498 303.072 476.207 303.072 478.317C303.072 480.426 304.782 482.136 306.891 482.136Z" fill="#BCC52E"/>
<path d="M313.193 456.489L316.298 453.384C315.708 455.278 313.566 455.837 313.193 456.489Z" fill="#BDC241"/>
<path d="M334.93 388.18C335.054 387.435 337.569 386.255 338.035 385.075C348.374 403.022 329.31 420.844 334.93 388.18Z" fill="#4C2211"/>
</g>
<defs>
<clipPath id="clip0_209_1631">
<rect width="456.303" height="687" fill="white"/>
</clipPath>
</defs>
</svg>
