<svg width="667" height="1170" viewBox="0 0 667 1170" fill="none" xmlns="http://www.w3.org/2000/svg">
<g clip-path="url(#clip0_209_1990)">
<path d="M301.942 1014.06C303.892 1066.54 305.353 1117.91 311.689 1170H287.323C268.658 1116.83 252.869 1061.38 253.211 1004.31C275.481 1001.44 250.043 1028.78 272.703 1028.68C273.824 1041.06 269.731 1056.41 275.14 1067.71C282.596 1056.02 281.426 1041.74 282.45 1028.68C283.473 1015.62 282.45 1002.51 282.45 989.693C310.519 981.409 300.968 987.354 301.942 1014.06Z" fill="#A3CC6B"/>
<path d="M189.86 692.429C169.685 687.8 150.485 726.59 151.021 738.871C151.118 740.674 174.656 754.611 175.24 765.527C167.979 800.029 171.78 786.189 183.817 805.779C187.326 811.481 183.768 822.641 185.035 824.054C199.558 840.087 202.433 800.711 204.772 793.548C208.183 783.265 219.976 799.493 204.528 775.322C226.311 783.168 242.052 782.973 253.211 760.703H282.45C271.827 776.394 266.71 805.195 267.879 824.005L282.401 814.308C282.109 822.494 280.257 830.974 277.577 838.625C270.706 858.069 263.688 852.27 262.957 853.244C241.613 848.274 218.758 860.505 214.226 882.483C182.696 866.889 180.845 943.593 180.114 960.454C160.036 947.832 180.942 934.431 160.621 916.595C164.178 900.514 189.714 847.104 189.957 836.724C190.006 834.19 156.235 807.144 165.445 794.766C150.777 820.107 127.435 852.075 131.382 882.434C23.1974 850.223 83.1374 716.844 160.621 682.634C164.958 680.734 171.001 680.88 175.24 677.761C175.728 678.687 192.784 679.077 189.86 692.381V692.429Z" fill="#DC71C6"/>
<path d="M258.086 643.698C261.741 647.645 274.411 660.608 277.578 663.19C267.199 686.094 262.325 742.428 253.213 760.654C242.053 782.973 226.313 783.168 204.53 775.273C219.929 799.444 208.136 783.217 204.773 793.499C202.385 800.663 199.559 840.086 185.037 824.005C183.77 822.641 187.327 811.432 183.819 805.731C171.782 786.14 167.981 799.98 175.242 765.478C175.778 762.944 178.702 755.878 180.115 750.859C183.429 738.871 198.243 719.427 184.988 707C186.986 702.614 191.713 696.669 194.735 692.381C207.307 674.496 235.523 643.844 258.086 643.649V643.698Z" fill="#F492D7"/>
<path d="M428.643 877.61C429.862 877.513 442.727 882.24 453.009 882.484C457.882 882.581 462.756 882.386 467.629 882.484C462.22 925.124 493.262 887.259 516.36 940.962C506.322 946.176 469.237 934.237 467.677 936.088C462.804 941.839 472.697 961.331 472.502 965.327C472.404 967.862 467.775 972.491 467.629 975.074C450.134 972.637 447.795 965.864 443.263 984.82C442.678 987.305 443.263 991.496 443.263 994.567C435.856 995.882 429.667 991.058 423.77 989.693C420.895 989.011 416.948 990.327 414.024 989.693C406.422 951.536 427.62 962.014 428.302 960.113C429.91 955.484 427.669 949.636 428.643 945.835C433.468 926.781 430.154 908.36 443.165 894.618C424.014 898.516 414.17 905.729 414.024 926.342C400.964 951.293 407.981 917.132 388.001 922.054C365.39 927.658 380.107 971.76 387.416 984.82C390.243 989.937 398.868 988.962 399.404 989.693C405.886 998.465 412.806 1007.48 414.024 1018.93C407.494 1022.2 404.326 1037.89 389.658 1033.55C387.026 1021.52 368.411 982.871 365.292 970.201C361.052 952.998 370.848 932.141 360.419 911.723C374.941 913.526 389.609 889.696 394.531 887.357C396.139 886.577 426.889 877.757 428.643 877.61Z" fill="#F492D7"/>
<path d="M214.225 882.484C211.788 894.277 214.03 901.245 219.098 911.723C221.583 916.84 237.665 929.315 243.171 933.847C244.877 935.26 242.44 945.055 243.464 945.835C226.749 942.619 239.858 965.035 241.612 965.669C254.282 970.445 278.746 957.725 292.196 955.581C289.223 960.552 294.632 961.283 282.449 975.074C280.256 977.559 264.175 993.884 262.957 994.567C259.886 996.321 256.475 998.027 253.21 999.44C194.342 1024.83 177.579 1018.2 180.113 960.454C180.844 943.593 182.695 866.89 214.225 882.484Z" fill="#D646AF"/>
<path d="M131.38 882.483C127.433 852.123 150.776 820.155 165.444 794.815C156.282 807.193 190.053 834.239 189.956 836.773C189.712 847.153 164.177 900.563 160.619 916.644C154.528 911.284 134.938 909.919 131.38 882.532V882.483Z" fill="#D646AF"/>
<path d="M574.839 219.732C535.415 244.195 585.95 257.889 604.079 229.478C604.127 230.209 611.096 234.595 612.022 241.369C613.922 255.355 590.58 266.904 618.698 263.59C602.519 280.939 606.856 285.032 579.713 283.083C573.378 253.99 561.828 282.206 560.22 283.083C555.493 285.666 552.91 289.857 545.6 287.956C539.85 275.676 555.298 279.477 555.688 275.237C560.122 226.652 535.708 263.834 533.271 263.834C526.887 263.834 520.016 253.795 511.488 253.844C511.245 250.628 511.878 247.265 511.488 244.098L565.093 209.985C566.75 212.325 573.719 214.761 574.839 219.732Z" fill="#F492D7"/>
<path d="M443.263 93.0297C449.16 92.0064 459.442 91.5678 462.756 97.9029V102.776C446.626 106.626 406.617 150.631 404.229 163.983C398.186 197.754 458.76 247.266 423.771 297.703C417.24 299.262 410.808 301.017 404.278 302.576C408.761 286.3 414.365 273.288 419.287 257.645C420.603 253.503 428.887 254.186 428.644 251.505C428.205 246.925 387.709 174.509 384.785 171.001C396.773 168.125 392.241 156.917 394.532 151.508C403.596 129.871 413.781 130.943 423.673 118.419C434.345 104.872 414.17 98.0004 443.263 93.0297Z" fill="#769448"/>
<path d="M467.631 88.1559C487.855 92.5418 535.514 73.9262 544.822 101.362C553.399 126.556 497.698 186.545 479.521 127.141C471.724 101.703 494.726 95.1245 462.709 102.775V97.9022L467.582 88.1559H467.631ZM491.997 97.951C477.913 111.596 513.293 150.825 528.935 122.317C539.754 102.678 499.599 90.5925 491.997 97.951Z" fill="#A8787C"/>
<path d="M526.108 590.093C529.47 603.591 518.36 612.704 516.362 624.205C514.997 632.148 517.288 641.505 521.235 648.571C505.836 651.592 494.627 656.855 482.249 643.698C480.398 634.146 497.064 622.353 467.63 614.459C470.261 610.852 470.505 597.061 472.503 594.966C485.368 581.516 512.317 588.436 526.108 590.093Z" fill="#A8787C"/>
<path d="M633.318 185.62C626.885 181.965 613.923 183.135 608.952 180.747C603.543 178.164 584.44 155.747 569.967 166.176C567.823 167.735 599.742 189.519 555.347 190.493C552.228 190.542 543.993 184.743 535.854 185.62C548.72 144.442 629.225 131.869 633.318 185.62Z" fill="#F492D7"/>
<path d="M526.11 970.2C526.549 991.886 519.19 987.939 516.364 994.566L511.491 1004.31C510.37 1005.97 508.128 1007.53 506.617 1009.19C495.945 1013.91 483.47 1004.95 477.378 1004.31C480.01 989.254 472.457 996.613 467.632 994.566C468.85 985.161 467.291 980.58 467.632 975.073C467.778 972.491 472.408 967.861 472.505 965.327L526.11 970.2Z" fill="#D219A0"/>
<path d="M628.443 205.112C661.044 214.323 630.441 250.969 618.696 263.591C590.578 266.904 613.872 255.306 612.02 241.369C611.094 234.595 604.126 230.209 604.077 229.478C603.736 224.654 604.467 219.683 604.077 214.859C603.931 213.251 604.077 211.594 604.077 209.986C610.753 208.865 622.498 203.407 628.443 205.112Z" fill="#D219A0"/>
<path d="M516.359 940.961C520.989 951.779 525.862 956.75 526.105 970.2L472.501 965.327C472.696 961.331 462.803 941.887 467.676 936.088C469.236 934.236 506.32 946.175 516.359 940.961Z" fill="#D646AF"/>
<path d="M565.093 209.985L511.488 244.098C510.757 237.957 508.126 234.351 506.615 229.478C522.258 217.831 528.203 203.504 555.347 195.366C563.68 197.51 562.657 206.526 565.093 209.985Z" fill="#B05276"/>
<path d="M443.262 93.0294C423.965 66.8117 425.768 32.4071 423.818 0.487863C437.512 -1.12028 431.469 1.26757 433.419 7.79762C440.436 31.2863 436.147 81.3825 467.677 88.205L462.804 97.9513C459.49 91.6162 449.208 92.0548 443.311 93.0781L443.262 93.0294Z" fill="#A3CC6B"/>
<path d="M535.855 185.62C543.993 184.742 552.229 190.542 555.347 190.493V195.366C528.204 203.504 522.259 217.831 506.616 229.478C506.275 228.406 496.772 224.897 496.967 222.217C497.357 216.467 522.356 187.13 535.855 185.62Z" fill="#A8787C"/>
<path d="M394.532 151.508C392.241 156.917 396.773 168.125 384.785 171C372.408 156.137 345.215 152.044 336.054 132.015C337.516 131.771 339.416 131.917 340.927 132.015C362.369 133.087 374.601 147.755 394.532 151.508Z" fill="#A3CC6B"/>
<path d="M467.629 999.439C467.19 1002.56 468.214 1006.16 467.629 1009.19C467.093 1011.91 460.66 1017.86 462.756 1023.81C460.855 1024.05 447.259 1039.01 428.644 1028.68C428.254 1025.95 424.745 1022.05 423.771 1018.93C424.989 1018.25 427.377 1019.61 428.644 1018.93C432.347 1016.98 437.415 1007.24 443.263 1004.31C449.745 1001.05 460.222 1000.61 467.629 999.439Z" fill="#F492D7"/>
<path d="M384.785 312.322C384.151 312.566 375.282 321.435 375.038 322.068C369.191 316.367 343.07 296.874 340.926 292.829C336.15 283.863 341.657 275.773 340.926 273.337L384.785 312.322Z" fill="#A3CC6B"/>
<path d="M633.319 185.62C633.855 192.442 631.809 199.216 628.446 205.112C622.501 203.407 610.756 208.865 604.08 209.985C603.788 198.241 605.104 191.809 608.953 180.746C613.924 183.134 626.887 181.965 633.319 185.62Z" fill="#B10962"/>
<path d="M506.615 1009.19C505.201 1010.75 506.712 1017.96 498.769 1023.46C488.292 1030.73 483.223 1023.61 482.249 1023.81C481.762 1023.9 481.713 1022.3 472.502 1023.81C469.432 1024.29 465.875 1023.42 462.756 1023.81C460.661 1017.86 467.093 1011.92 467.629 1009.19C470.407 1008.36 475.475 1004.12 477.376 1004.31C483.467 1004.95 495.942 1013.91 506.615 1009.19Z" fill="#D646AF"/>
<path d="M535.854 590.093L540.727 614.459C533.71 622.598 526.79 624.547 516.361 624.206C518.359 612.705 529.47 603.592 526.108 590.093C529.275 590.483 532.638 589.899 535.854 590.093Z" fill="#C98E8E"/>
<path d="M272.703 1028.68C275.968 1028.68 279.184 1028.68 282.449 1028.68C281.426 1041.74 282.595 1056.02 275.139 1067.71C269.73 1056.41 273.823 1041.06 272.703 1028.68C250.042 1028.78 275.48 1001.44 253.21 1004.31V999.439C256.475 998.026 259.886 996.321 262.956 994.566C270.461 1003.58 271.679 1017.42 272.703 1028.68Z" fill="#A3CC6B"/>
<path d="M560.22 283.083C561.828 282.206 573.377 253.99 579.712 283.083C573.28 282.644 566.701 283.375 560.22 283.083Z" fill="#D646AF"/>
<path d="M482.25 1023.8C485.223 1038.28 469.775 1039.06 472.504 1023.8C481.714 1022.29 481.763 1023.9 482.25 1023.8Z" fill="#F492D7"/>
<path d="M511.488 1004.31L516.361 994.566C514.851 998.172 513.681 1001 511.488 1004.31Z" fill="#D646AF"/>
<path d="M92.3961 546.234C106.967 563.924 104.725 581.175 121.635 585.22C114.764 600.57 115.495 627.957 131.381 629.078C106.967 676.007 53.9955 623.231 97.2692 585.268C48.5862 591.263 41.5201 548.525 92.3961 546.234Z" fill="#A8787C"/>
<path d="M38.79 473.137C39.3748 472.894 37.2794 464.804 44.7353 461.88C70.5144 451.841 56.0411 475.866 63.5458 489.365C85.5238 528.789 121.585 546.673 136.253 585.22C131.673 584.587 125.679 586.195 121.634 585.22C104.724 581.175 106.966 563.924 92.3949 546.235C83.3308 535.221 54.8228 509.588 53.4096 507.249C45.8074 494.725 55.5538 468.508 38.79 473.137Z" fill="#769448"/>
<path d="M38.7899 473.137C55.5536 468.508 45.8073 494.725 53.4094 507.249C21.2952 542.044 -12.7683 498.38 4.72643 473.137C5.79853 471.578 11.7438 483.858 38.7899 473.137Z" fill="#A8787C"/>
<path d="M175.239 677.81C171 680.929 164.957 680.783 160.62 682.683C158.865 663.97 150.581 647.06 146 629.078C143.758 620.16 143.758 608.27 141.127 599.839C177.188 600.083 162.228 654.078 175.239 677.81Z" fill="#769448"/>
<path d="M136.254 585.22C136.79 586.633 135.766 588.631 136.254 590.093L141.127 594.966C141.614 596.428 140.688 598.377 141.127 599.839C143.758 608.27 143.758 620.161 146 629.078C141.176 628.835 136.205 629.42 131.381 629.078C115.494 627.958 114.763 600.57 121.634 585.22C125.679 586.195 131.673 584.586 136.254 585.22Z" fill="#C98E8E"/>
<path d="M141.127 594.966L136.254 590.093C136.4 590.58 140.152 591.994 141.127 594.966Z" fill="#7E905A"/>
<path d="M184.984 707.049C179.282 719.621 165.442 734.046 180.111 750.907C178.697 755.926 175.774 762.993 175.237 765.527C174.653 754.562 151.067 740.673 151.018 738.87C150.482 726.59 169.682 687.848 189.857 692.429H194.73C191.709 696.717 186.982 702.663 184.984 707.049Z" fill="#D646AF"/>
<path d="M360.42 911.722C370.848 932.141 361.053 952.998 365.293 970.2C337.077 973.953 328.5 952.023 311.688 936.088C311.834 934.48 311.59 932.823 311.688 931.215C312.224 921.615 317.048 912.112 316.561 897.103C333.276 904.607 350.478 892.278 360.42 911.722Z" fill="#D219A0"/>
<path d="M311.688 936.088C309.495 962.257 315.538 988.67 301.942 1014.06C300.967 987.354 310.519 981.409 282.449 989.693V975.074C294.632 961.283 289.223 960.552 292.196 955.581C295.168 950.61 298.482 945.64 301.942 940.961C304.817 937.112 306.523 932.823 311.688 931.215C311.591 932.823 311.834 934.48 311.688 936.088Z" fill="#A3CC6B"/>
<path d="M414.025 989.693C416.949 990.326 420.896 989.01 423.771 989.693L428.644 1018.93C427.377 1019.61 424.989 1018.25 423.771 1018.93C416.997 1022.73 414.463 1018.74 414.025 1018.93C412.806 1007.48 405.887 998.464 399.405 989.693C402.134 980.775 410.321 988.864 414.025 989.693Z" fill="#D83055"/>
<path d="M336.054 731.415C334.592 732.633 312.419 771.229 328.695 765.576C334.494 763.578 333.909 748.032 336.395 746.327C337.905 745.255 365 756.219 365.293 731.415C368.46 731.22 371.871 731.269 375.039 731.415C372.651 751.054 409.541 735.021 414.366 749.299C421.432 770.303 389.171 788.918 409.151 799.542L389.707 809.288C446.382 797.057 394.922 825.37 428.644 824.005L404.327 828.878L423.771 848.274C408.079 843.595 397.212 872.932 394.532 887.308C389.61 889.647 374.942 913.477 360.42 911.674C350.478 892.23 333.276 904.559 316.561 897.054C315.684 868.838 303.111 847.884 297.068 882.435C295.947 881.947 293.949 882.678 292.195 882.435C287.371 881.704 274.847 888.623 267.829 887.308C267.488 881.704 265.539 877.513 262.956 872.688C293.121 868.692 285.714 859.141 277.576 838.576C280.256 830.925 282.108 822.446 282.4 814.259L267.878 823.956C266.708 805.097 271.825 776.346 282.449 760.654C296.483 739.846 320.801 739.602 331.18 726.542L336.054 731.415Z" fill="#D646AF"/>
<path d="M262.958 853.244C262.374 854.024 264.713 860.018 258.085 867.864C250.239 877.172 219.246 887.357 219.1 911.722C214.032 901.245 211.79 894.276 214.227 882.483C218.759 860.505 241.614 848.274 262.958 853.244Z" fill="#B10962"/>
<path d="M277.576 838.625C285.714 859.19 293.121 868.741 262.956 872.737C262.079 871.08 259.301 869.667 258.083 867.864C264.711 860.018 262.371 854.024 262.956 853.244C263.687 852.27 270.705 858.069 277.576 838.625Z" fill="#F492D7"/>
<path d="M350.673 716.795C350.43 719.427 346.775 723.472 345.8 726.542C345.264 726.639 336.492 731.074 336.054 731.415L331.181 726.542C334.689 722.107 340.342 699.837 340.927 692.429H345.8C345.605 693.94 351.258 710.753 350.673 716.795Z" fill="#769448"/>
<path d="M180.114 750.908C165.446 734.046 179.286 719.622 184.987 707.049C198.242 719.476 183.428 738.92 180.114 750.908Z" fill="#DC71C6"/>
<path d="M375.041 731.415C375.674 731.415 380.06 725.762 386.346 726.737C453.889 737.604 424.113 764.016 428.646 770.352C429.425 771.472 441.511 768.89 442.826 770.644C447.017 776.102 431.033 862.649 428.646 877.61C426.891 877.756 396.141 886.577 394.533 887.356C397.165 872.981 408.081 843.644 423.772 848.322L404.328 828.927L428.646 824.054C394.923 825.418 446.433 797.057 389.709 809.337L409.153 799.591C389.173 788.967 421.482 770.352 414.367 749.348C409.543 735.07 372.653 751.054 375.041 731.464V731.415ZM421.336 785.02V789.893L423.772 787.456L421.336 785.02Z" fill="#DC71C6"/>
<path d="M399.407 989.693C398.871 988.962 390.246 989.936 387.419 984.82C380.158 971.759 365.393 927.657 388.004 922.053C407.935 917.131 400.967 951.292 414.027 926.342C413.929 943.008 409.251 948.514 428.646 945.834C427.672 949.635 429.913 955.483 428.305 960.113C427.623 962.013 406.425 951.536 414.027 989.693C410.323 988.864 402.136 980.775 399.407 989.693Z" fill="#D646AF"/>
<path d="M428.646 945.834C409.25 948.515 413.929 943.008 414.026 926.342C414.172 905.728 424.016 898.467 443.168 894.617C430.205 908.409 433.47 926.78 428.646 945.834Z" fill="#D219A0"/>
<path d="M467.63 975.073C467.288 980.58 468.848 985.161 467.63 994.566C459.638 991.155 451.451 987.743 443.264 984.82C447.796 965.863 450.135 972.637 467.63 975.073Z" fill="#D20A62"/>
<path d="M467.628 994.566C467.433 996.174 467.823 997.831 467.628 999.439C460.22 1000.61 449.743 1001.05 443.262 1004.31V994.566C443.262 991.496 442.677 987.305 443.262 984.82C451.449 987.744 459.636 991.155 467.628 994.566Z" fill="#D83055"/>
<path d="M443.263 994.566V1004.31C437.415 1007.24 432.347 1016.98 428.644 1018.93L423.771 989.693C429.667 991.057 435.856 995.882 443.263 994.566Z" fill="#E65644"/>
<path d="M262.956 872.736C265.539 877.561 267.488 881.752 267.829 887.356C268.853 904.12 251.358 922.102 292.195 916.595C318.462 913.038 307.643 887.21 297.068 882.483C303.111 847.932 315.684 868.887 316.561 897.102C317.048 912.112 312.224 921.614 311.688 931.215C306.522 932.823 304.817 937.111 301.942 940.961C284.934 946.273 260.666 958.943 243.464 945.834C242.44 945.054 244.877 935.259 243.171 933.846C237.664 929.314 221.583 916.839 219.098 911.722C219.244 887.356 250.237 877.171 258.083 867.863C259.301 869.666 262.079 871.08 262.956 872.736Z" fill="#980D44"/>
<path d="M301.942 940.961C298.482 945.64 295.169 950.61 292.196 955.581C278.746 957.725 254.283 970.444 241.612 965.668C239.858 964.986 226.749 942.57 243.464 945.835C260.667 958.943 284.935 946.273 301.942 940.961Z" fill="#B10962"/>
<path d="M608.952 180.746C605.102 191.808 603.786 198.241 604.078 209.985C604.078 211.593 603.932 213.25 604.078 214.858C597.548 217.003 578.787 217.295 574.839 219.732C573.719 214.761 566.75 212.324 565.093 209.985C562.656 206.525 563.68 197.51 555.347 195.366V190.493C599.741 189.518 567.822 167.735 569.966 166.175C584.44 155.747 603.542 178.163 608.952 180.746Z" fill="#DC71C6"/>
<path d="M604.081 214.859C604.47 219.683 603.739 224.654 604.081 229.478C585.952 257.889 535.418 244.195 574.842 219.732C578.789 217.295 597.551 217.003 604.081 214.859Z" fill="#B10962"/>
<path d="M491.995 97.9511C499.597 90.5926 539.752 102.678 528.933 122.317C513.291 150.776 477.911 111.596 491.995 97.9511Z" fill="#7C4A52"/>
<path d="M467.627 994.566C472.452 996.613 480.005 989.254 477.374 1004.31C475.473 1004.12 470.405 1008.36 467.627 1009.19C468.212 1006.16 467.189 1002.56 467.627 999.439C467.822 997.831 467.432 996.174 467.627 994.566Z" fill="#ED6298"/>
<path d="M453.011 317.195C457.543 322.507 466.51 326.064 469.678 332.107C488.098 367.096 464.268 363.344 463.391 366.804C462.124 371.872 467.29 377.184 466.023 382.008C461.15 400.088 439.074 422.455 453.011 443.897C452.524 443.995 454.717 452.864 449.795 453.644C432.593 456.324 403.695 448.722 399.358 473.088C391.171 472.259 392.145 455.885 389.709 448.771C357.692 355.449 407.057 405.594 409.153 392.778C410.079 387.174 382.643 361.492 379.963 356.18C378.793 353.792 375.333 347.409 375.089 346.434C374.699 345.069 375.236 343.169 375.089 341.561C387.321 331.912 399.065 326.454 414.075 322.068C426.063 350.235 491.071 373.09 438.441 331.814C439.025 328.793 437.612 324.407 438.441 322.068C438.538 321.727 442.826 317.536 443.314 317.195C444.678 316.318 450.039 317.731 453.06 317.195H453.011Z" fill="#D219A0"/>
<path d="M628.444 331.815C694.037 381.326 662.02 407.251 628.444 463.39C622.109 462.757 615.189 464.316 608.951 463.39C581.32 459.248 572.256 412.514 560.22 434.151C557.442 429.619 556.419 424.649 555.346 419.532C544.869 369.484 538.144 399.503 535.854 400.039C526.351 402.183 511.975 403.645 501.742 404.912C495.845 393.606 490.29 390.098 491.995 404.912H487.122C493.75 374.309 532.248 372.554 557.052 381.277C569.771 385.761 557.003 398.333 562.364 409.639C574.742 435.759 616.115 415.195 594.332 390.293C624.887 389.805 613.776 381.813 618.698 370.751C636.485 373.675 640.237 365.245 623.571 356.132C623.961 354.572 623.084 352.672 623.571 351.259C625.471 345.703 631.66 340.733 628.444 331.766V331.815Z" fill="#F492D7"/>
<path d="M467.63 292.83C478.546 260.813 528.155 264.955 545.601 287.956C547.891 290.978 546.721 300.968 555.347 302.576C554.129 303.014 552.521 310.227 550.474 312.322C537.609 325.48 533.564 330.402 535.806 351.259C521.771 319.34 506.615 347.068 482.249 331.815C483.224 316.562 484.783 298.921 467.63 292.83Z" fill="#D219A0"/>
<path d="M560.22 434.151C572.256 412.514 581.32 459.248 608.951 463.39C607.343 469.384 615.579 485.368 613.824 487.756C607.83 495.894 573.913 490.68 565.093 492.629C541.994 484.199 536.438 485.612 530.98 463.39C557.393 465.632 553.982 445.359 560.22 434.151Z" fill="#D219A0"/>
<path d="M379.912 356.181C382.592 361.492 410.028 387.174 409.102 392.778C407.007 405.595 357.642 355.498 389.658 448.771C376.939 450.379 362.125 423.82 360.419 414.659C359.494 409.639 360.176 400.868 360.419 395.166C360.663 389.464 372.797 360.81 379.912 356.181Z" fill="#D646AF"/>
<path d="M511.489 253.844C520.017 253.795 526.839 263.834 533.272 263.834C535.757 263.834 560.123 226.652 555.688 275.237C555.298 279.477 539.802 275.676 545.601 287.956C528.155 264.955 478.546 260.813 467.63 292.83C466.363 292.391 464.462 293.073 462.757 292.83V278.21C478.254 256.671 484.881 254.039 511.489 253.844Z" fill="#D646AF"/>
<path d="M462.757 292.83C464.462 293.074 466.363 292.391 467.63 292.83C484.783 298.921 483.224 316.562 482.249 331.815C466.996 322.264 480.495 312.176 453.01 317.196C449.989 317.732 444.628 316.319 443.264 317.196L438.391 322.069C437.562 324.408 438.975 328.794 438.391 331.815C433.859 328.258 424.746 317.586 423.771 317.196C412.465 312.566 412.709 312.079 399.405 312.323C399.503 308.57 403.596 305.013 404.278 302.576C410.808 301.017 417.241 299.262 423.771 297.703C436.588 294.584 449.307 290.881 462.757 292.83Z" fill="#F492D7"/>
<path d="M535.853 400.039C526.643 406.179 537.559 414.805 545.599 419.532C548.718 436.198 539.069 445.457 526.107 453.644C524.986 454.326 522.647 453.01 521.233 453.644C519.577 444.531 524.157 427.183 520.649 420.117C517.432 413.586 502.667 419.678 501.741 419.532C500.815 419.386 504.226 409.444 499.353 409.834L491.994 424.405H487.121C486.634 419.483 486.195 409.152 487.121 404.912H491.994C495.211 404.669 498.573 405.302 501.741 404.912C511.974 403.645 526.35 402.183 535.853 400.039Z" fill="#ED6298"/>
<path d="M565.092 302.576C561.437 319.047 577.08 310.227 589.458 312.322C592.528 312.858 596.622 311.591 599.204 312.322C596.914 325.334 602.323 322.312 613.824 322.069C620.403 324.992 623.18 327.868 628.443 331.815C631.66 340.782 625.471 345.752 623.57 351.308C605.734 326.113 573.913 329.622 550.473 312.322C552.519 310.227 554.128 303.015 555.346 302.576C557.441 301.796 561.973 302.917 565.092 302.576Z" fill="#DC71C6"/>
<path d="M487.123 429.278C487.464 430.983 498.526 451.256 501.742 458.517C502.717 460.71 500.865 465.583 501.742 468.263C479.082 473.77 473.137 455.885 462.757 448.771C469.531 437.611 471.041 426.257 487.123 429.278Z" fill="#B10962"/>
<path d="M501.74 419.531C502.666 419.677 517.432 413.586 520.648 420.116C524.157 427.182 519.576 444.531 521.233 453.644C514.849 456.421 510.804 461.197 501.74 458.517C498.524 451.256 487.462 430.983 487.121 429.278C486.828 427.767 487.267 426.013 487.121 424.404H491.994L501.74 419.531Z" fill="#E65644"/>
<path d="M555.346 419.532C556.419 424.649 557.442 429.619 560.22 434.152C553.982 445.36 557.393 465.632 530.981 463.391C530.396 461.051 526.156 457.348 526.107 453.644C539.07 445.457 548.719 436.198 545.6 419.532C547.257 420.507 552.52 418.899 555.346 419.532Z" fill="#F1105B"/>
<path d="M375.04 346.434C375.284 347.408 378.744 353.792 379.913 356.18C372.798 360.81 360.713 389.22 360.42 395.165C340.977 401.842 356.035 345.41 375.04 346.434Z" fill="#F492D7"/>
<path d="M399.404 312.321C412.708 312.078 412.464 312.565 423.77 317.195C421.772 321.532 417.727 320.996 414.024 322.068C399.014 326.454 387.27 331.912 375.038 341.561C374.697 337.418 374.112 324.309 375.038 322.068C375.282 321.434 384.151 312.565 384.785 312.321C387.416 311.347 395.213 312.419 399.404 312.321Z" fill="#DC71C6"/>
<path d="M628.444 463.391C621.183 475.525 631.953 470.701 613.825 487.757C610.072 491.265 616.31 501.889 591.749 502.571C573.182 503.107 573.377 495.603 565.093 492.63C573.913 490.681 607.83 495.895 613.825 487.757C615.579 485.369 607.343 469.385 608.951 463.391C615.189 464.317 622.109 462.757 628.444 463.391Z" fill="#D646AF"/>
<path d="M565.095 302.576C577.18 301.212 593.798 298.921 589.461 312.323C577.083 310.227 561.44 319.048 565.095 302.576Z" fill="#F492D7"/>
<path d="M613.827 322.068C602.327 322.312 596.917 325.334 599.208 312.322C611.391 315.88 611.878 321.191 613.827 322.068Z" fill="#F492D7"/>
<path d="M462.756 283.083C457.834 280.062 461.294 280.257 462.756 278.21V283.083Z" fill="#F492D7"/>
<path d="M482.25 331.815C506.616 347.068 521.771 319.34 535.806 351.259C533.613 330.353 537.609 325.431 550.474 312.322C573.914 329.622 605.736 326.113 623.572 351.308C623.085 352.721 623.962 354.621 623.572 356.181C623.133 357.886 619.137 369.826 618.699 370.8C613.777 381.862 624.888 389.854 594.333 390.342C616.116 415.195 574.743 435.808 562.365 409.688C557.005 398.382 569.772 385.81 557.053 381.326C532.249 372.555 493.751 374.358 487.123 404.961C486.197 409.201 486.636 419.532 487.123 424.454C487.269 426.062 486.831 427.816 487.123 429.327C471.042 426.306 469.531 437.66 462.757 448.82C460.516 447.26 454.912 443.557 453.011 443.947C439.074 422.505 461.149 400.185 466.022 382.057C467.338 377.233 462.124 371.921 463.391 366.853C464.268 363.393 488.049 367.145 469.677 332.156C466.51 326.113 457.543 322.556 453.011 317.244C480.496 312.225 466.997 322.312 482.25 331.864V331.815Z" fill="#D646AF"/>
<path d="M438.391 331.815C491.022 373.09 426.013 350.235 414.025 322.068C417.729 320.996 421.774 321.532 423.772 317.195C424.746 317.585 433.859 328.257 438.391 331.815Z" fill="#D646AF"/>
<path d="M438.391 322.068L443.264 317.195C442.776 317.536 438.488 321.727 438.391 322.068Z" fill="#D646AF"/>
<path d="M555.346 419.532C552.52 418.898 547.257 420.507 545.6 419.532C537.559 414.805 526.643 406.179 535.853 400.039C538.144 399.503 544.869 369.485 555.346 419.532Z" fill="#D20A62"/>
<path d="M623.57 356.181C640.237 365.293 636.484 373.724 618.697 370.8C619.136 369.826 623.132 357.886 623.57 356.181Z" fill="#DC71C6"/>
<path d="M501.74 404.912C498.572 405.302 495.21 404.668 491.993 404.912C490.288 390.098 495.843 393.606 501.74 404.912Z" fill="#D646AF"/>
<path d="M501.741 419.532L491.995 424.405L499.354 409.835C504.227 409.445 500.816 419.386 501.741 419.532Z" fill="#F492D7"/>
<path d="M292.196 882.483C299.409 898.759 309.057 898.028 292.196 916.595C251.359 922.102 268.854 904.12 267.83 887.356C274.848 888.672 287.372 881.752 292.196 882.483Z" fill="#B44A20"/>
<path d="M365.296 731.415C365.003 756.171 337.909 745.255 336.398 746.327C333.913 748.033 334.497 763.578 328.698 765.576C312.422 771.278 334.595 732.682 336.057 731.415C336.495 731.074 345.267 726.639 345.803 726.542C346.826 726.347 358.132 731.854 365.296 731.415Z" fill="#DC71C6"/>
<path d="M297.068 882.484C307.643 887.211 318.462 913.038 292.195 916.596C309.056 898.029 299.408 898.76 292.195 882.484C293.95 882.727 295.948 881.996 297.068 882.484Z" fill="#B10962"/>
<path d="M360.42 414.658C362.125 423.82 376.94 450.379 389.659 448.771C392.095 455.885 391.121 472.259 399.308 473.088C403.645 448.722 432.543 456.324 449.745 453.644C454.667 452.864 452.474 443.995 452.961 443.897C454.862 443.508 460.466 447.211 462.708 448.771C473.088 455.885 479.033 473.77 501.693 468.263C510.172 493.945 512.268 478.984 518.652 487.805C537.755 514.217 567.091 544.918 550.425 580.346C544.918 505.397 501.742 565.727 482.2 555.932C479.764 554.713 499.744 514.802 451.256 542.141C392.193 575.424 472.162 551.838 467.532 590.093C448.527 582.344 420.165 580.103 413.927 604.712C388.343 598.133 407.056 553.056 379.815 541.361V512.171C368.314 531.322 363.49 514.266 345.703 512.171C317.731 508.857 316.902 510.855 292.098 512.171C279.915 512.804 249.799 505.689 248.288 507.297C244.926 510.855 256.426 530.737 238.542 526.79C237.567 518.944 239.76 510.221 238.542 502.473C235.374 482.639 234.302 463.146 243.415 443.995C244.097 442.533 263.98 420.604 265.295 419.532C270.607 415.146 304.476 396.481 310.518 396.092C338.198 394.142 332.838 428.206 360.371 414.756L360.42 414.658Z" fill="#F492D7"/>
<path d="M219.096 434.151C209.447 442.436 210.276 466.753 209.35 468.263C203.989 476.84 162.031 501.986 156.427 521.186C149.848 543.798 149.702 569.577 180.111 551.107C205.012 578.836 195.753 548.573 204.087 538.535C212.42 528.496 229.866 515.485 238.589 502.376C239.856 510.124 237.663 518.847 238.589 526.693C256.473 530.64 244.972 510.806 248.335 507.2C249.846 505.592 279.962 512.756 292.145 512.073C320.897 515.143 330.545 550.815 345.75 512.073C363.537 514.169 368.361 531.225 379.813 512.073V541.264C378.546 540.679 351.792 540.338 350.672 541.264C338.001 552.18 383.809 571.282 374.989 580.2C369.092 586.146 338.586 552.521 333.421 551.107C320.555 547.55 324.21 571.575 321.384 575.376C306.764 594.966 289.562 594.089 288.149 595.6C286.979 596.867 276.551 627.519 277.525 628.932C278.013 629.663 288.929 627.421 290.829 629.955C295.312 635.998 294.338 645.306 300.283 648.961C308.762 654.126 319.532 651.251 326.257 653.347C332.251 655.247 341.949 668.453 355.496 663.093C353.401 672.644 346.481 686.143 345.75 692.332H340.877C320.117 684.779 294.825 677.176 277.525 663.093C274.358 660.51 261.687 647.548 258.033 643.6C253.647 638.873 253.89 622.061 245.411 619.332C240.099 617.626 224.359 629.078 209.301 628.981C205.597 600.473 232.546 595.6 240.148 570.99C244.485 556.955 240.148 532.687 226.357 531.42C204.964 529.471 201.455 612.509 194.681 624.108C181.67 614.361 187.225 605.005 179.916 597.403C151.7 568.261 133.084 575.668 141.076 516.898C155.696 519.968 150.238 509.637 150.823 497.405C162.616 472.357 190.149 438.83 219.047 434.054L219.096 434.151Z" fill="#DC71C6"/>
<path d="M467.628 590.093C472.258 551.79 392.289 575.425 451.352 542.141C499.791 514.803 479.811 554.714 482.296 555.932C501.838 565.727 545.014 505.446 550.521 580.347C550.765 583.514 550.667 586.926 550.521 590.093C545.648 589.898 540.726 590.385 535.901 590.093C532.685 589.898 529.323 590.483 526.155 590.093C512.364 588.436 485.415 581.516 472.55 594.966C470.065 594.479 468.652 590.483 467.677 590.093H467.628Z" fill="#D646AF"/>
<path d="M243.464 443.898C234.351 463.05 235.423 482.542 238.59 502.376C229.867 515.485 212.47 528.399 204.088 538.535C195.706 548.671 205.014 578.836 180.112 551.108C188.933 545.747 250.481 472.504 209.351 468.264C210.277 466.753 209.449 442.436 219.098 434.152C228.064 432.641 240.004 433.323 243.464 443.898Z" fill="#D646AF"/>
<path d="M194.731 624.205C201.505 612.607 205.014 529.568 226.407 531.518C240.247 532.785 244.584 557.053 240.198 571.088C232.547 595.697 205.647 600.57 209.351 629.079C201.554 629.079 200.677 628.689 194.731 624.205Z" fill="#D646AF"/>
<path d="M521.234 648.571C522.794 648.279 524.646 648.961 526.108 648.571C522.745 667.674 512.901 669.916 496.869 672.937C481.713 658.415 484.734 656.563 482.249 643.698C494.627 656.856 505.835 651.593 521.234 648.571Z" fill="#D219A0"/>
<path d="M550.474 590.093C549.84 603.25 549.012 604.761 540.728 614.459L535.854 590.093C540.679 590.385 545.601 589.898 550.474 590.093Z" fill="#F492D7"/>
<path d="M150.873 497.503C150.289 509.734 155.746 520.065 141.127 516.995C143.612 498.77 148.339 502.814 150.873 497.503Z" fill="#F492D7"/>
<path d="M379.913 541.361C407.154 553.057 388.441 598.134 414.025 604.712C413.343 607.441 414.512 611.389 414.025 614.459C408.957 614.459 395.994 620.209 399.405 629.078C396.969 628.347 392.778 629.517 389.659 629.078C388.1 628.883 386.394 629.078 384.786 629.078C383.08 592.724 373.285 621.427 370.166 624.205C347.409 644.38 361.053 638.24 355.547 663.191C341.999 668.551 332.302 655.345 326.308 653.444C335.323 615.044 372.067 602.471 321.435 575.473C324.261 571.721 320.606 547.648 333.471 551.205C338.588 552.618 369.094 586.243 375.039 580.298C383.86 571.429 338.052 552.326 350.722 541.361C351.843 540.387 378.597 540.776 379.913 541.361ZM384.786 585.317C384.396 584.927 375.478 584.927 375.088 585.317C368.802 591.555 391.023 591.555 384.786 585.317Z" fill="#D646AF"/>
<path d="M467.63 590.093C468.605 590.482 470.018 594.478 472.503 594.966C470.505 597.061 470.262 610.852 467.63 614.458C450.233 638.093 457.543 624.448 443.264 633.951C430.253 624.205 433.323 614.41 414.025 614.458C414.513 611.388 413.343 607.441 414.025 604.712C420.263 580.102 448.625 582.344 467.63 590.093Z" fill="#D20A62"/>
<path d="M345.8 512.122C330.596 550.864 320.947 515.192 292.195 512.122C317 510.806 317.828 508.808 345.8 512.122Z" fill="#D646AF"/>
<path d="M321.437 575.473C372.069 602.471 335.325 615.044 326.31 653.444C319.536 651.3 308.815 654.224 300.336 649.058C294.391 645.452 295.365 636.096 290.882 630.053C289.03 627.519 278.114 629.761 277.578 629.03C276.604 627.568 286.983 596.964 288.202 595.697C289.615 594.186 306.817 595.015 321.437 575.473Z" fill="#F492D7"/>
<path d="M209.35 468.264C250.48 472.503 188.932 545.747 180.111 551.107C149.751 569.577 149.897 543.798 156.427 521.186C161.983 501.986 203.99 476.84 209.35 468.264Z" fill="#F492D7"/>
<path d="M370.166 624.205C374.6 638.483 380.692 629.078 384.785 629.078C386.393 629.078 388.099 628.883 389.658 629.078C389.025 633.172 384.298 646.183 384.785 648.571C385.078 650.13 384.59 651.836 384.785 653.444C378.45 658.512 375.721 664.994 375.039 672.937C374.698 677.176 374.405 683.609 375.039 687.556C377.378 702.127 383.08 708.462 394.532 716.795C374.503 723.715 369.776 718.111 350.673 716.795C351.258 710.753 345.605 693.94 345.8 692.429C346.531 686.241 353.451 672.742 355.546 663.19C361.053 638.24 347.408 644.38 370.166 624.205Z" fill="#F492D7"/>
<path d="M448.137 638.825C450.281 640.579 485.563 675.52 487.122 677.81C490.095 682.098 490.631 687.556 491.995 692.43C475.037 705.344 421.285 669.867 418.946 672.937C413.342 680.295 428.936 704.856 394.532 716.795C383.08 708.462 377.378 702.127 375.039 687.556C426.354 721.425 398.723 694.915 409.151 658.317C422.747 660.559 455.934 657.294 448.137 638.825Z" fill="#D646AF"/>
<path d="M482.249 643.698C484.734 656.563 481.713 658.415 496.869 672.937C493.019 673.668 488.877 673.083 487.122 677.81C485.563 675.52 450.281 640.579 448.137 638.825C446.431 637.411 440.437 637.509 438.391 633.951C439.706 633.269 442.192 634.682 443.264 633.951C457.542 624.449 450.232 638.094 467.63 614.459C497.064 622.353 480.397 634.146 482.249 643.698Z" fill="#C98E8E"/>
<path d="M399.407 629.079C420.8 635.658 416.901 647.256 418.997 648.523C429.279 654.809 428.451 638.971 438.392 633.952C440.439 637.509 446.433 637.412 448.138 638.825C455.935 657.294 422.749 660.559 409.153 658.318C407.837 658.123 397.652 642.041 384.787 648.571C384.3 646.184 389.027 633.172 389.66 629.079C392.779 629.517 396.97 628.348 399.407 629.079Z" fill="#D83055"/>
<path d="M414.027 614.459C433.325 614.459 430.255 624.205 443.267 633.951C442.194 634.682 439.709 633.269 438.393 633.951C428.452 638.971 429.281 654.809 418.998 648.522C416.854 647.206 420.801 635.608 399.408 629.078C395.997 620.209 408.959 614.459 414.027 614.459Z" fill="#E65644"/>
<path d="M370.166 624.205C373.285 621.428 383.08 592.725 384.786 629.078C380.692 629.078 374.601 638.484 370.166 624.205Z" fill="#D219A0"/>
<path d="M384.787 585.317C391.073 591.555 368.851 591.555 375.089 585.317C375.479 584.927 384.397 584.927 384.787 585.317Z" fill="#DC71C6"/>
<path d="M409.154 658.317C398.725 694.914 426.356 721.424 375.041 687.556C374.408 683.608 374.7 677.176 375.041 672.936C413.491 666.504 384.983 655.344 384.788 653.444C384.593 651.835 385.08 650.13 384.788 648.57C397.653 642.04 407.838 658.122 409.154 658.317Z" fill="#D219A0"/>
<path d="M384.785 653.444C384.98 655.345 413.488 666.504 375.039 672.937C375.721 664.994 378.45 658.512 384.785 653.444Z" fill="#D646AF"/>
<path d="M421.334 785.02L423.771 787.456L421.334 789.893V785.02Z" fill="#D646AF"/>
<path d="M326.308 141.761C284.74 201.555 325.236 205.502 338.637 248.971C341.464 258.132 339.368 268.171 340.928 273.336C341.659 275.773 336.152 283.863 340.928 292.829C338.735 306.279 320.753 316.903 316.562 322.068L306.815 312.371C339.222 312.224 309.593 305.743 306.815 302.576C299.506 294.145 285.13 274.555 282.449 263.59C281.67 260.471 278.21 218.123 277.576 209.985C276.748 199.654 272.703 181.136 272.703 175.873C272.703 151.264 284.399 164.421 286.689 160.717C287.176 159.889 284.594 143.028 287.371 141.761C289.126 140.932 315.782 151.946 326.308 141.761Z" fill="#F492D7"/>
<path d="M258.083 307.449C274.213 308.326 290.246 299.652 306.815 302.576C309.593 305.743 339.222 312.273 306.815 312.371L316.561 322.068C314.515 324.554 313.637 330.012 311.688 331.815H306.815C302.185 305.89 252.187 342.292 238.591 341.561C214.079 321.338 219.78 320.265 223.971 292.829C233.571 299.701 246.144 306.767 258.083 307.449Z" fill="#D646AF"/>
<path d="M253.21 219.732C269.681 226.116 271.24 246.047 266.952 260.471C266.319 262.616 229.282 294.194 258.083 297.702C258.083 300.967 258.083 304.184 258.083 307.449C246.144 306.767 233.571 299.7 223.971 292.829C228.746 261.495 248.044 239.663 253.21 219.732Z" fill="#D219A0"/>
<path d="M316.561 117.396C315.002 118.029 307.059 128.214 292.196 136.888L301.893 117.396L243.464 127.142C251.846 86.792 306.669 75.0476 316.561 117.396Z" fill="#A8787C"/>
<path d="M243.463 127.141L301.893 117.395L292.195 136.888C290.587 137.814 283.472 135.572 277.478 139.227C272.312 142.346 273.872 164.226 253.21 161.254C241.222 143.564 239.321 147.073 243.463 127.141Z" fill="#B05276"/>
<path d="M277.576 209.985C278.21 218.124 281.669 260.472 282.449 263.59C267.391 281.524 257.693 268.074 258.083 297.703C229.283 294.194 266.27 262.567 266.952 260.472C271.241 246.047 269.681 226.116 253.21 219.732C253.6 218.221 252.869 216.418 253.21 214.859L277.576 209.985Z" fill="#D646AF"/>
<path d="M316.561 117.396C320.021 115.983 347.603 122.025 340.927 132.015C339.416 131.918 337.516 131.772 336.054 132.015C318.462 134.842 329.768 136.742 326.308 141.762C315.781 151.898 289.125 140.933 287.371 141.762C284.593 143.077 287.176 159.939 286.689 160.718C284.398 164.422 272.751 151.264 272.703 175.874C269.584 176.264 265.978 175.289 262.956 175.874C259.789 170.952 256.475 166.127 253.21 161.254C273.921 164.227 272.362 142.346 277.478 139.228C283.472 135.573 290.587 137.814 292.195 136.888C307.059 128.214 315.002 118.029 316.561 117.396Z" fill="#C98E8E"/>
<path d="M238.59 341.561C252.186 342.292 302.184 305.889 306.814 331.815L277.575 351.307C270.46 352.038 246.192 352.964 241.513 351.551C235.617 349.748 239.418 342.243 238.59 341.561Z" fill="#B10962"/>
<path d="M262.957 175.874C265.978 175.289 269.584 176.264 272.703 175.874C272.703 181.137 276.748 199.655 277.576 209.986L253.21 214.859C256.329 201.117 234.497 181.234 262.957 175.874Z" fill="#B10962"/>
<path d="M306.815 331.815H311.688C300.431 342.292 306.133 348.335 277.576 351.307L306.815 331.815Z" fill="#F492D7"/>
<path d="M282.45 263.59C285.131 274.555 299.507 294.145 306.816 302.576C290.248 299.652 274.215 308.326 258.085 307.449C258.085 304.184 258.085 300.967 258.085 297.702C257.695 268.074 267.392 281.523 282.45 263.59Z" fill="#B10962"/>
</g>
<defs>
<clipPath id="clip0_209_1990">
<rect width="666.601" height="1170" fill="white"/>
</clipPath>
</defs>
</svg>
