<svg width="772" height="752" viewBox="0 0 772 752" fill="none" xmlns="http://www.w3.org/2000/svg">
<g clip-path="url(#clip0_209_2186)">
<path d="M390.759 558.156C403.427 574.09 417.45 593.571 434.58 605.96C437.567 608.151 498.12 611.537 508.238 613.967C516.325 613.21 526.085 597.076 526.205 590.025H530.188C545.326 611.139 576.559 634.364 587.952 597.953L601.895 613.927C594.645 627.392 582.176 718.898 560.066 717.424C548.394 716.627 546.561 631.934 542.1 617.951L518.197 685.634C507.402 684.2 508.079 657.668 504.334 657.788C497.721 657.987 463.183 696.948 446.571 693.601L442.547 641.813C432.907 638.387 432.548 654.203 430.636 661.732C407.132 670.018 397.651 696.549 370.88 677.667C371.797 669.699 370.522 662.608 372.633 653.605C378.091 630.3 405.26 612.852 362.913 617.871L374.824 586.081C371.478 582.655 310.767 621.855 285.271 617.991C279.813 617.154 287.183 605.601 287.223 601.976C291.366 597.037 297.859 602.215 299.174 601.976C324.112 597.554 328.972 574.13 341.919 570.704C361.081 565.685 365.463 582.257 384.823 550.188C386.297 549.75 388.807 555.686 390.759 558.156Z" fill="#769448"/>
<path d="M693.52 247.428C692.046 247.468 665.554 251.212 664.12 251.571C660.176 252.567 664.319 263.084 653.683 259.339C655.157 250.894 658.503 231.891 649.659 227.509C660.813 201.775 648.623 216.076 635.995 215.24C611.216 213.606 626.434 202.412 625.757 195.64C652.089 178.39 678.262 159.548 709.375 151.819C708.737 165.483 710.769 179.586 708.936 193.17C706.108 214.204 691.846 228.226 693.48 247.428H693.52Z" fill="#769448"/>
<path d="M430.595 661.732C426.412 678.145 427.209 695.872 420.158 713.042C415.776 723.678 391.834 761.922 381.914 748.258C364.705 724.674 367.852 703.72 370.84 677.667C397.61 696.549 407.091 670.018 430.595 661.732Z" fill="#769448"/>
<path d="M366.858 223.526C364.587 231.732 370.204 246.233 362.874 255.395C344.509 238.465 348.055 274.039 346.86 275.234C345.386 276.748 321.165 280.413 307.102 287.265C302.202 289.615 300.21 291.488 295.151 287.265C294.354 283.879 285.511 276.867 287.184 275.354C288.259 274.398 295.749 277.425 299.613 272.924C306.545 264.837 306.823 234.003 327.021 227.509C332.239 225.836 358.691 229.063 366.858 223.526Z" fill="#769448"/>
<path d="M227.428 267.346C230.097 267.266 277.384 277.385 279.216 279.337C283.558 284.077 265.034 294.953 275.233 299.215C258.262 300.172 236.471 307.86 219.461 311.127C232.249 297.144 224.919 295.152 207.51 295.192C232.607 276.23 215.995 278.899 215.477 275.313C215.238 273.76 224.679 267.426 227.428 267.346Z" fill="#769448"/>
<path d="M199.542 267.346C172.93 243.962 201.215 241.612 203.485 239.42C204.641 238.265 195.08 220.657 213.325 211.375C218.942 208.507 237.267 202.173 239.378 211.535C203.246 214.961 209.461 245.117 227.467 267.346C224.718 267.426 215.277 273.76 215.516 275.314C209.58 274.079 204.083 271.33 199.581 267.346H199.542Z" fill="#769448"/>
<path d="M115.886 227.509C118.276 228.624 121.145 233.564 123.854 235.476C135.645 270.214 127.678 260.892 114.054 283.44C110.229 289.774 114.054 299.215 107.959 305.231C103.417 309.732 76.4875 313.198 70.3127 311.405C66.09 310.21 69.9542 302.402 65.5323 298.897C61.9072 296.028 52.904 295.112 48.1236 291.208C47.6455 290.85 49.3984 286.069 47.1277 284.117C44.1797 281.568 27.8864 285.312 38.7221 274.915C44.3391 269.537 63.66 265.712 44.1399 255.355C50.8325 252.048 59.4771 251.929 60.0348 251.292C63.0624 247.866 53.2625 222.967 56.1308 215.518C58.2023 213.287 109.711 224.601 115.846 227.429L115.886 227.509Z" fill="#EA9EC1"/>
<path d="M12.3087 283.281C33.0638 282.683 8.24535 311.007 12.3486 319.134C12.7868 320.05 27.2874 315.19 32.2272 323.118C28.4825 330.209 24.3395 336.224 20.2761 343.036C19.3997 344.51 11.0738 346.383 12.3486 352.717C17.9656 360.246 25.0565 365.146 34.4979 366.699C39.2783 367.496 87.1225 367.058 92.9785 366.261C99.1532 365.425 107.559 359.728 111.941 354.987C113.096 356.78 121.621 359.29 119.868 362.875C119.709 363.194 113.853 362.198 113.176 364.03C111.264 369.129 112.857 375.623 111.264 378.053C109.431 380.802 92.6598 383.152 92.381 388.849C92.1419 393.191 111.144 395.501 84.0949 406.775C80.8283 408.13 71.2276 404.704 68.4788 407.293C65.7301 409.883 75.5698 425.021 44.2579 418.726C12.9461 412.432 3.9828 375.424 0.43731 348.972C-0.319592 343.435 4.38117 335.985 4.26166 329.253C3.86329 305.629 -9.12355 316.744 12.3486 283.281H12.3087Z" fill="#BC5878"/>
<path d="M179.622 283.281C176.834 285.592 174.563 292.165 171.655 295.232C168.627 293.24 165.918 296.826 155.72 287.265C141.259 273.72 151.736 270.573 145.681 255.475C143.689 250.535 129.189 239.301 123.851 235.477C121.142 233.565 118.273 228.625 115.883 227.509C126.241 223.127 107.358 212.331 111.939 207.631C116.839 202.571 132.177 227.549 139.785 217.59C118.433 200.42 142.972 202.253 153.728 211.614C162.891 219.582 174.762 268.9 179.662 283.281H179.622Z" fill="#D6CDCA"/>
<path d="M44.1783 255.395C63.6984 265.753 44.3376 269.617 38.7604 274.955C27.9248 285.313 44.2579 281.608 47.166 284.158C49.4367 286.11 47.7237 290.89 48.162 291.249C35.1751 297.941 38.6409 310.968 32.2272 323.118C27.2874 315.191 12.8266 320.051 12.3485 319.134C8.24534 311.008 33.0638 282.684 12.3087 283.281C17.3282 275.433 16.0932 271.33 26.2915 263.323C33.7011 257.507 38.3222 258.303 44.1783 255.395Z" fill="#CD7297"/>
<path d="M123.852 235.477C129.23 239.301 143.731 250.495 145.683 255.475C151.698 270.613 141.261 273.76 155.722 287.265C133.095 293.4 134.409 316.306 119.869 331.085C116.244 328.496 116.204 323.238 115.766 323.118C113.176 322.242 112.34 326.982 111.901 327.102C96.1657 331.563 86.2065 344.909 77.0838 346.423C67.3238 348.016 33.064 343.793 20.2764 343.037C24.3397 336.224 28.4828 330.209 32.2274 323.118C38.6412 310.968 35.1754 297.941 48.1622 291.249C52.9028 295.113 61.9458 296.029 65.571 298.937C69.9929 302.443 66.1287 310.251 70.3514 311.446C76.5261 313.199 103.456 309.733 107.997 305.271C114.092 299.216 110.268 289.775 114.092 283.48C127.677 260.933 135.684 270.254 123.892 235.517L123.852 235.477Z" fill="#DC87A5"/>
<path d="M111.902 327.102C111.782 333.476 104.333 338.694 104.651 344.391C104.811 346.821 109.91 351.96 111.902 354.988C107.519 359.728 99.1139 365.425 92.9392 366.262C87.123 367.058 39.239 367.457 34.4585 366.7C25.057 365.146 17.9262 360.246 12.3092 352.717C11.0344 346.383 19.3603 344.511 20.2367 343.037C33.0244 343.793 67.2842 348.016 77.0442 346.423C86.1669 344.909 96.1261 331.564 111.862 327.102H111.902Z" fill="#D0708F"/>
<path d="M171.657 295.232C201.336 314.872 170.263 311.605 164.606 316.107C158.949 320.608 160.025 340.328 133.812 339.491C121.821 339.093 123.693 333.834 119.869 331.086C134.41 316.306 133.095 293.4 155.722 287.265C165.921 296.826 168.63 293.24 171.657 295.232Z" fill="#769448"/>
<path d="M303.117 8.40617C306.225 18.9231 279.096 51.9878 283.239 56.1707C288.856 61.9072 300.09 33.3043 319.172 50.3545C322.518 53.3821 319.012 60.1145 325.107 63.7397C349.169 78.1208 374.027 51.6691 394.782 40.2757C401.037 45.4545 409.363 57.4454 410.717 58.2023C419.561 62.9828 428.126 56.6089 438.603 64.1779C420.636 73.6591 410.916 58.8397 402.75 80.1127C402.311 81.2679 403.228 82.9411 402.75 84.0964C390.639 100.071 364.785 89.2353 355.025 93.8564C341.281 100.39 351.559 112.221 350.364 117.599C346.141 136.442 261.169 111.584 283.239 143.812C283.079 146.003 288.816 150.624 287.222 151.739C284.394 153.691 224.639 146.003 219.619 141.701C215.038 137.757 213.763 122.778 207.628 123.973C206.314 124.212 196.036 144.569 195.597 147.835C189.224 143.095 177.193 140.227 173.647 131.781C169.066 120.906 174.803 115.488 174.524 106.525C174.404 103.138 160.302 93.3385 177.631 91.9841C182.451 91.6255 194.363 97.4816 195.597 96.0076C200.219 90.5101 188.148 69.6754 195.239 58.0032C201.732 47.287 219.181 45.4545 226.312 39.0408C236.391 29.958 243.601 9.20291 263.559 2.58998C286.107 -4.85953 289.692 5.7371 303.237 8.36633L303.117 8.40617Z" fill="#E8CDD1"/>
<path d="M402.711 80.1126L422.152 118.715L410.679 131.901C409.444 133.295 407.89 134.45 406.695 135.884C396.417 148.274 391.438 153.054 382.793 167.754C361.799 154.249 378.013 181.776 364.269 187.075C336.781 184.645 292.722 207.232 268.78 207.511C256.191 207.671 249.1 191.058 239.34 199.584C216.514 174.207 227.827 171.777 195.52 147.796C195.958 144.569 206.236 124.172 207.55 123.933C213.685 122.778 215 137.757 219.541 141.661C224.521 145.963 284.316 153.652 287.144 151.7C288.738 150.584 283.001 146.003 283.161 143.772C285.192 117.838 300.45 142.218 305.629 143.135C309.971 143.892 323.755 135.526 331.722 134.211C339.689 132.897 355.345 136.801 360.484 132.299C365.623 127.797 360.922 117.639 364.627 111.703C371.041 101.425 385.343 127.12 402.672 84.0167C403.15 82.8614 402.233 81.1882 402.672 80.033L402.711 80.1126Z" fill="#D7ADB2"/>
<path d="M394.743 40.2758C373.988 51.6692 349.17 78.1209 325.069 63.7398C318.974 60.1146 322.479 53.3822 319.133 50.3545C300.091 33.3043 288.857 61.9073 283.2 56.1707C279.097 51.9879 306.226 18.9232 303.079 8.40625C323.077 12.3103 320.248 12.0712 339.53 17.7679C372.514 27.528 364.189 14.9395 394.704 40.2758H394.743Z" fill="#F5E7E9"/>
<path d="M406.696 135.885L462.428 131.941C463.464 143.932 451.194 149.588 447.409 158.87C445.537 163.452 447.409 169.706 446.493 171.778C444.063 177.434 438.804 195.082 435.936 195.959C427.73 198.468 402.274 188.549 394.705 183.729C392.036 182.016 388.371 171.379 382.754 167.794C391.399 153.094 396.378 148.314 406.656 135.924L406.696 135.885Z" fill="#769448"/>
<path d="M382.793 167.754C381.638 169.746 382.195 178.39 378.331 185.083C372.555 195.122 351.083 208.348 340.048 210.658C326.065 213.566 292.841 204.603 291.168 223.526C266.27 222.49 255.235 217.271 239.38 199.623C249.14 191.098 256.231 207.67 268.819 207.551C292.761 207.272 336.781 184.685 364.309 187.115C378.052 181.816 361.839 154.289 382.833 167.794L382.793 167.754Z" fill="#BE9294"/>
<path d="M438.564 64.178C448.563 71.3885 446.293 101.824 446.014 113.456L410.678 131.901L422.151 118.715L402.711 80.1128C410.878 58.8398 420.598 73.6592 438.564 64.178Z" fill="#D9C9C9"/>
<path d="M394.744 183.689C393.429 196.476 379.486 195.799 376.778 199.345C375.941 200.46 367.217 222.171 366.858 223.526C358.692 229.063 332.24 225.836 327.021 227.509C327.778 210.38 301.565 223.964 291.168 223.526C292.841 204.603 326.065 213.567 340.048 210.658C351.083 208.388 372.555 195.122 378.331 185.083C382.195 178.39 381.638 169.746 382.793 167.754C388.41 171.339 392.075 181.976 394.744 183.689Z" fill="#A57E78"/>
<path d="M402.711 84.0964C385.382 127.2 371.081 101.505 364.667 111.783C360.962 117.719 365.663 127.877 360.524 132.379C355.385 136.88 339.769 132.976 331.762 134.291C323.755 135.606 310.011 143.971 305.669 143.214C300.49 142.298 285.193 117.918 283.201 143.852C261.171 111.624 346.103 136.482 350.326 117.639C351.521 112.261 341.283 100.39 354.987 93.8963C364.747 89.2752 390.561 100.071 402.711 84.1363V84.0964Z" fill="#D9C9C9"/>
<path d="M215.478 275.314C215.996 278.859 232.608 276.23 207.511 295.192C224.92 295.153 232.25 297.144 219.462 311.127C236.473 307.861 258.263 300.172 275.234 299.216C283.799 298.738 301.486 314.673 295.152 287.265C300.212 291.488 302.203 289.615 307.103 287.265C319.174 297.344 310.171 320.489 314.911 328.098C319.373 335.229 339.61 334.472 342.917 342.957C313.836 342.2 323.476 368.532 314.075 388.013C311.246 393.869 291.288 413.03 287.185 422.71C279.496 418.089 283.799 418.567 271.25 414.743C263.323 396.458 218.148 379.368 201.615 382.674C191.337 384.746 165.722 417.811 157.874 423.029C151.739 427.093 145.604 425.658 143.772 426.694C141.222 428.128 135.446 428.686 130.586 431.236C116.643 438.566 107.441 461.671 91.9839 450.596C91.0677 432.311 84.2555 439.801 80.1125 432.63C75.0134 423.706 97.1627 420.878 84.0165 406.776C111.066 395.502 92.0636 393.191 92.3026 388.849C92.5815 383.152 109.393 380.802 111.185 378.053C112.779 375.623 111.185 369.17 113.097 364.031C113.775 362.158 119.671 363.154 119.79 362.875C121.543 359.29 113.018 356.78 111.863 354.988C109.911 351.96 104.772 346.821 104.612 344.391C104.254 338.694 111.743 333.476 111.863 327.102C112.261 326.982 113.137 322.242 115.727 323.118C116.165 323.277 116.205 328.496 119.83 331.086C123.654 333.794 121.742 339.093 133.773 339.491C159.986 340.328 158.83 320.648 164.567 316.107C170.303 311.565 201.296 314.872 171.618 295.232C174.526 292.165 176.797 285.592 179.585 283.281C185.163 278.62 196.516 277.465 199.504 267.346C204.005 271.33 209.503 274.079 215.439 275.314H215.478Z" fill="#E4D0D1"/>
<path d="M247.347 410.759C225.437 413.109 258.023 418.806 259.776 421.117C260.812 422.471 270.931 451.313 271.13 452.986C273.201 468.841 259.577 490.313 267.266 510.351C260.214 508.718 228.823 503.778 227.548 502.185C226.712 501.109 235.436 475.853 217.629 482.346C203.288 487.565 206.753 510.79 209.502 522.303C203.407 513.1 180.302 508.758 175.561 504.456C167.753 497.285 177.593 483.74 163.69 486.529C156.718 505.412 170.98 514.574 173.928 524.215C178.35 538.556 169.147 528.915 183.568 550.228C184.484 551.583 186.437 552.698 187.552 554.212C197.352 567.517 198.866 575.724 183.568 586.081C157.834 567.039 153.452 556.562 131.86 535.767C127.757 531.824 115.885 532.859 115.925 528.318C115.925 524.733 129.788 514.216 127.797 504.495C122.897 495.333 112.818 504.894 107.719 500.83C104.93 498.639 104.213 483.462 91.9433 470.554C91.7043 463.941 92.262 457.249 91.9433 450.636C107.4 461.711 116.602 438.605 130.545 431.275C135.445 428.686 141.222 428.128 143.731 426.734C137.796 453.225 158.112 436.494 165.96 446.533C168.351 449.6 164.407 474.658 163.57 480.434C172.533 490.194 171.816 472.626 177.234 471.55C181.696 470.674 194.922 478.442 202.849 473.861C205.2 472.506 210.379 448.485 219.421 444.501C235.117 437.569 244.917 460.356 253.562 450.676C259.378 444.182 257.187 431.713 253.243 426.495C250.375 422.75 230.616 430.518 223.405 412.711C217.948 399.206 245.634 410.48 247.268 410.799L247.347 410.759Z" fill="#CDB4B3"/>
<path d="M183.606 550.188C169.146 528.876 178.348 538.516 173.966 524.175C171.018 514.534 156.756 505.372 163.728 486.489C177.631 483.74 167.791 497.245 175.599 504.416C180.34 508.758 203.445 513.1 209.54 522.263C206.792 510.79 203.326 487.565 217.667 482.306C235.474 475.813 226.71 501.069 227.586 502.145C228.821 503.739 260.213 508.678 267.304 510.312C268.021 510.471 271.367 506.607 273.439 507.244C277.701 508.559 283.159 533.576 303.157 506.328C308.216 509.196 306.145 514.455 307.141 518.279C299.293 521.227 301.006 535.409 298.576 537.719C296.146 540.03 289.652 537.321 287.222 538.197C276.546 518.399 278.737 543.376 274.873 546.045C273.319 547.121 266.507 542.301 263.201 544.173C259.575 546.205 256.787 556.522 251.648 560.387C233.124 574.29 220.017 571.9 215.556 601.937C178.348 597.913 197.31 596.081 183.686 586.002C198.984 575.644 197.47 567.438 187.67 554.132C204.322 541.743 219.858 553.853 228.622 553.136C234.598 552.658 263.48 538.436 267.304 530.27C249.696 519.076 244.278 535.887 236.908 537.082C224.121 539.154 199.86 536.206 185.558 538.158C173.926 539.751 184.324 542.858 183.646 550.149L183.606 550.188Z" fill="#C1A4A5"/>
<path d="M287.184 538.237C263.64 546.842 298.139 562.458 299.454 563.733C312.56 576.082 307.262 588.392 299.135 601.976C297.82 602.215 291.327 597.037 287.184 601.976C287.304 568.235 259.139 603.809 244.997 605.96C235.595 607.394 225.238 603.052 215.478 601.976C219.979 571.939 233.085 574.33 251.57 560.426C256.749 556.562 259.497 546.245 263.123 544.213C266.469 542.341 273.281 547.161 274.795 546.085C278.659 543.416 276.468 518.438 287.144 538.237H287.184Z" fill="#A69290"/>
<path d="M84.0149 406.776C97.1611 420.838 75.0117 423.667 80.1109 432.63C84.2141 439.841 91.066 432.311 91.9823 450.597C92.301 457.21 91.7432 463.902 91.9823 470.515C91.305 469.798 84.6124 470.993 81.9433 466.691C78.9157 461.831 80.9873 451.792 79.9117 450.756C78.1588 449.043 66.885 452.588 60.9891 449.72C57.8818 448.206 45.7714 424.583 44.2178 418.767C75.5296 425.021 65.8094 409.804 68.4386 407.334C71.0679 404.864 80.7881 408.17 84.0547 406.816L84.0149 406.776Z" fill="#B6A6A2"/>
<path d="M271.249 414.743C268.421 413.867 253.482 411.835 247.347 410.76C245.714 410.481 218.027 399.207 223.485 412.672C230.655 430.439 250.454 422.671 253.323 426.455C257.266 431.674 259.458 444.103 253.641 450.636C244.997 460.317 235.197 437.53 219.501 444.462C210.498 448.445 205.279 472.467 202.929 473.822C195.001 478.443 181.775 470.635 177.314 471.511C171.896 472.587 172.653 490.155 163.65 480.395C164.486 474.618 168.43 449.561 166.04 446.493C158.192 436.454 137.835 453.186 143.811 426.694C145.643 425.659 151.778 427.093 157.913 423.029C165.761 417.811 191.376 384.746 201.654 382.675C218.186 379.368 263.362 396.458 271.289 414.743H271.249Z" fill="#E0C7C4"/>
<path d="M287.184 422.711C306.704 434.462 302.123 447.25 319.053 462.547C317.739 465.217 316.384 467.846 315.07 470.515C284.714 478.482 285.192 458.843 287.144 434.701L279.256 450.596C277.145 438.645 276.109 426.057 271.249 414.783C283.798 418.607 279.495 418.129 287.184 422.75V422.711Z" fill="#D1A6A8"/>
<path d="M307.101 518.319C310.367 531.107 313.275 540.269 311.124 554.133C339.249 556.164 326.541 539.712 332.835 530.111C335.425 526.207 345.862 526.764 350.682 520.032C358.729 508.718 348.212 487.924 362.872 490.433C361.478 500.512 366.497 523.817 371.756 531.425C378.568 541.225 393.626 536.883 390.798 558.156C388.846 555.686 386.336 549.79 384.862 550.189C365.462 582.297 361.08 565.685 341.958 570.705C329.011 574.091 324.111 597.555 299.213 601.977C307.34 588.392 312.638 576.083 299.532 563.733C298.217 562.498 263.718 546.842 287.262 538.238C289.652 537.361 296.185 540.03 298.615 537.76C301.045 535.489 299.332 521.267 307.18 518.319H307.101Z" fill="#907273"/>
<path d="M247.348 410.759C253.483 411.835 268.421 413.867 271.25 414.743C276.15 426.017 277.146 438.605 279.257 450.556L287.145 434.661C285.193 458.843 284.715 478.482 315.07 470.475C314.194 472.268 310.808 495.851 303.119 506.328C283.121 533.577 277.664 508.519 273.401 507.244C271.329 506.607 267.983 510.511 267.266 510.312C259.578 490.274 273.202 468.802 271.13 452.947C270.931 451.273 260.813 422.392 259.777 421.077C258.024 418.806 225.437 413.07 247.348 410.719V410.759Z" fill="#C98C8E"/>
<path d="M183.609 550.188C184.286 542.938 173.889 539.791 185.521 538.197C199.823 536.245 224.083 539.193 236.871 537.122C244.241 535.926 249.659 519.115 267.266 530.309C263.402 538.476 234.56 552.698 228.585 553.176C219.781 553.893 204.244 541.782 187.632 554.172C186.517 552.658 184.565 551.543 183.649 550.188H183.609Z" fill="#BE868C"/>
<path d="M446.532 171.737C454.539 198.109 476.091 179.784 482.345 178.31C488.6 176.836 498.599 178.709 503.26 175.84C512.183 170.383 506.566 131.462 540.228 133.494C557.637 134.53 571.779 170.582 574.09 171.737C576.759 173.052 583.013 162.376 588.75 160.663C617.592 152.018 623.408 172.295 625.798 195.639C626.475 202.412 611.258 213.646 636.036 215.239C648.664 216.076 660.854 201.734 649.7 227.509C647.668 226.513 607.114 220.139 604.565 220.418C592.375 221.772 592.096 234.281 587.674 235.237C586.16 235.556 565.604 228.903 558.075 227.469C541.901 224.402 527.68 216.355 510.311 219.462C514.494 206.037 551.183 214.124 554.092 211.534C553.932 188.19 503.1 204.244 498.36 217.55C497.244 220.697 511.107 216.872 506.287 227.469C481.23 224.8 477.724 234.082 466.45 251.411C457.049 250.176 442.867 264.318 440.556 271.569C435.577 287.145 449.918 286.388 450.436 287.344C455.973 297.224 442.946 294.594 442.548 295.232C438.883 287.742 426.972 292.881 422.63 291.248C400.122 282.842 404.783 254.399 394.784 249.18C380.761 241.89 375.941 260.852 368.81 263.322C359.608 266.509 363.91 256.311 362.874 255.395C370.204 246.232 364.587 231.732 366.858 223.525C367.216 222.171 375.941 200.46 376.777 199.344C379.446 195.839 393.429 196.476 394.744 183.688C402.313 188.509 427.729 198.428 435.975 195.918C438.883 195.042 444.102 177.354 446.532 171.737Z" fill="#EBCED5"/>
<path d="M649.7 227.51C658.544 231.892 655.198 250.894 653.724 259.339C664.32 263.044 660.217 252.567 664.161 251.571C665.595 251.213 692.047 247.468 693.561 247.428C701.09 247.189 711.567 248.065 715.391 255.435L733.398 311.167C722.681 308.219 705.711 335.627 701.528 343.037C681.968 337.738 691.011 323.198 683.482 311.287C678.064 302.722 668.424 304.753 666.511 302.363C663.842 298.977 667.149 288.819 661.97 284.994C639.701 268.502 634.323 301.766 651.891 315.31C659.261 321.007 672.766 311.048 679.498 327.221C687.744 347.14 669.579 358.015 701.488 343.037C698.222 348.893 696.588 367.536 689.776 376.061C683.522 383.949 669.579 377.894 673.602 394.825C672.288 394.785 670.893 395.024 669.619 394.825C651.851 392.195 642.569 379.169 617.87 394.825C615.401 385.304 621.376 387.176 625.798 382.874C639.024 370.086 653.644 369.05 659.699 351.044L663.643 362.955L673.563 344.989C647.469 344.63 662.408 334.512 657.19 327.62C656.074 326.146 645.756 326.265 641.733 323.118C624.683 309.852 636.355 250.256 577.994 255.395C582.097 248.464 568.034 244.281 562.059 243.444C578.99 244.998 561.939 236.074 558.075 227.51C565.604 228.944 586.2 235.596 587.674 235.278C592.096 234.322 592.375 221.813 604.565 220.458C607.114 220.18 647.629 226.514 649.7 227.549V227.51Z" fill="#E1ABBD"/>
<path d="M657.667 502.384C664.399 504.216 701.129 500.033 705.312 496.289C710.052 492.066 725.549 441.154 729.413 438.684C730.25 438.166 744.87 449.719 745.308 450.635C757.1 474.338 756.223 534.891 719.374 534.532C711.048 534.452 687.186 520.748 681.609 526.365C678.263 529.712 691.847 555.885 675.872 574.409C657.508 595.682 618.427 583.253 601.935 613.967L587.992 597.992C576.599 634.403 545.367 611.218 530.229 590.065C537.24 574.13 552.856 586.559 563.891 585.922C587.952 584.488 583.371 553.614 596.477 550.985C608.229 548.634 662.009 576.56 661.73 530.349L629.821 526.365C629.183 525.609 630.498 522.94 629.821 522.382L657.707 502.463L657.667 502.384Z" fill="#B7A0A6"/>
<path d="M729.374 390.84C731.804 384.387 732.003 376.419 741.325 378.889L749.292 414.742C746.862 423.148 729.573 434.581 753.276 438.645C751.165 439.919 747.978 448.086 745.308 450.596C744.87 449.719 730.25 438.127 729.414 438.645C725.549 441.114 710.053 492.026 705.312 496.249C701.129 499.993 664.4 504.176 657.667 502.344C662.647 481.549 643.406 494.616 638.028 489.875C636.633 488.68 638.864 480.075 637.47 478.96C633.765 475.892 615.639 480.473 608.588 478.561C603.25 477.127 603.848 467.885 601.896 466.491C602.692 463.941 605.6 460.754 605.879 458.523C630.817 456.97 680.255 476.211 692.405 451.392C697.703 440.557 693.202 431.633 693.52 430.637C695.074 425.339 703.759 397.493 705.193 396.417C712.602 390.761 726.904 400.481 729.374 398.768C730.25 398.13 728.736 392.553 729.374 390.8V390.84Z" fill="#AD8A90"/>
<path d="M733.359 311.167C738.219 315.788 744.235 318.696 749.294 323.118L738.976 356.78C751.007 377.257 756.026 391.239 749.294 414.743L741.326 378.89C732.044 376.46 731.805 384.387 729.375 390.841C717.823 395.582 718.5 381.997 711.847 382.714C699.418 383.989 692.566 395.701 673.604 394.825C669.58 377.894 683.523 383.949 689.777 376.062C696.59 367.536 698.183 348.893 701.49 343.037C705.672 335.627 722.643 308.219 733.359 311.167Z" fill="#CA96A5"/>
<path d="M749.293 323.118C750.21 323.915 755.667 322.76 759.093 327.102C766.264 336.224 761.005 344.192 762.121 349.052C764.989 361.72 772.757 390.203 771.961 409.644C771.881 411.875 766.224 437.609 765.228 438.725C764.232 439.84 759.97 434.701 753.277 438.645C729.574 434.582 746.863 423.149 749.293 414.743C756.066 391.239 751.006 377.296 738.976 356.78L749.293 323.118Z" fill="#C9B9BC"/>
<path d="M422.628 291.248C391.874 304.673 425.337 310.011 426.612 311.207C434.141 318.258 418.565 319.453 418.485 321.166C418.087 331.284 434.579 347.896 434.779 349.57C435.058 352.199 430.596 354.469 430.596 354.987L410.717 339.092C411.036 350.486 417.45 381.598 406.933 389.207C401.355 393.231 389.365 373.79 398.726 406.815C397.77 407.333 400.838 415.181 396.734 414.783L382.831 398.848C386.616 430.598 394.464 417.173 404.383 419.165C416.015 421.515 414.063 438.764 394.743 434.701C377.413 431.076 364.028 387.255 341.361 395.063C320.765 402.154 362.116 424.423 354.906 430.678C342.437 441.434 286.824 392.793 327.06 454.62C324.869 457.169 320.287 460.157 319.092 462.587C302.162 447.29 306.743 434.502 287.223 422.75C291.366 413.109 311.284 393.908 314.113 388.052C323.514 368.612 313.874 342.279 342.955 342.996C339.648 334.511 319.411 335.268 314.949 328.137C310.209 320.528 319.212 297.383 307.141 287.304C321.243 280.492 345.424 276.827 346.898 275.274C348.094 274.039 344.548 238.464 362.913 255.435C363.909 256.351 359.646 266.549 368.849 263.362C375.979 260.893 380.8 241.93 394.822 249.22C404.821 254.439 400.16 282.883 422.668 291.288L422.628 291.248Z" fill="#DFB7BF"/>
<path d="M327.021 454.58C335.985 444.143 336.423 430.04 358.572 444.939C364.787 449.122 381.956 488.441 386.777 462.547C389.087 485.772 409.882 492.465 418.646 510.352C413.587 509.396 397.533 508.001 395.501 505.571C392.951 502.544 396.377 490.154 388.729 486.489C380.243 484.298 378.53 499.715 379.447 503.54C380.283 506.966 423.984 553.933 426.893 555.925C444.7 568.354 461.909 556.204 478.442 566.123C470.833 571.78 464.777 577.318 454.539 578.075C416.216 567.199 447.488 584.608 434.621 605.96C417.491 593.571 403.468 574.091 390.8 558.156C393.629 536.883 378.57 541.265 371.758 531.425C366.5 523.817 361.48 500.512 362.875 490.433C348.215 487.924 358.732 508.718 350.684 520.032C345.904 526.765 335.427 526.207 332.838 530.111C326.543 539.672 339.251 556.164 311.126 554.133C313.317 540.269 310.369 531.067 307.103 518.319C306.107 514.495 308.178 509.236 303.119 506.368C310.808 495.891 314.194 472.307 315.07 470.515C316.385 467.846 317.739 465.216 319.054 462.547C320.249 460.117 324.83 457.13 327.021 454.58Z" fill="#BD999E"/>
<path d="M629.781 522.303C630.458 522.861 629.144 525.53 629.781 526.287C632.092 529.035 640.378 530.071 637.709 536.206C619.782 558.953 601.059 527.641 584.208 530.151C574.806 531.545 569.707 542.859 560.903 547.081C550.824 551.902 520.469 559.511 518.795 568.673C517.799 574.091 526.325 582.536 526.205 590.065C526.086 597.156 516.325 613.29 508.239 614.007C498.12 611.538 437.568 608.151 434.58 606C447.447 584.648 416.175 567.239 454.499 578.114C455.216 578.314 456.889 585.086 460.275 585.166C464.537 585.285 470.433 576.601 479.516 578.672C486.687 580.305 492.742 595.722 500.112 594.049C516.963 590.265 512.66 548.356 514.373 546.404C515.13 545.528 525.608 546.603 530.109 544.372C540.307 539.313 569.508 520.391 576.917 518.996C591.418 516.248 609.783 530.908 609.823 514.375C617.631 514.614 623.766 517.443 629.741 522.343L629.781 522.303Z" fill="#998485"/>
<path d="M629.782 526.286L661.691 530.27C662.01 576.521 608.19 548.555 596.438 550.906C583.372 553.535 587.913 584.369 563.851 585.843C552.817 586.52 537.201 574.051 530.189 589.986H526.206C526.325 582.496 517.84 574.011 518.796 568.593C520.469 559.431 550.825 551.822 560.904 547.002C569.747 542.779 574.807 531.465 584.208 530.071C601.059 527.601 619.783 558.873 637.709 536.126C640.338 530.031 632.092 528.956 629.782 526.207V526.286Z" fill="#AD8A90"/>
<path d="M466.451 251.411C477.725 234.082 481.19 224.84 506.288 227.469C511.108 216.873 497.245 220.697 498.36 217.55C503.101 204.244 553.933 188.19 554.092 211.535C551.184 214.124 514.494 206.077 510.311 219.462C527.68 216.355 541.902 224.402 558.076 227.469C561.94 236.034 578.99 244.958 562.059 243.404C552.299 242.05 536.922 245.834 529.035 243.484C521.824 241.333 522.661 219.303 492.464 240.137C485.254 245.117 490.592 247.149 490.353 247.428C477.645 261.092 479.517 266.669 478.402 267.346C476.051 268.78 457.806 263.761 467.247 278.58C468.403 280.413 477.525 281.369 480.354 287.185C493.42 314.075 474.179 325.986 474.378 351.004C473.064 351.004 470.753 350.685 470.395 351.004C466.69 351.362 463.543 351.482 462.427 347.02C480.712 324.552 468.084 305.55 458.563 281.926C457.129 278.341 449.4 280.532 450.516 277.345C450.994 275.911 464.18 254.917 466.451 251.411Z" fill="#EB8DAA"/>
<path d="M422.629 291.249C426.971 292.882 438.883 287.743 442.548 295.232C440.835 298.14 443.743 313.637 442.548 319.095C455.813 322.6 448.443 309.056 450.515 307.143C464.936 293.758 461.829 344.511 462.466 346.98C463.581 351.442 466.729 351.323 470.433 350.964C468.88 352.239 475.772 364.708 458.522 354.948L462.426 374.866C451.352 360.007 448.603 360.764 430.596 366.899C430.836 362.995 430.756 358.852 430.596 354.948C430.596 354.43 435.058 352.159 434.779 349.53C434.58 347.857 418.088 331.245 418.486 321.126C418.566 319.453 434.142 318.218 426.613 311.167C425.378 310.012 391.915 304.674 422.629 291.209V291.249Z" fill="#E990A9"/>
<path d="M466.449 251.412C464.179 254.917 451.033 275.872 450.515 277.346C449.399 280.532 457.128 278.341 458.562 281.927C468.083 305.55 480.711 324.552 462.426 347.02C461.789 344.55 464.896 293.798 450.475 307.183C448.443 309.096 455.773 322.64 442.507 319.134C443.663 313.677 440.755 298.14 442.507 295.272C442.906 294.635 455.932 297.264 450.395 287.384C449.877 286.428 435.536 287.225 440.516 271.609C442.826 264.359 456.968 250.217 466.41 251.452L466.449 251.412Z" fill="#E9C0CB"/>
<path d="M613.847 374.906C615.202 374.906 617.154 374.547 617.831 374.906C618.468 375.225 615.799 386.06 625.798 382.873C621.337 387.176 615.401 385.264 617.871 394.824C642.57 379.168 651.852 392.235 669.619 394.824C667.946 426.296 660.058 413.548 649.979 420.878C644.561 424.822 638.905 434.064 637.749 434.661C630.22 438.804 607.234 441.712 606.079 442.868C604.486 444.421 606.398 454.5 605.88 458.564C605.601 460.794 602.693 463.981 601.896 466.531C600.821 465.774 594.048 467.407 590.224 464.38C585.802 460.874 580.105 447.17 576.002 447.051C569.987 446.851 556.88 467.646 550.307 469.08C539.472 471.471 539.511 462.946 538.117 462.547C561.94 460.516 541.862 442.908 543.854 438.645C548.276 429.204 565.485 433.148 569.588 424.304C577.954 406.258 559.47 411.875 558.036 410.759C554.132 407.652 554.291 395.342 558.036 390.841C554.849 397.812 571.421 406.975 576.161 406.895C586.718 406.736 584.169 396.498 585.922 394.824C591.857 389.247 606.477 374.786 613.807 374.906H613.847Z" fill="#D4A1AD"/>
<path d="M673.602 394.825C692.565 395.661 699.417 383.989 711.846 382.714C718.499 382.037 717.861 395.582 729.374 390.841C728.697 392.594 730.25 398.171 729.374 398.808C726.944 400.521 712.603 390.801 705.193 396.458C703.759 397.574 695.074 425.38 693.521 430.678C666.272 441.514 667.268 454.062 637.749 434.662C638.904 434.024 644.521 424.782 649.979 420.878C660.058 413.588 667.945 426.336 669.619 394.825C670.893 395.024 672.288 394.785 673.602 394.825Z" fill="#BD7587"/>
<path d="M641.731 323.118C643.245 331.922 641.891 335.627 637.748 343.037C634.64 327.46 621.693 280.811 606.874 275.752C602.253 274.159 598.349 279.417 597.911 279.298C592.891 277.863 589.864 271.251 580.183 271.091C562.456 270.773 553.732 287.464 530.188 275.314C530.188 274.557 525.806 270.175 526.204 267.347C555.285 270.932 545.525 264.996 566.041 259.379C569.627 258.383 575.961 255.555 577.992 255.395C636.353 250.256 624.681 309.853 641.731 323.118Z" fill="#DF7595"/>
<path d="M641.732 323.118C645.756 326.265 656.074 326.146 657.189 327.62C662.408 334.511 647.469 344.63 673.562 344.989L663.643 362.955L659.699 351.044C653.683 369.09 639.063 370.086 625.797 382.873C615.798 386.06 618.467 375.225 617.83 374.906C619.782 360.525 631.853 353.593 637.749 343.037C641.892 335.627 643.246 331.922 641.732 323.118Z" fill="#E689AB"/>
<path d="M701.486 343.037C669.537 358.015 687.742 347.14 679.496 327.221C672.764 311.008 659.259 320.967 651.889 315.31C634.321 301.766 639.699 268.502 661.968 284.994C667.107 288.819 663.84 298.937 666.509 302.363C668.381 304.753 678.062 302.722 683.48 311.287C691.009 323.198 681.966 337.738 701.526 343.037H701.486Z" fill="#E587A7"/>
<path d="M490.351 247.427C490.59 247.148 485.251 245.157 492.462 240.137C522.658 219.342 521.822 241.332 529.032 243.483C536.92 245.834 552.337 242.049 562.057 243.404C568.033 244.24 582.095 248.423 577.992 255.355C575.96 255.514 569.626 258.343 566.041 259.339C551.102 241.81 513.336 252.646 494.334 259.299L490.351 247.387V247.427Z" fill="#EEC6D1"/>
<path d="M601.895 466.531C603.847 467.925 603.249 477.167 608.588 478.602C615.639 480.514 633.765 475.933 637.469 479C638.864 480.155 636.633 488.72 638.027 489.915C643.445 494.656 662.686 481.589 657.667 502.384L629.781 522.303C623.805 517.403 617.67 514.574 609.862 514.335C609.862 511.626 601.337 505.452 609.743 500.273C618.985 494.576 637.987 505.332 627.47 486.091C589.466 480.354 552.577 479.119 514.294 482.466C507.083 462.348 506.685 478.801 506.326 450.596C516.445 458.205 527.32 459.121 538.196 462.547C539.59 462.986 539.55 471.471 550.386 469.081C556.959 467.646 570.065 446.852 576.081 447.051C580.184 447.17 585.841 460.874 590.302 464.38C594.127 467.368 600.859 465.734 601.975 466.531H601.895Z" fill="#B07881"/>
<path d="M693.52 430.678C693.241 431.674 697.743 440.597 692.404 451.433C680.254 476.211 630.817 457.01 605.879 458.564C606.396 454.5 604.524 444.421 606.078 442.868C607.233 441.713 630.219 438.804 637.748 434.661C667.267 454.062 666.271 441.513 693.52 430.678Z" fill="#A16B74"/>
<path d="M394.742 434.662C414.063 438.725 416.015 421.476 404.383 419.125C394.463 417.133 386.616 430.558 382.831 398.808L396.734 414.743C400.837 415.141 397.77 407.294 398.726 406.776C400.041 406.059 418.127 414.663 420.676 418.687C424.62 419.324 421.672 413.269 422.628 410.759L442.507 432.71C441.63 440.836 423.744 419.404 422.748 432.67C422.349 437.968 435.137 445.378 438.563 450.636C441.112 454.5 444.22 458.882 446.53 462.587C438.404 465.017 405.697 438.725 402.75 442.669C400.319 445.935 403.387 467.049 406.972 472.268C407.968 473.742 433.026 493.58 434.579 494.457L438.563 510.392C435.256 509.953 428.962 512.304 418.644 510.392C409.88 492.505 389.085 485.812 386.775 462.587C385.699 451.791 389.404 443.585 394.742 434.701V434.662Z" fill="#CB788D"/>
<path d="M394.743 434.661C389.405 443.545 385.7 451.751 386.776 462.547C381.956 488.441 364.786 449.122 358.571 444.939C336.382 430.04 335.984 444.143 327.02 454.58C286.825 392.753 342.437 441.434 354.867 430.638C362.117 424.383 320.766 402.115 341.322 395.024C363.989 387.176 377.374 431.036 394.703 434.661H394.743Z" fill="#D4A1AA"/>
<path d="M398.728 406.776C389.366 373.751 401.317 393.231 406.934 389.168C417.411 381.599 411.037 350.486 410.719 339.053L430.597 354.948C430.757 358.852 430.836 362.995 430.597 366.899C429.641 381.917 428.048 396.338 422.63 410.72C421.674 413.269 424.622 419.284 420.678 418.647C418.168 414.584 400.042 405.979 398.728 406.736V406.776Z" fill="#DC6484"/>
<path d="M514.253 482.466C552.576 479.119 589.425 480.354 627.43 486.091C637.947 505.332 618.984 494.536 609.702 500.273C601.297 505.452 609.822 511.626 609.822 514.335C609.782 530.907 591.417 516.247 576.916 518.956C569.507 520.351 540.306 539.273 530.108 544.333C525.606 546.563 515.129 545.488 514.372 546.364C512.659 548.316 516.962 590.225 500.111 594.009C492.741 595.682 486.646 580.265 479.515 578.632C470.432 576.561 464.536 585.245 460.274 585.126C456.848 585.046 455.214 578.313 454.497 578.074C464.736 577.318 470.791 571.78 478.4 566.123C525.806 530.868 430.117 571.501 454.497 518.319C486.606 522.94 476.806 498.799 482.503 494.417C487.682 490.393 527.479 519.275 514.253 482.466Z" fill="#976E74"/>
<path d="M478.402 566.123C461.87 556.204 444.621 568.394 426.853 555.925C423.945 553.894 380.244 506.966 379.408 503.54C378.491 499.715 380.204 484.298 388.69 486.489C396.338 490.194 392.912 502.584 395.462 505.571C397.494 507.962 413.548 509.396 418.607 510.352C428.925 512.264 435.219 509.914 438.526 510.352C442.987 510.949 449.959 517.682 454.46 518.319C430.08 571.501 525.769 530.868 478.363 566.123H478.402Z" fill="#B4808D"/>
<path d="M490.353 362.955C474.737 389.247 501.188 403.031 506.287 434.661C480.712 439.163 462.427 442.867 438.565 450.596C435.139 445.337 422.351 437.968 422.749 432.629C423.745 419.404 441.632 440.796 442.509 432.669L422.63 410.719C428.048 396.338 429.641 381.917 430.597 366.898C448.604 360.764 451.352 360.007 462.427 374.866L458.523 354.947C475.772 364.707 468.881 352.238 470.434 350.964C470.793 350.645 473.103 350.964 474.418 350.964C482.505 351.083 487.644 361.6 490.353 362.915V362.955Z" fill="#DA96A6"/>
<path d="M526.205 267.346C525.807 270.174 530.189 274.557 530.189 275.313C530.189 300.371 536.443 296.825 562.058 303.199C561.262 304.116 564.09 311.565 561.301 314.274C560.584 314.991 550.904 316.664 546.124 319.134C544.331 320.05 538.754 318.178 534.451 321.245C522.182 330.01 517.999 356.939 514.254 370.922C510.071 367.337 497.323 366.381 490.352 362.955C487.643 361.64 482.504 351.123 474.417 351.004C474.218 325.986 493.459 314.115 480.393 287.185C477.564 281.369 468.442 280.413 467.286 278.58C457.845 263.761 476.09 268.78 478.441 267.346C486.328 263.004 504.972 276.031 506.207 275.274C512.86 271.33 497.602 263.801 526.245 267.346H526.205Z" fill="#E9C0CB"/>
<path d="M490.352 247.428L494.336 259.339C513.338 252.686 551.104 241.851 566.043 259.379C545.527 264.996 555.287 270.932 526.206 267.346C497.125 263.761 512.82 271.37 506.168 275.274C504.933 275.991 486.289 262.964 478.401 267.346C479.517 266.669 477.644 261.092 490.352 247.428Z" fill="#DC3962"/>
<path d="M514.254 370.922C522.381 377.894 528.635 421.197 558.075 410.759C559.509 411.875 577.993 406.258 569.628 424.304C565.524 433.148 548.315 429.204 543.893 438.645C541.901 442.908 561.979 460.516 538.156 462.547C527.281 459.121 516.405 458.205 506.287 450.596C506.207 444.382 508.119 446.135 506.287 434.662C501.188 403.031 474.736 389.247 490.352 362.955C497.323 366.381 510.071 367.337 514.254 370.922Z" fill="#DFB3BE"/>
<path d="M546.123 319.134C550.306 338.654 527.759 372.755 554.091 378.89C560.425 380.364 573.053 375.822 566.002 390.841C565.803 391.279 561.182 387.136 558.075 390.841C554.33 395.342 554.171 407.652 558.075 410.759C528.635 421.197 522.381 377.894 514.254 370.922C517.999 356.94 522.181 330.01 534.451 321.246C538.754 318.178 544.331 320.051 546.123 319.134Z" fill="#DA7B96"/>
<path d="M597.912 347.02C596.598 348.693 596.877 354.111 592.256 359.091C581.3 370.962 553.813 367.138 585.961 394.824C584.209 396.497 586.758 406.696 576.201 406.895C571.461 406.975 554.928 397.812 558.075 390.841C561.183 387.136 565.804 391.279 566.003 390.841C573.054 375.822 560.426 380.363 554.092 378.89C560.824 361.242 542.34 335.427 562.219 321.325C591.1 300.809 578.074 337.778 597.912 347.02Z" fill="#E3B0BE"/>
<path d="M637.749 343.036C631.853 353.593 619.782 360.525 617.83 374.906C617.153 374.547 615.201 374.906 613.847 374.906C614.843 356.78 622.133 345.148 613.847 327.102C606.995 312.163 587.634 311.326 585.961 295.232C592.853 291.328 597.474 288.021 597.912 279.297C598.39 279.417 602.254 274.198 606.875 275.752C621.655 280.811 634.642 327.42 637.749 343.036Z" fill="#D64D70"/>
<path d="M613.845 374.906C606.515 374.787 591.895 389.247 585.96 394.825C553.771 367.138 581.299 371.002 592.254 359.091C596.875 354.071 596.636 348.654 597.911 347.02C603.368 340.049 606.197 331.444 613.845 327.102C622.132 345.148 614.841 356.78 613.845 374.906Z" fill="#D96E8D"/>
<path d="M597.912 279.297C597.474 288.021 592.853 291.328 585.961 295.232C580.264 298.458 562.856 302.243 562.059 303.199C536.444 296.825 530.189 300.371 530.189 275.313C553.733 287.463 562.457 270.772 580.185 271.09C589.865 271.25 592.893 277.863 597.912 279.297Z" fill="#F0DAE0"/>
<path d="M506.287 450.596C506.645 478.801 507.043 462.348 514.254 482.466C527.44 519.315 487.683 490.433 482.504 494.417C476.847 498.799 486.647 522.9 454.499 518.319C449.997 517.682 443.026 510.949 438.564 510.352L434.58 494.417C434.939 494.616 439.082 490.394 442.826 492.306C452.148 497.086 488.918 519.953 465.095 491.469C453.662 477.765 456.65 478.681 446.531 462.547C444.221 458.843 441.113 454.461 438.564 450.596C462.426 442.868 480.711 439.163 506.287 434.662C508.119 446.135 506.207 444.382 506.287 450.596Z" fill="#C87C8E"/>
<path d="M446.533 462.548C456.652 478.682 453.664 477.765 465.097 491.469C488.88 519.953 452.11 497.086 442.828 492.306C439.124 490.394 434.941 494.617 434.582 494.417C433.068 493.541 408.011 473.662 406.975 472.228C403.39 467.01 400.322 445.896 402.752 442.629C405.7 438.685 438.406 464.978 446.533 462.548Z" fill="#BF546E"/>
<path d="M613.846 327.102C606.198 331.444 603.369 340.049 597.912 347.02C578.073 337.778 591.099 300.77 562.218 321.325C542.339 335.467 560.823 361.242 554.091 378.89C527.759 372.755 550.306 338.654 546.123 319.134C550.944 316.664 560.584 314.991 561.301 314.274C564.09 311.565 561.262 304.116 562.058 303.2C562.855 302.283 580.264 298.459 585.96 295.232C587.634 311.326 606.994 312.163 613.846 327.102Z" fill="#DC8FA4"/>
</g>
<defs>
<clipPath id="clip0_209_2186">
<rect width="772" height="751.165" fill="white"/>
</clipPath>
</defs>
</svg>
