<svg width="611" height="970" viewBox="0 0 611 970" fill="none" xmlns="http://www.w3.org/2000/svg">
<g clip-path="url(#clip0_209_1809)">
<path d="M406.244 245.581C400.418 249.518 391.875 246.526 394.434 257.352C407.425 259.4 472.187 270.226 473.171 282.981C473.446 286.288 429.944 290.304 425.929 292.823C425.259 293.257 435.653 303.847 421.992 300.658C420.102 299.516 411.795 300.225 406.244 296.721C400.693 293.217 388.056 289.91 382.623 284.91C356.128 260.581 366.246 225.976 406.244 245.542V245.581Z" fill="#E99200"/>
<path d="M315.697 824.298C324.043 855.518 318.335 889.808 323.571 922.72C314.713 925.712 305.462 903.193 299.95 914.846C299.556 913.665 292.234 911.146 292.116 908.941C291.801 904.532 301.446 908.744 303.572 906.776C308.493 902.13 293.336 817.252 288.179 804.654C298.178 810.047 306.367 818.157 315.737 824.338L315.697 824.298Z" fill="#769448"/>
<path d="M323.57 922.72C328.688 920.988 324.751 905.437 339.318 910.909C341.483 931.105 343.373 950.908 351.089 969.923C297.312 970.277 311.209 949.805 299.949 914.846C305.461 903.193 314.712 925.712 323.57 922.72Z" fill="#769448"/>
<path d="M343.254 840.046C343.53 840.479 343.451 843.274 343.254 843.983C342.585 846.62 336.05 849.967 335.223 861.62C334.2 875.596 337.743 896.028 339.317 910.909C324.751 905.437 328.688 920.988 323.57 922.72C318.334 889.808 324.042 855.518 315.696 824.298C320.263 827.29 342.27 838.51 343.254 840.046Z" fill="#769448"/>
<path d="M355.066 706.193C355.538 713.988 370.065 717.492 370.538 718.358C371.325 719.854 365.223 728.397 366.837 729.814C375.537 737.491 393.214 732.727 394.395 733.79C395.655 734.971 400.221 755.167 413.449 761.073C426.677 766.978 433.055 756.348 433.764 757.411C436.756 761.899 428.37 774.104 449.55 781.032C447.031 799.299 433.724 903.823 419.945 906.973C413.804 908.39 401.639 884.139 394.474 877.407C379.789 863.588 360.066 854.691 343.216 844.022C343.413 843.314 343.491 840.518 343.216 840.085C370.774 827.487 349.357 806.031 351.09 804.693C352.034 803.945 373.254 802.961 374.75 800.677C375.695 799.221 361.68 775.954 390.419 792.843C376.6 747.766 375.892 769.222 359.199 782.292C340.421 797.016 351.995 775.875 351.483 771.545C351.286 770.088 334.87 769.537 353.137 749.498C357.467 744.774 366.404 746.113 366.876 745.561C370.695 741.31 344.436 716.232 355.066 706.232V706.193Z" fill="#A3CC6B"/>
<path d="M441.678 643.203C441.953 651.037 453.882 656.824 437.78 666.785C440.103 667.296 444.827 666.115 445.615 666.824C449.355 697.256 399.12 651.549 390.617 648.872C382.113 646.195 342.745 645.683 335.304 649.029C324.792 653.793 339.201 656.706 347.193 658.95C336.564 691.075 365.5 694.461 386.562 702.256C416.679 741.506 371.208 690.996 355.067 706.193C344.437 716.192 370.696 741.27 366.877 745.522C366.405 746.073 357.468 744.734 353.138 749.459C334.91 769.458 351.327 770.009 351.484 771.505C351.996 775.836 340.461 796.976 359.201 782.253C375.893 769.182 376.601 747.726 390.42 792.803C361.681 775.914 375.696 799.22 374.751 800.638C373.255 802.921 352.075 803.905 351.091 804.653C349.358 805.992 370.775 827.448 343.217 840.046C342.233 838.51 320.226 827.29 315.659 824.298C306.289 818.117 298.101 810.007 288.101 804.614C279.755 784.142 249.126 777.961 268.417 753.435C280.66 755.679 297.707 736.31 299.872 737.687C304.518 745.207 299.912 771.387 311.643 765.127C318.375 761.545 315.974 743.711 323.493 741.624L325.501 765.206C330.816 752.057 355.776 731.782 339.28 721.94C353.768 699.972 326.958 677.493 323.533 647.14C323.257 644.581 323.73 641.864 323.533 639.266C342.548 645.132 357.941 625.644 368.885 625.133C388.845 624.227 432.623 680.327 441.638 643.203H441.678Z" fill="#A3CC6B"/>
<path d="M221.211 627.456C221.684 627.377 224.558 631.274 227.471 631.156C234.045 630.96 241.289 626.59 246.368 627.81C250.305 628.755 251.328 636.392 255.777 639.148C259.399 641.353 271.879 642.534 272.39 643.242C274.516 646.195 260.186 652.966 260.462 660.88C260.541 662.966 274.359 666.706 272.469 674.659C280.815 674.226 275.501 656.982 282.823 654.777C311.916 646.077 299.082 673.084 299.948 674.619C304.043 681.981 309.121 660.486 315.696 670.722C319.751 695.996 338.766 713.437 319.633 737.609C323.333 741.073 337.467 724.696 339.317 721.901C355.773 731.782 330.813 752.018 325.538 765.167L323.53 741.585C316.011 743.672 318.412 761.506 311.68 765.088C299.948 771.308 304.515 745.168 299.909 737.648C297.744 736.27 280.697 755.64 268.454 753.396C266.958 753.12 263.06 746.506 260.58 745.522L284.122 718.83L299.909 678.595C259.753 724.105 260.462 678.517 256.997 676.47C247.864 671.155 214.755 672.415 213.377 670.682C209.322 665.486 223.967 647.258 221.172 639.227C211.92 651.274 207.314 648.36 193.653 650.998C194.952 640.92 211.212 629.149 221.211 627.377V627.456Z" fill="#A3CC6B"/>
<path d="M347.192 658.951C339.2 656.707 324.791 653.793 335.302 649.03C342.743 645.683 382.387 646.274 390.615 648.872C398.843 651.471 449.353 697.256 445.613 666.824C465.337 684.894 450.416 687.099 451.085 692.453C456.124 733.16 454.865 742.53 449.55 780.993C428.369 774.064 436.755 761.86 433.763 757.372C433.054 756.309 426.913 766.978 413.449 761.033C399.985 755.089 395.654 734.932 394.394 733.751C393.253 732.688 375.537 737.491 366.836 729.775C365.222 728.357 371.324 719.814 370.537 718.318C370.065 717.452 355.538 713.988 355.065 706.153C371.206 690.957 416.677 741.467 386.56 702.217C388.883 703.083 394.513 700.524 397.662 702.807C402.622 706.39 398.843 727.334 427.897 722.098C456.951 716.862 440.889 682.021 429.905 694.304C428.369 696.036 432.346 706.626 427.936 706.114C422.976 705.563 406.166 678.792 398.056 673.005C381.56 661.234 364.553 663.714 347.192 658.911V658.951Z" fill="#A3CC6B"/>
<path d="M437.738 603.835V635.33C427.109 627.968 399.315 606.433 388.449 603.953C364.473 598.441 351.482 616.236 327.506 615.645C329.672 609.15 333.136 603.402 331.404 595.961C328.609 594.937 327.782 599.977 327.506 599.898C321.601 598.402 315.656 599.425 315.735 590.134C321.444 577.97 333.412 594.268 335.341 592.064C335.931 591.355 335.026 582.34 339.081 578.088C341.128 575.962 361.009 561.356 362.938 560.529C379.63 553.561 408.842 561.356 419.393 576.198C422.463 580.529 434.904 599.189 437.738 603.835Z" fill="#A3CC6B"/>
<path d="M193.655 651.077C207.316 648.439 211.922 651.352 221.173 639.306C223.969 647.337 209.323 665.565 213.378 670.761C214.717 672.493 247.865 671.194 256.999 676.548C260.463 678.596 259.755 724.184 299.91 678.674L284.124 718.909L260.581 745.601C225.78 732.019 219.481 711.862 205.072 677.887C202.434 671.667 191.489 667.808 193.655 651.116V651.077Z" fill="#A3CC6B"/>
<path d="M327.508 615.646C351.523 616.236 364.475 598.442 388.45 603.953C399.316 606.433 427.071 627.968 437.701 635.33V603.835C445.102 616 441.204 629.936 441.677 643.204C432.661 680.328 388.883 624.228 368.924 625.133C357.979 625.645 342.586 645.133 323.571 639.267C322.272 638.873 320.461 639.778 319.634 639.267C316.012 628.519 325.382 622.063 327.508 615.646Z" fill="#A3CC6B"/>
<path d="M225.149 619.582C233.18 624.66 242.668 618.637 253.888 620.369C264.478 622.023 276.013 643.793 299.95 623.519C311.445 630.211 313.571 635.487 319.634 639.266C320.461 639.778 322.271 638.872 323.571 639.266C323.767 641.864 323.295 644.581 323.571 647.14C300.934 634.542 299.831 663.793 315.658 655.013C316.287 660.092 314.91 665.879 315.658 670.761C309.083 660.525 304.004 682.02 299.91 674.658C299.044 673.084 311.878 646.077 282.785 654.817C275.423 657.021 280.777 674.265 272.431 674.698C274.321 666.706 260.502 663.005 260.423 660.919C260.148 653.006 274.439 646.234 272.352 643.282C271.84 642.573 259.361 641.431 255.739 639.187C251.251 636.432 250.266 628.794 246.33 627.849C241.29 626.629 234.007 630.959 227.433 631.195C224.519 631.274 221.645 627.416 221.173 627.495C221.094 623.991 223.22 622.141 225.11 619.621L225.149 619.582Z" fill="#A3CC6B"/>
<path d="M260.58 599.898C264.871 600.488 278.65 608.874 284.201 611.709C286.682 612.968 294.476 620.33 299.949 623.519C276.013 643.755 264.478 621.984 253.887 620.37C242.667 618.637 233.18 624.661 225.148 619.582C232.983 609.11 246.998 598.048 260.58 599.898Z" fill="#A3CC6B"/>
<path d="M347.192 658.95C364.554 663.793 381.561 661.273 398.057 673.044C406.166 678.832 422.977 705.602 427.937 706.153C432.347 706.665 428.37 696.075 429.906 694.343C440.889 682.06 455.535 717.176 427.898 722.137C398.883 727.373 402.663 706.468 397.663 702.846C394.474 700.563 388.844 703.083 386.561 702.256C365.499 694.461 336.563 691.075 347.192 658.95Z" fill="#A3CC6B"/>
<path d="M323.571 647.141C326.996 677.494 353.806 699.973 339.319 721.941C337.468 724.736 323.335 741.113 319.634 737.649C338.767 713.477 319.752 696.076 315.697 670.762C314.91 665.841 316.288 660.054 315.697 655.014C299.871 663.794 300.974 634.582 323.61 647.141H323.571Z" fill="#A3CC6B"/>
<path d="M374.75 359.749C376.404 362.623 379.829 378.174 378.648 379.394C360.105 366.718 349.2 377.386 359.554 394.59C361.837 398.37 405.969 407.11 413.961 413.015C422.386 419.196 420.89 428.605 422.622 429.904C424.984 431.676 473.25 445.1 479.549 445.809C525.02 451.163 569.703 442.738 610.962 471.91C610.883 476.674 546.791 461.596 526.91 477.619C523.248 480.571 525.177 487.303 521.634 489.784C483.604 515.964 413.725 554.663 370.774 521.121C368.727 519.546 367.191 514.113 362.9 513.247C363.136 512.539 358.215 507.145 359.278 503.72C361.365 497.146 373.254 500.61 370.695 491.713C368.136 482.815 347.861 478.918 351.129 471.95C357.782 457.738 393.175 460.73 351.129 442.384C347.113 440.612 334.397 433.762 331.917 434.983C329.949 435.927 329.634 449.588 319.674 446.281C328.965 426.44 302.863 428.133 299.989 410.889C309.359 397.189 319.162 395.653 327.547 379.394C340.027 355.261 326.878 338.766 363.255 349.671C369.12 351.443 371.876 354.671 374.79 359.71L374.75 359.749Z" fill="#A3CC6B"/>
<path d="M138.538 592.024C121.097 607.299 104.996 589.308 100.232 588.324C76.4533 583.363 33.8959 589.387 45.0766 547.735C48.1473 536.357 98.9722 479.076 105.94 477.816C108.421 477.383 153.891 477.265 156.372 477.737C166.686 479.666 164.048 493.8 177.906 489.666C162.277 496.831 142.278 502.658 143.498 523.917C143.852 530.255 150.348 533.956 150.309 542.302C150.23 556.907 137.16 563.994 135.231 571.316C132.987 579.741 138.459 585.961 138.538 592.024Z" fill="#A3CC6B"/>
<path d="M284.202 406.992L292.036 399.157C292.548 411.047 288.336 419.157 299.949 410.929C302.863 428.172 328.964 426.479 319.634 446.321C329.594 449.588 329.909 435.967 331.877 435.022C334.358 433.841 347.074 440.691 351.089 442.423C342.94 442.227 328.492 471.91 327.665 476.084C322.035 504.823 328.374 546.199 319.634 576.277C344.082 578.048 355.971 534.467 362.9 513.287C367.191 514.153 368.726 519.586 370.773 521.161C365.774 531.514 344.082 563.442 362.9 560.529C360.971 561.356 341.09 575.962 339.042 578.087C334.987 582.339 335.893 591.355 335.302 592.063C333.373 594.307 321.405 577.969 315.697 590.134C315.618 599.425 321.563 598.441 327.468 599.898C327.232 605.331 316.327 624.424 311.799 623.479C311.169 623.322 303.768 613.637 303.729 613.007C303.256 606.236 309.201 599.78 307.154 591C305.776 585.174 291.367 570.45 288.06 564.466C283.73 556.632 281.446 549.624 280.186 540.845C281.643 540.451 304.241 525.963 305.146 524.192C311.484 511.555 320.224 479.902 299.871 477.855C307.744 466.478 302.351 426.322 291.918 420.534C286.21 417.385 281.249 422.936 280.186 422.739C278.415 417.07 283.808 410.417 284.123 406.992H284.202Z" fill="#769448"/>
<path d="M181.844 489.666C171.372 552.734 201.489 521.515 205.425 525.098C206.055 525.649 204.599 535.137 209.284 539.191C212.276 541.75 215.622 534.428 229.086 548.719C224.834 550.687 159.285 604.228 156.333 607.85C151.254 614.11 149.68 635.133 144.444 635.251C135.782 635.408 138.656 599.543 138.538 592.024C138.459 585.961 132.987 579.78 135.231 571.316C137.2 563.994 150.231 556.907 150.309 542.302C150.349 533.955 143.892 530.255 143.499 523.916C142.239 502.618 162.277 496.831 177.907 489.666C179.009 489.154 180.741 490.138 181.844 489.666Z" fill="#A3CC6B"/>
<path d="M181.843 489.667C190.858 485.651 243.376 461.675 246.919 461.754C259.595 462.069 253.887 496.28 280.264 485.73C268.493 488.249 242.273 488.249 240.895 489.667C239.518 491.084 242.155 523.838 242.628 528.956C243.454 537.421 240.147 540.216 252.706 540.846C245.935 542.775 235.029 545.924 229.085 548.719C215.621 534.389 212.274 541.751 209.282 539.192C204.558 535.177 206.015 525.649 205.424 525.098C201.487 521.555 171.371 552.735 181.843 489.667Z" fill="#A3CC6B"/>
<path d="M299.949 477.855C320.303 479.903 311.563 511.555 305.225 524.192C304.319 525.964 281.722 540.452 280.265 540.845C273.218 542.774 259.636 538.877 252.707 540.845C240.148 540.215 243.455 537.42 242.629 528.956C242.117 523.838 239.518 491.083 240.896 489.666C242.274 488.249 268.494 488.249 280.265 485.729C284.95 484.745 288.847 476.714 299.949 477.855Z" fill="#A3CC6B"/>
<path d="M288.14 564.466C291.447 570.45 305.856 585.174 307.233 591C309.281 599.74 303.297 606.196 303.808 613.007C303.848 613.677 311.21 623.361 311.879 623.479C316.406 624.463 327.311 605.33 327.548 599.898C327.823 599.976 328.611 594.937 331.445 595.961C333.177 603.401 329.752 609.149 327.548 615.645C325.343 622.141 316.052 628.518 319.674 639.266C313.611 635.487 311.485 630.211 299.99 623.519C294.517 620.33 286.722 612.968 284.242 611.708L288.179 564.466H288.14Z" fill="#769448"/>
<path d="M107.044 92.0435C135.232 111.216 116.138 85.469 114.8 62.6746C110.902 -3.54333 130.272 50.8246 138.5 54.6828C177.317 72.7529 155.822 18.7786 170.27 9.60577C183.222 1.37774 195.505 28.1484 199.875 29.0145C206.017 30.1955 216.213 11.6136 225.032 17.3614C227.118 18.6999 225.859 36.652 234.874 33.0301C237.079 32.1246 256.409 -8.18882 268.416 1.61395C269.912 2.83438 249.007 24.4083 278.967 28.2271C299.281 30.8254 343.767 -29.0542 327.508 44.88C334.516 26.298 401.127 27.1248 388.293 40.9038C372.073 58.3047 346.169 75.0363 331.406 96.0197C347.586 95.3505 403.175 53.0687 414.08 60.6668C405.734 76.5323 399.946 94.8781 394.395 111.807C356.72 85.154 348.334 119.405 327.469 135.428C300.777 155.939 316.209 107.87 280.227 135.428C279.597 130.349 280.502 124.838 280.227 119.68C279.833 111.846 280.817 103.854 280.227 96.0591C273.849 14.015 261.093 72.3199 250.031 75.9812C232.315 81.8864 239.008 53.0687 197.789 78.5795C174.01 93.3033 186.096 106.964 154.287 76.3748C162.475 122.318 132.673 104.327 119.406 112.397C114.839 115.153 112.123 151.726 99.1312 155.112C97.0053 151.648 95.4699 148.616 91.2575 147.238C91.0607 145.939 91.4543 144.601 91.2575 143.301C90.7063 139.758 85.5097 131.727 83.3838 127.554C109.446 118.46 99.9186 115.389 107.005 92.1223L107.044 92.0435Z" fill="#FCD200"/>
<path d="M71.6111 273.139C72.3984 277.43 70.43 291.563 71.6111 292.823C74.3669 295.736 84.4846 289.28 87.3191 288.886C107.043 286.209 114.798 282.666 134.561 288.886C154.639 305.657 136.727 326.877 138.498 328.216C139.837 329.278 148.458 326.838 149.955 328.491C156.214 335.42 136.687 355.38 170.032 344.002C158.931 353.057 144.797 386.52 156.214 387.268C159.954 387.505 220.424 353.529 221.212 349.829C225.07 331.68 189.362 353.411 185.78 336.089C189.677 334.514 193.299 332.546 197.59 332.152C211.566 333.412 219.794 331.956 229.085 332.152C234.439 332.27 241.329 330.893 246.014 332.152C248.651 332.861 249.636 346.168 256.643 339.987C257.076 339.593 251.683 329.2 258.69 328.216C261.761 327.782 273.965 328.727 276.328 328.216C279.871 343.215 256.643 358.411 244.833 363.647C244.4 363.844 240.384 358.411 236.132 360.34C217.59 368.686 190.425 377.19 186.41 398.016C180.032 430.967 206.763 405.417 212.275 403.843C219.519 401.795 226.408 403.803 232.983 403.016C224.873 411.086 218.613 432.857 210.464 438.566C201.016 445.179 187.394 442.266 181.804 444.983C177.001 447.305 153.734 470.179 150.348 465.966C149.364 441.203 142.593 419.905 150.309 395.142L79.4848 410.85C75.3905 406.992 90.9804 392.544 91.3347 389.158C91.6497 386.245 83.5791 387.623 83.4216 387.268C81.7288 383.883 81.4532 375.143 75.9022 370.064L109.051 336.089C115.074 346.286 98.8541 345.577 96.9251 355.38C94.8385 365.734 100.941 393.961 114.916 389.355C117.436 388.528 146.057 363.647 146.411 361.561C147.71 353.49 137.238 354.907 134.798 348.766C129.719 336.129 136.057 309.948 134.64 308.571C131.136 305.146 113.617 314.515 111.058 312.429C109.169 310.893 130.979 295.225 116.885 292.784C102.791 290.343 64.2885 322.113 55.9424 280.973C59.8792 278.336 63.7767 275.737 67.7529 273.1C68.6584 272.509 70.7843 273.69 71.6898 273.1L71.6111 273.139Z" fill="#F3BA01"/>
<path d="M55.8639 281.012C64.2101 322.152 102.279 290.264 116.806 292.823C131.333 295.382 109.09 310.932 110.98 312.468C113.578 314.554 131.058 305.185 134.562 308.61C136.018 310.027 129.68 336.168 134.719 348.805C137.16 354.946 147.632 353.529 146.333 361.6C145.979 363.686 117.358 388.607 114.838 389.394C100.862 394 94.7601 365.773 96.8466 355.419C98.815 345.616 115.035 346.325 108.972 336.128L75.8238 370.103C81.3748 375.182 81.6503 383.922 83.3432 387.307C-1.61417 420.771 61.9267 355.97 56.1001 334.554C55.5096 332.349 17.7945 318.098 16.456 316.365C6.14143 303.137 49.1713 285.461 55.7852 281.012H55.8639Z" fill="#FCDA00"/>
<path d="M374.749 143.223C409.354 123.736 456.4 145.94 410.221 162.947C425.496 172.435 411.795 170.702 402.347 180.623C410.654 185.702 422.07 172.356 425.929 186.529C426.165 187.355 420.456 193.261 421.992 194.363C429.708 199.874 473.407 195.701 473.171 229.834C451.597 227.629 437.66 230.424 418.094 237.747C408.528 239.361 389.631 236.29 383.371 229.204C382.584 228.299 386.954 222.236 386.639 222.039C385.34 221.212 358.451 214.795 356.955 215.071C346.443 216.96 343.176 254.4 327.586 233.81C332.861 212.394 324.082 217.275 343.333 198.378C346.05 195.701 353.845 187.513 355.144 186.568C357.585 184.718 378.883 180.033 378.686 172.789C378.332 161.175 328.924 169.128 374.828 143.262L374.749 143.223Z" fill="#FACC01"/>
<path d="M173.969 131.412C175.269 136.451 180.032 152.317 177.867 155.033C176.489 156.805 169.403 147.12 166.096 155.033C165.387 156.765 166.568 160.505 166.096 162.907C165.82 162.789 162.474 166.804 160.702 165.86C124.326 146.018 141.687 160.584 142.475 194.362C108.303 177.985 115.074 208.102 123.066 230.818C124.562 235.03 129.759 232.353 130.743 235.778C133.538 245.62 111.767 237.943 130.703 253.455C136.451 258.179 157.553 264.871 142.593 275.186C128.932 284.595 90.9018 264.36 87.398 288.886C84.5635 289.28 74.4458 295.697 71.69 292.823C70.4695 291.563 72.438 277.469 71.69 273.139C72.0836 272.863 70.9026 267.864 72.7529 266.486C78.1858 262.47 87.8704 264.714 93.2246 257.273C94.5631 255.423 103.185 222.117 103.027 219.676C102.161 208.22 79.9574 205.071 75.6268 194.441C76.9653 193.772 78.1464 191.488 79.5637 190.504C99.9172 176.607 88.1854 171.332 87.5949 153.419C87.5161 150.506 91.4136 147.75 91.3742 147.199C95.5867 148.577 97.1221 151.608 99.248 155.073C103.5 161.883 105.626 169.875 113.027 174.678C124.326 134.876 126.058 117.161 174.048 131.451L173.969 131.412Z" fill="#F5AA00"/>
<path d="M382.622 284.949C388.055 289.949 400.692 293.256 406.243 296.76C392.819 302.39 401.204 315.027 396.519 324.712C392.149 333.727 379.197 311.838 378.685 347.939C378.607 352.781 390.22 361.757 374.748 359.75C371.835 354.71 369.079 351.443 363.213 349.711C326.837 338.805 339.986 355.301 327.506 379.434C314.711 359.238 301.484 354.514 303.885 328.255C306.405 300.579 313.491 312.783 322.624 307.744C323.766 307.114 334.435 287.115 335.38 284.949C351.954 273.139 372.938 305.027 382.622 284.949Z" fill="#FCDC00"/>
<path d="M75.5482 194.401C79.8788 205.07 102.083 208.18 102.949 219.637C103.146 222.077 94.4845 255.383 93.146 257.234C87.7918 264.714 78.1072 262.43 72.6743 266.446C70.824 267.824 72.005 272.824 71.6114 273.099C70.7059 273.69 68.58 272.509 67.6745 273.099C60.5094 263.1 3.81871 252.234 0.787329 249.439C-3.50384 245.462 12.0074 233.022 11.6137 227.747C11.22 222.471 -1.9291 218.731 0.787329 210.109C20.0779 211.645 58.2261 202.787 75.5482 194.323V194.401Z" fill="#FCD201"/>
<path d="M327.506 233.771C343.096 254.321 346.364 216.882 356.875 215.031C358.371 214.756 385.299 221.212 386.559 222C386.874 222.196 382.504 228.259 383.292 229.165C389.551 236.251 408.487 239.322 418.015 237.708C417.345 237.944 408.448 244.046 406.204 245.581C366.206 226.015 356.088 260.62 382.583 284.95C372.898 305.028 351.915 273.139 335.341 284.95C347.821 255.463 320.892 274.832 319.633 273.139C317.664 270.502 326.05 239.479 327.467 233.771H327.506Z" fill="#E99200"/>
<path d="M296.012 324.318C267.51 338.057 297.272 362.545 296.052 369.552C295.264 374.158 285.344 368.607 283.887 373.725C281.919 380.615 285.068 397.504 284.163 407.031C283.848 410.456 278.454 417.109 280.226 422.779C275.187 421.991 270.502 424.314 264.636 420.771C263.376 420.023 245.227 400.575 244.794 399.157C242.274 391.126 246.526 373.45 244.794 363.726C256.605 358.49 279.832 343.293 276.289 328.294C284.163 326.562 280.029 318.806 295.973 324.357L296.012 324.318Z" fill="#FCE100"/>
<path d="M394.433 111.728C393.803 113.696 394.866 117.16 394.433 119.601C392.859 119.759 372.544 138.104 374.749 143.222C328.806 169.088 378.253 161.135 378.607 172.749C378.843 179.993 357.545 184.677 355.065 186.528C366.797 171.253 344.475 164.875 343.49 160.663C341.483 152.12 366.521 136.845 327.507 139.286V135.349C348.372 119.326 356.758 85.075 394.433 111.728Z" fill="#E39000"/>
<path d="M91.2961 143.222C91.4929 144.521 91.0993 145.86 91.2961 147.159C91.3748 147.71 87.438 150.466 87.5167 153.379C88.0679 171.292 99.7997 176.567 79.4855 190.465C43.3452 177.394 38.3848 164.166 40.1563 127.475L91.2961 143.222Z" fill="#FBC500"/>
<path d="M244.833 363.687C246.565 373.411 242.314 391.087 244.833 399.118C240.778 398.882 235.975 402.701 233.023 403.055C226.409 403.803 219.559 401.795 212.315 403.882C206.803 405.457 180.033 431.046 186.45 398.055C190.505 377.229 217.63 368.726 236.172 360.38C240.424 358.451 244.44 363.884 244.873 363.687H244.833Z" fill="#E58F00"/>
<path d="M421.991 300.697C423.29 301.484 441.478 322.074 439.786 324.357C429.432 338.412 395.22 344.829 378.686 347.939C379.197 311.838 392.11 333.727 396.519 324.711C401.204 315.027 392.819 302.389 406.244 296.76C411.795 300.264 420.101 299.555 421.991 300.697Z" fill="#E6A903"/>
<path d="M394.434 119.601C396.442 119.405 431.086 126.412 433.96 129.404C440.377 136.057 436.519 139.797 433.842 147.12C458.408 132.632 436.716 177.394 425.968 186.528C422.11 172.395 410.654 185.741 402.387 180.623C411.835 170.662 425.535 172.434 410.26 162.946C456.44 145.9 409.394 123.735 374.789 143.222C372.585 138.105 392.899 119.759 394.473 119.601H394.434Z" fill="#EAAA0F"/>
<path d="M107.044 92.0439C99.9582 115.311 109.485 118.382 83.4234 127.476C76.652 114.208 58.0306 99.8783 65.4319 80.0365C81.888 69.0527 95.6276 84.2883 107.044 92.0439Z" fill="#FCDD03"/>
<path d="M303.887 328.255C301.485 354.513 314.713 359.238 327.508 379.434C319.122 395.693 309.319 397.228 299.95 410.928C288.336 419.117 292.509 411.007 292.037 399.157L284.202 406.992C285.108 397.504 281.958 380.615 283.927 373.686C285.383 368.568 295.304 374.158 296.092 369.513C297.273 362.505 267.51 338.018 296.052 324.278C298.769 325.223 301.249 327.152 303.926 328.215L303.887 328.255Z" fill="#EFB000"/>
<path d="M280.265 95.9809C264.714 88.4221 205.701 84.7609 221.212 111.689C209.48 115.035 213.023 97.0438 203.693 100.036C196.056 102.477 190.072 119.445 187.434 119.917C177.552 121.689 167.828 105.666 166.175 107.791C161.214 114.248 173.34 125.035 174.009 127.476C174.364 128.696 173.694 130.192 174.009 131.413C126.019 117.122 124.287 134.838 112.988 174.639C105.587 169.836 103.461 161.884 99.209 155.034C112.201 151.648 114.917 115.075 119.484 112.319C132.751 104.248 162.553 122.24 154.364 76.2966C186.174 106.886 174.127 93.2251 197.867 78.5013C239.085 52.9904 232.393 81.8082 250.109 75.9029C261.132 72.2023 273.887 13.9368 280.304 95.9809H280.265Z" fill="#FBC500"/>
<path d="M173.969 127.475C211.999 154.088 187.709 132.278 217.235 119.602L225.07 143.183C229.991 105.153 237.983 92.1617 244.872 139.246L248.809 115.665L256.683 139.246L260.62 115.665L280.265 119.602C280.54 124.759 279.635 130.27 280.265 135.349C281.052 141.53 279.792 146.884 286.209 151.057C293.295 125.389 310.815 138.026 299.949 162.907C299.122 162.277 291.248 163.222 286.012 159.285C278.65 153.734 277.076 143.656 276.249 143.223C274.28 142.238 268.572 150.585 262.312 151.214C242.589 153.144 216.33 149.6 193.496 156.687C181.095 160.545 190.15 177.473 166.096 155.073C169.403 147.16 176.489 156.844 177.867 155.073C180.032 152.356 175.269 136.491 173.969 131.451C173.654 130.231 174.324 128.735 173.969 127.515V127.475Z" fill="#D96C00"/>
<path d="M280.264 95.9806C280.855 103.776 279.871 111.767 280.264 119.602L260.62 115.665L256.683 139.247L248.809 115.665L244.872 139.247C237.983 92.1619 229.991 105.154 225.07 143.184L217.235 119.602C187.709 132.278 211.999 154.089 173.969 127.475C173.3 125.035 161.175 114.287 166.135 107.791C167.789 105.665 177.513 121.649 187.394 119.917C190.032 119.444 196.016 102.476 203.653 100.036C212.984 97.083 209.48 115.035 221.172 111.689C205.661 84.7212 264.714 88.3825 280.225 95.9806H280.264Z" fill="#F3A400"/>
<path d="M280.265 135.349C316.248 107.791 300.815 155.86 327.507 135.349V139.285C328.097 151.017 326.68 163.025 327.507 174.717L315.736 190.464C319.673 170.82 310.854 176.449 303.886 170.78C303.335 170.347 303.453 165.662 299.949 162.907C310.775 138.065 293.296 125.428 286.209 151.057C279.792 146.844 281.052 141.529 280.265 135.349Z" fill="#EC9300"/>
<path d="M303.885 170.78C310.854 176.449 319.672 170.78 315.735 190.465L327.506 174.717C329.514 202.944 332.349 184.52 343.293 190.465C343.844 190.78 342.978 196.134 343.293 198.338C324.042 217.235 332.821 212.353 327.546 233.77C326.129 239.478 317.743 270.501 319.711 273.139C320.971 274.831 347.899 255.462 335.42 284.949C334.514 287.114 323.845 307.114 322.664 307.743C313.491 312.783 306.405 300.578 303.925 328.254C301.248 327.192 298.767 325.262 296.051 324.318C280.107 318.767 284.24 326.522 276.367 328.254C273.965 328.766 261.8 327.821 258.73 328.254C251.722 329.239 257.155 339.632 256.682 340.026C249.675 346.207 248.691 332.9 246.053 332.191C241.368 330.932 234.479 332.309 229.124 332.191C212.865 316.483 185.307 324.436 176.607 307.389C174.127 302.586 177.748 295.697 176.056 292.626C174.127 289.083 167.985 292.547 167.001 291.524C163.497 287.862 161.844 281.13 158.222 277.075C172.709 288.886 174.008 263.729 173.654 255.305C173.182 243.848 168.851 254.832 166.332 253.218C165.82 252.903 161.804 242.274 162.119 241.722C162.71 240.738 180.111 239.124 181.803 229.833C189.598 242.234 199.047 240.463 205.425 245.581C219.007 256.446 209.558 262.942 228.219 264.359C249.163 265.934 242.982 261.131 248.73 253.454L260.541 265.225C253.179 241.368 271.328 248.769 288.099 249.478C249.832 226.408 265.422 223.692 299.909 216.093L268.454 216.251C261.643 214.361 271.446 195.897 272.391 194.441C273.729 192.354 288.925 175.308 290.106 174.756C291.209 174.245 303.531 199.716 303.885 170.82V170.78Z" fill="#904508"/>
<path d="M138.539 245.581C162.397 249.675 149.326 275.304 150.428 276.957C151.176 278.099 157.554 276.327 158.223 277.075C161.806 281.13 163.499 287.862 167.003 291.524C167.987 292.547 174.089 289.083 176.057 292.626C177.75 295.697 174.128 302.586 176.609 307.389C185.309 324.436 212.867 316.483 229.126 332.191C219.835 331.995 211.607 333.451 197.631 332.191C196.096 332.034 192.317 326.64 184.325 328.058C178.695 329.042 169.365 339.238 166.176 336.089C155.546 325.696 178.301 325.144 177.947 320.42C158.657 324.633 169.64 310.263 165.507 305.303C163.971 303.452 139.878 290.5 134.642 288.886C114.879 282.666 107.123 286.209 87.3994 288.886C90.9032 264.359 128.933 284.595 142.594 275.186C157.554 264.871 136.453 258.178 130.705 253.454C131.728 249.006 136.453 247.825 138.579 245.581H138.539Z" fill="#D57201"/>
<path d="M185.78 336.128C189.323 353.411 225.069 331.68 221.211 349.868C220.424 353.529 159.993 387.544 156.214 387.307C144.758 386.559 158.891 353.096 170.032 344.041C175.741 339.396 179.559 338.648 185.78 336.168V336.128Z" fill="#FCDA00"/>
<path d="M134.602 288.886C139.799 290.54 163.931 303.452 165.467 305.303C169.601 310.224 158.617 324.633 177.907 320.42C178.262 325.184 155.507 325.696 166.136 336.089C169.325 339.239 178.655 329.042 184.285 328.058C192.316 326.641 196.096 332.034 197.592 332.192C193.3 332.585 189.678 334.554 185.781 336.128C179.561 338.609 175.742 339.357 170.034 344.002C136.688 355.38 156.255 335.38 149.956 328.491C148.46 326.837 139.838 329.278 138.499 328.215C136.767 326.877 154.68 305.657 134.562 288.886H134.602Z" fill="#F5AA00"/>
<path d="M327.507 139.286C366.482 136.845 341.483 152.12 343.49 160.663C344.475 164.875 366.836 171.253 355.065 186.528C353.766 187.473 345.971 195.662 343.254 198.339C342.979 196.134 343.845 190.78 343.254 190.465C332.31 184.52 329.475 202.945 327.467 174.718C326.641 163.025 328.058 151.018 327.467 139.286H327.507Z" fill="#D05A00"/>
<path d="M299.95 162.907C303.454 165.663 303.336 170.348 303.887 170.781C303.572 199.677 291.249 174.245 290.108 174.718C288.887 175.269 273.73 192.316 272.392 194.402C259.558 192.119 260.503 173.93 248.771 190.465L240.858 174.718L231.055 186.568C227.709 166.647 212.119 172.749 217.237 194.363L209.442 182.592C211.843 203.339 191.175 194.245 181.844 208.181C212.079 215.228 169.207 209.716 181.844 229.794C180.151 239.046 162.75 240.7 162.16 241.684C161.845 242.196 165.861 252.825 166.372 253.179C168.853 254.793 173.222 243.81 173.695 255.266C174.049 263.691 172.75 288.847 158.262 277.037C157.593 276.289 151.255 278.021 150.467 276.919C149.365 275.265 162.396 249.676 138.578 245.542C144.05 239.755 157.318 230.464 157.947 229.361C160.073 225.543 143.578 210.464 162.869 194.953C163.853 194.166 169.089 199.717 170.034 198.26C171.569 195.898 165.546 188.576 166.451 186.804C167.081 185.662 177.317 184.166 177.868 180.584C178.025 179.521 169.482 164.403 166.136 162.829C166.609 160.427 165.427 156.687 166.136 154.955C190.19 177.356 181.136 160.427 193.537 156.569C216.37 149.483 242.669 153.065 262.353 151.097C268.612 150.467 274.321 142.121 276.289 143.105C277.116 143.538 278.73 153.616 286.053 159.167C291.289 163.104 299.162 162.12 299.989 162.789L299.95 162.907Z" fill="#AD5505"/>
<path d="M166.097 162.907C169.443 164.521 177.986 179.638 177.828 180.662C177.277 184.244 167.041 185.701 166.412 186.882C165.467 188.614 171.529 195.976 169.994 198.338C169.049 199.756 163.774 194.244 162.829 195.031C143.538 210.503 160.034 225.621 157.908 229.44C157.278 230.542 144.011 239.833 138.539 245.62C136.413 247.864 131.688 249.045 130.665 253.494C111.768 237.982 133.539 245.659 130.704 235.817C129.72 232.392 124.523 235.069 123.027 230.857C115.075 208.18 108.304 178.064 142.436 194.402C141.688 160.623 124.287 146.057 160.664 165.899C162.396 166.844 165.782 162.828 166.057 162.946L166.097 162.907Z" fill="#E07B00"/>
<path d="M181.844 229.833C169.207 209.755 212.118 215.267 181.844 208.22C191.174 194.283 211.803 203.377 209.441 182.63L217.236 194.401C212.118 172.749 227.708 166.647 231.055 186.606L240.857 174.757L248.771 190.504C247.038 192.945 246.251 202.275 244.794 206.212C235.228 189.362 229.362 209.873 213.378 202.315C210.977 211.842 218.654 210.424 225.149 214.125L205.465 245.62C199.087 240.502 189.639 242.274 181.844 229.873V229.833Z" fill="#823903"/>
<path d="M248.77 190.465C260.502 173.93 259.557 192.119 272.391 194.402C271.446 195.859 261.643 214.322 268.454 216.212L299.91 216.055C265.423 223.653 249.833 226.369 288.099 249.439C271.328 248.77 253.218 241.329 260.541 265.187L248.73 253.415C250.856 250.541 256.722 250.541 257.037 243.495C257.116 241.999 253.966 214.795 252.667 214.086C241.762 208.102 240.384 222.039 238.888 221.96C235.148 221.802 237.825 215.818 236.211 215.267C233.18 214.244 229.4 216.448 225.109 214.007C218.614 210.307 210.937 211.763 213.338 202.197C229.322 209.756 235.188 189.245 244.754 206.094C246.25 202.158 246.998 192.827 248.73 190.386L248.77 190.465Z" fill="#662D03"/>
<path d="M225.149 214.087C229.44 216.527 233.22 214.323 236.251 215.346C237.865 215.898 235.188 221.882 238.928 222.039C240.424 222.078 241.802 208.142 252.707 214.165C254.006 214.874 257.156 242.078 257.077 243.574C256.762 250.621 250.896 250.621 248.77 253.494C243.062 261.171 249.243 265.974 228.259 264.4C209.559 262.982 219.008 256.487 205.465 245.621L225.149 214.126V214.087Z" fill="#271306"/>
</g>
<defs>
<clipPath id="clip0_209_1809">
<rect width="611" height="969.963" fill="white"/>
</clipPath>
</defs>
</svg>
